M48
; DRILL file {KiCad (5.1.12)-1} date 12/13/22 06:15:58
; FORMAT={-:-/ absolute / inch / decimal}
; #@! TF.CreationDate,2022-12-13T06:15:58+01:00
; #@! TF.GenerationSoftware,Kicad,Pcbnew,(5.1.12)-1
; #@! TF.FileFunction,Plated,1,2,PTH
FMAT,2
INCH
T1C0.0295
T2C0.0315
T3C0.0354
T4C0.0394
T5C0.0472
T6C0.0512
%
G90
G05
T1
X4.9606Y-2.5142
X4.9606Y-2.5642
X4.9606Y-2.6142
T2
X2.1181Y-2.9252
X2.1181Y-3.063
X2.2969Y-2.4803
X2.3772Y-2.6764
X2.3772Y-2.7764
X2.3772Y-2.8764
X2.3772Y-2.9764
X2.6772Y-2.6764
X2.6772Y-2.7764
X2.6772Y-2.8764
X2.6772Y-2.9764
X2.6969Y-2.4803
X2.8339Y-2.4803
X2.8346Y-2.6772
X2.8819Y-2.8898
X3.0787Y-2.8898
X3.1339Y-2.4803
X3.1346Y-2.6772
X3.8189Y-2.8937
X3.8189Y-2.9937
X3.8189Y-3.0937
X4.6969Y-2.4205
X4.6969Y-2.7205
T3
X2.8228Y-3.0945
X3.1228Y-3.0945
T4
X3.4567Y-2.4409
X3.4567Y-2.6378
X4.189Y-2.8937
X4.189Y-3.0906
X4.3898Y-2.4843
X4.3898Y-2.6811
X4.6457Y-2.8937
X4.6457Y-3.0906
T5
X3.3071Y-3.0118
X3.5039Y-3.0118
X3.9291Y-2.4409
X3.9291Y-2.6378
T6
X2.0669Y-2.5079
X2.0669Y-2.7047
X5.0315Y-2.7913
X5.0315Y-2.9882
T0
M30
