%TF.GenerationSoftware,KiCad,Pcbnew,(5.1.12)-1*%
%TF.CreationDate,2022-12-12T19:03:57+01:00*%
%TF.ProjectId,MC34063_invert,4d433334-3036-4335-9f69-6e766572742e,rev?*%
%TF.SameCoordinates,Original*%
%TF.FileFunction,Copper,L1,Top*%
%TF.FilePolarity,Positive*%
%FSLAX46Y46*%
G04 Gerber Fmt 4.6, Leading zero omitted, Abs format (unit mm)*
G04 Created by KiCad (PCBNEW (5.1.12)-1) date 2022-12-12 19:03:57*
%MOMM*%
%LPD*%
G01*
G04 APERTURE LIST*
%TA.AperFunction,ComponentPad*%
%ADD10C,1.600000*%
%TD*%
%TA.AperFunction,ComponentPad*%
%ADD11R,1.800000X1.800000*%
%TD*%
%TA.AperFunction,ComponentPad*%
%ADD12O,1.800000X1.800000*%
%TD*%
%TA.AperFunction,ComponentPad*%
%ADD13C,2.600000*%
%TD*%
%TA.AperFunction,ComponentPad*%
%ADD14R,2.600000X2.600000*%
%TD*%
%TA.AperFunction,SMDPad,CuDef*%
%ADD15C,0.100000*%
%TD*%
%TA.AperFunction,ComponentPad*%
%ADD16C,2.400000*%
%TD*%
%TA.AperFunction,ComponentPad*%
%ADD17O,1.600000X1.600000*%
%TD*%
%TA.AperFunction,ComponentPad*%
%ADD18C,1.440000*%
%TD*%
%TA.AperFunction,ComponentPad*%
%ADD19R,1.600000X1.600000*%
%TD*%
%TA.AperFunction,ComponentPad*%
%ADD20R,2.000000X2.000000*%
%TD*%
%TA.AperFunction,ComponentPad*%
%ADD21C,2.000000*%
%TD*%
%TA.AperFunction,ComponentPad*%
%ADD22O,1.500000X1.050000*%
%TD*%
%TA.AperFunction,ComponentPad*%
%ADD23R,1.500000X1.050000*%
%TD*%
%TA.AperFunction,Conductor*%
%ADD24C,1.000000*%
%TD*%
G04 APERTURE END LIST*
D10*
%TO.P,C2,1*%
%TO.N,Net-(C2-Pad1)*%
X73200000Y-73400000D03*
%TO.P,C2,2*%
%TO.N,Net-(C2-Pad2)*%
X78200000Y-73400000D03*
%TD*%
D11*
%TO.P,D1,1*%
%TO.N,Net-(D1-Pad1)*%
X79200000Y-79100000D03*
D12*
%TO.P,D1,2*%
%TO.N,Net-(C2-Pad2)*%
X71580000Y-79100000D03*
%TD*%
D13*
%TO.P,J1,2*%
%TO.N,GND*%
X52500000Y-63700000D03*
D14*
%TO.P,J1,1*%
%TO.N,Net-(C1-Pad1)*%
X52500000Y-68700000D03*
%TD*%
%TO.P,J2,1*%
%TO.N,Net-(C6-Pad2)*%
X127800000Y-70900000D03*
D13*
%TO.P,J2,2*%
%TO.N,GND*%
X127800000Y-75900000D03*
%TD*%
%TA.AperFunction,SMDPad,CuDef*%
D15*
%TO.P,JP1,1*%
%TO.N,Net-(C4-Pad2)*%
G36*
X124850000Y-61650000D02*
G01*
X124350000Y-61650000D01*
X124350000Y-61649398D01*
X124325466Y-61649398D01*
X124276635Y-61644588D01*
X124228510Y-61635016D01*
X124181555Y-61620772D01*
X124136222Y-61601995D01*
X124092949Y-61578864D01*
X124052150Y-61551604D01*
X124014221Y-61520476D01*
X123979524Y-61485779D01*
X123948396Y-61447850D01*
X123921136Y-61407051D01*
X123898005Y-61363778D01*
X123879228Y-61318445D01*
X123864984Y-61271490D01*
X123855412Y-61223365D01*
X123850602Y-61174534D01*
X123850602Y-61150000D01*
X123850000Y-61150000D01*
X123850000Y-60650000D01*
X123850602Y-60650000D01*
X123850602Y-60625466D01*
X123855412Y-60576635D01*
X123864984Y-60528510D01*
X123879228Y-60481555D01*
X123898005Y-60436222D01*
X123921136Y-60392949D01*
X123948396Y-60352150D01*
X123979524Y-60314221D01*
X124014221Y-60279524D01*
X124052150Y-60248396D01*
X124092949Y-60221136D01*
X124136222Y-60198005D01*
X124181555Y-60179228D01*
X124228510Y-60164984D01*
X124276635Y-60155412D01*
X124325466Y-60150602D01*
X124350000Y-60150602D01*
X124350000Y-60150000D01*
X124850000Y-60150000D01*
X124850000Y-61650000D01*
G37*
%TD.AperFunction*%
%TA.AperFunction,SMDPad,CuDef*%
%TO.P,JP1,2*%
%TO.N,Net-(C6-Pad2)*%
G36*
X125650000Y-60150602D02*
G01*
X125674534Y-60150602D01*
X125723365Y-60155412D01*
X125771490Y-60164984D01*
X125818445Y-60179228D01*
X125863778Y-60198005D01*
X125907051Y-60221136D01*
X125947850Y-60248396D01*
X125985779Y-60279524D01*
X126020476Y-60314221D01*
X126051604Y-60352150D01*
X126078864Y-60392949D01*
X126101995Y-60436222D01*
X126120772Y-60481555D01*
X126135016Y-60528510D01*
X126144588Y-60576635D01*
X126149398Y-60625466D01*
X126149398Y-60650000D01*
X126150000Y-60650000D01*
X126150000Y-61150000D01*
X126149398Y-61150000D01*
X126149398Y-61174534D01*
X126144588Y-61223365D01*
X126135016Y-61271490D01*
X126120772Y-61318445D01*
X126101995Y-61363778D01*
X126078864Y-61407051D01*
X126051604Y-61447850D01*
X126020476Y-61485779D01*
X125985779Y-61520476D01*
X125947850Y-61551604D01*
X125907051Y-61578864D01*
X125863778Y-61601995D01*
X125818445Y-61620772D01*
X125771490Y-61635016D01*
X125723365Y-61644588D01*
X125674534Y-61649398D01*
X125650000Y-61649398D01*
X125650000Y-61650000D01*
X125150000Y-61650000D01*
X125150000Y-60150000D01*
X125650000Y-60150000D01*
X125650000Y-60150602D01*
G37*
%TD.AperFunction*%
%TD*%
D16*
%TO.P,L1,1*%
%TO.N,Net-(D1-Pad1)*%
X84000000Y-77000000D03*
%TO.P,L1,2*%
%TO.N,GND*%
X89000000Y-77000000D03*
%TD*%
%TO.P,L2,2*%
%TO.N,Net-(C4-Pad2)*%
X99800000Y-67000000D03*
%TO.P,L2,1*%
%TO.N,Net-(C2-Pad2)*%
X99800000Y-62000000D03*
%TD*%
D10*
%TO.P,R1,1*%
%TO.N,Net-(R1-Pad1)*%
X68500000Y-63000000D03*
D17*
%TO.P,R1,2*%
%TO.N,Net-(C1-Pad1)*%
X58340000Y-63000000D03*
%TD*%
D10*
%TO.P,R2,1*%
%TO.N,GND*%
X79600000Y-63000000D03*
D17*
%TO.P,R2,2*%
%TO.N,Net-(R2-Pad2)*%
X71980000Y-63000000D03*
%TD*%
D10*
%TO.P,R4,1*%
%TO.N,Net-(R2-Pad2)*%
X72000000Y-68000000D03*
D17*
%TO.P,R4,2*%
%TO.N,Net-(R4-Pad2)*%
X79620000Y-68000000D03*
%TD*%
%TO.P,R5,2*%
%TO.N,Net-(C4-Pad2)*%
X119300000Y-61480000D03*
D10*
%TO.P,R5,1*%
%TO.N,Net-(C5-Pad2)*%
X119300000Y-69100000D03*
%TD*%
D18*
%TO.P,RV1,1*%
%TO.N,Net-(R4-Pad2)*%
X97000000Y-74000000D03*
%TO.P,RV1,2*%
%TO.N,Net-(C2-Pad2)*%
X97000000Y-76540000D03*
%TO.P,RV1,3*%
%TO.N,N/C*%
X97000000Y-79080000D03*
%TD*%
D19*
%TO.P,U1,1*%
%TO.N,Net-(R1-Pad1)*%
X67600000Y-75600000D03*
D17*
%TO.P,U1,5*%
%TO.N,Net-(R2-Pad2)*%
X59980000Y-67980000D03*
%TO.P,U1,2*%
%TO.N,Net-(D1-Pad1)*%
X67600000Y-73060000D03*
%TO.P,U1,6*%
%TO.N,Net-(C1-Pad1)*%
X59980000Y-70520000D03*
%TO.P,U1,3*%
%TO.N,Net-(C2-Pad1)*%
X67600000Y-70520000D03*
%TO.P,U1,7*%
%TO.N,Net-(R1-Pad1)*%
X59980000Y-73060000D03*
%TO.P,U1,4*%
%TO.N,Net-(C2-Pad2)*%
X67600000Y-67980000D03*
%TO.P,U1,8*%
%TO.N,Net-(R1-Pad1)*%
X59980000Y-75600000D03*
%TD*%
D20*
%TO.P,C3,1*%
%TO.N,GND*%
X87800000Y-62000000D03*
D21*
%TO.P,C3,2*%
%TO.N,Net-(C2-Pad2)*%
X87800000Y-67000000D03*
%TD*%
%TO.P,C4,2*%
%TO.N,Net-(C4-Pad2)*%
X106400000Y-79000000D03*
D20*
%TO.P,C4,1*%
%TO.N,GND*%
X106400000Y-74000000D03*
%TD*%
D21*
%TO.P,C5,2*%
%TO.N,Net-(C5-Pad2)*%
X111500000Y-68100000D03*
D20*
%TO.P,C5,1*%
%TO.N,GND*%
X111500000Y-63100000D03*
%TD*%
%TO.P,C6,1*%
%TO.N,GND*%
X118000000Y-74000000D03*
D21*
%TO.P,C6,2*%
%TO.N,Net-(C6-Pad2)*%
X118000000Y-79000000D03*
%TD*%
D19*
%TO.P,C1,1*%
%TO.N,Net-(C1-Pad1)*%
X53500000Y-74800000D03*
D10*
%TO.P,C1,2*%
%TO.N,GND*%
X53500000Y-78300000D03*
%TD*%
D22*
%TO.P,Q1,2*%
%TO.N,Net-(C5-Pad2)*%
X126000000Y-65170000D03*
%TO.P,Q1,3*%
%TO.N,Net-(C6-Pad2)*%
X126000000Y-66440000D03*
D23*
%TO.P,Q1,1*%
%TO.N,Net-(C4-Pad2)*%
X126000000Y-63900000D03*
%TD*%
D24*
%TO.N,Net-(C1-Pad1)*%
X56480000Y-70520000D02*
X59980000Y-70520000D01*
X53800000Y-73200000D02*
X56480000Y-70520000D01*
X56480000Y-64860000D02*
X58340000Y-63000000D01*
X56480000Y-70520000D02*
X56480000Y-64860000D01*
X54660000Y-68700000D02*
X56480000Y-70520000D01*
X52500000Y-68700000D02*
X54660000Y-68700000D01*
X53500000Y-73500000D02*
X53800000Y-73200000D01*
X53500000Y-74800000D02*
X53500000Y-73500000D01*
%TO.N,Net-(C2-Pad1)*%
X73200000Y-73400000D02*
X73200000Y-72900000D01*
X73200000Y-72900000D02*
X71900000Y-71600000D01*
X71900000Y-71600000D02*
X69600000Y-71600000D01*
X68520000Y-70520000D02*
X67600000Y-70520000D01*
X69600000Y-71600000D02*
X68520000Y-70520000D01*
%TO.N,Net-(R2-Pad2)*%
X72000000Y-63020000D02*
X71980000Y-63000000D01*
X72000000Y-68000000D02*
X72000000Y-63020000D01*
X71980000Y-63000000D02*
X71980000Y-62480000D01*
X71980000Y-62480000D02*
X70000000Y-60500000D01*
X70000000Y-60500000D02*
X64800000Y-60500000D01*
X64800000Y-60500000D02*
X61400000Y-63900000D01*
X61400000Y-66560000D02*
X59980000Y-67980000D01*
X61400000Y-63900000D02*
X61400000Y-66560000D01*
%TO.N,Net-(R4-Pad2)*%
X97000000Y-74000000D02*
X96200000Y-74000000D01*
X96200000Y-74000000D02*
X93000000Y-70800000D01*
X82420000Y-70800000D02*
X79620000Y-68000000D01*
X93000000Y-70800000D02*
X82420000Y-70800000D01*
%TO.N,Net-(D1-Pad1)*%
X67600000Y-73060000D02*
X69860000Y-73060000D01*
X69860000Y-73060000D02*
X70900000Y-74100000D01*
X70900000Y-74100000D02*
X70900000Y-75300000D01*
X70900000Y-75300000D02*
X72800000Y-77200000D01*
X77300000Y-77200000D02*
X79200000Y-79100000D01*
X72800000Y-77200000D02*
X77300000Y-77200000D01*
X81900000Y-79100000D02*
X84000000Y-77000000D01*
X79200000Y-79100000D02*
X81900000Y-79100000D01*
%TO.N,Net-(R1-Pad1)*%
X59980000Y-73060000D02*
X59980000Y-75600000D01*
X67600000Y-75600000D02*
X66700000Y-75600000D01*
X66700000Y-75600000D02*
X64000000Y-72900000D01*
X64000000Y-72900000D02*
X64000000Y-65500000D01*
X66500000Y-63000000D02*
X68500000Y-63000000D01*
X64000000Y-65500000D02*
X66500000Y-63000000D01*
X63840000Y-73060000D02*
X64000000Y-72900000D01*
X59980000Y-73060000D02*
X63840000Y-73060000D01*
%TO.N,Net-(C2-Pad2)*%
X78200000Y-73400000D02*
X78200000Y-72100000D01*
X78200000Y-72100000D02*
X76200000Y-70100000D01*
X76200000Y-70100000D02*
X70800000Y-70100000D01*
X68680000Y-67980000D02*
X67600000Y-67980000D01*
X70800000Y-70100000D02*
X68680000Y-67980000D01*
X71580000Y-79100000D02*
X71580000Y-79780000D01*
X71580000Y-79780000D02*
X73600000Y-81800000D01*
X73600000Y-81800000D02*
X89600000Y-81800000D01*
X94860000Y-76540000D02*
X97000000Y-76540000D01*
X97000000Y-76540000D02*
X98560000Y-76540000D01*
X98560000Y-76540000D02*
X99900000Y-75200000D01*
X99900000Y-75200000D02*
X99900000Y-72700000D01*
X94200000Y-67000000D02*
X87800000Y-67000000D01*
X99900000Y-72700000D02*
X94200000Y-67000000D01*
X94800000Y-67000000D02*
X99800000Y-62000000D01*
X94200000Y-67000000D02*
X94800000Y-67000000D01*
X90900000Y-73400000D02*
X94450000Y-76950000D01*
X78200000Y-73400000D02*
X90900000Y-73400000D01*
X94450000Y-76950000D02*
X94860000Y-76540000D01*
X89600000Y-81800000D02*
X94450000Y-76950000D01*
%TO.N,Net-(C4-Pad2)*%
X126000000Y-63860000D02*
X125560000Y-63860000D01*
X125560000Y-63860000D02*
X124350000Y-62650000D01*
X124350000Y-62650000D02*
X124350000Y-60900000D01*
X99800000Y-67000000D02*
X99800000Y-67700000D01*
X99800000Y-67700000D02*
X102700000Y-70600000D01*
X102700000Y-75300000D02*
X106400000Y-79000000D01*
X102700000Y-70600000D02*
X102700000Y-75300000D01*
X99800000Y-67000000D02*
X99900000Y-67000000D01*
X99900000Y-67000000D02*
X106600000Y-60300000D01*
X118120000Y-60300000D02*
X119300000Y-61480000D01*
X106600000Y-60300000D02*
X118120000Y-60300000D01*
X119300000Y-61480000D02*
X120920000Y-61480000D01*
X121500000Y-60900000D02*
X124350000Y-60900000D01*
X120920000Y-61480000D02*
X121500000Y-60900000D01*
%TO.N,Net-(C5-Pad2)*%
X112500000Y-69100000D02*
X111500000Y-68100000D01*
X119300000Y-69100000D02*
X112500000Y-69100000D01*
X119300000Y-69100000D02*
X119300000Y-68500000D01*
X122630000Y-65170000D02*
X126000000Y-65170000D01*
X119300000Y-68500000D02*
X122630000Y-65170000D01*
%TO.N,Net-(C6-Pad2)*%
X118000000Y-79000000D02*
X119200000Y-79000000D01*
X119200000Y-79000000D02*
X123300000Y-74900000D01*
X123800000Y-74900000D02*
X127800000Y-70900000D01*
X123300000Y-74900000D02*
X123800000Y-74900000D01*
X127800000Y-68240000D02*
X126000000Y-66440000D01*
X127800000Y-70900000D02*
X127800000Y-68240000D01*
X125650000Y-60900000D02*
X126500000Y-60900000D01*
X126500000Y-60900000D02*
X128200000Y-62600000D01*
X128200000Y-67840000D02*
X127800000Y-68240000D01*
X128200000Y-62600000D02*
X128200000Y-67840000D01*
%TD*%
M02*
