%TF.GenerationSoftware,KiCad,Pcbnew,(5.1.12)-1*%
%TF.CreationDate,2022-12-13T06:15:56+01:00*%
%TF.ProjectId,MC34063_invert,4d433334-3036-4335-9f69-6e766572742e,rev?*%
%TF.SameCoordinates,Original*%
%TF.FileFunction,Copper,L2,Bot*%
%TF.FilePolarity,Positive*%
%FSLAX46Y46*%
G04 Gerber Fmt 4.6, Leading zero omitted, Abs format (unit mm)*
G04 Created by KiCad (PCBNEW (5.1.12)-1) date 2022-12-13 06:15:56*
%MOMM*%
%LPD*%
G01*
G04 APERTURE LIST*
%TA.AperFunction,ComponentPad*%
%ADD10C,1.600000*%
%TD*%
%TA.AperFunction,ComponentPad*%
%ADD11O,1.800000X1.800000*%
%TD*%
%TA.AperFunction,ComponentPad*%
%ADD12R,1.800000X1.800000*%
%TD*%
%TA.AperFunction,ComponentPad*%
%ADD13C,2.600000*%
%TD*%
%TA.AperFunction,ComponentPad*%
%ADD14R,2.600000X2.600000*%
%TD*%
%TA.AperFunction,ComponentPad*%
%ADD15C,2.400000*%
%TD*%
%TA.AperFunction,ComponentPad*%
%ADD16O,1.600000X1.600000*%
%TD*%
%TA.AperFunction,ComponentPad*%
%ADD17C,1.440000*%
%TD*%
%TA.AperFunction,ComponentPad*%
%ADD18R,1.600000X1.600000*%
%TD*%
%TA.AperFunction,ComponentPad*%
%ADD19R,2.000000X2.000000*%
%TD*%
%TA.AperFunction,ComponentPad*%
%ADD20C,2.000000*%
%TD*%
%TA.AperFunction,ComponentPad*%
%ADD21R,1.500000X1.050000*%
%TD*%
%TA.AperFunction,ComponentPad*%
%ADD22O,1.500000X1.050000*%
%TD*%
%TA.AperFunction,Conductor*%
%ADD23C,0.254000*%
%TD*%
%TA.AperFunction,Conductor*%
%ADD24C,0.100000*%
%TD*%
G04 APERTURE END LIST*
D10*
%TO.P,C2,1*%
%TO.N,Net-(C2-Pad1)*%
X73200000Y-73400000D03*
%TO.P,C2,2*%
%TO.N,Net-(C2-Pad2)*%
X78200000Y-73400000D03*
%TD*%
D11*
%TO.P,D1,2*%
%TO.N,Net-(C2-Pad2)*%
X79320000Y-78600000D03*
D12*
%TO.P,D1,1*%
%TO.N,Net-(D1-Pad1)*%
X71700000Y-78600000D03*
%TD*%
D13*
%TO.P,J1,2*%
%TO.N,GND*%
X52500000Y-63700000D03*
D14*
%TO.P,J1,1*%
%TO.N,Net-(C1-Pad1)*%
X52500000Y-68700000D03*
%TD*%
%TO.P,J2,1*%
%TO.N,Net-(C6-Pad2)*%
X127800000Y-70900000D03*
D13*
%TO.P,J2,2*%
%TO.N,GND*%
X127800000Y-75900000D03*
%TD*%
D15*
%TO.P,L1,2*%
%TO.N,GND*%
X89000000Y-76500000D03*
%TO.P,L1,1*%
%TO.N,Net-(D1-Pad1)*%
X84000000Y-76500000D03*
%TD*%
%TO.P,L2,2*%
%TO.N,Net-(C4-Pad2)*%
X99800000Y-67000000D03*
%TO.P,L2,1*%
%TO.N,Net-(C2-Pad2)*%
X99800000Y-62000000D03*
%TD*%
D10*
%TO.P,R1,1*%
%TO.N,Net-(R1-Pad1)*%
X68500000Y-63000000D03*
D16*
%TO.P,R1,2*%
%TO.N,Net-(C1-Pad1)*%
X58340000Y-63000000D03*
%TD*%
D10*
%TO.P,R2,1*%
%TO.N,GND*%
X79600000Y-63000000D03*
D16*
%TO.P,R2,2*%
%TO.N,Net-(R2-Pad2)*%
X71980000Y-63000000D03*
%TD*%
D10*
%TO.P,R4,1*%
%TO.N,Net-(R2-Pad2)*%
X72000000Y-68000000D03*
D16*
%TO.P,R4,2*%
%TO.N,Net-(R4-Pad2)*%
X79620000Y-68000000D03*
%TD*%
%TO.P,R5,2*%
%TO.N,Net-(C4-Pad2)*%
X119300000Y-61480000D03*
D10*
%TO.P,R5,1*%
%TO.N,Net-(C5-Pad2)*%
X119300000Y-69100000D03*
%TD*%
D17*
%TO.P,RV1,3*%
%TO.N,N/C*%
X97000000Y-78580000D03*
%TO.P,RV1,2*%
%TO.N,Net-(C2-Pad2)*%
X97000000Y-76040000D03*
%TO.P,RV1,1*%
%TO.N,Net-(R4-Pad2)*%
X97000000Y-73500000D03*
%TD*%
D18*
%TO.P,U1,1*%
%TO.N,Net-(R1-Pad1)*%
X68000000Y-75600000D03*
D16*
%TO.P,U1,5*%
%TO.N,Net-(R2-Pad2)*%
X60380000Y-67980000D03*
%TO.P,U1,2*%
%TO.N,Net-(D1-Pad1)*%
X68000000Y-73060000D03*
%TO.P,U1,6*%
%TO.N,Net-(C1-Pad1)*%
X60380000Y-70520000D03*
%TO.P,U1,3*%
%TO.N,Net-(C2-Pad1)*%
X68000000Y-70520000D03*
%TO.P,U1,7*%
%TO.N,Net-(R1-Pad1)*%
X60380000Y-73060000D03*
%TO.P,U1,4*%
%TO.N,Net-(C2-Pad2)*%
X68000000Y-67980000D03*
%TO.P,U1,8*%
%TO.N,Net-(R1-Pad1)*%
X60380000Y-75600000D03*
%TD*%
D19*
%TO.P,C3,1*%
%TO.N,GND*%
X87800000Y-62000000D03*
D20*
%TO.P,C3,2*%
%TO.N,Net-(C2-Pad2)*%
X87800000Y-67000000D03*
%TD*%
D19*
%TO.P,C4,1*%
%TO.N,GND*%
X106400000Y-73500000D03*
D20*
%TO.P,C4,2*%
%TO.N,Net-(C4-Pad2)*%
X106400000Y-78500000D03*
%TD*%
%TO.P,C5,2*%
%TO.N,Net-(C5-Pad2)*%
X111500000Y-68100000D03*
D19*
%TO.P,C5,1*%
%TO.N,GND*%
X111500000Y-63100000D03*
%TD*%
D20*
%TO.P,C6,2*%
%TO.N,Net-(C6-Pad2)*%
X118000000Y-78500000D03*
D19*
%TO.P,C6,1*%
%TO.N,GND*%
X118000000Y-73500000D03*
%TD*%
D18*
%TO.P,C1,1*%
%TO.N,Net-(C1-Pad1)*%
X53800000Y-74300000D03*
D10*
%TO.P,C1,2*%
%TO.N,GND*%
X53800000Y-77800000D03*
%TD*%
D21*
%TO.P,Q1,1*%
%TO.N,Net-(C6-Pad2)*%
X126000000Y-66400000D03*
D22*
%TO.P,Q1,3*%
%TO.N,Net-(C4-Pad2)*%
X126000000Y-63860000D03*
%TO.P,Q1,2*%
%TO.N,Net-(C5-Pad2)*%
X126000000Y-65130000D03*
%TD*%
D23*
%TO.N,GND*%
X132915001Y-81315000D02*
X45685000Y-81315000D01*
X45685000Y-79229117D01*
X45865000Y-79229117D01*
X45865000Y-79570883D01*
X45931675Y-79906081D01*
X46062463Y-80221831D01*
X46252337Y-80505998D01*
X46494002Y-80747663D01*
X46778169Y-80937537D01*
X47093919Y-81068325D01*
X47429117Y-81135000D01*
X47770883Y-81135000D01*
X48106081Y-81068325D01*
X48421831Y-80937537D01*
X48705998Y-80747663D01*
X48947663Y-80505998D01*
X49137537Y-80221831D01*
X49268325Y-79906081D01*
X49335000Y-79570883D01*
X49335000Y-79229117D01*
X49268325Y-78893919D01*
X49152103Y-78613333D01*
X53166273Y-78613333D01*
X53256762Y-78763769D01*
X53455222Y-78851230D01*
X53666931Y-78898294D01*
X53883755Y-78903151D01*
X54097360Y-78865614D01*
X54299537Y-78787127D01*
X54343238Y-78763769D01*
X54433727Y-78613333D01*
X53800000Y-77979605D01*
X53166273Y-78613333D01*
X49152103Y-78613333D01*
X49137537Y-78578169D01*
X48947663Y-78294002D01*
X48705998Y-78052337D01*
X48453697Y-77883755D01*
X52696849Y-77883755D01*
X52734386Y-78097360D01*
X52812873Y-78299537D01*
X52836231Y-78343238D01*
X52986667Y-78433727D01*
X53620395Y-77800000D01*
X53979605Y-77800000D01*
X54613333Y-78433727D01*
X54763769Y-78343238D01*
X54851230Y-78144778D01*
X54898294Y-77933069D01*
X54903151Y-77716245D01*
X54900297Y-77700000D01*
X70161928Y-77700000D01*
X70161928Y-79500000D01*
X70174188Y-79624482D01*
X70210498Y-79744180D01*
X70269463Y-79854494D01*
X70348815Y-79951185D01*
X70445506Y-80030537D01*
X70555820Y-80089502D01*
X70675518Y-80125812D01*
X70800000Y-80138072D01*
X72600000Y-80138072D01*
X72724482Y-80125812D01*
X72844180Y-80089502D01*
X72954494Y-80030537D01*
X73051185Y-79951185D01*
X73130537Y-79854494D01*
X73189502Y-79744180D01*
X73225812Y-79624482D01*
X73238072Y-79500000D01*
X73238072Y-78448816D01*
X77785000Y-78448816D01*
X77785000Y-78751184D01*
X77843989Y-79047743D01*
X77959701Y-79327095D01*
X78127688Y-79578505D01*
X78341495Y-79792312D01*
X78592905Y-79960299D01*
X78872257Y-80076011D01*
X79168816Y-80135000D01*
X79471184Y-80135000D01*
X79767743Y-80076011D01*
X80047095Y-79960299D01*
X80298505Y-79792312D01*
X80512312Y-79578505D01*
X80680299Y-79327095D01*
X80796011Y-79047743D01*
X80855000Y-78751184D01*
X80855000Y-78448816D01*
X80796011Y-78152257D01*
X80680299Y-77872905D01*
X80512312Y-77621495D01*
X80298505Y-77407688D01*
X80047095Y-77239701D01*
X79767743Y-77123989D01*
X79471184Y-77065000D01*
X79168816Y-77065000D01*
X78872257Y-77123989D01*
X78592905Y-77239701D01*
X78341495Y-77407688D01*
X78127688Y-77621495D01*
X77959701Y-77872905D01*
X77843989Y-78152257D01*
X77785000Y-78448816D01*
X73238072Y-78448816D01*
X73238072Y-77700000D01*
X73225812Y-77575518D01*
X73189502Y-77455820D01*
X73130537Y-77345506D01*
X73051185Y-77248815D01*
X72954494Y-77169463D01*
X72844180Y-77110498D01*
X72724482Y-77074188D01*
X72600000Y-77061928D01*
X70800000Y-77061928D01*
X70675518Y-77074188D01*
X70555820Y-77110498D01*
X70445506Y-77169463D01*
X70348815Y-77248815D01*
X70269463Y-77345506D01*
X70210498Y-77455820D01*
X70174188Y-77575518D01*
X70161928Y-77700000D01*
X54900297Y-77700000D01*
X54865614Y-77502640D01*
X54787127Y-77300463D01*
X54763769Y-77256762D01*
X54613333Y-77166273D01*
X53979605Y-77800000D01*
X53620395Y-77800000D01*
X52986667Y-77166273D01*
X52836231Y-77256762D01*
X52748770Y-77455222D01*
X52701706Y-77666931D01*
X52696849Y-77883755D01*
X48453697Y-77883755D01*
X48421831Y-77862463D01*
X48106081Y-77731675D01*
X47770883Y-77665000D01*
X47429117Y-77665000D01*
X47093919Y-77731675D01*
X46778169Y-77862463D01*
X46494002Y-78052337D01*
X46252337Y-78294002D01*
X46062463Y-78578169D01*
X45931675Y-78893919D01*
X45865000Y-79229117D01*
X45685000Y-79229117D01*
X45685000Y-76986667D01*
X53166273Y-76986667D01*
X53800000Y-77620395D01*
X54433727Y-76986667D01*
X54343238Y-76836231D01*
X54144778Y-76748770D01*
X53933069Y-76701706D01*
X53716245Y-76696849D01*
X53502640Y-76734386D01*
X53300463Y-76812873D01*
X53256762Y-76836231D01*
X53166273Y-76986667D01*
X45685000Y-76986667D01*
X45685000Y-73500000D01*
X52361928Y-73500000D01*
X52361928Y-75100000D01*
X52374188Y-75224482D01*
X52410498Y-75344180D01*
X52469463Y-75454494D01*
X52548815Y-75551185D01*
X52645506Y-75630537D01*
X52755820Y-75689502D01*
X52875518Y-75725812D01*
X53000000Y-75738072D01*
X54600000Y-75738072D01*
X54724482Y-75725812D01*
X54844180Y-75689502D01*
X54954494Y-75630537D01*
X55051185Y-75551185D01*
X55130537Y-75454494D01*
X55189502Y-75344180D01*
X55225812Y-75224482D01*
X55238072Y-75100000D01*
X55238072Y-73500000D01*
X55225812Y-73375518D01*
X55189502Y-73255820D01*
X55130537Y-73145506D01*
X55051185Y-73048815D01*
X54954494Y-72969463D01*
X54844180Y-72910498D01*
X54724482Y-72874188D01*
X54600000Y-72861928D01*
X53000000Y-72861928D01*
X52875518Y-72874188D01*
X52755820Y-72910498D01*
X52645506Y-72969463D01*
X52548815Y-73048815D01*
X52469463Y-73145506D01*
X52410498Y-73255820D01*
X52374188Y-73375518D01*
X52361928Y-73500000D01*
X45685000Y-73500000D01*
X45685000Y-67400000D01*
X50561928Y-67400000D01*
X50561928Y-70000000D01*
X50574188Y-70124482D01*
X50610498Y-70244180D01*
X50669463Y-70354494D01*
X50748815Y-70451185D01*
X50845506Y-70530537D01*
X50955820Y-70589502D01*
X51075518Y-70625812D01*
X51200000Y-70638072D01*
X53800000Y-70638072D01*
X53924482Y-70625812D01*
X54044180Y-70589502D01*
X54154494Y-70530537D01*
X54251185Y-70451185D01*
X54330537Y-70354494D01*
X54389502Y-70244180D01*
X54425812Y-70124482D01*
X54438072Y-70000000D01*
X54438072Y-67838665D01*
X58945000Y-67838665D01*
X58945000Y-68121335D01*
X59000147Y-68398574D01*
X59108320Y-68659727D01*
X59265363Y-68894759D01*
X59465241Y-69094637D01*
X59697759Y-69250000D01*
X59465241Y-69405363D01*
X59265363Y-69605241D01*
X59108320Y-69840273D01*
X59000147Y-70101426D01*
X58945000Y-70378665D01*
X58945000Y-70661335D01*
X59000147Y-70938574D01*
X59108320Y-71199727D01*
X59265363Y-71434759D01*
X59465241Y-71634637D01*
X59697759Y-71790000D01*
X59465241Y-71945363D01*
X59265363Y-72145241D01*
X59108320Y-72380273D01*
X59000147Y-72641426D01*
X58945000Y-72918665D01*
X58945000Y-73201335D01*
X59000147Y-73478574D01*
X59108320Y-73739727D01*
X59265363Y-73974759D01*
X59465241Y-74174637D01*
X59697759Y-74330000D01*
X59465241Y-74485363D01*
X59265363Y-74685241D01*
X59108320Y-74920273D01*
X59000147Y-75181426D01*
X58945000Y-75458665D01*
X58945000Y-75741335D01*
X59000147Y-76018574D01*
X59108320Y-76279727D01*
X59265363Y-76514759D01*
X59465241Y-76714637D01*
X59700273Y-76871680D01*
X59961426Y-76979853D01*
X60238665Y-77035000D01*
X60521335Y-77035000D01*
X60798574Y-76979853D01*
X61059727Y-76871680D01*
X61294759Y-76714637D01*
X61494637Y-76514759D01*
X61651680Y-76279727D01*
X61759853Y-76018574D01*
X61815000Y-75741335D01*
X61815000Y-75458665D01*
X61759853Y-75181426D01*
X61651680Y-74920273D01*
X61571317Y-74800000D01*
X66561928Y-74800000D01*
X66561928Y-76400000D01*
X66574188Y-76524482D01*
X66610498Y-76644180D01*
X66669463Y-76754494D01*
X66748815Y-76851185D01*
X66845506Y-76930537D01*
X66955820Y-76989502D01*
X67075518Y-77025812D01*
X67200000Y-77038072D01*
X68800000Y-77038072D01*
X68924482Y-77025812D01*
X69044180Y-76989502D01*
X69154494Y-76930537D01*
X69251185Y-76851185D01*
X69330537Y-76754494D01*
X69389502Y-76644180D01*
X69425812Y-76524482D01*
X69438072Y-76400000D01*
X69438072Y-76319268D01*
X82165000Y-76319268D01*
X82165000Y-76680732D01*
X82235518Y-77035250D01*
X82373844Y-77369199D01*
X82574662Y-77669744D01*
X82830256Y-77925338D01*
X83130801Y-78126156D01*
X83464750Y-78264482D01*
X83819268Y-78335000D01*
X84180732Y-78335000D01*
X84535250Y-78264482D01*
X84869199Y-78126156D01*
X85169744Y-77925338D01*
X85425338Y-77669744D01*
X85472535Y-77599108D01*
X88080497Y-77599108D01*
X88219358Y-77790526D01*
X88486127Y-77918025D01*
X88772644Y-77991029D01*
X89067898Y-78006734D01*
X89360542Y-77964537D01*
X89639332Y-77866058D01*
X89780642Y-77790526D01*
X89919503Y-77599108D01*
X89000000Y-76679605D01*
X88080497Y-77599108D01*
X85472535Y-77599108D01*
X85626156Y-77369199D01*
X85764482Y-77035250D01*
X85835000Y-76680732D01*
X85835000Y-76567898D01*
X87493266Y-76567898D01*
X87535463Y-76860542D01*
X87633942Y-77139332D01*
X87709474Y-77280642D01*
X87900892Y-77419503D01*
X88820395Y-76500000D01*
X89179605Y-76500000D01*
X90099108Y-77419503D01*
X90290526Y-77280642D01*
X90418025Y-77013873D01*
X90491029Y-76727356D01*
X90506734Y-76432102D01*
X90464537Y-76139458D01*
X90366058Y-75860668D01*
X90290526Y-75719358D01*
X90099108Y-75580497D01*
X89179605Y-76500000D01*
X88820395Y-76500000D01*
X87900892Y-75580497D01*
X87709474Y-75719358D01*
X87581975Y-75986127D01*
X87508971Y-76272644D01*
X87493266Y-76567898D01*
X85835000Y-76567898D01*
X85835000Y-76319268D01*
X85764482Y-75964750D01*
X85626156Y-75630801D01*
X85472536Y-75400892D01*
X88080497Y-75400892D01*
X89000000Y-76320395D01*
X89919503Y-75400892D01*
X89780642Y-75209474D01*
X89513873Y-75081975D01*
X89227356Y-75008971D01*
X88932102Y-74993266D01*
X88639458Y-75035463D01*
X88360668Y-75133942D01*
X88219358Y-75209474D01*
X88080497Y-75400892D01*
X85472536Y-75400892D01*
X85425338Y-75330256D01*
X85169744Y-75074662D01*
X84869199Y-74873844D01*
X84535250Y-74735518D01*
X84180732Y-74665000D01*
X83819268Y-74665000D01*
X83464750Y-74735518D01*
X83130801Y-74873844D01*
X82830256Y-75074662D01*
X82574662Y-75330256D01*
X82373844Y-75630801D01*
X82235518Y-75964750D01*
X82165000Y-76319268D01*
X69438072Y-76319268D01*
X69438072Y-74800000D01*
X69425812Y-74675518D01*
X69389502Y-74555820D01*
X69330537Y-74445506D01*
X69251185Y-74348815D01*
X69154494Y-74269463D01*
X69044180Y-74210498D01*
X68924482Y-74174188D01*
X68916039Y-74173357D01*
X69114637Y-73974759D01*
X69271680Y-73739727D01*
X69379853Y-73478574D01*
X69423596Y-73258665D01*
X71765000Y-73258665D01*
X71765000Y-73541335D01*
X71820147Y-73818574D01*
X71928320Y-74079727D01*
X72085363Y-74314759D01*
X72285241Y-74514637D01*
X72520273Y-74671680D01*
X72781426Y-74779853D01*
X73058665Y-74835000D01*
X73341335Y-74835000D01*
X73618574Y-74779853D01*
X73879727Y-74671680D01*
X74114759Y-74514637D01*
X74314637Y-74314759D01*
X74471680Y-74079727D01*
X74579853Y-73818574D01*
X74635000Y-73541335D01*
X74635000Y-73258665D01*
X76765000Y-73258665D01*
X76765000Y-73541335D01*
X76820147Y-73818574D01*
X76928320Y-74079727D01*
X77085363Y-74314759D01*
X77285241Y-74514637D01*
X77520273Y-74671680D01*
X77781426Y-74779853D01*
X78058665Y-74835000D01*
X78341335Y-74835000D01*
X78618574Y-74779853D01*
X78879727Y-74671680D01*
X79114759Y-74514637D01*
X79314637Y-74314759D01*
X79471680Y-74079727D01*
X79579853Y-73818574D01*
X79635000Y-73541335D01*
X79635000Y-73366544D01*
X95645000Y-73366544D01*
X95645000Y-73633456D01*
X95697072Y-73895239D01*
X95799215Y-74141833D01*
X95947503Y-74363762D01*
X96136238Y-74552497D01*
X96358167Y-74700785D01*
X96525266Y-74770000D01*
X96358167Y-74839215D01*
X96136238Y-74987503D01*
X95947503Y-75176238D01*
X95799215Y-75398167D01*
X95697072Y-75644761D01*
X95645000Y-75906544D01*
X95645000Y-76173456D01*
X95697072Y-76435239D01*
X95799215Y-76681833D01*
X95947503Y-76903762D01*
X96136238Y-77092497D01*
X96358167Y-77240785D01*
X96525266Y-77310000D01*
X96358167Y-77379215D01*
X96136238Y-77527503D01*
X95947503Y-77716238D01*
X95799215Y-77938167D01*
X95697072Y-78184761D01*
X95645000Y-78446544D01*
X95645000Y-78713456D01*
X95697072Y-78975239D01*
X95799215Y-79221833D01*
X95947503Y-79443762D01*
X96136238Y-79632497D01*
X96358167Y-79780785D01*
X96604761Y-79882928D01*
X96866544Y-79935000D01*
X97133456Y-79935000D01*
X97395239Y-79882928D01*
X97641833Y-79780785D01*
X97863762Y-79632497D01*
X98052497Y-79443762D01*
X98200785Y-79221833D01*
X98302928Y-78975239D01*
X98355000Y-78713456D01*
X98355000Y-78446544D01*
X98333602Y-78338967D01*
X104765000Y-78338967D01*
X104765000Y-78661033D01*
X104827832Y-78976912D01*
X104951082Y-79274463D01*
X105130013Y-79542252D01*
X105357748Y-79769987D01*
X105625537Y-79948918D01*
X105923088Y-80072168D01*
X106238967Y-80135000D01*
X106561033Y-80135000D01*
X106876912Y-80072168D01*
X107174463Y-79948918D01*
X107442252Y-79769987D01*
X107669987Y-79542252D01*
X107848918Y-79274463D01*
X107972168Y-78976912D01*
X108035000Y-78661033D01*
X108035000Y-78338967D01*
X116365000Y-78338967D01*
X116365000Y-78661033D01*
X116427832Y-78976912D01*
X116551082Y-79274463D01*
X116730013Y-79542252D01*
X116957748Y-79769987D01*
X117225537Y-79948918D01*
X117523088Y-80072168D01*
X117838967Y-80135000D01*
X118161033Y-80135000D01*
X118476912Y-80072168D01*
X118774463Y-79948918D01*
X119042252Y-79769987D01*
X119269987Y-79542252D01*
X119448918Y-79274463D01*
X119467700Y-79229117D01*
X129265000Y-79229117D01*
X129265000Y-79570883D01*
X129331675Y-79906081D01*
X129462463Y-80221831D01*
X129652337Y-80505998D01*
X129894002Y-80747663D01*
X130178169Y-80937537D01*
X130493919Y-81068325D01*
X130829117Y-81135000D01*
X131170883Y-81135000D01*
X131506081Y-81068325D01*
X131821831Y-80937537D01*
X132105998Y-80747663D01*
X132347663Y-80505998D01*
X132537537Y-80221831D01*
X132668325Y-79906081D01*
X132735000Y-79570883D01*
X132735000Y-79229117D01*
X132668325Y-78893919D01*
X132537537Y-78578169D01*
X132347663Y-78294002D01*
X132105998Y-78052337D01*
X131821831Y-77862463D01*
X131506081Y-77731675D01*
X131170883Y-77665000D01*
X130829117Y-77665000D01*
X130493919Y-77731675D01*
X130178169Y-77862463D01*
X129894002Y-78052337D01*
X129652337Y-78294002D01*
X129462463Y-78578169D01*
X129331675Y-78893919D01*
X129265000Y-79229117D01*
X119467700Y-79229117D01*
X119572168Y-78976912D01*
X119635000Y-78661033D01*
X119635000Y-78338967D01*
X119572168Y-78023088D01*
X119448918Y-77725537D01*
X119269987Y-77457748D01*
X119042252Y-77230013D01*
X118803411Y-77070424D01*
X126809181Y-77070424D01*
X126960099Y-77272090D01*
X127243918Y-77409582D01*
X127549109Y-77489063D01*
X127863941Y-77507476D01*
X128176315Y-77464115D01*
X128474228Y-77360645D01*
X128639901Y-77272090D01*
X128790819Y-77070424D01*
X127800000Y-76079605D01*
X126809181Y-77070424D01*
X118803411Y-77070424D01*
X118774463Y-77051082D01*
X118476912Y-76927832D01*
X118161033Y-76865000D01*
X117838967Y-76865000D01*
X117523088Y-76927832D01*
X117225537Y-77051082D01*
X116957748Y-77230013D01*
X116730013Y-77457748D01*
X116551082Y-77725537D01*
X116427832Y-78023088D01*
X116365000Y-78338967D01*
X108035000Y-78338967D01*
X107972168Y-78023088D01*
X107848918Y-77725537D01*
X107669987Y-77457748D01*
X107442252Y-77230013D01*
X107174463Y-77051082D01*
X106876912Y-76927832D01*
X106561033Y-76865000D01*
X106238967Y-76865000D01*
X105923088Y-76927832D01*
X105625537Y-77051082D01*
X105357748Y-77230013D01*
X105130013Y-77457748D01*
X104951082Y-77725537D01*
X104827832Y-78023088D01*
X104765000Y-78338967D01*
X98333602Y-78338967D01*
X98302928Y-78184761D01*
X98200785Y-77938167D01*
X98052497Y-77716238D01*
X97863762Y-77527503D01*
X97641833Y-77379215D01*
X97474734Y-77310000D01*
X97641833Y-77240785D01*
X97863762Y-77092497D01*
X98052497Y-76903762D01*
X98200785Y-76681833D01*
X98302928Y-76435239D01*
X98355000Y-76173456D01*
X98355000Y-75963941D01*
X126192524Y-75963941D01*
X126235885Y-76276315D01*
X126339355Y-76574228D01*
X126427910Y-76739901D01*
X126629576Y-76890819D01*
X127620395Y-75900000D01*
X127979605Y-75900000D01*
X128970424Y-76890819D01*
X129172090Y-76739901D01*
X129309582Y-76456082D01*
X129389063Y-76150891D01*
X129407476Y-75836059D01*
X129364115Y-75523685D01*
X129260645Y-75225772D01*
X129172090Y-75060099D01*
X128970424Y-74909181D01*
X127979605Y-75900000D01*
X127620395Y-75900000D01*
X126629576Y-74909181D01*
X126427910Y-75060099D01*
X126290418Y-75343918D01*
X126210937Y-75649109D01*
X126192524Y-75963941D01*
X98355000Y-75963941D01*
X98355000Y-75906544D01*
X98302928Y-75644761D01*
X98200785Y-75398167D01*
X98052497Y-75176238D01*
X97863762Y-74987503D01*
X97641833Y-74839215D01*
X97474734Y-74770000D01*
X97641833Y-74700785D01*
X97863762Y-74552497D01*
X97916259Y-74500000D01*
X105097544Y-74500000D01*
X105103356Y-74559006D01*
X105120567Y-74615745D01*
X105148517Y-74668036D01*
X105186131Y-74713869D01*
X105231964Y-74751483D01*
X105284255Y-74779433D01*
X105340994Y-74796644D01*
X105400000Y-74802456D01*
X106197750Y-74801000D01*
X106273000Y-74725750D01*
X106273000Y-73627000D01*
X106527000Y-73627000D01*
X106527000Y-74725750D01*
X106602250Y-74801000D01*
X107400000Y-74802456D01*
X107459006Y-74796644D01*
X107515745Y-74779433D01*
X107568036Y-74751483D01*
X107613869Y-74713869D01*
X107651483Y-74668036D01*
X107679433Y-74615745D01*
X107696644Y-74559006D01*
X107702456Y-74500000D01*
X116697544Y-74500000D01*
X116703356Y-74559006D01*
X116720567Y-74615745D01*
X116748517Y-74668036D01*
X116786131Y-74713869D01*
X116831964Y-74751483D01*
X116884255Y-74779433D01*
X116940994Y-74796644D01*
X117000000Y-74802456D01*
X117797750Y-74801000D01*
X117873000Y-74725750D01*
X117873000Y-73627000D01*
X118127000Y-73627000D01*
X118127000Y-74725750D01*
X118202250Y-74801000D01*
X119000000Y-74802456D01*
X119059006Y-74796644D01*
X119115745Y-74779433D01*
X119168036Y-74751483D01*
X119194729Y-74729576D01*
X126809181Y-74729576D01*
X127800000Y-75720395D01*
X128790819Y-74729576D01*
X128639901Y-74527910D01*
X128356082Y-74390418D01*
X128050891Y-74310937D01*
X127736059Y-74292524D01*
X127423685Y-74335885D01*
X127125772Y-74439355D01*
X126960099Y-74527910D01*
X126809181Y-74729576D01*
X119194729Y-74729576D01*
X119213869Y-74713869D01*
X119251483Y-74668036D01*
X119279433Y-74615745D01*
X119296644Y-74559006D01*
X119302456Y-74500000D01*
X119301000Y-73702250D01*
X119225750Y-73627000D01*
X118127000Y-73627000D01*
X117873000Y-73627000D01*
X116774250Y-73627000D01*
X116699000Y-73702250D01*
X116697544Y-74500000D01*
X107702456Y-74500000D01*
X107701000Y-73702250D01*
X107625750Y-73627000D01*
X106527000Y-73627000D01*
X106273000Y-73627000D01*
X105174250Y-73627000D01*
X105099000Y-73702250D01*
X105097544Y-74500000D01*
X97916259Y-74500000D01*
X98052497Y-74363762D01*
X98200785Y-74141833D01*
X98302928Y-73895239D01*
X98355000Y-73633456D01*
X98355000Y-73366544D01*
X98302928Y-73104761D01*
X98200785Y-72858167D01*
X98052497Y-72636238D01*
X97916259Y-72500000D01*
X105097544Y-72500000D01*
X105099000Y-73297750D01*
X105174250Y-73373000D01*
X106273000Y-73373000D01*
X106273000Y-72274250D01*
X106527000Y-72274250D01*
X106527000Y-73373000D01*
X107625750Y-73373000D01*
X107701000Y-73297750D01*
X107702456Y-72500000D01*
X116697544Y-72500000D01*
X116699000Y-73297750D01*
X116774250Y-73373000D01*
X117873000Y-73373000D01*
X117873000Y-72274250D01*
X118127000Y-72274250D01*
X118127000Y-73373000D01*
X119225750Y-73373000D01*
X119301000Y-73297750D01*
X119302456Y-72500000D01*
X119296644Y-72440994D01*
X119279433Y-72384255D01*
X119251483Y-72331964D01*
X119213869Y-72286131D01*
X119168036Y-72248517D01*
X119115745Y-72220567D01*
X119059006Y-72203356D01*
X119000000Y-72197544D01*
X118202250Y-72199000D01*
X118127000Y-72274250D01*
X117873000Y-72274250D01*
X117797750Y-72199000D01*
X117000000Y-72197544D01*
X116940994Y-72203356D01*
X116884255Y-72220567D01*
X116831964Y-72248517D01*
X116786131Y-72286131D01*
X116748517Y-72331964D01*
X116720567Y-72384255D01*
X116703356Y-72440994D01*
X116697544Y-72500000D01*
X107702456Y-72500000D01*
X107696644Y-72440994D01*
X107679433Y-72384255D01*
X107651483Y-72331964D01*
X107613869Y-72286131D01*
X107568036Y-72248517D01*
X107515745Y-72220567D01*
X107459006Y-72203356D01*
X107400000Y-72197544D01*
X106602250Y-72199000D01*
X106527000Y-72274250D01*
X106273000Y-72274250D01*
X106197750Y-72199000D01*
X105400000Y-72197544D01*
X105340994Y-72203356D01*
X105284255Y-72220567D01*
X105231964Y-72248517D01*
X105186131Y-72286131D01*
X105148517Y-72331964D01*
X105120567Y-72384255D01*
X105103356Y-72440994D01*
X105097544Y-72500000D01*
X97916259Y-72500000D01*
X97863762Y-72447503D01*
X97641833Y-72299215D01*
X97395239Y-72197072D01*
X97133456Y-72145000D01*
X96866544Y-72145000D01*
X96604761Y-72197072D01*
X96358167Y-72299215D01*
X96136238Y-72447503D01*
X95947503Y-72636238D01*
X95799215Y-72858167D01*
X95697072Y-73104761D01*
X95645000Y-73366544D01*
X79635000Y-73366544D01*
X79635000Y-73258665D01*
X79579853Y-72981426D01*
X79471680Y-72720273D01*
X79314637Y-72485241D01*
X79114759Y-72285363D01*
X78879727Y-72128320D01*
X78618574Y-72020147D01*
X78341335Y-71965000D01*
X78058665Y-71965000D01*
X77781426Y-72020147D01*
X77520273Y-72128320D01*
X77285241Y-72285363D01*
X77085363Y-72485241D01*
X76928320Y-72720273D01*
X76820147Y-72981426D01*
X76765000Y-73258665D01*
X74635000Y-73258665D01*
X74579853Y-72981426D01*
X74471680Y-72720273D01*
X74314637Y-72485241D01*
X74114759Y-72285363D01*
X73879727Y-72128320D01*
X73618574Y-72020147D01*
X73341335Y-71965000D01*
X73058665Y-71965000D01*
X72781426Y-72020147D01*
X72520273Y-72128320D01*
X72285241Y-72285363D01*
X72085363Y-72485241D01*
X71928320Y-72720273D01*
X71820147Y-72981426D01*
X71765000Y-73258665D01*
X69423596Y-73258665D01*
X69435000Y-73201335D01*
X69435000Y-72918665D01*
X69379853Y-72641426D01*
X69271680Y-72380273D01*
X69114637Y-72145241D01*
X68914759Y-71945363D01*
X68682241Y-71790000D01*
X68914759Y-71634637D01*
X69114637Y-71434759D01*
X69271680Y-71199727D01*
X69379853Y-70938574D01*
X69435000Y-70661335D01*
X69435000Y-70378665D01*
X69379853Y-70101426D01*
X69271680Y-69840273D01*
X69114637Y-69605241D01*
X68914759Y-69405363D01*
X68682241Y-69250000D01*
X68914759Y-69094637D01*
X69114637Y-68894759D01*
X69271680Y-68659727D01*
X69379853Y-68398574D01*
X69435000Y-68121335D01*
X69435000Y-67858665D01*
X70565000Y-67858665D01*
X70565000Y-68141335D01*
X70620147Y-68418574D01*
X70728320Y-68679727D01*
X70885363Y-68914759D01*
X71085241Y-69114637D01*
X71320273Y-69271680D01*
X71581426Y-69379853D01*
X71858665Y-69435000D01*
X72141335Y-69435000D01*
X72418574Y-69379853D01*
X72679727Y-69271680D01*
X72914759Y-69114637D01*
X73114637Y-68914759D01*
X73271680Y-68679727D01*
X73379853Y-68418574D01*
X73435000Y-68141335D01*
X73435000Y-67858665D01*
X78185000Y-67858665D01*
X78185000Y-68141335D01*
X78240147Y-68418574D01*
X78348320Y-68679727D01*
X78505363Y-68914759D01*
X78705241Y-69114637D01*
X78940273Y-69271680D01*
X79201426Y-69379853D01*
X79478665Y-69435000D01*
X79761335Y-69435000D01*
X80038574Y-69379853D01*
X80299727Y-69271680D01*
X80534759Y-69114637D01*
X80734637Y-68914759D01*
X80891680Y-68679727D01*
X80999853Y-68418574D01*
X81055000Y-68141335D01*
X81055000Y-67858665D01*
X80999853Y-67581426D01*
X80891680Y-67320273D01*
X80734637Y-67085241D01*
X80534759Y-66885363D01*
X80465323Y-66838967D01*
X86165000Y-66838967D01*
X86165000Y-67161033D01*
X86227832Y-67476912D01*
X86351082Y-67774463D01*
X86530013Y-68042252D01*
X86757748Y-68269987D01*
X87025537Y-68448918D01*
X87323088Y-68572168D01*
X87638967Y-68635000D01*
X87961033Y-68635000D01*
X88276912Y-68572168D01*
X88574463Y-68448918D01*
X88842252Y-68269987D01*
X89069987Y-68042252D01*
X89248918Y-67774463D01*
X89372168Y-67476912D01*
X89435000Y-67161033D01*
X89435000Y-66838967D01*
X89431082Y-66819268D01*
X97965000Y-66819268D01*
X97965000Y-67180732D01*
X98035518Y-67535250D01*
X98173844Y-67869199D01*
X98374662Y-68169744D01*
X98630256Y-68425338D01*
X98930801Y-68626156D01*
X99264750Y-68764482D01*
X99619268Y-68835000D01*
X99980732Y-68835000D01*
X100335250Y-68764482D01*
X100669199Y-68626156D01*
X100969744Y-68425338D01*
X101225338Y-68169744D01*
X101379538Y-67938967D01*
X109865000Y-67938967D01*
X109865000Y-68261033D01*
X109927832Y-68576912D01*
X110051082Y-68874463D01*
X110230013Y-69142252D01*
X110457748Y-69369987D01*
X110725537Y-69548918D01*
X111023088Y-69672168D01*
X111338967Y-69735000D01*
X111661033Y-69735000D01*
X111976912Y-69672168D01*
X112274463Y-69548918D01*
X112542252Y-69369987D01*
X112769987Y-69142252D01*
X112892655Y-68958665D01*
X117865000Y-68958665D01*
X117865000Y-69241335D01*
X117920147Y-69518574D01*
X118028320Y-69779727D01*
X118185363Y-70014759D01*
X118385241Y-70214637D01*
X118620273Y-70371680D01*
X118881426Y-70479853D01*
X119158665Y-70535000D01*
X119441335Y-70535000D01*
X119718574Y-70479853D01*
X119979727Y-70371680D01*
X120214759Y-70214637D01*
X120414637Y-70014759D01*
X120571680Y-69779727D01*
X120646125Y-69600000D01*
X125861928Y-69600000D01*
X125861928Y-72200000D01*
X125874188Y-72324482D01*
X125910498Y-72444180D01*
X125969463Y-72554494D01*
X126048815Y-72651185D01*
X126145506Y-72730537D01*
X126255820Y-72789502D01*
X126375518Y-72825812D01*
X126500000Y-72838072D01*
X129100000Y-72838072D01*
X129224482Y-72825812D01*
X129344180Y-72789502D01*
X129454494Y-72730537D01*
X129551185Y-72651185D01*
X129630537Y-72554494D01*
X129689502Y-72444180D01*
X129725812Y-72324482D01*
X129738072Y-72200000D01*
X129738072Y-69600000D01*
X129725812Y-69475518D01*
X129689502Y-69355820D01*
X129630537Y-69245506D01*
X129551185Y-69148815D01*
X129454494Y-69069463D01*
X129344180Y-69010498D01*
X129224482Y-68974188D01*
X129100000Y-68961928D01*
X126500000Y-68961928D01*
X126375518Y-68974188D01*
X126255820Y-69010498D01*
X126145506Y-69069463D01*
X126048815Y-69148815D01*
X125969463Y-69245506D01*
X125910498Y-69355820D01*
X125874188Y-69475518D01*
X125861928Y-69600000D01*
X120646125Y-69600000D01*
X120679853Y-69518574D01*
X120735000Y-69241335D01*
X120735000Y-68958665D01*
X120679853Y-68681426D01*
X120571680Y-68420273D01*
X120414637Y-68185241D01*
X120214759Y-67985363D01*
X119979727Y-67828320D01*
X119718574Y-67720147D01*
X119441335Y-67665000D01*
X119158665Y-67665000D01*
X118881426Y-67720147D01*
X118620273Y-67828320D01*
X118385241Y-67985363D01*
X118185363Y-68185241D01*
X118028320Y-68420273D01*
X117920147Y-68681426D01*
X117865000Y-68958665D01*
X112892655Y-68958665D01*
X112948918Y-68874463D01*
X113072168Y-68576912D01*
X113135000Y-68261033D01*
X113135000Y-67938967D01*
X113072168Y-67623088D01*
X112948918Y-67325537D01*
X112769987Y-67057748D01*
X112542252Y-66830013D01*
X112274463Y-66651082D01*
X111976912Y-66527832D01*
X111661033Y-66465000D01*
X111338967Y-66465000D01*
X111023088Y-66527832D01*
X110725537Y-66651082D01*
X110457748Y-66830013D01*
X110230013Y-67057748D01*
X110051082Y-67325537D01*
X109927832Y-67623088D01*
X109865000Y-67938967D01*
X101379538Y-67938967D01*
X101426156Y-67869199D01*
X101564482Y-67535250D01*
X101635000Y-67180732D01*
X101635000Y-66819268D01*
X101564482Y-66464750D01*
X101426156Y-66130801D01*
X101225338Y-65830256D01*
X100969744Y-65574662D01*
X100669199Y-65373844D01*
X100335250Y-65235518D01*
X99980732Y-65165000D01*
X99619268Y-65165000D01*
X99264750Y-65235518D01*
X98930801Y-65373844D01*
X98630256Y-65574662D01*
X98374662Y-65830256D01*
X98173844Y-66130801D01*
X98035518Y-66464750D01*
X97965000Y-66819268D01*
X89431082Y-66819268D01*
X89372168Y-66523088D01*
X89248918Y-66225537D01*
X89069987Y-65957748D01*
X88842252Y-65730013D01*
X88574463Y-65551082D01*
X88276912Y-65427832D01*
X87961033Y-65365000D01*
X87638967Y-65365000D01*
X87323088Y-65427832D01*
X87025537Y-65551082D01*
X86757748Y-65730013D01*
X86530013Y-65957748D01*
X86351082Y-66225537D01*
X86227832Y-66523088D01*
X86165000Y-66838967D01*
X80465323Y-66838967D01*
X80299727Y-66728320D01*
X80038574Y-66620147D01*
X79761335Y-66565000D01*
X79478665Y-66565000D01*
X79201426Y-66620147D01*
X78940273Y-66728320D01*
X78705241Y-66885363D01*
X78505363Y-67085241D01*
X78348320Y-67320273D01*
X78240147Y-67581426D01*
X78185000Y-67858665D01*
X73435000Y-67858665D01*
X73379853Y-67581426D01*
X73271680Y-67320273D01*
X73114637Y-67085241D01*
X72914759Y-66885363D01*
X72679727Y-66728320D01*
X72418574Y-66620147D01*
X72141335Y-66565000D01*
X71858665Y-66565000D01*
X71581426Y-66620147D01*
X71320273Y-66728320D01*
X71085241Y-66885363D01*
X70885363Y-67085241D01*
X70728320Y-67320273D01*
X70620147Y-67581426D01*
X70565000Y-67858665D01*
X69435000Y-67858665D01*
X69435000Y-67838665D01*
X69379853Y-67561426D01*
X69271680Y-67300273D01*
X69114637Y-67065241D01*
X68914759Y-66865363D01*
X68679727Y-66708320D01*
X68418574Y-66600147D01*
X68141335Y-66545000D01*
X67858665Y-66545000D01*
X67581426Y-66600147D01*
X67320273Y-66708320D01*
X67085241Y-66865363D01*
X66885363Y-67065241D01*
X66728320Y-67300273D01*
X66620147Y-67561426D01*
X66565000Y-67838665D01*
X66565000Y-68121335D01*
X66620147Y-68398574D01*
X66728320Y-68659727D01*
X66885363Y-68894759D01*
X67085241Y-69094637D01*
X67317759Y-69250000D01*
X67085241Y-69405363D01*
X66885363Y-69605241D01*
X66728320Y-69840273D01*
X66620147Y-70101426D01*
X66565000Y-70378665D01*
X66565000Y-70661335D01*
X66620147Y-70938574D01*
X66728320Y-71199727D01*
X66885363Y-71434759D01*
X67085241Y-71634637D01*
X67317759Y-71790000D01*
X67085241Y-71945363D01*
X66885363Y-72145241D01*
X66728320Y-72380273D01*
X66620147Y-72641426D01*
X66565000Y-72918665D01*
X66565000Y-73201335D01*
X66620147Y-73478574D01*
X66728320Y-73739727D01*
X66885363Y-73974759D01*
X67083961Y-74173357D01*
X67075518Y-74174188D01*
X66955820Y-74210498D01*
X66845506Y-74269463D01*
X66748815Y-74348815D01*
X66669463Y-74445506D01*
X66610498Y-74555820D01*
X66574188Y-74675518D01*
X66561928Y-74800000D01*
X61571317Y-74800000D01*
X61494637Y-74685241D01*
X61294759Y-74485363D01*
X61062241Y-74330000D01*
X61294759Y-74174637D01*
X61494637Y-73974759D01*
X61651680Y-73739727D01*
X61759853Y-73478574D01*
X61815000Y-73201335D01*
X61815000Y-72918665D01*
X61759853Y-72641426D01*
X61651680Y-72380273D01*
X61494637Y-72145241D01*
X61294759Y-71945363D01*
X61062241Y-71790000D01*
X61294759Y-71634637D01*
X61494637Y-71434759D01*
X61651680Y-71199727D01*
X61759853Y-70938574D01*
X61815000Y-70661335D01*
X61815000Y-70378665D01*
X61759853Y-70101426D01*
X61651680Y-69840273D01*
X61494637Y-69605241D01*
X61294759Y-69405363D01*
X61062241Y-69250000D01*
X61294759Y-69094637D01*
X61494637Y-68894759D01*
X61651680Y-68659727D01*
X61759853Y-68398574D01*
X61815000Y-68121335D01*
X61815000Y-67838665D01*
X61759853Y-67561426D01*
X61651680Y-67300273D01*
X61494637Y-67065241D01*
X61294759Y-66865363D01*
X61059727Y-66708320D01*
X60798574Y-66600147D01*
X60521335Y-66545000D01*
X60238665Y-66545000D01*
X59961426Y-66600147D01*
X59700273Y-66708320D01*
X59465241Y-66865363D01*
X59265363Y-67065241D01*
X59108320Y-67300273D01*
X59000147Y-67561426D01*
X58945000Y-67838665D01*
X54438072Y-67838665D01*
X54438072Y-67400000D01*
X54425812Y-67275518D01*
X54389502Y-67155820D01*
X54330537Y-67045506D01*
X54251185Y-66948815D01*
X54154494Y-66869463D01*
X54044180Y-66810498D01*
X53924482Y-66774188D01*
X53800000Y-66761928D01*
X51200000Y-66761928D01*
X51075518Y-66774188D01*
X50955820Y-66810498D01*
X50845506Y-66869463D01*
X50748815Y-66948815D01*
X50669463Y-67045506D01*
X50610498Y-67155820D01*
X50574188Y-67275518D01*
X50561928Y-67400000D01*
X45685000Y-67400000D01*
X45685000Y-64870424D01*
X51509181Y-64870424D01*
X51660099Y-65072090D01*
X51943918Y-65209582D01*
X52249109Y-65289063D01*
X52563941Y-65307476D01*
X52876315Y-65264115D01*
X53174228Y-65160645D01*
X53339901Y-65072090D01*
X53490819Y-64870424D01*
X52500000Y-63879605D01*
X51509181Y-64870424D01*
X45685000Y-64870424D01*
X45685000Y-63763941D01*
X50892524Y-63763941D01*
X50935885Y-64076315D01*
X51039355Y-64374228D01*
X51127910Y-64539901D01*
X51329576Y-64690819D01*
X52320395Y-63700000D01*
X52679605Y-63700000D01*
X53670424Y-64690819D01*
X53872090Y-64539901D01*
X54009582Y-64256082D01*
X54089063Y-63950891D01*
X54107476Y-63636059D01*
X54064115Y-63323685D01*
X53960645Y-63025772D01*
X53872090Y-62860099D01*
X53870174Y-62858665D01*
X56905000Y-62858665D01*
X56905000Y-63141335D01*
X56960147Y-63418574D01*
X57068320Y-63679727D01*
X57225363Y-63914759D01*
X57425241Y-64114637D01*
X57660273Y-64271680D01*
X57921426Y-64379853D01*
X58198665Y-64435000D01*
X58481335Y-64435000D01*
X58758574Y-64379853D01*
X59019727Y-64271680D01*
X59254759Y-64114637D01*
X59454637Y-63914759D01*
X59611680Y-63679727D01*
X59719853Y-63418574D01*
X59775000Y-63141335D01*
X59775000Y-62858665D01*
X67065000Y-62858665D01*
X67065000Y-63141335D01*
X67120147Y-63418574D01*
X67228320Y-63679727D01*
X67385363Y-63914759D01*
X67585241Y-64114637D01*
X67820273Y-64271680D01*
X68081426Y-64379853D01*
X68358665Y-64435000D01*
X68641335Y-64435000D01*
X68918574Y-64379853D01*
X69179727Y-64271680D01*
X69414759Y-64114637D01*
X69614637Y-63914759D01*
X69771680Y-63679727D01*
X69879853Y-63418574D01*
X69935000Y-63141335D01*
X69935000Y-62858665D01*
X70545000Y-62858665D01*
X70545000Y-63141335D01*
X70600147Y-63418574D01*
X70708320Y-63679727D01*
X70865363Y-63914759D01*
X71065241Y-64114637D01*
X71300273Y-64271680D01*
X71561426Y-64379853D01*
X71838665Y-64435000D01*
X72121335Y-64435000D01*
X72398574Y-64379853D01*
X72659727Y-64271680D01*
X72894759Y-64114637D01*
X73094637Y-63914759D01*
X73162407Y-63813333D01*
X78966273Y-63813333D01*
X79056762Y-63963769D01*
X79255222Y-64051230D01*
X79466931Y-64098294D01*
X79683755Y-64103151D01*
X79701685Y-64100000D01*
X110197544Y-64100000D01*
X110203356Y-64159006D01*
X110220567Y-64215745D01*
X110248517Y-64268036D01*
X110286131Y-64313869D01*
X110331964Y-64351483D01*
X110384255Y-64379433D01*
X110440994Y-64396644D01*
X110500000Y-64402456D01*
X111297750Y-64401000D01*
X111373000Y-64325750D01*
X111373000Y-63227000D01*
X111627000Y-63227000D01*
X111627000Y-64325750D01*
X111702250Y-64401000D01*
X112500000Y-64402456D01*
X112559006Y-64396644D01*
X112615745Y-64379433D01*
X112668036Y-64351483D01*
X112713869Y-64313869D01*
X112751483Y-64268036D01*
X112779433Y-64215745D01*
X112796644Y-64159006D01*
X112802456Y-64100000D01*
X112802018Y-63860000D01*
X124609388Y-63860000D01*
X124631785Y-64087400D01*
X124698115Y-64306060D01*
X124799105Y-64495000D01*
X124698115Y-64683940D01*
X124631785Y-64902600D01*
X124609388Y-65130000D01*
X124631785Y-65357400D01*
X124695093Y-65566098D01*
X124660498Y-65630820D01*
X124624188Y-65750518D01*
X124611928Y-65875000D01*
X124611928Y-66925000D01*
X124624188Y-67049482D01*
X124660498Y-67169180D01*
X124719463Y-67279494D01*
X124798815Y-67376185D01*
X124895506Y-67455537D01*
X125005820Y-67514502D01*
X125125518Y-67550812D01*
X125250000Y-67563072D01*
X126750000Y-67563072D01*
X126874482Y-67550812D01*
X126994180Y-67514502D01*
X127104494Y-67455537D01*
X127201185Y-67376185D01*
X127280537Y-67279494D01*
X127339502Y-67169180D01*
X127375812Y-67049482D01*
X127388072Y-66925000D01*
X127388072Y-65875000D01*
X127375812Y-65750518D01*
X127339502Y-65630820D01*
X127304907Y-65566098D01*
X127368215Y-65357400D01*
X127390612Y-65130000D01*
X127368215Y-64902600D01*
X127301885Y-64683940D01*
X127200895Y-64495000D01*
X127301885Y-64306060D01*
X127368215Y-64087400D01*
X127390612Y-63860000D01*
X127368215Y-63632600D01*
X127301885Y-63413940D01*
X127194171Y-63212421D01*
X127049212Y-63035788D01*
X126872579Y-62890829D01*
X126671060Y-62783115D01*
X126452400Y-62716785D01*
X126281979Y-62700000D01*
X125718021Y-62700000D01*
X125547600Y-62716785D01*
X125328940Y-62783115D01*
X125127421Y-62890829D01*
X124950788Y-63035788D01*
X124805829Y-63212421D01*
X124698115Y-63413940D01*
X124631785Y-63632600D01*
X124609388Y-63860000D01*
X112802018Y-63860000D01*
X112801000Y-63302250D01*
X112725750Y-63227000D01*
X111627000Y-63227000D01*
X111373000Y-63227000D01*
X110274250Y-63227000D01*
X110199000Y-63302250D01*
X110197544Y-64100000D01*
X79701685Y-64100000D01*
X79897360Y-64065614D01*
X80099537Y-63987127D01*
X80143238Y-63963769D01*
X80233727Y-63813333D01*
X79600000Y-63179605D01*
X78966273Y-63813333D01*
X73162407Y-63813333D01*
X73251680Y-63679727D01*
X73359853Y-63418574D01*
X73415000Y-63141335D01*
X73415000Y-63083755D01*
X78496849Y-63083755D01*
X78534386Y-63297360D01*
X78612873Y-63499537D01*
X78636231Y-63543238D01*
X78786667Y-63633727D01*
X79420395Y-63000000D01*
X79779605Y-63000000D01*
X80413333Y-63633727D01*
X80563769Y-63543238D01*
X80651230Y-63344778D01*
X80698294Y-63133069D01*
X80701274Y-63000000D01*
X86497544Y-63000000D01*
X86503356Y-63059006D01*
X86520567Y-63115745D01*
X86548517Y-63168036D01*
X86586131Y-63213869D01*
X86631964Y-63251483D01*
X86684255Y-63279433D01*
X86740994Y-63296644D01*
X86800000Y-63302456D01*
X87597750Y-63301000D01*
X87673000Y-63225750D01*
X87673000Y-62127000D01*
X87927000Y-62127000D01*
X87927000Y-63225750D01*
X88002250Y-63301000D01*
X88800000Y-63302456D01*
X88859006Y-63296644D01*
X88915745Y-63279433D01*
X88968036Y-63251483D01*
X89013869Y-63213869D01*
X89051483Y-63168036D01*
X89079433Y-63115745D01*
X89096644Y-63059006D01*
X89102456Y-63000000D01*
X89101000Y-62202250D01*
X89025750Y-62127000D01*
X87927000Y-62127000D01*
X87673000Y-62127000D01*
X86574250Y-62127000D01*
X86499000Y-62202250D01*
X86497544Y-63000000D01*
X80701274Y-63000000D01*
X80703151Y-62916245D01*
X80665614Y-62702640D01*
X80587127Y-62500463D01*
X80563769Y-62456762D01*
X80413333Y-62366273D01*
X79779605Y-63000000D01*
X79420395Y-63000000D01*
X78786667Y-62366273D01*
X78636231Y-62456762D01*
X78548770Y-62655222D01*
X78501706Y-62866931D01*
X78496849Y-63083755D01*
X73415000Y-63083755D01*
X73415000Y-62858665D01*
X73359853Y-62581426D01*
X73251680Y-62320273D01*
X73162408Y-62186667D01*
X78966273Y-62186667D01*
X79600000Y-62820395D01*
X80233727Y-62186667D01*
X80143238Y-62036231D01*
X79944778Y-61948770D01*
X79733069Y-61901706D01*
X79516245Y-61896849D01*
X79302640Y-61934386D01*
X79100463Y-62012873D01*
X79056762Y-62036231D01*
X78966273Y-62186667D01*
X73162408Y-62186667D01*
X73094637Y-62085241D01*
X72894759Y-61885363D01*
X72659727Y-61728320D01*
X72398574Y-61620147D01*
X72121335Y-61565000D01*
X71838665Y-61565000D01*
X71561426Y-61620147D01*
X71300273Y-61728320D01*
X71065241Y-61885363D01*
X70865363Y-62085241D01*
X70708320Y-62320273D01*
X70600147Y-62581426D01*
X70545000Y-62858665D01*
X69935000Y-62858665D01*
X69879853Y-62581426D01*
X69771680Y-62320273D01*
X69614637Y-62085241D01*
X69414759Y-61885363D01*
X69179727Y-61728320D01*
X68918574Y-61620147D01*
X68641335Y-61565000D01*
X68358665Y-61565000D01*
X68081426Y-61620147D01*
X67820273Y-61728320D01*
X67585241Y-61885363D01*
X67385363Y-62085241D01*
X67228320Y-62320273D01*
X67120147Y-62581426D01*
X67065000Y-62858665D01*
X59775000Y-62858665D01*
X59719853Y-62581426D01*
X59611680Y-62320273D01*
X59454637Y-62085241D01*
X59254759Y-61885363D01*
X59019727Y-61728320D01*
X58758574Y-61620147D01*
X58481335Y-61565000D01*
X58198665Y-61565000D01*
X57921426Y-61620147D01*
X57660273Y-61728320D01*
X57425241Y-61885363D01*
X57225363Y-62085241D01*
X57068320Y-62320273D01*
X56960147Y-62581426D01*
X56905000Y-62858665D01*
X53870174Y-62858665D01*
X53670424Y-62709181D01*
X52679605Y-63700000D01*
X52320395Y-63700000D01*
X51329576Y-62709181D01*
X51127910Y-62860099D01*
X50990418Y-63143918D01*
X50910937Y-63449109D01*
X50892524Y-63763941D01*
X45685000Y-63763941D01*
X45685000Y-61429117D01*
X45865000Y-61429117D01*
X45865000Y-61770883D01*
X45931675Y-62106081D01*
X46062463Y-62421831D01*
X46252337Y-62705998D01*
X46494002Y-62947663D01*
X46778169Y-63137537D01*
X47093919Y-63268325D01*
X47429117Y-63335000D01*
X47770883Y-63335000D01*
X48106081Y-63268325D01*
X48421831Y-63137537D01*
X48705998Y-62947663D01*
X48947663Y-62705998D01*
X49065544Y-62529576D01*
X51509181Y-62529576D01*
X52500000Y-63520395D01*
X53490819Y-62529576D01*
X53339901Y-62327910D01*
X53056082Y-62190418D01*
X52750891Y-62110937D01*
X52436059Y-62092524D01*
X52123685Y-62135885D01*
X51825772Y-62239355D01*
X51660099Y-62327910D01*
X51509181Y-62529576D01*
X49065544Y-62529576D01*
X49137537Y-62421831D01*
X49268325Y-62106081D01*
X49335000Y-61770883D01*
X49335000Y-61429117D01*
X49268325Y-61093919D01*
X49229423Y-61000000D01*
X86497544Y-61000000D01*
X86499000Y-61797750D01*
X86574250Y-61873000D01*
X87673000Y-61873000D01*
X87673000Y-60774250D01*
X87927000Y-60774250D01*
X87927000Y-61873000D01*
X89025750Y-61873000D01*
X89079482Y-61819268D01*
X97965000Y-61819268D01*
X97965000Y-62180732D01*
X98035518Y-62535250D01*
X98173844Y-62869199D01*
X98374662Y-63169744D01*
X98630256Y-63425338D01*
X98930801Y-63626156D01*
X99264750Y-63764482D01*
X99619268Y-63835000D01*
X99980732Y-63835000D01*
X100335250Y-63764482D01*
X100669199Y-63626156D01*
X100969744Y-63425338D01*
X101225338Y-63169744D01*
X101426156Y-62869199D01*
X101564482Y-62535250D01*
X101635000Y-62180732D01*
X101635000Y-62100000D01*
X110197544Y-62100000D01*
X110199000Y-62897750D01*
X110274250Y-62973000D01*
X111373000Y-62973000D01*
X111373000Y-61874250D01*
X111627000Y-61874250D01*
X111627000Y-62973000D01*
X112725750Y-62973000D01*
X112801000Y-62897750D01*
X112802456Y-62100000D01*
X112796644Y-62040994D01*
X112779433Y-61984255D01*
X112751483Y-61931964D01*
X112713869Y-61886131D01*
X112668036Y-61848517D01*
X112615745Y-61820567D01*
X112559006Y-61803356D01*
X112500000Y-61797544D01*
X111702250Y-61799000D01*
X111627000Y-61874250D01*
X111373000Y-61874250D01*
X111297750Y-61799000D01*
X110500000Y-61797544D01*
X110440994Y-61803356D01*
X110384255Y-61820567D01*
X110331964Y-61848517D01*
X110286131Y-61886131D01*
X110248517Y-61931964D01*
X110220567Y-61984255D01*
X110203356Y-62040994D01*
X110197544Y-62100000D01*
X101635000Y-62100000D01*
X101635000Y-61819268D01*
X101564482Y-61464750D01*
X101512256Y-61338665D01*
X117865000Y-61338665D01*
X117865000Y-61621335D01*
X117920147Y-61898574D01*
X118028320Y-62159727D01*
X118185363Y-62394759D01*
X118385241Y-62594637D01*
X118620273Y-62751680D01*
X118881426Y-62859853D01*
X119158665Y-62915000D01*
X119441335Y-62915000D01*
X119718574Y-62859853D01*
X119979727Y-62751680D01*
X120214759Y-62594637D01*
X120414637Y-62394759D01*
X120571680Y-62159727D01*
X120679853Y-61898574D01*
X120735000Y-61621335D01*
X120735000Y-61429117D01*
X129265000Y-61429117D01*
X129265000Y-61770883D01*
X129331675Y-62106081D01*
X129462463Y-62421831D01*
X129652337Y-62705998D01*
X129894002Y-62947663D01*
X130178169Y-63137537D01*
X130493919Y-63268325D01*
X130829117Y-63335000D01*
X131170883Y-63335000D01*
X131506081Y-63268325D01*
X131821831Y-63137537D01*
X132105998Y-62947663D01*
X132347663Y-62705998D01*
X132537537Y-62421831D01*
X132668325Y-62106081D01*
X132735000Y-61770883D01*
X132735000Y-61429117D01*
X132668325Y-61093919D01*
X132537537Y-60778169D01*
X132347663Y-60494002D01*
X132105998Y-60252337D01*
X131821831Y-60062463D01*
X131506081Y-59931675D01*
X131170883Y-59865000D01*
X130829117Y-59865000D01*
X130493919Y-59931675D01*
X130178169Y-60062463D01*
X129894002Y-60252337D01*
X129652337Y-60494002D01*
X129462463Y-60778169D01*
X129331675Y-61093919D01*
X129265000Y-61429117D01*
X120735000Y-61429117D01*
X120735000Y-61338665D01*
X120679853Y-61061426D01*
X120571680Y-60800273D01*
X120414637Y-60565241D01*
X120214759Y-60365363D01*
X119979727Y-60208320D01*
X119718574Y-60100147D01*
X119441335Y-60045000D01*
X119158665Y-60045000D01*
X118881426Y-60100147D01*
X118620273Y-60208320D01*
X118385241Y-60365363D01*
X118185363Y-60565241D01*
X118028320Y-60800273D01*
X117920147Y-61061426D01*
X117865000Y-61338665D01*
X101512256Y-61338665D01*
X101426156Y-61130801D01*
X101225338Y-60830256D01*
X100969744Y-60574662D01*
X100669199Y-60373844D01*
X100335250Y-60235518D01*
X99980732Y-60165000D01*
X99619268Y-60165000D01*
X99264750Y-60235518D01*
X98930801Y-60373844D01*
X98630256Y-60574662D01*
X98374662Y-60830256D01*
X98173844Y-61130801D01*
X98035518Y-61464750D01*
X97965000Y-61819268D01*
X89079482Y-61819268D01*
X89101000Y-61797750D01*
X89102456Y-61000000D01*
X89096644Y-60940994D01*
X89079433Y-60884255D01*
X89051483Y-60831964D01*
X89013869Y-60786131D01*
X88968036Y-60748517D01*
X88915745Y-60720567D01*
X88859006Y-60703356D01*
X88800000Y-60697544D01*
X88002250Y-60699000D01*
X87927000Y-60774250D01*
X87673000Y-60774250D01*
X87597750Y-60699000D01*
X86800000Y-60697544D01*
X86740994Y-60703356D01*
X86684255Y-60720567D01*
X86631964Y-60748517D01*
X86586131Y-60786131D01*
X86548517Y-60831964D01*
X86520567Y-60884255D01*
X86503356Y-60940994D01*
X86497544Y-61000000D01*
X49229423Y-61000000D01*
X49137537Y-60778169D01*
X48947663Y-60494002D01*
X48705998Y-60252337D01*
X48421831Y-60062463D01*
X48106081Y-59931675D01*
X47770883Y-59865000D01*
X47429117Y-59865000D01*
X47093919Y-59931675D01*
X46778169Y-60062463D01*
X46494002Y-60252337D01*
X46252337Y-60494002D01*
X46062463Y-60778169D01*
X45931675Y-61093919D01*
X45865000Y-61429117D01*
X45685000Y-61429117D01*
X45685000Y-59685000D01*
X132915000Y-59685000D01*
X132915001Y-81315000D01*
%TA.AperFunction,Conductor*%
D24*
G36*
X132915001Y-81315000D02*
G01*
X45685000Y-81315000D01*
X45685000Y-79229117D01*
X45865000Y-79229117D01*
X45865000Y-79570883D01*
X45931675Y-79906081D01*
X46062463Y-80221831D01*
X46252337Y-80505998D01*
X46494002Y-80747663D01*
X46778169Y-80937537D01*
X47093919Y-81068325D01*
X47429117Y-81135000D01*
X47770883Y-81135000D01*
X48106081Y-81068325D01*
X48421831Y-80937537D01*
X48705998Y-80747663D01*
X48947663Y-80505998D01*
X49137537Y-80221831D01*
X49268325Y-79906081D01*
X49335000Y-79570883D01*
X49335000Y-79229117D01*
X49268325Y-78893919D01*
X49152103Y-78613333D01*
X53166273Y-78613333D01*
X53256762Y-78763769D01*
X53455222Y-78851230D01*
X53666931Y-78898294D01*
X53883755Y-78903151D01*
X54097360Y-78865614D01*
X54299537Y-78787127D01*
X54343238Y-78763769D01*
X54433727Y-78613333D01*
X53800000Y-77979605D01*
X53166273Y-78613333D01*
X49152103Y-78613333D01*
X49137537Y-78578169D01*
X48947663Y-78294002D01*
X48705998Y-78052337D01*
X48453697Y-77883755D01*
X52696849Y-77883755D01*
X52734386Y-78097360D01*
X52812873Y-78299537D01*
X52836231Y-78343238D01*
X52986667Y-78433727D01*
X53620395Y-77800000D01*
X53979605Y-77800000D01*
X54613333Y-78433727D01*
X54763769Y-78343238D01*
X54851230Y-78144778D01*
X54898294Y-77933069D01*
X54903151Y-77716245D01*
X54900297Y-77700000D01*
X70161928Y-77700000D01*
X70161928Y-79500000D01*
X70174188Y-79624482D01*
X70210498Y-79744180D01*
X70269463Y-79854494D01*
X70348815Y-79951185D01*
X70445506Y-80030537D01*
X70555820Y-80089502D01*
X70675518Y-80125812D01*
X70800000Y-80138072D01*
X72600000Y-80138072D01*
X72724482Y-80125812D01*
X72844180Y-80089502D01*
X72954494Y-80030537D01*
X73051185Y-79951185D01*
X73130537Y-79854494D01*
X73189502Y-79744180D01*
X73225812Y-79624482D01*
X73238072Y-79500000D01*
X73238072Y-78448816D01*
X77785000Y-78448816D01*
X77785000Y-78751184D01*
X77843989Y-79047743D01*
X77959701Y-79327095D01*
X78127688Y-79578505D01*
X78341495Y-79792312D01*
X78592905Y-79960299D01*
X78872257Y-80076011D01*
X79168816Y-80135000D01*
X79471184Y-80135000D01*
X79767743Y-80076011D01*
X80047095Y-79960299D01*
X80298505Y-79792312D01*
X80512312Y-79578505D01*
X80680299Y-79327095D01*
X80796011Y-79047743D01*
X80855000Y-78751184D01*
X80855000Y-78448816D01*
X80796011Y-78152257D01*
X80680299Y-77872905D01*
X80512312Y-77621495D01*
X80298505Y-77407688D01*
X80047095Y-77239701D01*
X79767743Y-77123989D01*
X79471184Y-77065000D01*
X79168816Y-77065000D01*
X78872257Y-77123989D01*
X78592905Y-77239701D01*
X78341495Y-77407688D01*
X78127688Y-77621495D01*
X77959701Y-77872905D01*
X77843989Y-78152257D01*
X77785000Y-78448816D01*
X73238072Y-78448816D01*
X73238072Y-77700000D01*
X73225812Y-77575518D01*
X73189502Y-77455820D01*
X73130537Y-77345506D01*
X73051185Y-77248815D01*
X72954494Y-77169463D01*
X72844180Y-77110498D01*
X72724482Y-77074188D01*
X72600000Y-77061928D01*
X70800000Y-77061928D01*
X70675518Y-77074188D01*
X70555820Y-77110498D01*
X70445506Y-77169463D01*
X70348815Y-77248815D01*
X70269463Y-77345506D01*
X70210498Y-77455820D01*
X70174188Y-77575518D01*
X70161928Y-77700000D01*
X54900297Y-77700000D01*
X54865614Y-77502640D01*
X54787127Y-77300463D01*
X54763769Y-77256762D01*
X54613333Y-77166273D01*
X53979605Y-77800000D01*
X53620395Y-77800000D01*
X52986667Y-77166273D01*
X52836231Y-77256762D01*
X52748770Y-77455222D01*
X52701706Y-77666931D01*
X52696849Y-77883755D01*
X48453697Y-77883755D01*
X48421831Y-77862463D01*
X48106081Y-77731675D01*
X47770883Y-77665000D01*
X47429117Y-77665000D01*
X47093919Y-77731675D01*
X46778169Y-77862463D01*
X46494002Y-78052337D01*
X46252337Y-78294002D01*
X46062463Y-78578169D01*
X45931675Y-78893919D01*
X45865000Y-79229117D01*
X45685000Y-79229117D01*
X45685000Y-76986667D01*
X53166273Y-76986667D01*
X53800000Y-77620395D01*
X54433727Y-76986667D01*
X54343238Y-76836231D01*
X54144778Y-76748770D01*
X53933069Y-76701706D01*
X53716245Y-76696849D01*
X53502640Y-76734386D01*
X53300463Y-76812873D01*
X53256762Y-76836231D01*
X53166273Y-76986667D01*
X45685000Y-76986667D01*
X45685000Y-73500000D01*
X52361928Y-73500000D01*
X52361928Y-75100000D01*
X52374188Y-75224482D01*
X52410498Y-75344180D01*
X52469463Y-75454494D01*
X52548815Y-75551185D01*
X52645506Y-75630537D01*
X52755820Y-75689502D01*
X52875518Y-75725812D01*
X53000000Y-75738072D01*
X54600000Y-75738072D01*
X54724482Y-75725812D01*
X54844180Y-75689502D01*
X54954494Y-75630537D01*
X55051185Y-75551185D01*
X55130537Y-75454494D01*
X55189502Y-75344180D01*
X55225812Y-75224482D01*
X55238072Y-75100000D01*
X55238072Y-73500000D01*
X55225812Y-73375518D01*
X55189502Y-73255820D01*
X55130537Y-73145506D01*
X55051185Y-73048815D01*
X54954494Y-72969463D01*
X54844180Y-72910498D01*
X54724482Y-72874188D01*
X54600000Y-72861928D01*
X53000000Y-72861928D01*
X52875518Y-72874188D01*
X52755820Y-72910498D01*
X52645506Y-72969463D01*
X52548815Y-73048815D01*
X52469463Y-73145506D01*
X52410498Y-73255820D01*
X52374188Y-73375518D01*
X52361928Y-73500000D01*
X45685000Y-73500000D01*
X45685000Y-67400000D01*
X50561928Y-67400000D01*
X50561928Y-70000000D01*
X50574188Y-70124482D01*
X50610498Y-70244180D01*
X50669463Y-70354494D01*
X50748815Y-70451185D01*
X50845506Y-70530537D01*
X50955820Y-70589502D01*
X51075518Y-70625812D01*
X51200000Y-70638072D01*
X53800000Y-70638072D01*
X53924482Y-70625812D01*
X54044180Y-70589502D01*
X54154494Y-70530537D01*
X54251185Y-70451185D01*
X54330537Y-70354494D01*
X54389502Y-70244180D01*
X54425812Y-70124482D01*
X54438072Y-70000000D01*
X54438072Y-67838665D01*
X58945000Y-67838665D01*
X58945000Y-68121335D01*
X59000147Y-68398574D01*
X59108320Y-68659727D01*
X59265363Y-68894759D01*
X59465241Y-69094637D01*
X59697759Y-69250000D01*
X59465241Y-69405363D01*
X59265363Y-69605241D01*
X59108320Y-69840273D01*
X59000147Y-70101426D01*
X58945000Y-70378665D01*
X58945000Y-70661335D01*
X59000147Y-70938574D01*
X59108320Y-71199727D01*
X59265363Y-71434759D01*
X59465241Y-71634637D01*
X59697759Y-71790000D01*
X59465241Y-71945363D01*
X59265363Y-72145241D01*
X59108320Y-72380273D01*
X59000147Y-72641426D01*
X58945000Y-72918665D01*
X58945000Y-73201335D01*
X59000147Y-73478574D01*
X59108320Y-73739727D01*
X59265363Y-73974759D01*
X59465241Y-74174637D01*
X59697759Y-74330000D01*
X59465241Y-74485363D01*
X59265363Y-74685241D01*
X59108320Y-74920273D01*
X59000147Y-75181426D01*
X58945000Y-75458665D01*
X58945000Y-75741335D01*
X59000147Y-76018574D01*
X59108320Y-76279727D01*
X59265363Y-76514759D01*
X59465241Y-76714637D01*
X59700273Y-76871680D01*
X59961426Y-76979853D01*
X60238665Y-77035000D01*
X60521335Y-77035000D01*
X60798574Y-76979853D01*
X61059727Y-76871680D01*
X61294759Y-76714637D01*
X61494637Y-76514759D01*
X61651680Y-76279727D01*
X61759853Y-76018574D01*
X61815000Y-75741335D01*
X61815000Y-75458665D01*
X61759853Y-75181426D01*
X61651680Y-74920273D01*
X61571317Y-74800000D01*
X66561928Y-74800000D01*
X66561928Y-76400000D01*
X66574188Y-76524482D01*
X66610498Y-76644180D01*
X66669463Y-76754494D01*
X66748815Y-76851185D01*
X66845506Y-76930537D01*
X66955820Y-76989502D01*
X67075518Y-77025812D01*
X67200000Y-77038072D01*
X68800000Y-77038072D01*
X68924482Y-77025812D01*
X69044180Y-76989502D01*
X69154494Y-76930537D01*
X69251185Y-76851185D01*
X69330537Y-76754494D01*
X69389502Y-76644180D01*
X69425812Y-76524482D01*
X69438072Y-76400000D01*
X69438072Y-76319268D01*
X82165000Y-76319268D01*
X82165000Y-76680732D01*
X82235518Y-77035250D01*
X82373844Y-77369199D01*
X82574662Y-77669744D01*
X82830256Y-77925338D01*
X83130801Y-78126156D01*
X83464750Y-78264482D01*
X83819268Y-78335000D01*
X84180732Y-78335000D01*
X84535250Y-78264482D01*
X84869199Y-78126156D01*
X85169744Y-77925338D01*
X85425338Y-77669744D01*
X85472535Y-77599108D01*
X88080497Y-77599108D01*
X88219358Y-77790526D01*
X88486127Y-77918025D01*
X88772644Y-77991029D01*
X89067898Y-78006734D01*
X89360542Y-77964537D01*
X89639332Y-77866058D01*
X89780642Y-77790526D01*
X89919503Y-77599108D01*
X89000000Y-76679605D01*
X88080497Y-77599108D01*
X85472535Y-77599108D01*
X85626156Y-77369199D01*
X85764482Y-77035250D01*
X85835000Y-76680732D01*
X85835000Y-76567898D01*
X87493266Y-76567898D01*
X87535463Y-76860542D01*
X87633942Y-77139332D01*
X87709474Y-77280642D01*
X87900892Y-77419503D01*
X88820395Y-76500000D01*
X89179605Y-76500000D01*
X90099108Y-77419503D01*
X90290526Y-77280642D01*
X90418025Y-77013873D01*
X90491029Y-76727356D01*
X90506734Y-76432102D01*
X90464537Y-76139458D01*
X90366058Y-75860668D01*
X90290526Y-75719358D01*
X90099108Y-75580497D01*
X89179605Y-76500000D01*
X88820395Y-76500000D01*
X87900892Y-75580497D01*
X87709474Y-75719358D01*
X87581975Y-75986127D01*
X87508971Y-76272644D01*
X87493266Y-76567898D01*
X85835000Y-76567898D01*
X85835000Y-76319268D01*
X85764482Y-75964750D01*
X85626156Y-75630801D01*
X85472536Y-75400892D01*
X88080497Y-75400892D01*
X89000000Y-76320395D01*
X89919503Y-75400892D01*
X89780642Y-75209474D01*
X89513873Y-75081975D01*
X89227356Y-75008971D01*
X88932102Y-74993266D01*
X88639458Y-75035463D01*
X88360668Y-75133942D01*
X88219358Y-75209474D01*
X88080497Y-75400892D01*
X85472536Y-75400892D01*
X85425338Y-75330256D01*
X85169744Y-75074662D01*
X84869199Y-74873844D01*
X84535250Y-74735518D01*
X84180732Y-74665000D01*
X83819268Y-74665000D01*
X83464750Y-74735518D01*
X83130801Y-74873844D01*
X82830256Y-75074662D01*
X82574662Y-75330256D01*
X82373844Y-75630801D01*
X82235518Y-75964750D01*
X82165000Y-76319268D01*
X69438072Y-76319268D01*
X69438072Y-74800000D01*
X69425812Y-74675518D01*
X69389502Y-74555820D01*
X69330537Y-74445506D01*
X69251185Y-74348815D01*
X69154494Y-74269463D01*
X69044180Y-74210498D01*
X68924482Y-74174188D01*
X68916039Y-74173357D01*
X69114637Y-73974759D01*
X69271680Y-73739727D01*
X69379853Y-73478574D01*
X69423596Y-73258665D01*
X71765000Y-73258665D01*
X71765000Y-73541335D01*
X71820147Y-73818574D01*
X71928320Y-74079727D01*
X72085363Y-74314759D01*
X72285241Y-74514637D01*
X72520273Y-74671680D01*
X72781426Y-74779853D01*
X73058665Y-74835000D01*
X73341335Y-74835000D01*
X73618574Y-74779853D01*
X73879727Y-74671680D01*
X74114759Y-74514637D01*
X74314637Y-74314759D01*
X74471680Y-74079727D01*
X74579853Y-73818574D01*
X74635000Y-73541335D01*
X74635000Y-73258665D01*
X76765000Y-73258665D01*
X76765000Y-73541335D01*
X76820147Y-73818574D01*
X76928320Y-74079727D01*
X77085363Y-74314759D01*
X77285241Y-74514637D01*
X77520273Y-74671680D01*
X77781426Y-74779853D01*
X78058665Y-74835000D01*
X78341335Y-74835000D01*
X78618574Y-74779853D01*
X78879727Y-74671680D01*
X79114759Y-74514637D01*
X79314637Y-74314759D01*
X79471680Y-74079727D01*
X79579853Y-73818574D01*
X79635000Y-73541335D01*
X79635000Y-73366544D01*
X95645000Y-73366544D01*
X95645000Y-73633456D01*
X95697072Y-73895239D01*
X95799215Y-74141833D01*
X95947503Y-74363762D01*
X96136238Y-74552497D01*
X96358167Y-74700785D01*
X96525266Y-74770000D01*
X96358167Y-74839215D01*
X96136238Y-74987503D01*
X95947503Y-75176238D01*
X95799215Y-75398167D01*
X95697072Y-75644761D01*
X95645000Y-75906544D01*
X95645000Y-76173456D01*
X95697072Y-76435239D01*
X95799215Y-76681833D01*
X95947503Y-76903762D01*
X96136238Y-77092497D01*
X96358167Y-77240785D01*
X96525266Y-77310000D01*
X96358167Y-77379215D01*
X96136238Y-77527503D01*
X95947503Y-77716238D01*
X95799215Y-77938167D01*
X95697072Y-78184761D01*
X95645000Y-78446544D01*
X95645000Y-78713456D01*
X95697072Y-78975239D01*
X95799215Y-79221833D01*
X95947503Y-79443762D01*
X96136238Y-79632497D01*
X96358167Y-79780785D01*
X96604761Y-79882928D01*
X96866544Y-79935000D01*
X97133456Y-79935000D01*
X97395239Y-79882928D01*
X97641833Y-79780785D01*
X97863762Y-79632497D01*
X98052497Y-79443762D01*
X98200785Y-79221833D01*
X98302928Y-78975239D01*
X98355000Y-78713456D01*
X98355000Y-78446544D01*
X98333602Y-78338967D01*
X104765000Y-78338967D01*
X104765000Y-78661033D01*
X104827832Y-78976912D01*
X104951082Y-79274463D01*
X105130013Y-79542252D01*
X105357748Y-79769987D01*
X105625537Y-79948918D01*
X105923088Y-80072168D01*
X106238967Y-80135000D01*
X106561033Y-80135000D01*
X106876912Y-80072168D01*
X107174463Y-79948918D01*
X107442252Y-79769987D01*
X107669987Y-79542252D01*
X107848918Y-79274463D01*
X107972168Y-78976912D01*
X108035000Y-78661033D01*
X108035000Y-78338967D01*
X116365000Y-78338967D01*
X116365000Y-78661033D01*
X116427832Y-78976912D01*
X116551082Y-79274463D01*
X116730013Y-79542252D01*
X116957748Y-79769987D01*
X117225537Y-79948918D01*
X117523088Y-80072168D01*
X117838967Y-80135000D01*
X118161033Y-80135000D01*
X118476912Y-80072168D01*
X118774463Y-79948918D01*
X119042252Y-79769987D01*
X119269987Y-79542252D01*
X119448918Y-79274463D01*
X119467700Y-79229117D01*
X129265000Y-79229117D01*
X129265000Y-79570883D01*
X129331675Y-79906081D01*
X129462463Y-80221831D01*
X129652337Y-80505998D01*
X129894002Y-80747663D01*
X130178169Y-80937537D01*
X130493919Y-81068325D01*
X130829117Y-81135000D01*
X131170883Y-81135000D01*
X131506081Y-81068325D01*
X131821831Y-80937537D01*
X132105998Y-80747663D01*
X132347663Y-80505998D01*
X132537537Y-80221831D01*
X132668325Y-79906081D01*
X132735000Y-79570883D01*
X132735000Y-79229117D01*
X132668325Y-78893919D01*
X132537537Y-78578169D01*
X132347663Y-78294002D01*
X132105998Y-78052337D01*
X131821831Y-77862463D01*
X131506081Y-77731675D01*
X131170883Y-77665000D01*
X130829117Y-77665000D01*
X130493919Y-77731675D01*
X130178169Y-77862463D01*
X129894002Y-78052337D01*
X129652337Y-78294002D01*
X129462463Y-78578169D01*
X129331675Y-78893919D01*
X129265000Y-79229117D01*
X119467700Y-79229117D01*
X119572168Y-78976912D01*
X119635000Y-78661033D01*
X119635000Y-78338967D01*
X119572168Y-78023088D01*
X119448918Y-77725537D01*
X119269987Y-77457748D01*
X119042252Y-77230013D01*
X118803411Y-77070424D01*
X126809181Y-77070424D01*
X126960099Y-77272090D01*
X127243918Y-77409582D01*
X127549109Y-77489063D01*
X127863941Y-77507476D01*
X128176315Y-77464115D01*
X128474228Y-77360645D01*
X128639901Y-77272090D01*
X128790819Y-77070424D01*
X127800000Y-76079605D01*
X126809181Y-77070424D01*
X118803411Y-77070424D01*
X118774463Y-77051082D01*
X118476912Y-76927832D01*
X118161033Y-76865000D01*
X117838967Y-76865000D01*
X117523088Y-76927832D01*
X117225537Y-77051082D01*
X116957748Y-77230013D01*
X116730013Y-77457748D01*
X116551082Y-77725537D01*
X116427832Y-78023088D01*
X116365000Y-78338967D01*
X108035000Y-78338967D01*
X107972168Y-78023088D01*
X107848918Y-77725537D01*
X107669987Y-77457748D01*
X107442252Y-77230013D01*
X107174463Y-77051082D01*
X106876912Y-76927832D01*
X106561033Y-76865000D01*
X106238967Y-76865000D01*
X105923088Y-76927832D01*
X105625537Y-77051082D01*
X105357748Y-77230013D01*
X105130013Y-77457748D01*
X104951082Y-77725537D01*
X104827832Y-78023088D01*
X104765000Y-78338967D01*
X98333602Y-78338967D01*
X98302928Y-78184761D01*
X98200785Y-77938167D01*
X98052497Y-77716238D01*
X97863762Y-77527503D01*
X97641833Y-77379215D01*
X97474734Y-77310000D01*
X97641833Y-77240785D01*
X97863762Y-77092497D01*
X98052497Y-76903762D01*
X98200785Y-76681833D01*
X98302928Y-76435239D01*
X98355000Y-76173456D01*
X98355000Y-75963941D01*
X126192524Y-75963941D01*
X126235885Y-76276315D01*
X126339355Y-76574228D01*
X126427910Y-76739901D01*
X126629576Y-76890819D01*
X127620395Y-75900000D01*
X127979605Y-75900000D01*
X128970424Y-76890819D01*
X129172090Y-76739901D01*
X129309582Y-76456082D01*
X129389063Y-76150891D01*
X129407476Y-75836059D01*
X129364115Y-75523685D01*
X129260645Y-75225772D01*
X129172090Y-75060099D01*
X128970424Y-74909181D01*
X127979605Y-75900000D01*
X127620395Y-75900000D01*
X126629576Y-74909181D01*
X126427910Y-75060099D01*
X126290418Y-75343918D01*
X126210937Y-75649109D01*
X126192524Y-75963941D01*
X98355000Y-75963941D01*
X98355000Y-75906544D01*
X98302928Y-75644761D01*
X98200785Y-75398167D01*
X98052497Y-75176238D01*
X97863762Y-74987503D01*
X97641833Y-74839215D01*
X97474734Y-74770000D01*
X97641833Y-74700785D01*
X97863762Y-74552497D01*
X97916259Y-74500000D01*
X105097544Y-74500000D01*
X105103356Y-74559006D01*
X105120567Y-74615745D01*
X105148517Y-74668036D01*
X105186131Y-74713869D01*
X105231964Y-74751483D01*
X105284255Y-74779433D01*
X105340994Y-74796644D01*
X105400000Y-74802456D01*
X106197750Y-74801000D01*
X106273000Y-74725750D01*
X106273000Y-73627000D01*
X106527000Y-73627000D01*
X106527000Y-74725750D01*
X106602250Y-74801000D01*
X107400000Y-74802456D01*
X107459006Y-74796644D01*
X107515745Y-74779433D01*
X107568036Y-74751483D01*
X107613869Y-74713869D01*
X107651483Y-74668036D01*
X107679433Y-74615745D01*
X107696644Y-74559006D01*
X107702456Y-74500000D01*
X116697544Y-74500000D01*
X116703356Y-74559006D01*
X116720567Y-74615745D01*
X116748517Y-74668036D01*
X116786131Y-74713869D01*
X116831964Y-74751483D01*
X116884255Y-74779433D01*
X116940994Y-74796644D01*
X117000000Y-74802456D01*
X117797750Y-74801000D01*
X117873000Y-74725750D01*
X117873000Y-73627000D01*
X118127000Y-73627000D01*
X118127000Y-74725750D01*
X118202250Y-74801000D01*
X119000000Y-74802456D01*
X119059006Y-74796644D01*
X119115745Y-74779433D01*
X119168036Y-74751483D01*
X119194729Y-74729576D01*
X126809181Y-74729576D01*
X127800000Y-75720395D01*
X128790819Y-74729576D01*
X128639901Y-74527910D01*
X128356082Y-74390418D01*
X128050891Y-74310937D01*
X127736059Y-74292524D01*
X127423685Y-74335885D01*
X127125772Y-74439355D01*
X126960099Y-74527910D01*
X126809181Y-74729576D01*
X119194729Y-74729576D01*
X119213869Y-74713869D01*
X119251483Y-74668036D01*
X119279433Y-74615745D01*
X119296644Y-74559006D01*
X119302456Y-74500000D01*
X119301000Y-73702250D01*
X119225750Y-73627000D01*
X118127000Y-73627000D01*
X117873000Y-73627000D01*
X116774250Y-73627000D01*
X116699000Y-73702250D01*
X116697544Y-74500000D01*
X107702456Y-74500000D01*
X107701000Y-73702250D01*
X107625750Y-73627000D01*
X106527000Y-73627000D01*
X106273000Y-73627000D01*
X105174250Y-73627000D01*
X105099000Y-73702250D01*
X105097544Y-74500000D01*
X97916259Y-74500000D01*
X98052497Y-74363762D01*
X98200785Y-74141833D01*
X98302928Y-73895239D01*
X98355000Y-73633456D01*
X98355000Y-73366544D01*
X98302928Y-73104761D01*
X98200785Y-72858167D01*
X98052497Y-72636238D01*
X97916259Y-72500000D01*
X105097544Y-72500000D01*
X105099000Y-73297750D01*
X105174250Y-73373000D01*
X106273000Y-73373000D01*
X106273000Y-72274250D01*
X106527000Y-72274250D01*
X106527000Y-73373000D01*
X107625750Y-73373000D01*
X107701000Y-73297750D01*
X107702456Y-72500000D01*
X116697544Y-72500000D01*
X116699000Y-73297750D01*
X116774250Y-73373000D01*
X117873000Y-73373000D01*
X117873000Y-72274250D01*
X118127000Y-72274250D01*
X118127000Y-73373000D01*
X119225750Y-73373000D01*
X119301000Y-73297750D01*
X119302456Y-72500000D01*
X119296644Y-72440994D01*
X119279433Y-72384255D01*
X119251483Y-72331964D01*
X119213869Y-72286131D01*
X119168036Y-72248517D01*
X119115745Y-72220567D01*
X119059006Y-72203356D01*
X119000000Y-72197544D01*
X118202250Y-72199000D01*
X118127000Y-72274250D01*
X117873000Y-72274250D01*
X117797750Y-72199000D01*
X117000000Y-72197544D01*
X116940994Y-72203356D01*
X116884255Y-72220567D01*
X116831964Y-72248517D01*
X116786131Y-72286131D01*
X116748517Y-72331964D01*
X116720567Y-72384255D01*
X116703356Y-72440994D01*
X116697544Y-72500000D01*
X107702456Y-72500000D01*
X107696644Y-72440994D01*
X107679433Y-72384255D01*
X107651483Y-72331964D01*
X107613869Y-72286131D01*
X107568036Y-72248517D01*
X107515745Y-72220567D01*
X107459006Y-72203356D01*
X107400000Y-72197544D01*
X106602250Y-72199000D01*
X106527000Y-72274250D01*
X106273000Y-72274250D01*
X106197750Y-72199000D01*
X105400000Y-72197544D01*
X105340994Y-72203356D01*
X105284255Y-72220567D01*
X105231964Y-72248517D01*
X105186131Y-72286131D01*
X105148517Y-72331964D01*
X105120567Y-72384255D01*
X105103356Y-72440994D01*
X105097544Y-72500000D01*
X97916259Y-72500000D01*
X97863762Y-72447503D01*
X97641833Y-72299215D01*
X97395239Y-72197072D01*
X97133456Y-72145000D01*
X96866544Y-72145000D01*
X96604761Y-72197072D01*
X96358167Y-72299215D01*
X96136238Y-72447503D01*
X95947503Y-72636238D01*
X95799215Y-72858167D01*
X95697072Y-73104761D01*
X95645000Y-73366544D01*
X79635000Y-73366544D01*
X79635000Y-73258665D01*
X79579853Y-72981426D01*
X79471680Y-72720273D01*
X79314637Y-72485241D01*
X79114759Y-72285363D01*
X78879727Y-72128320D01*
X78618574Y-72020147D01*
X78341335Y-71965000D01*
X78058665Y-71965000D01*
X77781426Y-72020147D01*
X77520273Y-72128320D01*
X77285241Y-72285363D01*
X77085363Y-72485241D01*
X76928320Y-72720273D01*
X76820147Y-72981426D01*
X76765000Y-73258665D01*
X74635000Y-73258665D01*
X74579853Y-72981426D01*
X74471680Y-72720273D01*
X74314637Y-72485241D01*
X74114759Y-72285363D01*
X73879727Y-72128320D01*
X73618574Y-72020147D01*
X73341335Y-71965000D01*
X73058665Y-71965000D01*
X72781426Y-72020147D01*
X72520273Y-72128320D01*
X72285241Y-72285363D01*
X72085363Y-72485241D01*
X71928320Y-72720273D01*
X71820147Y-72981426D01*
X71765000Y-73258665D01*
X69423596Y-73258665D01*
X69435000Y-73201335D01*
X69435000Y-72918665D01*
X69379853Y-72641426D01*
X69271680Y-72380273D01*
X69114637Y-72145241D01*
X68914759Y-71945363D01*
X68682241Y-71790000D01*
X68914759Y-71634637D01*
X69114637Y-71434759D01*
X69271680Y-71199727D01*
X69379853Y-70938574D01*
X69435000Y-70661335D01*
X69435000Y-70378665D01*
X69379853Y-70101426D01*
X69271680Y-69840273D01*
X69114637Y-69605241D01*
X68914759Y-69405363D01*
X68682241Y-69250000D01*
X68914759Y-69094637D01*
X69114637Y-68894759D01*
X69271680Y-68659727D01*
X69379853Y-68398574D01*
X69435000Y-68121335D01*
X69435000Y-67858665D01*
X70565000Y-67858665D01*
X70565000Y-68141335D01*
X70620147Y-68418574D01*
X70728320Y-68679727D01*
X70885363Y-68914759D01*
X71085241Y-69114637D01*
X71320273Y-69271680D01*
X71581426Y-69379853D01*
X71858665Y-69435000D01*
X72141335Y-69435000D01*
X72418574Y-69379853D01*
X72679727Y-69271680D01*
X72914759Y-69114637D01*
X73114637Y-68914759D01*
X73271680Y-68679727D01*
X73379853Y-68418574D01*
X73435000Y-68141335D01*
X73435000Y-67858665D01*
X78185000Y-67858665D01*
X78185000Y-68141335D01*
X78240147Y-68418574D01*
X78348320Y-68679727D01*
X78505363Y-68914759D01*
X78705241Y-69114637D01*
X78940273Y-69271680D01*
X79201426Y-69379853D01*
X79478665Y-69435000D01*
X79761335Y-69435000D01*
X80038574Y-69379853D01*
X80299727Y-69271680D01*
X80534759Y-69114637D01*
X80734637Y-68914759D01*
X80891680Y-68679727D01*
X80999853Y-68418574D01*
X81055000Y-68141335D01*
X81055000Y-67858665D01*
X80999853Y-67581426D01*
X80891680Y-67320273D01*
X80734637Y-67085241D01*
X80534759Y-66885363D01*
X80465323Y-66838967D01*
X86165000Y-66838967D01*
X86165000Y-67161033D01*
X86227832Y-67476912D01*
X86351082Y-67774463D01*
X86530013Y-68042252D01*
X86757748Y-68269987D01*
X87025537Y-68448918D01*
X87323088Y-68572168D01*
X87638967Y-68635000D01*
X87961033Y-68635000D01*
X88276912Y-68572168D01*
X88574463Y-68448918D01*
X88842252Y-68269987D01*
X89069987Y-68042252D01*
X89248918Y-67774463D01*
X89372168Y-67476912D01*
X89435000Y-67161033D01*
X89435000Y-66838967D01*
X89431082Y-66819268D01*
X97965000Y-66819268D01*
X97965000Y-67180732D01*
X98035518Y-67535250D01*
X98173844Y-67869199D01*
X98374662Y-68169744D01*
X98630256Y-68425338D01*
X98930801Y-68626156D01*
X99264750Y-68764482D01*
X99619268Y-68835000D01*
X99980732Y-68835000D01*
X100335250Y-68764482D01*
X100669199Y-68626156D01*
X100969744Y-68425338D01*
X101225338Y-68169744D01*
X101379538Y-67938967D01*
X109865000Y-67938967D01*
X109865000Y-68261033D01*
X109927832Y-68576912D01*
X110051082Y-68874463D01*
X110230013Y-69142252D01*
X110457748Y-69369987D01*
X110725537Y-69548918D01*
X111023088Y-69672168D01*
X111338967Y-69735000D01*
X111661033Y-69735000D01*
X111976912Y-69672168D01*
X112274463Y-69548918D01*
X112542252Y-69369987D01*
X112769987Y-69142252D01*
X112892655Y-68958665D01*
X117865000Y-68958665D01*
X117865000Y-69241335D01*
X117920147Y-69518574D01*
X118028320Y-69779727D01*
X118185363Y-70014759D01*
X118385241Y-70214637D01*
X118620273Y-70371680D01*
X118881426Y-70479853D01*
X119158665Y-70535000D01*
X119441335Y-70535000D01*
X119718574Y-70479853D01*
X119979727Y-70371680D01*
X120214759Y-70214637D01*
X120414637Y-70014759D01*
X120571680Y-69779727D01*
X120646125Y-69600000D01*
X125861928Y-69600000D01*
X125861928Y-72200000D01*
X125874188Y-72324482D01*
X125910498Y-72444180D01*
X125969463Y-72554494D01*
X126048815Y-72651185D01*
X126145506Y-72730537D01*
X126255820Y-72789502D01*
X126375518Y-72825812D01*
X126500000Y-72838072D01*
X129100000Y-72838072D01*
X129224482Y-72825812D01*
X129344180Y-72789502D01*
X129454494Y-72730537D01*
X129551185Y-72651185D01*
X129630537Y-72554494D01*
X129689502Y-72444180D01*
X129725812Y-72324482D01*
X129738072Y-72200000D01*
X129738072Y-69600000D01*
X129725812Y-69475518D01*
X129689502Y-69355820D01*
X129630537Y-69245506D01*
X129551185Y-69148815D01*
X129454494Y-69069463D01*
X129344180Y-69010498D01*
X129224482Y-68974188D01*
X129100000Y-68961928D01*
X126500000Y-68961928D01*
X126375518Y-68974188D01*
X126255820Y-69010498D01*
X126145506Y-69069463D01*
X126048815Y-69148815D01*
X125969463Y-69245506D01*
X125910498Y-69355820D01*
X125874188Y-69475518D01*
X125861928Y-69600000D01*
X120646125Y-69600000D01*
X120679853Y-69518574D01*
X120735000Y-69241335D01*
X120735000Y-68958665D01*
X120679853Y-68681426D01*
X120571680Y-68420273D01*
X120414637Y-68185241D01*
X120214759Y-67985363D01*
X119979727Y-67828320D01*
X119718574Y-67720147D01*
X119441335Y-67665000D01*
X119158665Y-67665000D01*
X118881426Y-67720147D01*
X118620273Y-67828320D01*
X118385241Y-67985363D01*
X118185363Y-68185241D01*
X118028320Y-68420273D01*
X117920147Y-68681426D01*
X117865000Y-68958665D01*
X112892655Y-68958665D01*
X112948918Y-68874463D01*
X113072168Y-68576912D01*
X113135000Y-68261033D01*
X113135000Y-67938967D01*
X113072168Y-67623088D01*
X112948918Y-67325537D01*
X112769987Y-67057748D01*
X112542252Y-66830013D01*
X112274463Y-66651082D01*
X111976912Y-66527832D01*
X111661033Y-66465000D01*
X111338967Y-66465000D01*
X111023088Y-66527832D01*
X110725537Y-66651082D01*
X110457748Y-66830013D01*
X110230013Y-67057748D01*
X110051082Y-67325537D01*
X109927832Y-67623088D01*
X109865000Y-67938967D01*
X101379538Y-67938967D01*
X101426156Y-67869199D01*
X101564482Y-67535250D01*
X101635000Y-67180732D01*
X101635000Y-66819268D01*
X101564482Y-66464750D01*
X101426156Y-66130801D01*
X101225338Y-65830256D01*
X100969744Y-65574662D01*
X100669199Y-65373844D01*
X100335250Y-65235518D01*
X99980732Y-65165000D01*
X99619268Y-65165000D01*
X99264750Y-65235518D01*
X98930801Y-65373844D01*
X98630256Y-65574662D01*
X98374662Y-65830256D01*
X98173844Y-66130801D01*
X98035518Y-66464750D01*
X97965000Y-66819268D01*
X89431082Y-66819268D01*
X89372168Y-66523088D01*
X89248918Y-66225537D01*
X89069987Y-65957748D01*
X88842252Y-65730013D01*
X88574463Y-65551082D01*
X88276912Y-65427832D01*
X87961033Y-65365000D01*
X87638967Y-65365000D01*
X87323088Y-65427832D01*
X87025537Y-65551082D01*
X86757748Y-65730013D01*
X86530013Y-65957748D01*
X86351082Y-66225537D01*
X86227832Y-66523088D01*
X86165000Y-66838967D01*
X80465323Y-66838967D01*
X80299727Y-66728320D01*
X80038574Y-66620147D01*
X79761335Y-66565000D01*
X79478665Y-66565000D01*
X79201426Y-66620147D01*
X78940273Y-66728320D01*
X78705241Y-66885363D01*
X78505363Y-67085241D01*
X78348320Y-67320273D01*
X78240147Y-67581426D01*
X78185000Y-67858665D01*
X73435000Y-67858665D01*
X73379853Y-67581426D01*
X73271680Y-67320273D01*
X73114637Y-67085241D01*
X72914759Y-66885363D01*
X72679727Y-66728320D01*
X72418574Y-66620147D01*
X72141335Y-66565000D01*
X71858665Y-66565000D01*
X71581426Y-66620147D01*
X71320273Y-66728320D01*
X71085241Y-66885363D01*
X70885363Y-67085241D01*
X70728320Y-67320273D01*
X70620147Y-67581426D01*
X70565000Y-67858665D01*
X69435000Y-67858665D01*
X69435000Y-67838665D01*
X69379853Y-67561426D01*
X69271680Y-67300273D01*
X69114637Y-67065241D01*
X68914759Y-66865363D01*
X68679727Y-66708320D01*
X68418574Y-66600147D01*
X68141335Y-66545000D01*
X67858665Y-66545000D01*
X67581426Y-66600147D01*
X67320273Y-66708320D01*
X67085241Y-66865363D01*
X66885363Y-67065241D01*
X66728320Y-67300273D01*
X66620147Y-67561426D01*
X66565000Y-67838665D01*
X66565000Y-68121335D01*
X66620147Y-68398574D01*
X66728320Y-68659727D01*
X66885363Y-68894759D01*
X67085241Y-69094637D01*
X67317759Y-69250000D01*
X67085241Y-69405363D01*
X66885363Y-69605241D01*
X66728320Y-69840273D01*
X66620147Y-70101426D01*
X66565000Y-70378665D01*
X66565000Y-70661335D01*
X66620147Y-70938574D01*
X66728320Y-71199727D01*
X66885363Y-71434759D01*
X67085241Y-71634637D01*
X67317759Y-71790000D01*
X67085241Y-71945363D01*
X66885363Y-72145241D01*
X66728320Y-72380273D01*
X66620147Y-72641426D01*
X66565000Y-72918665D01*
X66565000Y-73201335D01*
X66620147Y-73478574D01*
X66728320Y-73739727D01*
X66885363Y-73974759D01*
X67083961Y-74173357D01*
X67075518Y-74174188D01*
X66955820Y-74210498D01*
X66845506Y-74269463D01*
X66748815Y-74348815D01*
X66669463Y-74445506D01*
X66610498Y-74555820D01*
X66574188Y-74675518D01*
X66561928Y-74800000D01*
X61571317Y-74800000D01*
X61494637Y-74685241D01*
X61294759Y-74485363D01*
X61062241Y-74330000D01*
X61294759Y-74174637D01*
X61494637Y-73974759D01*
X61651680Y-73739727D01*
X61759853Y-73478574D01*
X61815000Y-73201335D01*
X61815000Y-72918665D01*
X61759853Y-72641426D01*
X61651680Y-72380273D01*
X61494637Y-72145241D01*
X61294759Y-71945363D01*
X61062241Y-71790000D01*
X61294759Y-71634637D01*
X61494637Y-71434759D01*
X61651680Y-71199727D01*
X61759853Y-70938574D01*
X61815000Y-70661335D01*
X61815000Y-70378665D01*
X61759853Y-70101426D01*
X61651680Y-69840273D01*
X61494637Y-69605241D01*
X61294759Y-69405363D01*
X61062241Y-69250000D01*
X61294759Y-69094637D01*
X61494637Y-68894759D01*
X61651680Y-68659727D01*
X61759853Y-68398574D01*
X61815000Y-68121335D01*
X61815000Y-67838665D01*
X61759853Y-67561426D01*
X61651680Y-67300273D01*
X61494637Y-67065241D01*
X61294759Y-66865363D01*
X61059727Y-66708320D01*
X60798574Y-66600147D01*
X60521335Y-66545000D01*
X60238665Y-66545000D01*
X59961426Y-66600147D01*
X59700273Y-66708320D01*
X59465241Y-66865363D01*
X59265363Y-67065241D01*
X59108320Y-67300273D01*
X59000147Y-67561426D01*
X58945000Y-67838665D01*
X54438072Y-67838665D01*
X54438072Y-67400000D01*
X54425812Y-67275518D01*
X54389502Y-67155820D01*
X54330537Y-67045506D01*
X54251185Y-66948815D01*
X54154494Y-66869463D01*
X54044180Y-66810498D01*
X53924482Y-66774188D01*
X53800000Y-66761928D01*
X51200000Y-66761928D01*
X51075518Y-66774188D01*
X50955820Y-66810498D01*
X50845506Y-66869463D01*
X50748815Y-66948815D01*
X50669463Y-67045506D01*
X50610498Y-67155820D01*
X50574188Y-67275518D01*
X50561928Y-67400000D01*
X45685000Y-67400000D01*
X45685000Y-64870424D01*
X51509181Y-64870424D01*
X51660099Y-65072090D01*
X51943918Y-65209582D01*
X52249109Y-65289063D01*
X52563941Y-65307476D01*
X52876315Y-65264115D01*
X53174228Y-65160645D01*
X53339901Y-65072090D01*
X53490819Y-64870424D01*
X52500000Y-63879605D01*
X51509181Y-64870424D01*
X45685000Y-64870424D01*
X45685000Y-63763941D01*
X50892524Y-63763941D01*
X50935885Y-64076315D01*
X51039355Y-64374228D01*
X51127910Y-64539901D01*
X51329576Y-64690819D01*
X52320395Y-63700000D01*
X52679605Y-63700000D01*
X53670424Y-64690819D01*
X53872090Y-64539901D01*
X54009582Y-64256082D01*
X54089063Y-63950891D01*
X54107476Y-63636059D01*
X54064115Y-63323685D01*
X53960645Y-63025772D01*
X53872090Y-62860099D01*
X53870174Y-62858665D01*
X56905000Y-62858665D01*
X56905000Y-63141335D01*
X56960147Y-63418574D01*
X57068320Y-63679727D01*
X57225363Y-63914759D01*
X57425241Y-64114637D01*
X57660273Y-64271680D01*
X57921426Y-64379853D01*
X58198665Y-64435000D01*
X58481335Y-64435000D01*
X58758574Y-64379853D01*
X59019727Y-64271680D01*
X59254759Y-64114637D01*
X59454637Y-63914759D01*
X59611680Y-63679727D01*
X59719853Y-63418574D01*
X59775000Y-63141335D01*
X59775000Y-62858665D01*
X67065000Y-62858665D01*
X67065000Y-63141335D01*
X67120147Y-63418574D01*
X67228320Y-63679727D01*
X67385363Y-63914759D01*
X67585241Y-64114637D01*
X67820273Y-64271680D01*
X68081426Y-64379853D01*
X68358665Y-64435000D01*
X68641335Y-64435000D01*
X68918574Y-64379853D01*
X69179727Y-64271680D01*
X69414759Y-64114637D01*
X69614637Y-63914759D01*
X69771680Y-63679727D01*
X69879853Y-63418574D01*
X69935000Y-63141335D01*
X69935000Y-62858665D01*
X70545000Y-62858665D01*
X70545000Y-63141335D01*
X70600147Y-63418574D01*
X70708320Y-63679727D01*
X70865363Y-63914759D01*
X71065241Y-64114637D01*
X71300273Y-64271680D01*
X71561426Y-64379853D01*
X71838665Y-64435000D01*
X72121335Y-64435000D01*
X72398574Y-64379853D01*
X72659727Y-64271680D01*
X72894759Y-64114637D01*
X73094637Y-63914759D01*
X73162407Y-63813333D01*
X78966273Y-63813333D01*
X79056762Y-63963769D01*
X79255222Y-64051230D01*
X79466931Y-64098294D01*
X79683755Y-64103151D01*
X79701685Y-64100000D01*
X110197544Y-64100000D01*
X110203356Y-64159006D01*
X110220567Y-64215745D01*
X110248517Y-64268036D01*
X110286131Y-64313869D01*
X110331964Y-64351483D01*
X110384255Y-64379433D01*
X110440994Y-64396644D01*
X110500000Y-64402456D01*
X111297750Y-64401000D01*
X111373000Y-64325750D01*
X111373000Y-63227000D01*
X111627000Y-63227000D01*
X111627000Y-64325750D01*
X111702250Y-64401000D01*
X112500000Y-64402456D01*
X112559006Y-64396644D01*
X112615745Y-64379433D01*
X112668036Y-64351483D01*
X112713869Y-64313869D01*
X112751483Y-64268036D01*
X112779433Y-64215745D01*
X112796644Y-64159006D01*
X112802456Y-64100000D01*
X112802018Y-63860000D01*
X124609388Y-63860000D01*
X124631785Y-64087400D01*
X124698115Y-64306060D01*
X124799105Y-64495000D01*
X124698115Y-64683940D01*
X124631785Y-64902600D01*
X124609388Y-65130000D01*
X124631785Y-65357400D01*
X124695093Y-65566098D01*
X124660498Y-65630820D01*
X124624188Y-65750518D01*
X124611928Y-65875000D01*
X124611928Y-66925000D01*
X124624188Y-67049482D01*
X124660498Y-67169180D01*
X124719463Y-67279494D01*
X124798815Y-67376185D01*
X124895506Y-67455537D01*
X125005820Y-67514502D01*
X125125518Y-67550812D01*
X125250000Y-67563072D01*
X126750000Y-67563072D01*
X126874482Y-67550812D01*
X126994180Y-67514502D01*
X127104494Y-67455537D01*
X127201185Y-67376185D01*
X127280537Y-67279494D01*
X127339502Y-67169180D01*
X127375812Y-67049482D01*
X127388072Y-66925000D01*
X127388072Y-65875000D01*
X127375812Y-65750518D01*
X127339502Y-65630820D01*
X127304907Y-65566098D01*
X127368215Y-65357400D01*
X127390612Y-65130000D01*
X127368215Y-64902600D01*
X127301885Y-64683940D01*
X127200895Y-64495000D01*
X127301885Y-64306060D01*
X127368215Y-64087400D01*
X127390612Y-63860000D01*
X127368215Y-63632600D01*
X127301885Y-63413940D01*
X127194171Y-63212421D01*
X127049212Y-63035788D01*
X126872579Y-62890829D01*
X126671060Y-62783115D01*
X126452400Y-62716785D01*
X126281979Y-62700000D01*
X125718021Y-62700000D01*
X125547600Y-62716785D01*
X125328940Y-62783115D01*
X125127421Y-62890829D01*
X124950788Y-63035788D01*
X124805829Y-63212421D01*
X124698115Y-63413940D01*
X124631785Y-63632600D01*
X124609388Y-63860000D01*
X112802018Y-63860000D01*
X112801000Y-63302250D01*
X112725750Y-63227000D01*
X111627000Y-63227000D01*
X111373000Y-63227000D01*
X110274250Y-63227000D01*
X110199000Y-63302250D01*
X110197544Y-64100000D01*
X79701685Y-64100000D01*
X79897360Y-64065614D01*
X80099537Y-63987127D01*
X80143238Y-63963769D01*
X80233727Y-63813333D01*
X79600000Y-63179605D01*
X78966273Y-63813333D01*
X73162407Y-63813333D01*
X73251680Y-63679727D01*
X73359853Y-63418574D01*
X73415000Y-63141335D01*
X73415000Y-63083755D01*
X78496849Y-63083755D01*
X78534386Y-63297360D01*
X78612873Y-63499537D01*
X78636231Y-63543238D01*
X78786667Y-63633727D01*
X79420395Y-63000000D01*
X79779605Y-63000000D01*
X80413333Y-63633727D01*
X80563769Y-63543238D01*
X80651230Y-63344778D01*
X80698294Y-63133069D01*
X80701274Y-63000000D01*
X86497544Y-63000000D01*
X86503356Y-63059006D01*
X86520567Y-63115745D01*
X86548517Y-63168036D01*
X86586131Y-63213869D01*
X86631964Y-63251483D01*
X86684255Y-63279433D01*
X86740994Y-63296644D01*
X86800000Y-63302456D01*
X87597750Y-63301000D01*
X87673000Y-63225750D01*
X87673000Y-62127000D01*
X87927000Y-62127000D01*
X87927000Y-63225750D01*
X88002250Y-63301000D01*
X88800000Y-63302456D01*
X88859006Y-63296644D01*
X88915745Y-63279433D01*
X88968036Y-63251483D01*
X89013869Y-63213869D01*
X89051483Y-63168036D01*
X89079433Y-63115745D01*
X89096644Y-63059006D01*
X89102456Y-63000000D01*
X89101000Y-62202250D01*
X89025750Y-62127000D01*
X87927000Y-62127000D01*
X87673000Y-62127000D01*
X86574250Y-62127000D01*
X86499000Y-62202250D01*
X86497544Y-63000000D01*
X80701274Y-63000000D01*
X80703151Y-62916245D01*
X80665614Y-62702640D01*
X80587127Y-62500463D01*
X80563769Y-62456762D01*
X80413333Y-62366273D01*
X79779605Y-63000000D01*
X79420395Y-63000000D01*
X78786667Y-62366273D01*
X78636231Y-62456762D01*
X78548770Y-62655222D01*
X78501706Y-62866931D01*
X78496849Y-63083755D01*
X73415000Y-63083755D01*
X73415000Y-62858665D01*
X73359853Y-62581426D01*
X73251680Y-62320273D01*
X73162408Y-62186667D01*
X78966273Y-62186667D01*
X79600000Y-62820395D01*
X80233727Y-62186667D01*
X80143238Y-62036231D01*
X79944778Y-61948770D01*
X79733069Y-61901706D01*
X79516245Y-61896849D01*
X79302640Y-61934386D01*
X79100463Y-62012873D01*
X79056762Y-62036231D01*
X78966273Y-62186667D01*
X73162408Y-62186667D01*
X73094637Y-62085241D01*
X72894759Y-61885363D01*
X72659727Y-61728320D01*
X72398574Y-61620147D01*
X72121335Y-61565000D01*
X71838665Y-61565000D01*
X71561426Y-61620147D01*
X71300273Y-61728320D01*
X71065241Y-61885363D01*
X70865363Y-62085241D01*
X70708320Y-62320273D01*
X70600147Y-62581426D01*
X70545000Y-62858665D01*
X69935000Y-62858665D01*
X69879853Y-62581426D01*
X69771680Y-62320273D01*
X69614637Y-62085241D01*
X69414759Y-61885363D01*
X69179727Y-61728320D01*
X68918574Y-61620147D01*
X68641335Y-61565000D01*
X68358665Y-61565000D01*
X68081426Y-61620147D01*
X67820273Y-61728320D01*
X67585241Y-61885363D01*
X67385363Y-62085241D01*
X67228320Y-62320273D01*
X67120147Y-62581426D01*
X67065000Y-62858665D01*
X59775000Y-62858665D01*
X59719853Y-62581426D01*
X59611680Y-62320273D01*
X59454637Y-62085241D01*
X59254759Y-61885363D01*
X59019727Y-61728320D01*
X58758574Y-61620147D01*
X58481335Y-61565000D01*
X58198665Y-61565000D01*
X57921426Y-61620147D01*
X57660273Y-61728320D01*
X57425241Y-61885363D01*
X57225363Y-62085241D01*
X57068320Y-62320273D01*
X56960147Y-62581426D01*
X56905000Y-62858665D01*
X53870174Y-62858665D01*
X53670424Y-62709181D01*
X52679605Y-63700000D01*
X52320395Y-63700000D01*
X51329576Y-62709181D01*
X51127910Y-62860099D01*
X50990418Y-63143918D01*
X50910937Y-63449109D01*
X50892524Y-63763941D01*
X45685000Y-63763941D01*
X45685000Y-61429117D01*
X45865000Y-61429117D01*
X45865000Y-61770883D01*
X45931675Y-62106081D01*
X46062463Y-62421831D01*
X46252337Y-62705998D01*
X46494002Y-62947663D01*
X46778169Y-63137537D01*
X47093919Y-63268325D01*
X47429117Y-63335000D01*
X47770883Y-63335000D01*
X48106081Y-63268325D01*
X48421831Y-63137537D01*
X48705998Y-62947663D01*
X48947663Y-62705998D01*
X49065544Y-62529576D01*
X51509181Y-62529576D01*
X52500000Y-63520395D01*
X53490819Y-62529576D01*
X53339901Y-62327910D01*
X53056082Y-62190418D01*
X52750891Y-62110937D01*
X52436059Y-62092524D01*
X52123685Y-62135885D01*
X51825772Y-62239355D01*
X51660099Y-62327910D01*
X51509181Y-62529576D01*
X49065544Y-62529576D01*
X49137537Y-62421831D01*
X49268325Y-62106081D01*
X49335000Y-61770883D01*
X49335000Y-61429117D01*
X49268325Y-61093919D01*
X49229423Y-61000000D01*
X86497544Y-61000000D01*
X86499000Y-61797750D01*
X86574250Y-61873000D01*
X87673000Y-61873000D01*
X87673000Y-60774250D01*
X87927000Y-60774250D01*
X87927000Y-61873000D01*
X89025750Y-61873000D01*
X89079482Y-61819268D01*
X97965000Y-61819268D01*
X97965000Y-62180732D01*
X98035518Y-62535250D01*
X98173844Y-62869199D01*
X98374662Y-63169744D01*
X98630256Y-63425338D01*
X98930801Y-63626156D01*
X99264750Y-63764482D01*
X99619268Y-63835000D01*
X99980732Y-63835000D01*
X100335250Y-63764482D01*
X100669199Y-63626156D01*
X100969744Y-63425338D01*
X101225338Y-63169744D01*
X101426156Y-62869199D01*
X101564482Y-62535250D01*
X101635000Y-62180732D01*
X101635000Y-62100000D01*
X110197544Y-62100000D01*
X110199000Y-62897750D01*
X110274250Y-62973000D01*
X111373000Y-62973000D01*
X111373000Y-61874250D01*
X111627000Y-61874250D01*
X111627000Y-62973000D01*
X112725750Y-62973000D01*
X112801000Y-62897750D01*
X112802456Y-62100000D01*
X112796644Y-62040994D01*
X112779433Y-61984255D01*
X112751483Y-61931964D01*
X112713869Y-61886131D01*
X112668036Y-61848517D01*
X112615745Y-61820567D01*
X112559006Y-61803356D01*
X112500000Y-61797544D01*
X111702250Y-61799000D01*
X111627000Y-61874250D01*
X111373000Y-61874250D01*
X111297750Y-61799000D01*
X110500000Y-61797544D01*
X110440994Y-61803356D01*
X110384255Y-61820567D01*
X110331964Y-61848517D01*
X110286131Y-61886131D01*
X110248517Y-61931964D01*
X110220567Y-61984255D01*
X110203356Y-62040994D01*
X110197544Y-62100000D01*
X101635000Y-62100000D01*
X101635000Y-61819268D01*
X101564482Y-61464750D01*
X101512256Y-61338665D01*
X117865000Y-61338665D01*
X117865000Y-61621335D01*
X117920147Y-61898574D01*
X118028320Y-62159727D01*
X118185363Y-62394759D01*
X118385241Y-62594637D01*
X118620273Y-62751680D01*
X118881426Y-62859853D01*
X119158665Y-62915000D01*
X119441335Y-62915000D01*
X119718574Y-62859853D01*
X119979727Y-62751680D01*
X120214759Y-62594637D01*
X120414637Y-62394759D01*
X120571680Y-62159727D01*
X120679853Y-61898574D01*
X120735000Y-61621335D01*
X120735000Y-61429117D01*
X129265000Y-61429117D01*
X129265000Y-61770883D01*
X129331675Y-62106081D01*
X129462463Y-62421831D01*
X129652337Y-62705998D01*
X129894002Y-62947663D01*
X130178169Y-63137537D01*
X130493919Y-63268325D01*
X130829117Y-63335000D01*
X131170883Y-63335000D01*
X131506081Y-63268325D01*
X131821831Y-63137537D01*
X132105998Y-62947663D01*
X132347663Y-62705998D01*
X132537537Y-62421831D01*
X132668325Y-62106081D01*
X132735000Y-61770883D01*
X132735000Y-61429117D01*
X132668325Y-61093919D01*
X132537537Y-60778169D01*
X132347663Y-60494002D01*
X132105998Y-60252337D01*
X131821831Y-60062463D01*
X131506081Y-59931675D01*
X131170883Y-59865000D01*
X130829117Y-59865000D01*
X130493919Y-59931675D01*
X130178169Y-60062463D01*
X129894002Y-60252337D01*
X129652337Y-60494002D01*
X129462463Y-60778169D01*
X129331675Y-61093919D01*
X129265000Y-61429117D01*
X120735000Y-61429117D01*
X120735000Y-61338665D01*
X120679853Y-61061426D01*
X120571680Y-60800273D01*
X120414637Y-60565241D01*
X120214759Y-60365363D01*
X119979727Y-60208320D01*
X119718574Y-60100147D01*
X119441335Y-60045000D01*
X119158665Y-60045000D01*
X118881426Y-60100147D01*
X118620273Y-60208320D01*
X118385241Y-60365363D01*
X118185363Y-60565241D01*
X118028320Y-60800273D01*
X117920147Y-61061426D01*
X117865000Y-61338665D01*
X101512256Y-61338665D01*
X101426156Y-61130801D01*
X101225338Y-60830256D01*
X100969744Y-60574662D01*
X100669199Y-60373844D01*
X100335250Y-60235518D01*
X99980732Y-60165000D01*
X99619268Y-60165000D01*
X99264750Y-60235518D01*
X98930801Y-60373844D01*
X98630256Y-60574662D01*
X98374662Y-60830256D01*
X98173844Y-61130801D01*
X98035518Y-61464750D01*
X97965000Y-61819268D01*
X89079482Y-61819268D01*
X89101000Y-61797750D01*
X89102456Y-61000000D01*
X89096644Y-60940994D01*
X89079433Y-60884255D01*
X89051483Y-60831964D01*
X89013869Y-60786131D01*
X88968036Y-60748517D01*
X88915745Y-60720567D01*
X88859006Y-60703356D01*
X88800000Y-60697544D01*
X88002250Y-60699000D01*
X87927000Y-60774250D01*
X87673000Y-60774250D01*
X87597750Y-60699000D01*
X86800000Y-60697544D01*
X86740994Y-60703356D01*
X86684255Y-60720567D01*
X86631964Y-60748517D01*
X86586131Y-60786131D01*
X86548517Y-60831964D01*
X86520567Y-60884255D01*
X86503356Y-60940994D01*
X86497544Y-61000000D01*
X49229423Y-61000000D01*
X49137537Y-60778169D01*
X48947663Y-60494002D01*
X48705998Y-60252337D01*
X48421831Y-60062463D01*
X48106081Y-59931675D01*
X47770883Y-59865000D01*
X47429117Y-59865000D01*
X47093919Y-59931675D01*
X46778169Y-60062463D01*
X46494002Y-60252337D01*
X46252337Y-60494002D01*
X46062463Y-60778169D01*
X45931675Y-61093919D01*
X45865000Y-61429117D01*
X45685000Y-61429117D01*
X45685000Y-59685000D01*
X132915000Y-59685000D01*
X132915001Y-81315000D01*
G37*
%TD.AperFunction*%
%TD*%
M02*
