%TF.GenerationSoftware,KiCad,Pcbnew,(5.1.12)-1*%
%TF.CreationDate,2022-12-12T11:44:35+01:00*%
%TF.ProjectId,MC34063_invert,4d433334-3036-4335-9f69-6e766572742e,rev?*%
%TF.SameCoordinates,Original*%
%TF.FileFunction,Copper,L2,Bot*%
%TF.FilePolarity,Positive*%
%FSLAX46Y46*%
G04 Gerber Fmt 4.6, Leading zero omitted, Abs format (unit mm)*
G04 Created by KiCad (PCBNEW (5.1.12)-1) date 2022-12-12 11:44:35*
%MOMM*%
%LPD*%
G01*
G04 APERTURE LIST*
%TA.AperFunction,ComponentPad*%
%ADD10C,1.600000*%
%TD*%
%TA.AperFunction,ComponentPad*%
%ADD11R,1.800000X1.800000*%
%TD*%
%TA.AperFunction,ComponentPad*%
%ADD12O,1.800000X1.800000*%
%TD*%
%TA.AperFunction,ComponentPad*%
%ADD13C,2.600000*%
%TD*%
%TA.AperFunction,ComponentPad*%
%ADD14R,2.600000X2.600000*%
%TD*%
%TA.AperFunction,ComponentPad*%
%ADD15C,2.400000*%
%TD*%
%TA.AperFunction,ComponentPad*%
%ADD16O,1.600000X1.600000*%
%TD*%
%TA.AperFunction,ComponentPad*%
%ADD17C,1.440000*%
%TD*%
%TA.AperFunction,ComponentPad*%
%ADD18R,1.600000X1.600000*%
%TD*%
%TA.AperFunction,ComponentPad*%
%ADD19R,2.000000X2.000000*%
%TD*%
%TA.AperFunction,ComponentPad*%
%ADD20C,2.000000*%
%TD*%
%TA.AperFunction,ComponentPad*%
%ADD21O,1.500000X1.050000*%
%TD*%
%TA.AperFunction,ComponentPad*%
%ADD22R,1.500000X1.050000*%
%TD*%
%TA.AperFunction,Conductor*%
%ADD23C,0.254000*%
%TD*%
%TA.AperFunction,Conductor*%
%ADD24C,0.100000*%
%TD*%
G04 APERTURE END LIST*
D10*
%TO.P,C2,1*%
%TO.N,Net-(C2-Pad1)*%
X73200000Y-73400000D03*
%TO.P,C2,2*%
%TO.N,Net-(C2-Pad2)*%
X78200000Y-73400000D03*
%TD*%
D11*
%TO.P,D1,1*%
%TO.N,Net-(D1-Pad1)*%
X79200000Y-79100000D03*
D12*
%TO.P,D1,2*%
%TO.N,Net-(C3-Pad2)*%
X71580000Y-79100000D03*
%TD*%
D13*
%TO.P,J1,2*%
%TO.N,GND*%
X52500000Y-63700000D03*
D14*
%TO.P,J1,1*%
%TO.N,Net-(C1-Pad1)*%
X52500000Y-68700000D03*
%TD*%
%TO.P,J2,1*%
%TO.N,Net-(C6-Pad2)*%
X127800000Y-70900000D03*
D13*
%TO.P,J2,2*%
%TO.N,GND*%
X127800000Y-75900000D03*
%TD*%
D15*
%TO.P,L1,1*%
%TO.N,Net-(D1-Pad1)*%
X84000000Y-77000000D03*
%TO.P,L1,2*%
%TO.N,GND*%
X89000000Y-77000000D03*
%TD*%
%TO.P,L2,2*%
%TO.N,Net-(C4-Pad2)*%
X99800000Y-67000000D03*
%TO.P,L2,1*%
%TO.N,Net-(C3-Pad2)*%
X99800000Y-62000000D03*
%TD*%
D10*
%TO.P,R1,1*%
%TO.N,Net-(R1-Pad1)*%
X68500000Y-63000000D03*
D16*
%TO.P,R1,2*%
%TO.N,Net-(C1-Pad1)*%
X58340000Y-63000000D03*
%TD*%
D10*
%TO.P,R2,1*%
%TO.N,GND*%
X79600000Y-63000000D03*
D16*
%TO.P,R2,2*%
%TO.N,Net-(R2-Pad2)*%
X71980000Y-63000000D03*
%TD*%
D10*
%TO.P,R4,1*%
%TO.N,Net-(R2-Pad2)*%
X72000000Y-68000000D03*
D16*
%TO.P,R4,2*%
%TO.N,Net-(R4-Pad2)*%
X79620000Y-68000000D03*
%TD*%
%TO.P,R5,2*%
%TO.N,Net-(C4-Pad2)*%
X119300000Y-61480000D03*
D10*
%TO.P,R5,1*%
%TO.N,Net-(C5-Pad2)*%
X119300000Y-69100000D03*
%TD*%
D17*
%TO.P,RV1,1*%
%TO.N,Net-(R4-Pad2)*%
X97000000Y-74000000D03*
%TO.P,RV1,2*%
%TO.N,Net-(C3-Pad2)*%
X97000000Y-76540000D03*
%TO.P,RV1,3*%
%TO.N,N/C*%
X97000000Y-79080000D03*
%TD*%
D18*
%TO.P,U1,1*%
%TO.N,Net-(R1-Pad1)*%
X67600000Y-75600000D03*
D16*
%TO.P,U1,5*%
%TO.N,Net-(R2-Pad2)*%
X59980000Y-67980000D03*
%TO.P,U1,2*%
%TO.N,Net-(D1-Pad1)*%
X67600000Y-73060000D03*
%TO.P,U1,6*%
%TO.N,Net-(C1-Pad1)*%
X59980000Y-70520000D03*
%TO.P,U1,3*%
%TO.N,Net-(C2-Pad1)*%
X67600000Y-70520000D03*
%TO.P,U1,7*%
%TO.N,Net-(R1-Pad1)*%
X59980000Y-73060000D03*
%TO.P,U1,4*%
%TO.N,Net-(C2-Pad2)*%
X67600000Y-67980000D03*
%TO.P,U1,8*%
%TO.N,Net-(R1-Pad1)*%
X59980000Y-75600000D03*
%TD*%
D19*
%TO.P,C3,1*%
%TO.N,GND*%
X87800000Y-62000000D03*
D20*
%TO.P,C3,2*%
%TO.N,Net-(C3-Pad2)*%
X87800000Y-67000000D03*
%TD*%
%TO.P,C4,2*%
%TO.N,Net-(C4-Pad2)*%
X106400000Y-79000000D03*
D19*
%TO.P,C4,1*%
%TO.N,GND*%
X106400000Y-74000000D03*
%TD*%
D20*
%TO.P,C5,2*%
%TO.N,Net-(C5-Pad2)*%
X111500000Y-68100000D03*
D19*
%TO.P,C5,1*%
%TO.N,GND*%
X111500000Y-63100000D03*
%TD*%
%TO.P,C6,1*%
%TO.N,GND*%
X118000000Y-74000000D03*
D20*
%TO.P,C6,2*%
%TO.N,Net-(C6-Pad2)*%
X118000000Y-79000000D03*
%TD*%
D18*
%TO.P,C1,1*%
%TO.N,Net-(C1-Pad1)*%
X53500000Y-74800000D03*
D10*
%TO.P,C1,2*%
%TO.N,GND*%
X53500000Y-78300000D03*
%TD*%
D21*
%TO.P,Q1,2*%
%TO.N,Net-(C5-Pad2)*%
X126000000Y-65170000D03*
%TO.P,Q1,3*%
%TO.N,Net-(C6-Pad2)*%
X126000000Y-66440000D03*
D22*
%TO.P,Q1,1*%
%TO.N,Net-(C4-Pad2)*%
X126000000Y-63900000D03*
%TD*%
D23*
%TO.N,GND*%
X132915001Y-82315000D02*
X45685000Y-82315000D01*
X45685000Y-80229117D01*
X45865000Y-80229117D01*
X45865000Y-80570883D01*
X45931675Y-80906081D01*
X46062463Y-81221831D01*
X46252337Y-81505998D01*
X46494002Y-81747663D01*
X46778169Y-81937537D01*
X47093919Y-82068325D01*
X47429117Y-82135000D01*
X47770883Y-82135000D01*
X48106081Y-82068325D01*
X48421831Y-81937537D01*
X48705998Y-81747663D01*
X48947663Y-81505998D01*
X49137537Y-81221831D01*
X49268325Y-80906081D01*
X49335000Y-80570883D01*
X49335000Y-80229117D01*
X49268325Y-79893919D01*
X49137537Y-79578169D01*
X48947663Y-79294002D01*
X48766994Y-79113333D01*
X52866273Y-79113333D01*
X52956762Y-79263769D01*
X53155222Y-79351230D01*
X53366931Y-79398294D01*
X53583755Y-79403151D01*
X53797360Y-79365614D01*
X53999537Y-79287127D01*
X54043238Y-79263769D01*
X54133727Y-79113333D01*
X53969211Y-78948816D01*
X70045000Y-78948816D01*
X70045000Y-79251184D01*
X70103989Y-79547743D01*
X70219701Y-79827095D01*
X70387688Y-80078505D01*
X70601495Y-80292312D01*
X70852905Y-80460299D01*
X71132257Y-80576011D01*
X71428816Y-80635000D01*
X71731184Y-80635000D01*
X72027743Y-80576011D01*
X72307095Y-80460299D01*
X72558505Y-80292312D01*
X72772312Y-80078505D01*
X72940299Y-79827095D01*
X73056011Y-79547743D01*
X73115000Y-79251184D01*
X73115000Y-78948816D01*
X73056011Y-78652257D01*
X72940299Y-78372905D01*
X72824768Y-78200000D01*
X77661928Y-78200000D01*
X77661928Y-80000000D01*
X77674188Y-80124482D01*
X77710498Y-80244180D01*
X77769463Y-80354494D01*
X77848815Y-80451185D01*
X77945506Y-80530537D01*
X78055820Y-80589502D01*
X78175518Y-80625812D01*
X78300000Y-80638072D01*
X80100000Y-80638072D01*
X80224482Y-80625812D01*
X80344180Y-80589502D01*
X80454494Y-80530537D01*
X80551185Y-80451185D01*
X80630537Y-80354494D01*
X80689502Y-80244180D01*
X80725812Y-80124482D01*
X80738072Y-80000000D01*
X80738072Y-78200000D01*
X80725812Y-78075518D01*
X80689502Y-77955820D01*
X80630537Y-77845506D01*
X80551185Y-77748815D01*
X80454494Y-77669463D01*
X80344180Y-77610498D01*
X80224482Y-77574188D01*
X80100000Y-77561928D01*
X78300000Y-77561928D01*
X78175518Y-77574188D01*
X78055820Y-77610498D01*
X77945506Y-77669463D01*
X77848815Y-77748815D01*
X77769463Y-77845506D01*
X77710498Y-77955820D01*
X77674188Y-78075518D01*
X77661928Y-78200000D01*
X72824768Y-78200000D01*
X72772312Y-78121495D01*
X72558505Y-77907688D01*
X72307095Y-77739701D01*
X72027743Y-77623989D01*
X71731184Y-77565000D01*
X71428816Y-77565000D01*
X71132257Y-77623989D01*
X70852905Y-77739701D01*
X70601495Y-77907688D01*
X70387688Y-78121495D01*
X70219701Y-78372905D01*
X70103989Y-78652257D01*
X70045000Y-78948816D01*
X53969211Y-78948816D01*
X53500000Y-78479605D01*
X52866273Y-79113333D01*
X48766994Y-79113333D01*
X48705998Y-79052337D01*
X48421831Y-78862463D01*
X48106081Y-78731675D01*
X47770883Y-78665000D01*
X47429117Y-78665000D01*
X47093919Y-78731675D01*
X46778169Y-78862463D01*
X46494002Y-79052337D01*
X46252337Y-79294002D01*
X46062463Y-79578169D01*
X45931675Y-79893919D01*
X45865000Y-80229117D01*
X45685000Y-80229117D01*
X45685000Y-78383755D01*
X52396849Y-78383755D01*
X52434386Y-78597360D01*
X52512873Y-78799537D01*
X52536231Y-78843238D01*
X52686667Y-78933727D01*
X53320395Y-78300000D01*
X53679605Y-78300000D01*
X54313333Y-78933727D01*
X54463769Y-78843238D01*
X54551230Y-78644778D01*
X54598294Y-78433069D01*
X54603151Y-78216245D01*
X54565614Y-78002640D01*
X54487127Y-77800463D01*
X54463769Y-77756762D01*
X54313333Y-77666273D01*
X53679605Y-78300000D01*
X53320395Y-78300000D01*
X52686667Y-77666273D01*
X52536231Y-77756762D01*
X52448770Y-77955222D01*
X52401706Y-78166931D01*
X52396849Y-78383755D01*
X45685000Y-78383755D01*
X45685000Y-77486667D01*
X52866273Y-77486667D01*
X53500000Y-78120395D01*
X54133727Y-77486667D01*
X54043238Y-77336231D01*
X53844778Y-77248770D01*
X53633069Y-77201706D01*
X53416245Y-77196849D01*
X53202640Y-77234386D01*
X53000463Y-77312873D01*
X52956762Y-77336231D01*
X52866273Y-77486667D01*
X45685000Y-77486667D01*
X45685000Y-74000000D01*
X52061928Y-74000000D01*
X52061928Y-75600000D01*
X52074188Y-75724482D01*
X52110498Y-75844180D01*
X52169463Y-75954494D01*
X52248815Y-76051185D01*
X52345506Y-76130537D01*
X52455820Y-76189502D01*
X52575518Y-76225812D01*
X52700000Y-76238072D01*
X54300000Y-76238072D01*
X54424482Y-76225812D01*
X54544180Y-76189502D01*
X54654494Y-76130537D01*
X54751185Y-76051185D01*
X54830537Y-75954494D01*
X54889502Y-75844180D01*
X54925812Y-75724482D01*
X54938072Y-75600000D01*
X54938072Y-74000000D01*
X54925812Y-73875518D01*
X54889502Y-73755820D01*
X54830537Y-73645506D01*
X54751185Y-73548815D01*
X54654494Y-73469463D01*
X54544180Y-73410498D01*
X54424482Y-73374188D01*
X54300000Y-73361928D01*
X52700000Y-73361928D01*
X52575518Y-73374188D01*
X52455820Y-73410498D01*
X52345506Y-73469463D01*
X52248815Y-73548815D01*
X52169463Y-73645506D01*
X52110498Y-73755820D01*
X52074188Y-73875518D01*
X52061928Y-74000000D01*
X45685000Y-74000000D01*
X45685000Y-67400000D01*
X50561928Y-67400000D01*
X50561928Y-70000000D01*
X50574188Y-70124482D01*
X50610498Y-70244180D01*
X50669463Y-70354494D01*
X50748815Y-70451185D01*
X50845506Y-70530537D01*
X50955820Y-70589502D01*
X51075518Y-70625812D01*
X51200000Y-70638072D01*
X53800000Y-70638072D01*
X53924482Y-70625812D01*
X54044180Y-70589502D01*
X54154494Y-70530537D01*
X54251185Y-70451185D01*
X54330537Y-70354494D01*
X54389502Y-70244180D01*
X54425812Y-70124482D01*
X54438072Y-70000000D01*
X54438072Y-67838665D01*
X58545000Y-67838665D01*
X58545000Y-68121335D01*
X58600147Y-68398574D01*
X58708320Y-68659727D01*
X58865363Y-68894759D01*
X59065241Y-69094637D01*
X59297759Y-69250000D01*
X59065241Y-69405363D01*
X58865363Y-69605241D01*
X58708320Y-69840273D01*
X58600147Y-70101426D01*
X58545000Y-70378665D01*
X58545000Y-70661335D01*
X58600147Y-70938574D01*
X58708320Y-71199727D01*
X58865363Y-71434759D01*
X59065241Y-71634637D01*
X59297759Y-71790000D01*
X59065241Y-71945363D01*
X58865363Y-72145241D01*
X58708320Y-72380273D01*
X58600147Y-72641426D01*
X58545000Y-72918665D01*
X58545000Y-73201335D01*
X58600147Y-73478574D01*
X58708320Y-73739727D01*
X58865363Y-73974759D01*
X59065241Y-74174637D01*
X59297759Y-74330000D01*
X59065241Y-74485363D01*
X58865363Y-74685241D01*
X58708320Y-74920273D01*
X58600147Y-75181426D01*
X58545000Y-75458665D01*
X58545000Y-75741335D01*
X58600147Y-76018574D01*
X58708320Y-76279727D01*
X58865363Y-76514759D01*
X59065241Y-76714637D01*
X59300273Y-76871680D01*
X59561426Y-76979853D01*
X59838665Y-77035000D01*
X60121335Y-77035000D01*
X60398574Y-76979853D01*
X60659727Y-76871680D01*
X60894759Y-76714637D01*
X61094637Y-76514759D01*
X61251680Y-76279727D01*
X61359853Y-76018574D01*
X61415000Y-75741335D01*
X61415000Y-75458665D01*
X61359853Y-75181426D01*
X61251680Y-74920273D01*
X61171317Y-74800000D01*
X66161928Y-74800000D01*
X66161928Y-76400000D01*
X66174188Y-76524482D01*
X66210498Y-76644180D01*
X66269463Y-76754494D01*
X66348815Y-76851185D01*
X66445506Y-76930537D01*
X66555820Y-76989502D01*
X66675518Y-77025812D01*
X66800000Y-77038072D01*
X68400000Y-77038072D01*
X68524482Y-77025812D01*
X68644180Y-76989502D01*
X68754494Y-76930537D01*
X68851185Y-76851185D01*
X68877378Y-76819268D01*
X82165000Y-76819268D01*
X82165000Y-77180732D01*
X82235518Y-77535250D01*
X82373844Y-77869199D01*
X82574662Y-78169744D01*
X82830256Y-78425338D01*
X83130801Y-78626156D01*
X83464750Y-78764482D01*
X83819268Y-78835000D01*
X84180732Y-78835000D01*
X84535250Y-78764482D01*
X84869199Y-78626156D01*
X85169744Y-78425338D01*
X85425338Y-78169744D01*
X85472535Y-78099108D01*
X88080497Y-78099108D01*
X88219358Y-78290526D01*
X88486127Y-78418025D01*
X88772644Y-78491029D01*
X89067898Y-78506734D01*
X89360542Y-78464537D01*
X89639332Y-78366058D01*
X89780642Y-78290526D01*
X89919503Y-78099108D01*
X89000000Y-77179605D01*
X88080497Y-78099108D01*
X85472535Y-78099108D01*
X85626156Y-77869199D01*
X85764482Y-77535250D01*
X85835000Y-77180732D01*
X85835000Y-77067898D01*
X87493266Y-77067898D01*
X87535463Y-77360542D01*
X87633942Y-77639332D01*
X87709474Y-77780642D01*
X87900892Y-77919503D01*
X88820395Y-77000000D01*
X89179605Y-77000000D01*
X90099108Y-77919503D01*
X90290526Y-77780642D01*
X90418025Y-77513873D01*
X90491029Y-77227356D01*
X90506734Y-76932102D01*
X90464537Y-76639458D01*
X90366058Y-76360668D01*
X90290526Y-76219358D01*
X90099108Y-76080497D01*
X89179605Y-77000000D01*
X88820395Y-77000000D01*
X87900892Y-76080497D01*
X87709474Y-76219358D01*
X87581975Y-76486127D01*
X87508971Y-76772644D01*
X87493266Y-77067898D01*
X85835000Y-77067898D01*
X85835000Y-76819268D01*
X85764482Y-76464750D01*
X85626156Y-76130801D01*
X85472536Y-75900892D01*
X88080497Y-75900892D01*
X89000000Y-76820395D01*
X89919503Y-75900892D01*
X89780642Y-75709474D01*
X89513873Y-75581975D01*
X89227356Y-75508971D01*
X88932102Y-75493266D01*
X88639458Y-75535463D01*
X88360668Y-75633942D01*
X88219358Y-75709474D01*
X88080497Y-75900892D01*
X85472536Y-75900892D01*
X85425338Y-75830256D01*
X85169744Y-75574662D01*
X84869199Y-75373844D01*
X84535250Y-75235518D01*
X84180732Y-75165000D01*
X83819268Y-75165000D01*
X83464750Y-75235518D01*
X83130801Y-75373844D01*
X82830256Y-75574662D01*
X82574662Y-75830256D01*
X82373844Y-76130801D01*
X82235518Y-76464750D01*
X82165000Y-76819268D01*
X68877378Y-76819268D01*
X68930537Y-76754494D01*
X68989502Y-76644180D01*
X69025812Y-76524482D01*
X69038072Y-76400000D01*
X69038072Y-74800000D01*
X69025812Y-74675518D01*
X68989502Y-74555820D01*
X68930537Y-74445506D01*
X68851185Y-74348815D01*
X68754494Y-74269463D01*
X68644180Y-74210498D01*
X68524482Y-74174188D01*
X68516039Y-74173357D01*
X68714637Y-73974759D01*
X68871680Y-73739727D01*
X68979853Y-73478574D01*
X69023596Y-73258665D01*
X71765000Y-73258665D01*
X71765000Y-73541335D01*
X71820147Y-73818574D01*
X71928320Y-74079727D01*
X72085363Y-74314759D01*
X72285241Y-74514637D01*
X72520273Y-74671680D01*
X72781426Y-74779853D01*
X73058665Y-74835000D01*
X73341335Y-74835000D01*
X73618574Y-74779853D01*
X73879727Y-74671680D01*
X74114759Y-74514637D01*
X74314637Y-74314759D01*
X74471680Y-74079727D01*
X74579853Y-73818574D01*
X74635000Y-73541335D01*
X74635000Y-73258665D01*
X76765000Y-73258665D01*
X76765000Y-73541335D01*
X76820147Y-73818574D01*
X76928320Y-74079727D01*
X77085363Y-74314759D01*
X77285241Y-74514637D01*
X77520273Y-74671680D01*
X77781426Y-74779853D01*
X78058665Y-74835000D01*
X78341335Y-74835000D01*
X78618574Y-74779853D01*
X78879727Y-74671680D01*
X79114759Y-74514637D01*
X79314637Y-74314759D01*
X79471680Y-74079727D01*
X79559983Y-73866544D01*
X95645000Y-73866544D01*
X95645000Y-74133456D01*
X95697072Y-74395239D01*
X95799215Y-74641833D01*
X95947503Y-74863762D01*
X96136238Y-75052497D01*
X96358167Y-75200785D01*
X96525266Y-75270000D01*
X96358167Y-75339215D01*
X96136238Y-75487503D01*
X95947503Y-75676238D01*
X95799215Y-75898167D01*
X95697072Y-76144761D01*
X95645000Y-76406544D01*
X95645000Y-76673456D01*
X95697072Y-76935239D01*
X95799215Y-77181833D01*
X95947503Y-77403762D01*
X96136238Y-77592497D01*
X96358167Y-77740785D01*
X96525266Y-77810000D01*
X96358167Y-77879215D01*
X96136238Y-78027503D01*
X95947503Y-78216238D01*
X95799215Y-78438167D01*
X95697072Y-78684761D01*
X95645000Y-78946544D01*
X95645000Y-79213456D01*
X95697072Y-79475239D01*
X95799215Y-79721833D01*
X95947503Y-79943762D01*
X96136238Y-80132497D01*
X96358167Y-80280785D01*
X96604761Y-80382928D01*
X96866544Y-80435000D01*
X97133456Y-80435000D01*
X97395239Y-80382928D01*
X97641833Y-80280785D01*
X97863762Y-80132497D01*
X98052497Y-79943762D01*
X98200785Y-79721833D01*
X98302928Y-79475239D01*
X98355000Y-79213456D01*
X98355000Y-78946544D01*
X98333602Y-78838967D01*
X104765000Y-78838967D01*
X104765000Y-79161033D01*
X104827832Y-79476912D01*
X104951082Y-79774463D01*
X105130013Y-80042252D01*
X105357748Y-80269987D01*
X105625537Y-80448918D01*
X105923088Y-80572168D01*
X106238967Y-80635000D01*
X106561033Y-80635000D01*
X106876912Y-80572168D01*
X107174463Y-80448918D01*
X107442252Y-80269987D01*
X107669987Y-80042252D01*
X107848918Y-79774463D01*
X107972168Y-79476912D01*
X108035000Y-79161033D01*
X108035000Y-78838967D01*
X116365000Y-78838967D01*
X116365000Y-79161033D01*
X116427832Y-79476912D01*
X116551082Y-79774463D01*
X116730013Y-80042252D01*
X116957748Y-80269987D01*
X117225537Y-80448918D01*
X117523088Y-80572168D01*
X117838967Y-80635000D01*
X118161033Y-80635000D01*
X118476912Y-80572168D01*
X118774463Y-80448918D01*
X119042252Y-80269987D01*
X119083122Y-80229117D01*
X129265000Y-80229117D01*
X129265000Y-80570883D01*
X129331675Y-80906081D01*
X129462463Y-81221831D01*
X129652337Y-81505998D01*
X129894002Y-81747663D01*
X130178169Y-81937537D01*
X130493919Y-82068325D01*
X130829117Y-82135000D01*
X131170883Y-82135000D01*
X131506081Y-82068325D01*
X131821831Y-81937537D01*
X132105998Y-81747663D01*
X132347663Y-81505998D01*
X132537537Y-81221831D01*
X132668325Y-80906081D01*
X132735000Y-80570883D01*
X132735000Y-80229117D01*
X132668325Y-79893919D01*
X132537537Y-79578169D01*
X132347663Y-79294002D01*
X132105998Y-79052337D01*
X131821831Y-78862463D01*
X131506081Y-78731675D01*
X131170883Y-78665000D01*
X130829117Y-78665000D01*
X130493919Y-78731675D01*
X130178169Y-78862463D01*
X129894002Y-79052337D01*
X129652337Y-79294002D01*
X129462463Y-79578169D01*
X129331675Y-79893919D01*
X129265000Y-80229117D01*
X119083122Y-80229117D01*
X119269987Y-80042252D01*
X119448918Y-79774463D01*
X119572168Y-79476912D01*
X119635000Y-79161033D01*
X119635000Y-78838967D01*
X119572168Y-78523088D01*
X119448918Y-78225537D01*
X119269987Y-77957748D01*
X119042252Y-77730013D01*
X118774463Y-77551082D01*
X118476912Y-77427832D01*
X118161033Y-77365000D01*
X117838967Y-77365000D01*
X117523088Y-77427832D01*
X117225537Y-77551082D01*
X116957748Y-77730013D01*
X116730013Y-77957748D01*
X116551082Y-78225537D01*
X116427832Y-78523088D01*
X116365000Y-78838967D01*
X108035000Y-78838967D01*
X107972168Y-78523088D01*
X107848918Y-78225537D01*
X107669987Y-77957748D01*
X107442252Y-77730013D01*
X107174463Y-77551082D01*
X106876912Y-77427832D01*
X106561033Y-77365000D01*
X106238967Y-77365000D01*
X105923088Y-77427832D01*
X105625537Y-77551082D01*
X105357748Y-77730013D01*
X105130013Y-77957748D01*
X104951082Y-78225537D01*
X104827832Y-78523088D01*
X104765000Y-78838967D01*
X98333602Y-78838967D01*
X98302928Y-78684761D01*
X98200785Y-78438167D01*
X98052497Y-78216238D01*
X97863762Y-78027503D01*
X97641833Y-77879215D01*
X97474734Y-77810000D01*
X97641833Y-77740785D01*
X97863762Y-77592497D01*
X98052497Y-77403762D01*
X98200785Y-77181833D01*
X98246932Y-77070424D01*
X126809181Y-77070424D01*
X126960099Y-77272090D01*
X127243918Y-77409582D01*
X127549109Y-77489063D01*
X127863941Y-77507476D01*
X128176315Y-77464115D01*
X128474228Y-77360645D01*
X128639901Y-77272090D01*
X128790819Y-77070424D01*
X127800000Y-76079605D01*
X126809181Y-77070424D01*
X98246932Y-77070424D01*
X98302928Y-76935239D01*
X98355000Y-76673456D01*
X98355000Y-76406544D01*
X98302928Y-76144761D01*
X98228030Y-75963941D01*
X126192524Y-75963941D01*
X126235885Y-76276315D01*
X126339355Y-76574228D01*
X126427910Y-76739901D01*
X126629576Y-76890819D01*
X127620395Y-75900000D01*
X127979605Y-75900000D01*
X128970424Y-76890819D01*
X129172090Y-76739901D01*
X129309582Y-76456082D01*
X129389063Y-76150891D01*
X129407476Y-75836059D01*
X129364115Y-75523685D01*
X129260645Y-75225772D01*
X129172090Y-75060099D01*
X128970424Y-74909181D01*
X127979605Y-75900000D01*
X127620395Y-75900000D01*
X126629576Y-74909181D01*
X126427910Y-75060099D01*
X126290418Y-75343918D01*
X126210937Y-75649109D01*
X126192524Y-75963941D01*
X98228030Y-75963941D01*
X98200785Y-75898167D01*
X98052497Y-75676238D01*
X97863762Y-75487503D01*
X97641833Y-75339215D01*
X97474734Y-75270000D01*
X97641833Y-75200785D01*
X97863762Y-75052497D01*
X97916259Y-75000000D01*
X105097544Y-75000000D01*
X105103356Y-75059006D01*
X105120567Y-75115745D01*
X105148517Y-75168036D01*
X105186131Y-75213869D01*
X105231964Y-75251483D01*
X105284255Y-75279433D01*
X105340994Y-75296644D01*
X105400000Y-75302456D01*
X106197750Y-75301000D01*
X106273000Y-75225750D01*
X106273000Y-74127000D01*
X106527000Y-74127000D01*
X106527000Y-75225750D01*
X106602250Y-75301000D01*
X107400000Y-75302456D01*
X107459006Y-75296644D01*
X107515745Y-75279433D01*
X107568036Y-75251483D01*
X107613869Y-75213869D01*
X107651483Y-75168036D01*
X107679433Y-75115745D01*
X107696644Y-75059006D01*
X107702456Y-75000000D01*
X116697544Y-75000000D01*
X116703356Y-75059006D01*
X116720567Y-75115745D01*
X116748517Y-75168036D01*
X116786131Y-75213869D01*
X116831964Y-75251483D01*
X116884255Y-75279433D01*
X116940994Y-75296644D01*
X117000000Y-75302456D01*
X117797750Y-75301000D01*
X117873000Y-75225750D01*
X117873000Y-74127000D01*
X118127000Y-74127000D01*
X118127000Y-75225750D01*
X118202250Y-75301000D01*
X119000000Y-75302456D01*
X119059006Y-75296644D01*
X119115745Y-75279433D01*
X119168036Y-75251483D01*
X119213869Y-75213869D01*
X119251483Y-75168036D01*
X119279433Y-75115745D01*
X119296644Y-75059006D01*
X119302456Y-75000000D01*
X119301963Y-74729576D01*
X126809181Y-74729576D01*
X127800000Y-75720395D01*
X128790819Y-74729576D01*
X128639901Y-74527910D01*
X128356082Y-74390418D01*
X128050891Y-74310937D01*
X127736059Y-74292524D01*
X127423685Y-74335885D01*
X127125772Y-74439355D01*
X126960099Y-74527910D01*
X126809181Y-74729576D01*
X119301963Y-74729576D01*
X119301000Y-74202250D01*
X119225750Y-74127000D01*
X118127000Y-74127000D01*
X117873000Y-74127000D01*
X116774250Y-74127000D01*
X116699000Y-74202250D01*
X116697544Y-75000000D01*
X107702456Y-75000000D01*
X107701000Y-74202250D01*
X107625750Y-74127000D01*
X106527000Y-74127000D01*
X106273000Y-74127000D01*
X105174250Y-74127000D01*
X105099000Y-74202250D01*
X105097544Y-75000000D01*
X97916259Y-75000000D01*
X98052497Y-74863762D01*
X98200785Y-74641833D01*
X98302928Y-74395239D01*
X98355000Y-74133456D01*
X98355000Y-73866544D01*
X98302928Y-73604761D01*
X98200785Y-73358167D01*
X98052497Y-73136238D01*
X97916259Y-73000000D01*
X105097544Y-73000000D01*
X105099000Y-73797750D01*
X105174250Y-73873000D01*
X106273000Y-73873000D01*
X106273000Y-72774250D01*
X106527000Y-72774250D01*
X106527000Y-73873000D01*
X107625750Y-73873000D01*
X107701000Y-73797750D01*
X107702456Y-73000000D01*
X116697544Y-73000000D01*
X116699000Y-73797750D01*
X116774250Y-73873000D01*
X117873000Y-73873000D01*
X117873000Y-72774250D01*
X118127000Y-72774250D01*
X118127000Y-73873000D01*
X119225750Y-73873000D01*
X119301000Y-73797750D01*
X119302456Y-73000000D01*
X119296644Y-72940994D01*
X119279433Y-72884255D01*
X119251483Y-72831964D01*
X119213869Y-72786131D01*
X119168036Y-72748517D01*
X119115745Y-72720567D01*
X119059006Y-72703356D01*
X119000000Y-72697544D01*
X118202250Y-72699000D01*
X118127000Y-72774250D01*
X117873000Y-72774250D01*
X117797750Y-72699000D01*
X117000000Y-72697544D01*
X116940994Y-72703356D01*
X116884255Y-72720567D01*
X116831964Y-72748517D01*
X116786131Y-72786131D01*
X116748517Y-72831964D01*
X116720567Y-72884255D01*
X116703356Y-72940994D01*
X116697544Y-73000000D01*
X107702456Y-73000000D01*
X107696644Y-72940994D01*
X107679433Y-72884255D01*
X107651483Y-72831964D01*
X107613869Y-72786131D01*
X107568036Y-72748517D01*
X107515745Y-72720567D01*
X107459006Y-72703356D01*
X107400000Y-72697544D01*
X106602250Y-72699000D01*
X106527000Y-72774250D01*
X106273000Y-72774250D01*
X106197750Y-72699000D01*
X105400000Y-72697544D01*
X105340994Y-72703356D01*
X105284255Y-72720567D01*
X105231964Y-72748517D01*
X105186131Y-72786131D01*
X105148517Y-72831964D01*
X105120567Y-72884255D01*
X105103356Y-72940994D01*
X105097544Y-73000000D01*
X97916259Y-73000000D01*
X97863762Y-72947503D01*
X97641833Y-72799215D01*
X97395239Y-72697072D01*
X97133456Y-72645000D01*
X96866544Y-72645000D01*
X96604761Y-72697072D01*
X96358167Y-72799215D01*
X96136238Y-72947503D01*
X95947503Y-73136238D01*
X95799215Y-73358167D01*
X95697072Y-73604761D01*
X95645000Y-73866544D01*
X79559983Y-73866544D01*
X79579853Y-73818574D01*
X79635000Y-73541335D01*
X79635000Y-73258665D01*
X79579853Y-72981426D01*
X79471680Y-72720273D01*
X79314637Y-72485241D01*
X79114759Y-72285363D01*
X78879727Y-72128320D01*
X78618574Y-72020147D01*
X78341335Y-71965000D01*
X78058665Y-71965000D01*
X77781426Y-72020147D01*
X77520273Y-72128320D01*
X77285241Y-72285363D01*
X77085363Y-72485241D01*
X76928320Y-72720273D01*
X76820147Y-72981426D01*
X76765000Y-73258665D01*
X74635000Y-73258665D01*
X74579853Y-72981426D01*
X74471680Y-72720273D01*
X74314637Y-72485241D01*
X74114759Y-72285363D01*
X73879727Y-72128320D01*
X73618574Y-72020147D01*
X73341335Y-71965000D01*
X73058665Y-71965000D01*
X72781426Y-72020147D01*
X72520273Y-72128320D01*
X72285241Y-72285363D01*
X72085363Y-72485241D01*
X71928320Y-72720273D01*
X71820147Y-72981426D01*
X71765000Y-73258665D01*
X69023596Y-73258665D01*
X69035000Y-73201335D01*
X69035000Y-72918665D01*
X68979853Y-72641426D01*
X68871680Y-72380273D01*
X68714637Y-72145241D01*
X68514759Y-71945363D01*
X68282241Y-71790000D01*
X68514759Y-71634637D01*
X68714637Y-71434759D01*
X68871680Y-71199727D01*
X68979853Y-70938574D01*
X69035000Y-70661335D01*
X69035000Y-70378665D01*
X68979853Y-70101426D01*
X68871680Y-69840273D01*
X68714637Y-69605241D01*
X68514759Y-69405363D01*
X68282241Y-69250000D01*
X68514759Y-69094637D01*
X68714637Y-68894759D01*
X68871680Y-68659727D01*
X68979853Y-68398574D01*
X69035000Y-68121335D01*
X69035000Y-67858665D01*
X70565000Y-67858665D01*
X70565000Y-68141335D01*
X70620147Y-68418574D01*
X70728320Y-68679727D01*
X70885363Y-68914759D01*
X71085241Y-69114637D01*
X71320273Y-69271680D01*
X71581426Y-69379853D01*
X71858665Y-69435000D01*
X72141335Y-69435000D01*
X72418574Y-69379853D01*
X72679727Y-69271680D01*
X72914759Y-69114637D01*
X73114637Y-68914759D01*
X73271680Y-68679727D01*
X73379853Y-68418574D01*
X73435000Y-68141335D01*
X73435000Y-67858665D01*
X78185000Y-67858665D01*
X78185000Y-68141335D01*
X78240147Y-68418574D01*
X78348320Y-68679727D01*
X78505363Y-68914759D01*
X78705241Y-69114637D01*
X78940273Y-69271680D01*
X79201426Y-69379853D01*
X79478665Y-69435000D01*
X79761335Y-69435000D01*
X80038574Y-69379853D01*
X80299727Y-69271680D01*
X80534759Y-69114637D01*
X80734637Y-68914759D01*
X80891680Y-68679727D01*
X80999853Y-68418574D01*
X81055000Y-68141335D01*
X81055000Y-67858665D01*
X80999853Y-67581426D01*
X80891680Y-67320273D01*
X80734637Y-67085241D01*
X80534759Y-66885363D01*
X80465323Y-66838967D01*
X86165000Y-66838967D01*
X86165000Y-67161033D01*
X86227832Y-67476912D01*
X86351082Y-67774463D01*
X86530013Y-68042252D01*
X86757748Y-68269987D01*
X87025537Y-68448918D01*
X87323088Y-68572168D01*
X87638967Y-68635000D01*
X87961033Y-68635000D01*
X88276912Y-68572168D01*
X88574463Y-68448918D01*
X88842252Y-68269987D01*
X89069987Y-68042252D01*
X89248918Y-67774463D01*
X89372168Y-67476912D01*
X89435000Y-67161033D01*
X89435000Y-66838967D01*
X89431082Y-66819268D01*
X97965000Y-66819268D01*
X97965000Y-67180732D01*
X98035518Y-67535250D01*
X98173844Y-67869199D01*
X98374662Y-68169744D01*
X98630256Y-68425338D01*
X98930801Y-68626156D01*
X99264750Y-68764482D01*
X99619268Y-68835000D01*
X99980732Y-68835000D01*
X100335250Y-68764482D01*
X100669199Y-68626156D01*
X100969744Y-68425338D01*
X101225338Y-68169744D01*
X101379538Y-67938967D01*
X109865000Y-67938967D01*
X109865000Y-68261033D01*
X109927832Y-68576912D01*
X110051082Y-68874463D01*
X110230013Y-69142252D01*
X110457748Y-69369987D01*
X110725537Y-69548918D01*
X111023088Y-69672168D01*
X111338967Y-69735000D01*
X111661033Y-69735000D01*
X111976912Y-69672168D01*
X112274463Y-69548918D01*
X112542252Y-69369987D01*
X112769987Y-69142252D01*
X112892655Y-68958665D01*
X117865000Y-68958665D01*
X117865000Y-69241335D01*
X117920147Y-69518574D01*
X118028320Y-69779727D01*
X118185363Y-70014759D01*
X118385241Y-70214637D01*
X118620273Y-70371680D01*
X118881426Y-70479853D01*
X119158665Y-70535000D01*
X119441335Y-70535000D01*
X119718574Y-70479853D01*
X119979727Y-70371680D01*
X120214759Y-70214637D01*
X120414637Y-70014759D01*
X120571680Y-69779727D01*
X120646125Y-69600000D01*
X125861928Y-69600000D01*
X125861928Y-72200000D01*
X125874188Y-72324482D01*
X125910498Y-72444180D01*
X125969463Y-72554494D01*
X126048815Y-72651185D01*
X126145506Y-72730537D01*
X126255820Y-72789502D01*
X126375518Y-72825812D01*
X126500000Y-72838072D01*
X129100000Y-72838072D01*
X129224482Y-72825812D01*
X129344180Y-72789502D01*
X129454494Y-72730537D01*
X129551185Y-72651185D01*
X129630537Y-72554494D01*
X129689502Y-72444180D01*
X129725812Y-72324482D01*
X129738072Y-72200000D01*
X129738072Y-69600000D01*
X129725812Y-69475518D01*
X129689502Y-69355820D01*
X129630537Y-69245506D01*
X129551185Y-69148815D01*
X129454494Y-69069463D01*
X129344180Y-69010498D01*
X129224482Y-68974188D01*
X129100000Y-68961928D01*
X126500000Y-68961928D01*
X126375518Y-68974188D01*
X126255820Y-69010498D01*
X126145506Y-69069463D01*
X126048815Y-69148815D01*
X125969463Y-69245506D01*
X125910498Y-69355820D01*
X125874188Y-69475518D01*
X125861928Y-69600000D01*
X120646125Y-69600000D01*
X120679853Y-69518574D01*
X120735000Y-69241335D01*
X120735000Y-68958665D01*
X120679853Y-68681426D01*
X120571680Y-68420273D01*
X120414637Y-68185241D01*
X120214759Y-67985363D01*
X119979727Y-67828320D01*
X119718574Y-67720147D01*
X119441335Y-67665000D01*
X119158665Y-67665000D01*
X118881426Y-67720147D01*
X118620273Y-67828320D01*
X118385241Y-67985363D01*
X118185363Y-68185241D01*
X118028320Y-68420273D01*
X117920147Y-68681426D01*
X117865000Y-68958665D01*
X112892655Y-68958665D01*
X112948918Y-68874463D01*
X113072168Y-68576912D01*
X113135000Y-68261033D01*
X113135000Y-67938967D01*
X113072168Y-67623088D01*
X112948918Y-67325537D01*
X112769987Y-67057748D01*
X112542252Y-66830013D01*
X112274463Y-66651082D01*
X111976912Y-66527832D01*
X111661033Y-66465000D01*
X111338967Y-66465000D01*
X111023088Y-66527832D01*
X110725537Y-66651082D01*
X110457748Y-66830013D01*
X110230013Y-67057748D01*
X110051082Y-67325537D01*
X109927832Y-67623088D01*
X109865000Y-67938967D01*
X101379538Y-67938967D01*
X101426156Y-67869199D01*
X101564482Y-67535250D01*
X101635000Y-67180732D01*
X101635000Y-66819268D01*
X101564482Y-66464750D01*
X101426156Y-66130801D01*
X101225338Y-65830256D01*
X100969744Y-65574662D01*
X100669199Y-65373844D01*
X100335250Y-65235518D01*
X100005869Y-65170000D01*
X124609388Y-65170000D01*
X124631785Y-65397400D01*
X124698115Y-65616060D01*
X124799105Y-65805000D01*
X124698115Y-65993940D01*
X124631785Y-66212600D01*
X124609388Y-66440000D01*
X124631785Y-66667400D01*
X124698115Y-66886060D01*
X124805829Y-67087579D01*
X124950788Y-67264212D01*
X125127421Y-67409171D01*
X125328940Y-67516885D01*
X125547600Y-67583215D01*
X125718021Y-67600000D01*
X126281979Y-67600000D01*
X126452400Y-67583215D01*
X126671060Y-67516885D01*
X126872579Y-67409171D01*
X127049212Y-67264212D01*
X127194171Y-67087579D01*
X127301885Y-66886060D01*
X127368215Y-66667400D01*
X127390612Y-66440000D01*
X127368215Y-66212600D01*
X127301885Y-65993940D01*
X127200895Y-65805000D01*
X127301885Y-65616060D01*
X127368215Y-65397400D01*
X127390612Y-65170000D01*
X127368215Y-64942600D01*
X127304907Y-64733902D01*
X127339502Y-64669180D01*
X127375812Y-64549482D01*
X127388072Y-64425000D01*
X127388072Y-63375000D01*
X127375812Y-63250518D01*
X127339502Y-63130820D01*
X127280537Y-63020506D01*
X127201185Y-62923815D01*
X127104494Y-62844463D01*
X126994180Y-62785498D01*
X126874482Y-62749188D01*
X126750000Y-62736928D01*
X125250000Y-62736928D01*
X125125518Y-62749188D01*
X125005820Y-62785498D01*
X124895506Y-62844463D01*
X124798815Y-62923815D01*
X124719463Y-63020506D01*
X124660498Y-63130820D01*
X124624188Y-63250518D01*
X124611928Y-63375000D01*
X124611928Y-64425000D01*
X124624188Y-64549482D01*
X124660498Y-64669180D01*
X124695093Y-64733902D01*
X124631785Y-64942600D01*
X124609388Y-65170000D01*
X100005869Y-65170000D01*
X99980732Y-65165000D01*
X99619268Y-65165000D01*
X99264750Y-65235518D01*
X98930801Y-65373844D01*
X98630256Y-65574662D01*
X98374662Y-65830256D01*
X98173844Y-66130801D01*
X98035518Y-66464750D01*
X97965000Y-66819268D01*
X89431082Y-66819268D01*
X89372168Y-66523088D01*
X89248918Y-66225537D01*
X89069987Y-65957748D01*
X88842252Y-65730013D01*
X88574463Y-65551082D01*
X88276912Y-65427832D01*
X87961033Y-65365000D01*
X87638967Y-65365000D01*
X87323088Y-65427832D01*
X87025537Y-65551082D01*
X86757748Y-65730013D01*
X86530013Y-65957748D01*
X86351082Y-66225537D01*
X86227832Y-66523088D01*
X86165000Y-66838967D01*
X80465323Y-66838967D01*
X80299727Y-66728320D01*
X80038574Y-66620147D01*
X79761335Y-66565000D01*
X79478665Y-66565000D01*
X79201426Y-66620147D01*
X78940273Y-66728320D01*
X78705241Y-66885363D01*
X78505363Y-67085241D01*
X78348320Y-67320273D01*
X78240147Y-67581426D01*
X78185000Y-67858665D01*
X73435000Y-67858665D01*
X73379853Y-67581426D01*
X73271680Y-67320273D01*
X73114637Y-67085241D01*
X72914759Y-66885363D01*
X72679727Y-66728320D01*
X72418574Y-66620147D01*
X72141335Y-66565000D01*
X71858665Y-66565000D01*
X71581426Y-66620147D01*
X71320273Y-66728320D01*
X71085241Y-66885363D01*
X70885363Y-67085241D01*
X70728320Y-67320273D01*
X70620147Y-67581426D01*
X70565000Y-67858665D01*
X69035000Y-67858665D01*
X69035000Y-67838665D01*
X68979853Y-67561426D01*
X68871680Y-67300273D01*
X68714637Y-67065241D01*
X68514759Y-66865363D01*
X68279727Y-66708320D01*
X68018574Y-66600147D01*
X67741335Y-66545000D01*
X67458665Y-66545000D01*
X67181426Y-66600147D01*
X66920273Y-66708320D01*
X66685241Y-66865363D01*
X66485363Y-67065241D01*
X66328320Y-67300273D01*
X66220147Y-67561426D01*
X66165000Y-67838665D01*
X66165000Y-68121335D01*
X66220147Y-68398574D01*
X66328320Y-68659727D01*
X66485363Y-68894759D01*
X66685241Y-69094637D01*
X66917759Y-69250000D01*
X66685241Y-69405363D01*
X66485363Y-69605241D01*
X66328320Y-69840273D01*
X66220147Y-70101426D01*
X66165000Y-70378665D01*
X66165000Y-70661335D01*
X66220147Y-70938574D01*
X66328320Y-71199727D01*
X66485363Y-71434759D01*
X66685241Y-71634637D01*
X66917759Y-71790000D01*
X66685241Y-71945363D01*
X66485363Y-72145241D01*
X66328320Y-72380273D01*
X66220147Y-72641426D01*
X66165000Y-72918665D01*
X66165000Y-73201335D01*
X66220147Y-73478574D01*
X66328320Y-73739727D01*
X66485363Y-73974759D01*
X66683961Y-74173357D01*
X66675518Y-74174188D01*
X66555820Y-74210498D01*
X66445506Y-74269463D01*
X66348815Y-74348815D01*
X66269463Y-74445506D01*
X66210498Y-74555820D01*
X66174188Y-74675518D01*
X66161928Y-74800000D01*
X61171317Y-74800000D01*
X61094637Y-74685241D01*
X60894759Y-74485363D01*
X60662241Y-74330000D01*
X60894759Y-74174637D01*
X61094637Y-73974759D01*
X61251680Y-73739727D01*
X61359853Y-73478574D01*
X61415000Y-73201335D01*
X61415000Y-72918665D01*
X61359853Y-72641426D01*
X61251680Y-72380273D01*
X61094637Y-72145241D01*
X60894759Y-71945363D01*
X60662241Y-71790000D01*
X60894759Y-71634637D01*
X61094637Y-71434759D01*
X61251680Y-71199727D01*
X61359853Y-70938574D01*
X61415000Y-70661335D01*
X61415000Y-70378665D01*
X61359853Y-70101426D01*
X61251680Y-69840273D01*
X61094637Y-69605241D01*
X60894759Y-69405363D01*
X60662241Y-69250000D01*
X60894759Y-69094637D01*
X61094637Y-68894759D01*
X61251680Y-68659727D01*
X61359853Y-68398574D01*
X61415000Y-68121335D01*
X61415000Y-67838665D01*
X61359853Y-67561426D01*
X61251680Y-67300273D01*
X61094637Y-67065241D01*
X60894759Y-66865363D01*
X60659727Y-66708320D01*
X60398574Y-66600147D01*
X60121335Y-66545000D01*
X59838665Y-66545000D01*
X59561426Y-66600147D01*
X59300273Y-66708320D01*
X59065241Y-66865363D01*
X58865363Y-67065241D01*
X58708320Y-67300273D01*
X58600147Y-67561426D01*
X58545000Y-67838665D01*
X54438072Y-67838665D01*
X54438072Y-67400000D01*
X54425812Y-67275518D01*
X54389502Y-67155820D01*
X54330537Y-67045506D01*
X54251185Y-66948815D01*
X54154494Y-66869463D01*
X54044180Y-66810498D01*
X53924482Y-66774188D01*
X53800000Y-66761928D01*
X51200000Y-66761928D01*
X51075518Y-66774188D01*
X50955820Y-66810498D01*
X50845506Y-66869463D01*
X50748815Y-66948815D01*
X50669463Y-67045506D01*
X50610498Y-67155820D01*
X50574188Y-67275518D01*
X50561928Y-67400000D01*
X45685000Y-67400000D01*
X45685000Y-64870424D01*
X51509181Y-64870424D01*
X51660099Y-65072090D01*
X51943918Y-65209582D01*
X52249109Y-65289063D01*
X52563941Y-65307476D01*
X52876315Y-65264115D01*
X53174228Y-65160645D01*
X53339901Y-65072090D01*
X53490819Y-64870424D01*
X52500000Y-63879605D01*
X51509181Y-64870424D01*
X45685000Y-64870424D01*
X45685000Y-63763941D01*
X50892524Y-63763941D01*
X50935885Y-64076315D01*
X51039355Y-64374228D01*
X51127910Y-64539901D01*
X51329576Y-64690819D01*
X52320395Y-63700000D01*
X52679605Y-63700000D01*
X53670424Y-64690819D01*
X53872090Y-64539901D01*
X54009582Y-64256082D01*
X54089063Y-63950891D01*
X54107476Y-63636059D01*
X54064115Y-63323685D01*
X53960645Y-63025772D01*
X53872090Y-62860099D01*
X53870174Y-62858665D01*
X56905000Y-62858665D01*
X56905000Y-63141335D01*
X56960147Y-63418574D01*
X57068320Y-63679727D01*
X57225363Y-63914759D01*
X57425241Y-64114637D01*
X57660273Y-64271680D01*
X57921426Y-64379853D01*
X58198665Y-64435000D01*
X58481335Y-64435000D01*
X58758574Y-64379853D01*
X59019727Y-64271680D01*
X59254759Y-64114637D01*
X59454637Y-63914759D01*
X59611680Y-63679727D01*
X59719853Y-63418574D01*
X59775000Y-63141335D01*
X59775000Y-62858665D01*
X67065000Y-62858665D01*
X67065000Y-63141335D01*
X67120147Y-63418574D01*
X67228320Y-63679727D01*
X67385363Y-63914759D01*
X67585241Y-64114637D01*
X67820273Y-64271680D01*
X68081426Y-64379853D01*
X68358665Y-64435000D01*
X68641335Y-64435000D01*
X68918574Y-64379853D01*
X69179727Y-64271680D01*
X69414759Y-64114637D01*
X69614637Y-63914759D01*
X69771680Y-63679727D01*
X69879853Y-63418574D01*
X69935000Y-63141335D01*
X69935000Y-62858665D01*
X70545000Y-62858665D01*
X70545000Y-63141335D01*
X70600147Y-63418574D01*
X70708320Y-63679727D01*
X70865363Y-63914759D01*
X71065241Y-64114637D01*
X71300273Y-64271680D01*
X71561426Y-64379853D01*
X71838665Y-64435000D01*
X72121335Y-64435000D01*
X72398574Y-64379853D01*
X72659727Y-64271680D01*
X72894759Y-64114637D01*
X73094637Y-63914759D01*
X73162407Y-63813333D01*
X78966273Y-63813333D01*
X79056762Y-63963769D01*
X79255222Y-64051230D01*
X79466931Y-64098294D01*
X79683755Y-64103151D01*
X79701685Y-64100000D01*
X110197544Y-64100000D01*
X110203356Y-64159006D01*
X110220567Y-64215745D01*
X110248517Y-64268036D01*
X110286131Y-64313869D01*
X110331964Y-64351483D01*
X110384255Y-64379433D01*
X110440994Y-64396644D01*
X110500000Y-64402456D01*
X111297750Y-64401000D01*
X111373000Y-64325750D01*
X111373000Y-63227000D01*
X111627000Y-63227000D01*
X111627000Y-64325750D01*
X111702250Y-64401000D01*
X112500000Y-64402456D01*
X112559006Y-64396644D01*
X112615745Y-64379433D01*
X112668036Y-64351483D01*
X112713869Y-64313869D01*
X112751483Y-64268036D01*
X112779433Y-64215745D01*
X112796644Y-64159006D01*
X112802456Y-64100000D01*
X112801000Y-63302250D01*
X112725750Y-63227000D01*
X111627000Y-63227000D01*
X111373000Y-63227000D01*
X110274250Y-63227000D01*
X110199000Y-63302250D01*
X110197544Y-64100000D01*
X79701685Y-64100000D01*
X79897360Y-64065614D01*
X80099537Y-63987127D01*
X80143238Y-63963769D01*
X80233727Y-63813333D01*
X79600000Y-63179605D01*
X78966273Y-63813333D01*
X73162407Y-63813333D01*
X73251680Y-63679727D01*
X73359853Y-63418574D01*
X73415000Y-63141335D01*
X73415000Y-63083755D01*
X78496849Y-63083755D01*
X78534386Y-63297360D01*
X78612873Y-63499537D01*
X78636231Y-63543238D01*
X78786667Y-63633727D01*
X79420395Y-63000000D01*
X79779605Y-63000000D01*
X80413333Y-63633727D01*
X80563769Y-63543238D01*
X80651230Y-63344778D01*
X80698294Y-63133069D01*
X80701274Y-63000000D01*
X86497544Y-63000000D01*
X86503356Y-63059006D01*
X86520567Y-63115745D01*
X86548517Y-63168036D01*
X86586131Y-63213869D01*
X86631964Y-63251483D01*
X86684255Y-63279433D01*
X86740994Y-63296644D01*
X86800000Y-63302456D01*
X87597750Y-63301000D01*
X87673000Y-63225750D01*
X87673000Y-62127000D01*
X87927000Y-62127000D01*
X87927000Y-63225750D01*
X88002250Y-63301000D01*
X88800000Y-63302456D01*
X88859006Y-63296644D01*
X88915745Y-63279433D01*
X88968036Y-63251483D01*
X89013869Y-63213869D01*
X89051483Y-63168036D01*
X89079433Y-63115745D01*
X89096644Y-63059006D01*
X89102456Y-63000000D01*
X89101000Y-62202250D01*
X89025750Y-62127000D01*
X87927000Y-62127000D01*
X87673000Y-62127000D01*
X86574250Y-62127000D01*
X86499000Y-62202250D01*
X86497544Y-63000000D01*
X80701274Y-63000000D01*
X80703151Y-62916245D01*
X80665614Y-62702640D01*
X80587127Y-62500463D01*
X80563769Y-62456762D01*
X80413333Y-62366273D01*
X79779605Y-63000000D01*
X79420395Y-63000000D01*
X78786667Y-62366273D01*
X78636231Y-62456762D01*
X78548770Y-62655222D01*
X78501706Y-62866931D01*
X78496849Y-63083755D01*
X73415000Y-63083755D01*
X73415000Y-62858665D01*
X73359853Y-62581426D01*
X73251680Y-62320273D01*
X73162408Y-62186667D01*
X78966273Y-62186667D01*
X79600000Y-62820395D01*
X80233727Y-62186667D01*
X80143238Y-62036231D01*
X79944778Y-61948770D01*
X79733069Y-61901706D01*
X79516245Y-61896849D01*
X79302640Y-61934386D01*
X79100463Y-62012873D01*
X79056762Y-62036231D01*
X78966273Y-62186667D01*
X73162408Y-62186667D01*
X73094637Y-62085241D01*
X72894759Y-61885363D01*
X72659727Y-61728320D01*
X72398574Y-61620147D01*
X72121335Y-61565000D01*
X71838665Y-61565000D01*
X71561426Y-61620147D01*
X71300273Y-61728320D01*
X71065241Y-61885363D01*
X70865363Y-62085241D01*
X70708320Y-62320273D01*
X70600147Y-62581426D01*
X70545000Y-62858665D01*
X69935000Y-62858665D01*
X69879853Y-62581426D01*
X69771680Y-62320273D01*
X69614637Y-62085241D01*
X69414759Y-61885363D01*
X69179727Y-61728320D01*
X68918574Y-61620147D01*
X68641335Y-61565000D01*
X68358665Y-61565000D01*
X68081426Y-61620147D01*
X67820273Y-61728320D01*
X67585241Y-61885363D01*
X67385363Y-62085241D01*
X67228320Y-62320273D01*
X67120147Y-62581426D01*
X67065000Y-62858665D01*
X59775000Y-62858665D01*
X59719853Y-62581426D01*
X59611680Y-62320273D01*
X59454637Y-62085241D01*
X59254759Y-61885363D01*
X59019727Y-61728320D01*
X58758574Y-61620147D01*
X58481335Y-61565000D01*
X58198665Y-61565000D01*
X57921426Y-61620147D01*
X57660273Y-61728320D01*
X57425241Y-61885363D01*
X57225363Y-62085241D01*
X57068320Y-62320273D01*
X56960147Y-62581426D01*
X56905000Y-62858665D01*
X53870174Y-62858665D01*
X53670424Y-62709181D01*
X52679605Y-63700000D01*
X52320395Y-63700000D01*
X51329576Y-62709181D01*
X51127910Y-62860099D01*
X50990418Y-63143918D01*
X50910937Y-63449109D01*
X50892524Y-63763941D01*
X45685000Y-63763941D01*
X45685000Y-61429117D01*
X45865000Y-61429117D01*
X45865000Y-61770883D01*
X45931675Y-62106081D01*
X46062463Y-62421831D01*
X46252337Y-62705998D01*
X46494002Y-62947663D01*
X46778169Y-63137537D01*
X47093919Y-63268325D01*
X47429117Y-63335000D01*
X47770883Y-63335000D01*
X48106081Y-63268325D01*
X48421831Y-63137537D01*
X48705998Y-62947663D01*
X48947663Y-62705998D01*
X49065544Y-62529576D01*
X51509181Y-62529576D01*
X52500000Y-63520395D01*
X53490819Y-62529576D01*
X53339901Y-62327910D01*
X53056082Y-62190418D01*
X52750891Y-62110937D01*
X52436059Y-62092524D01*
X52123685Y-62135885D01*
X51825772Y-62239355D01*
X51660099Y-62327910D01*
X51509181Y-62529576D01*
X49065544Y-62529576D01*
X49137537Y-62421831D01*
X49268325Y-62106081D01*
X49335000Y-61770883D01*
X49335000Y-61429117D01*
X49268325Y-61093919D01*
X49229423Y-61000000D01*
X86497544Y-61000000D01*
X86499000Y-61797750D01*
X86574250Y-61873000D01*
X87673000Y-61873000D01*
X87673000Y-60774250D01*
X87927000Y-60774250D01*
X87927000Y-61873000D01*
X89025750Y-61873000D01*
X89079482Y-61819268D01*
X97965000Y-61819268D01*
X97965000Y-62180732D01*
X98035518Y-62535250D01*
X98173844Y-62869199D01*
X98374662Y-63169744D01*
X98630256Y-63425338D01*
X98930801Y-63626156D01*
X99264750Y-63764482D01*
X99619268Y-63835000D01*
X99980732Y-63835000D01*
X100335250Y-63764482D01*
X100669199Y-63626156D01*
X100969744Y-63425338D01*
X101225338Y-63169744D01*
X101426156Y-62869199D01*
X101564482Y-62535250D01*
X101635000Y-62180732D01*
X101635000Y-62100000D01*
X110197544Y-62100000D01*
X110199000Y-62897750D01*
X110274250Y-62973000D01*
X111373000Y-62973000D01*
X111373000Y-61874250D01*
X111627000Y-61874250D01*
X111627000Y-62973000D01*
X112725750Y-62973000D01*
X112801000Y-62897750D01*
X112802456Y-62100000D01*
X112796644Y-62040994D01*
X112779433Y-61984255D01*
X112751483Y-61931964D01*
X112713869Y-61886131D01*
X112668036Y-61848517D01*
X112615745Y-61820567D01*
X112559006Y-61803356D01*
X112500000Y-61797544D01*
X111702250Y-61799000D01*
X111627000Y-61874250D01*
X111373000Y-61874250D01*
X111297750Y-61799000D01*
X110500000Y-61797544D01*
X110440994Y-61803356D01*
X110384255Y-61820567D01*
X110331964Y-61848517D01*
X110286131Y-61886131D01*
X110248517Y-61931964D01*
X110220567Y-61984255D01*
X110203356Y-62040994D01*
X110197544Y-62100000D01*
X101635000Y-62100000D01*
X101635000Y-61819268D01*
X101564482Y-61464750D01*
X101512256Y-61338665D01*
X117865000Y-61338665D01*
X117865000Y-61621335D01*
X117920147Y-61898574D01*
X118028320Y-62159727D01*
X118185363Y-62394759D01*
X118385241Y-62594637D01*
X118620273Y-62751680D01*
X118881426Y-62859853D01*
X119158665Y-62915000D01*
X119441335Y-62915000D01*
X119718574Y-62859853D01*
X119979727Y-62751680D01*
X120214759Y-62594637D01*
X120414637Y-62394759D01*
X120571680Y-62159727D01*
X120679853Y-61898574D01*
X120735000Y-61621335D01*
X120735000Y-61429117D01*
X129265000Y-61429117D01*
X129265000Y-61770883D01*
X129331675Y-62106081D01*
X129462463Y-62421831D01*
X129652337Y-62705998D01*
X129894002Y-62947663D01*
X130178169Y-63137537D01*
X130493919Y-63268325D01*
X130829117Y-63335000D01*
X131170883Y-63335000D01*
X131506081Y-63268325D01*
X131821831Y-63137537D01*
X132105998Y-62947663D01*
X132347663Y-62705998D01*
X132537537Y-62421831D01*
X132668325Y-62106081D01*
X132735000Y-61770883D01*
X132735000Y-61429117D01*
X132668325Y-61093919D01*
X132537537Y-60778169D01*
X132347663Y-60494002D01*
X132105998Y-60252337D01*
X131821831Y-60062463D01*
X131506081Y-59931675D01*
X131170883Y-59865000D01*
X130829117Y-59865000D01*
X130493919Y-59931675D01*
X130178169Y-60062463D01*
X129894002Y-60252337D01*
X129652337Y-60494002D01*
X129462463Y-60778169D01*
X129331675Y-61093919D01*
X129265000Y-61429117D01*
X120735000Y-61429117D01*
X120735000Y-61338665D01*
X120679853Y-61061426D01*
X120571680Y-60800273D01*
X120414637Y-60565241D01*
X120214759Y-60365363D01*
X119979727Y-60208320D01*
X119718574Y-60100147D01*
X119441335Y-60045000D01*
X119158665Y-60045000D01*
X118881426Y-60100147D01*
X118620273Y-60208320D01*
X118385241Y-60365363D01*
X118185363Y-60565241D01*
X118028320Y-60800273D01*
X117920147Y-61061426D01*
X117865000Y-61338665D01*
X101512256Y-61338665D01*
X101426156Y-61130801D01*
X101225338Y-60830256D01*
X100969744Y-60574662D01*
X100669199Y-60373844D01*
X100335250Y-60235518D01*
X99980732Y-60165000D01*
X99619268Y-60165000D01*
X99264750Y-60235518D01*
X98930801Y-60373844D01*
X98630256Y-60574662D01*
X98374662Y-60830256D01*
X98173844Y-61130801D01*
X98035518Y-61464750D01*
X97965000Y-61819268D01*
X89079482Y-61819268D01*
X89101000Y-61797750D01*
X89102456Y-61000000D01*
X89096644Y-60940994D01*
X89079433Y-60884255D01*
X89051483Y-60831964D01*
X89013869Y-60786131D01*
X88968036Y-60748517D01*
X88915745Y-60720567D01*
X88859006Y-60703356D01*
X88800000Y-60697544D01*
X88002250Y-60699000D01*
X87927000Y-60774250D01*
X87673000Y-60774250D01*
X87597750Y-60699000D01*
X86800000Y-60697544D01*
X86740994Y-60703356D01*
X86684255Y-60720567D01*
X86631964Y-60748517D01*
X86586131Y-60786131D01*
X86548517Y-60831964D01*
X86520567Y-60884255D01*
X86503356Y-60940994D01*
X86497544Y-61000000D01*
X49229423Y-61000000D01*
X49137537Y-60778169D01*
X48947663Y-60494002D01*
X48705998Y-60252337D01*
X48421831Y-60062463D01*
X48106081Y-59931675D01*
X47770883Y-59865000D01*
X47429117Y-59865000D01*
X47093919Y-59931675D01*
X46778169Y-60062463D01*
X46494002Y-60252337D01*
X46252337Y-60494002D01*
X46062463Y-60778169D01*
X45931675Y-61093919D01*
X45865000Y-61429117D01*
X45685000Y-61429117D01*
X45685000Y-59685000D01*
X132915000Y-59685000D01*
X132915001Y-82315000D01*
%TA.AperFunction,Conductor*%
D24*
G36*
X132915001Y-82315000D02*
G01*
X45685000Y-82315000D01*
X45685000Y-80229117D01*
X45865000Y-80229117D01*
X45865000Y-80570883D01*
X45931675Y-80906081D01*
X46062463Y-81221831D01*
X46252337Y-81505998D01*
X46494002Y-81747663D01*
X46778169Y-81937537D01*
X47093919Y-82068325D01*
X47429117Y-82135000D01*
X47770883Y-82135000D01*
X48106081Y-82068325D01*
X48421831Y-81937537D01*
X48705998Y-81747663D01*
X48947663Y-81505998D01*
X49137537Y-81221831D01*
X49268325Y-80906081D01*
X49335000Y-80570883D01*
X49335000Y-80229117D01*
X49268325Y-79893919D01*
X49137537Y-79578169D01*
X48947663Y-79294002D01*
X48766994Y-79113333D01*
X52866273Y-79113333D01*
X52956762Y-79263769D01*
X53155222Y-79351230D01*
X53366931Y-79398294D01*
X53583755Y-79403151D01*
X53797360Y-79365614D01*
X53999537Y-79287127D01*
X54043238Y-79263769D01*
X54133727Y-79113333D01*
X53969211Y-78948816D01*
X70045000Y-78948816D01*
X70045000Y-79251184D01*
X70103989Y-79547743D01*
X70219701Y-79827095D01*
X70387688Y-80078505D01*
X70601495Y-80292312D01*
X70852905Y-80460299D01*
X71132257Y-80576011D01*
X71428816Y-80635000D01*
X71731184Y-80635000D01*
X72027743Y-80576011D01*
X72307095Y-80460299D01*
X72558505Y-80292312D01*
X72772312Y-80078505D01*
X72940299Y-79827095D01*
X73056011Y-79547743D01*
X73115000Y-79251184D01*
X73115000Y-78948816D01*
X73056011Y-78652257D01*
X72940299Y-78372905D01*
X72824768Y-78200000D01*
X77661928Y-78200000D01*
X77661928Y-80000000D01*
X77674188Y-80124482D01*
X77710498Y-80244180D01*
X77769463Y-80354494D01*
X77848815Y-80451185D01*
X77945506Y-80530537D01*
X78055820Y-80589502D01*
X78175518Y-80625812D01*
X78300000Y-80638072D01*
X80100000Y-80638072D01*
X80224482Y-80625812D01*
X80344180Y-80589502D01*
X80454494Y-80530537D01*
X80551185Y-80451185D01*
X80630537Y-80354494D01*
X80689502Y-80244180D01*
X80725812Y-80124482D01*
X80738072Y-80000000D01*
X80738072Y-78200000D01*
X80725812Y-78075518D01*
X80689502Y-77955820D01*
X80630537Y-77845506D01*
X80551185Y-77748815D01*
X80454494Y-77669463D01*
X80344180Y-77610498D01*
X80224482Y-77574188D01*
X80100000Y-77561928D01*
X78300000Y-77561928D01*
X78175518Y-77574188D01*
X78055820Y-77610498D01*
X77945506Y-77669463D01*
X77848815Y-77748815D01*
X77769463Y-77845506D01*
X77710498Y-77955820D01*
X77674188Y-78075518D01*
X77661928Y-78200000D01*
X72824768Y-78200000D01*
X72772312Y-78121495D01*
X72558505Y-77907688D01*
X72307095Y-77739701D01*
X72027743Y-77623989D01*
X71731184Y-77565000D01*
X71428816Y-77565000D01*
X71132257Y-77623989D01*
X70852905Y-77739701D01*
X70601495Y-77907688D01*
X70387688Y-78121495D01*
X70219701Y-78372905D01*
X70103989Y-78652257D01*
X70045000Y-78948816D01*
X53969211Y-78948816D01*
X53500000Y-78479605D01*
X52866273Y-79113333D01*
X48766994Y-79113333D01*
X48705998Y-79052337D01*
X48421831Y-78862463D01*
X48106081Y-78731675D01*
X47770883Y-78665000D01*
X47429117Y-78665000D01*
X47093919Y-78731675D01*
X46778169Y-78862463D01*
X46494002Y-79052337D01*
X46252337Y-79294002D01*
X46062463Y-79578169D01*
X45931675Y-79893919D01*
X45865000Y-80229117D01*
X45685000Y-80229117D01*
X45685000Y-78383755D01*
X52396849Y-78383755D01*
X52434386Y-78597360D01*
X52512873Y-78799537D01*
X52536231Y-78843238D01*
X52686667Y-78933727D01*
X53320395Y-78300000D01*
X53679605Y-78300000D01*
X54313333Y-78933727D01*
X54463769Y-78843238D01*
X54551230Y-78644778D01*
X54598294Y-78433069D01*
X54603151Y-78216245D01*
X54565614Y-78002640D01*
X54487127Y-77800463D01*
X54463769Y-77756762D01*
X54313333Y-77666273D01*
X53679605Y-78300000D01*
X53320395Y-78300000D01*
X52686667Y-77666273D01*
X52536231Y-77756762D01*
X52448770Y-77955222D01*
X52401706Y-78166931D01*
X52396849Y-78383755D01*
X45685000Y-78383755D01*
X45685000Y-77486667D01*
X52866273Y-77486667D01*
X53500000Y-78120395D01*
X54133727Y-77486667D01*
X54043238Y-77336231D01*
X53844778Y-77248770D01*
X53633069Y-77201706D01*
X53416245Y-77196849D01*
X53202640Y-77234386D01*
X53000463Y-77312873D01*
X52956762Y-77336231D01*
X52866273Y-77486667D01*
X45685000Y-77486667D01*
X45685000Y-74000000D01*
X52061928Y-74000000D01*
X52061928Y-75600000D01*
X52074188Y-75724482D01*
X52110498Y-75844180D01*
X52169463Y-75954494D01*
X52248815Y-76051185D01*
X52345506Y-76130537D01*
X52455820Y-76189502D01*
X52575518Y-76225812D01*
X52700000Y-76238072D01*
X54300000Y-76238072D01*
X54424482Y-76225812D01*
X54544180Y-76189502D01*
X54654494Y-76130537D01*
X54751185Y-76051185D01*
X54830537Y-75954494D01*
X54889502Y-75844180D01*
X54925812Y-75724482D01*
X54938072Y-75600000D01*
X54938072Y-74000000D01*
X54925812Y-73875518D01*
X54889502Y-73755820D01*
X54830537Y-73645506D01*
X54751185Y-73548815D01*
X54654494Y-73469463D01*
X54544180Y-73410498D01*
X54424482Y-73374188D01*
X54300000Y-73361928D01*
X52700000Y-73361928D01*
X52575518Y-73374188D01*
X52455820Y-73410498D01*
X52345506Y-73469463D01*
X52248815Y-73548815D01*
X52169463Y-73645506D01*
X52110498Y-73755820D01*
X52074188Y-73875518D01*
X52061928Y-74000000D01*
X45685000Y-74000000D01*
X45685000Y-67400000D01*
X50561928Y-67400000D01*
X50561928Y-70000000D01*
X50574188Y-70124482D01*
X50610498Y-70244180D01*
X50669463Y-70354494D01*
X50748815Y-70451185D01*
X50845506Y-70530537D01*
X50955820Y-70589502D01*
X51075518Y-70625812D01*
X51200000Y-70638072D01*
X53800000Y-70638072D01*
X53924482Y-70625812D01*
X54044180Y-70589502D01*
X54154494Y-70530537D01*
X54251185Y-70451185D01*
X54330537Y-70354494D01*
X54389502Y-70244180D01*
X54425812Y-70124482D01*
X54438072Y-70000000D01*
X54438072Y-67838665D01*
X58545000Y-67838665D01*
X58545000Y-68121335D01*
X58600147Y-68398574D01*
X58708320Y-68659727D01*
X58865363Y-68894759D01*
X59065241Y-69094637D01*
X59297759Y-69250000D01*
X59065241Y-69405363D01*
X58865363Y-69605241D01*
X58708320Y-69840273D01*
X58600147Y-70101426D01*
X58545000Y-70378665D01*
X58545000Y-70661335D01*
X58600147Y-70938574D01*
X58708320Y-71199727D01*
X58865363Y-71434759D01*
X59065241Y-71634637D01*
X59297759Y-71790000D01*
X59065241Y-71945363D01*
X58865363Y-72145241D01*
X58708320Y-72380273D01*
X58600147Y-72641426D01*
X58545000Y-72918665D01*
X58545000Y-73201335D01*
X58600147Y-73478574D01*
X58708320Y-73739727D01*
X58865363Y-73974759D01*
X59065241Y-74174637D01*
X59297759Y-74330000D01*
X59065241Y-74485363D01*
X58865363Y-74685241D01*
X58708320Y-74920273D01*
X58600147Y-75181426D01*
X58545000Y-75458665D01*
X58545000Y-75741335D01*
X58600147Y-76018574D01*
X58708320Y-76279727D01*
X58865363Y-76514759D01*
X59065241Y-76714637D01*
X59300273Y-76871680D01*
X59561426Y-76979853D01*
X59838665Y-77035000D01*
X60121335Y-77035000D01*
X60398574Y-76979853D01*
X60659727Y-76871680D01*
X60894759Y-76714637D01*
X61094637Y-76514759D01*
X61251680Y-76279727D01*
X61359853Y-76018574D01*
X61415000Y-75741335D01*
X61415000Y-75458665D01*
X61359853Y-75181426D01*
X61251680Y-74920273D01*
X61171317Y-74800000D01*
X66161928Y-74800000D01*
X66161928Y-76400000D01*
X66174188Y-76524482D01*
X66210498Y-76644180D01*
X66269463Y-76754494D01*
X66348815Y-76851185D01*
X66445506Y-76930537D01*
X66555820Y-76989502D01*
X66675518Y-77025812D01*
X66800000Y-77038072D01*
X68400000Y-77038072D01*
X68524482Y-77025812D01*
X68644180Y-76989502D01*
X68754494Y-76930537D01*
X68851185Y-76851185D01*
X68877378Y-76819268D01*
X82165000Y-76819268D01*
X82165000Y-77180732D01*
X82235518Y-77535250D01*
X82373844Y-77869199D01*
X82574662Y-78169744D01*
X82830256Y-78425338D01*
X83130801Y-78626156D01*
X83464750Y-78764482D01*
X83819268Y-78835000D01*
X84180732Y-78835000D01*
X84535250Y-78764482D01*
X84869199Y-78626156D01*
X85169744Y-78425338D01*
X85425338Y-78169744D01*
X85472535Y-78099108D01*
X88080497Y-78099108D01*
X88219358Y-78290526D01*
X88486127Y-78418025D01*
X88772644Y-78491029D01*
X89067898Y-78506734D01*
X89360542Y-78464537D01*
X89639332Y-78366058D01*
X89780642Y-78290526D01*
X89919503Y-78099108D01*
X89000000Y-77179605D01*
X88080497Y-78099108D01*
X85472535Y-78099108D01*
X85626156Y-77869199D01*
X85764482Y-77535250D01*
X85835000Y-77180732D01*
X85835000Y-77067898D01*
X87493266Y-77067898D01*
X87535463Y-77360542D01*
X87633942Y-77639332D01*
X87709474Y-77780642D01*
X87900892Y-77919503D01*
X88820395Y-77000000D01*
X89179605Y-77000000D01*
X90099108Y-77919503D01*
X90290526Y-77780642D01*
X90418025Y-77513873D01*
X90491029Y-77227356D01*
X90506734Y-76932102D01*
X90464537Y-76639458D01*
X90366058Y-76360668D01*
X90290526Y-76219358D01*
X90099108Y-76080497D01*
X89179605Y-77000000D01*
X88820395Y-77000000D01*
X87900892Y-76080497D01*
X87709474Y-76219358D01*
X87581975Y-76486127D01*
X87508971Y-76772644D01*
X87493266Y-77067898D01*
X85835000Y-77067898D01*
X85835000Y-76819268D01*
X85764482Y-76464750D01*
X85626156Y-76130801D01*
X85472536Y-75900892D01*
X88080497Y-75900892D01*
X89000000Y-76820395D01*
X89919503Y-75900892D01*
X89780642Y-75709474D01*
X89513873Y-75581975D01*
X89227356Y-75508971D01*
X88932102Y-75493266D01*
X88639458Y-75535463D01*
X88360668Y-75633942D01*
X88219358Y-75709474D01*
X88080497Y-75900892D01*
X85472536Y-75900892D01*
X85425338Y-75830256D01*
X85169744Y-75574662D01*
X84869199Y-75373844D01*
X84535250Y-75235518D01*
X84180732Y-75165000D01*
X83819268Y-75165000D01*
X83464750Y-75235518D01*
X83130801Y-75373844D01*
X82830256Y-75574662D01*
X82574662Y-75830256D01*
X82373844Y-76130801D01*
X82235518Y-76464750D01*
X82165000Y-76819268D01*
X68877378Y-76819268D01*
X68930537Y-76754494D01*
X68989502Y-76644180D01*
X69025812Y-76524482D01*
X69038072Y-76400000D01*
X69038072Y-74800000D01*
X69025812Y-74675518D01*
X68989502Y-74555820D01*
X68930537Y-74445506D01*
X68851185Y-74348815D01*
X68754494Y-74269463D01*
X68644180Y-74210498D01*
X68524482Y-74174188D01*
X68516039Y-74173357D01*
X68714637Y-73974759D01*
X68871680Y-73739727D01*
X68979853Y-73478574D01*
X69023596Y-73258665D01*
X71765000Y-73258665D01*
X71765000Y-73541335D01*
X71820147Y-73818574D01*
X71928320Y-74079727D01*
X72085363Y-74314759D01*
X72285241Y-74514637D01*
X72520273Y-74671680D01*
X72781426Y-74779853D01*
X73058665Y-74835000D01*
X73341335Y-74835000D01*
X73618574Y-74779853D01*
X73879727Y-74671680D01*
X74114759Y-74514637D01*
X74314637Y-74314759D01*
X74471680Y-74079727D01*
X74579853Y-73818574D01*
X74635000Y-73541335D01*
X74635000Y-73258665D01*
X76765000Y-73258665D01*
X76765000Y-73541335D01*
X76820147Y-73818574D01*
X76928320Y-74079727D01*
X77085363Y-74314759D01*
X77285241Y-74514637D01*
X77520273Y-74671680D01*
X77781426Y-74779853D01*
X78058665Y-74835000D01*
X78341335Y-74835000D01*
X78618574Y-74779853D01*
X78879727Y-74671680D01*
X79114759Y-74514637D01*
X79314637Y-74314759D01*
X79471680Y-74079727D01*
X79559983Y-73866544D01*
X95645000Y-73866544D01*
X95645000Y-74133456D01*
X95697072Y-74395239D01*
X95799215Y-74641833D01*
X95947503Y-74863762D01*
X96136238Y-75052497D01*
X96358167Y-75200785D01*
X96525266Y-75270000D01*
X96358167Y-75339215D01*
X96136238Y-75487503D01*
X95947503Y-75676238D01*
X95799215Y-75898167D01*
X95697072Y-76144761D01*
X95645000Y-76406544D01*
X95645000Y-76673456D01*
X95697072Y-76935239D01*
X95799215Y-77181833D01*
X95947503Y-77403762D01*
X96136238Y-77592497D01*
X96358167Y-77740785D01*
X96525266Y-77810000D01*
X96358167Y-77879215D01*
X96136238Y-78027503D01*
X95947503Y-78216238D01*
X95799215Y-78438167D01*
X95697072Y-78684761D01*
X95645000Y-78946544D01*
X95645000Y-79213456D01*
X95697072Y-79475239D01*
X95799215Y-79721833D01*
X95947503Y-79943762D01*
X96136238Y-80132497D01*
X96358167Y-80280785D01*
X96604761Y-80382928D01*
X96866544Y-80435000D01*
X97133456Y-80435000D01*
X97395239Y-80382928D01*
X97641833Y-80280785D01*
X97863762Y-80132497D01*
X98052497Y-79943762D01*
X98200785Y-79721833D01*
X98302928Y-79475239D01*
X98355000Y-79213456D01*
X98355000Y-78946544D01*
X98333602Y-78838967D01*
X104765000Y-78838967D01*
X104765000Y-79161033D01*
X104827832Y-79476912D01*
X104951082Y-79774463D01*
X105130013Y-80042252D01*
X105357748Y-80269987D01*
X105625537Y-80448918D01*
X105923088Y-80572168D01*
X106238967Y-80635000D01*
X106561033Y-80635000D01*
X106876912Y-80572168D01*
X107174463Y-80448918D01*
X107442252Y-80269987D01*
X107669987Y-80042252D01*
X107848918Y-79774463D01*
X107972168Y-79476912D01*
X108035000Y-79161033D01*
X108035000Y-78838967D01*
X116365000Y-78838967D01*
X116365000Y-79161033D01*
X116427832Y-79476912D01*
X116551082Y-79774463D01*
X116730013Y-80042252D01*
X116957748Y-80269987D01*
X117225537Y-80448918D01*
X117523088Y-80572168D01*
X117838967Y-80635000D01*
X118161033Y-80635000D01*
X118476912Y-80572168D01*
X118774463Y-80448918D01*
X119042252Y-80269987D01*
X119083122Y-80229117D01*
X129265000Y-80229117D01*
X129265000Y-80570883D01*
X129331675Y-80906081D01*
X129462463Y-81221831D01*
X129652337Y-81505998D01*
X129894002Y-81747663D01*
X130178169Y-81937537D01*
X130493919Y-82068325D01*
X130829117Y-82135000D01*
X131170883Y-82135000D01*
X131506081Y-82068325D01*
X131821831Y-81937537D01*
X132105998Y-81747663D01*
X132347663Y-81505998D01*
X132537537Y-81221831D01*
X132668325Y-80906081D01*
X132735000Y-80570883D01*
X132735000Y-80229117D01*
X132668325Y-79893919D01*
X132537537Y-79578169D01*
X132347663Y-79294002D01*
X132105998Y-79052337D01*
X131821831Y-78862463D01*
X131506081Y-78731675D01*
X131170883Y-78665000D01*
X130829117Y-78665000D01*
X130493919Y-78731675D01*
X130178169Y-78862463D01*
X129894002Y-79052337D01*
X129652337Y-79294002D01*
X129462463Y-79578169D01*
X129331675Y-79893919D01*
X129265000Y-80229117D01*
X119083122Y-80229117D01*
X119269987Y-80042252D01*
X119448918Y-79774463D01*
X119572168Y-79476912D01*
X119635000Y-79161033D01*
X119635000Y-78838967D01*
X119572168Y-78523088D01*
X119448918Y-78225537D01*
X119269987Y-77957748D01*
X119042252Y-77730013D01*
X118774463Y-77551082D01*
X118476912Y-77427832D01*
X118161033Y-77365000D01*
X117838967Y-77365000D01*
X117523088Y-77427832D01*
X117225537Y-77551082D01*
X116957748Y-77730013D01*
X116730013Y-77957748D01*
X116551082Y-78225537D01*
X116427832Y-78523088D01*
X116365000Y-78838967D01*
X108035000Y-78838967D01*
X107972168Y-78523088D01*
X107848918Y-78225537D01*
X107669987Y-77957748D01*
X107442252Y-77730013D01*
X107174463Y-77551082D01*
X106876912Y-77427832D01*
X106561033Y-77365000D01*
X106238967Y-77365000D01*
X105923088Y-77427832D01*
X105625537Y-77551082D01*
X105357748Y-77730013D01*
X105130013Y-77957748D01*
X104951082Y-78225537D01*
X104827832Y-78523088D01*
X104765000Y-78838967D01*
X98333602Y-78838967D01*
X98302928Y-78684761D01*
X98200785Y-78438167D01*
X98052497Y-78216238D01*
X97863762Y-78027503D01*
X97641833Y-77879215D01*
X97474734Y-77810000D01*
X97641833Y-77740785D01*
X97863762Y-77592497D01*
X98052497Y-77403762D01*
X98200785Y-77181833D01*
X98246932Y-77070424D01*
X126809181Y-77070424D01*
X126960099Y-77272090D01*
X127243918Y-77409582D01*
X127549109Y-77489063D01*
X127863941Y-77507476D01*
X128176315Y-77464115D01*
X128474228Y-77360645D01*
X128639901Y-77272090D01*
X128790819Y-77070424D01*
X127800000Y-76079605D01*
X126809181Y-77070424D01*
X98246932Y-77070424D01*
X98302928Y-76935239D01*
X98355000Y-76673456D01*
X98355000Y-76406544D01*
X98302928Y-76144761D01*
X98228030Y-75963941D01*
X126192524Y-75963941D01*
X126235885Y-76276315D01*
X126339355Y-76574228D01*
X126427910Y-76739901D01*
X126629576Y-76890819D01*
X127620395Y-75900000D01*
X127979605Y-75900000D01*
X128970424Y-76890819D01*
X129172090Y-76739901D01*
X129309582Y-76456082D01*
X129389063Y-76150891D01*
X129407476Y-75836059D01*
X129364115Y-75523685D01*
X129260645Y-75225772D01*
X129172090Y-75060099D01*
X128970424Y-74909181D01*
X127979605Y-75900000D01*
X127620395Y-75900000D01*
X126629576Y-74909181D01*
X126427910Y-75060099D01*
X126290418Y-75343918D01*
X126210937Y-75649109D01*
X126192524Y-75963941D01*
X98228030Y-75963941D01*
X98200785Y-75898167D01*
X98052497Y-75676238D01*
X97863762Y-75487503D01*
X97641833Y-75339215D01*
X97474734Y-75270000D01*
X97641833Y-75200785D01*
X97863762Y-75052497D01*
X97916259Y-75000000D01*
X105097544Y-75000000D01*
X105103356Y-75059006D01*
X105120567Y-75115745D01*
X105148517Y-75168036D01*
X105186131Y-75213869D01*
X105231964Y-75251483D01*
X105284255Y-75279433D01*
X105340994Y-75296644D01*
X105400000Y-75302456D01*
X106197750Y-75301000D01*
X106273000Y-75225750D01*
X106273000Y-74127000D01*
X106527000Y-74127000D01*
X106527000Y-75225750D01*
X106602250Y-75301000D01*
X107400000Y-75302456D01*
X107459006Y-75296644D01*
X107515745Y-75279433D01*
X107568036Y-75251483D01*
X107613869Y-75213869D01*
X107651483Y-75168036D01*
X107679433Y-75115745D01*
X107696644Y-75059006D01*
X107702456Y-75000000D01*
X116697544Y-75000000D01*
X116703356Y-75059006D01*
X116720567Y-75115745D01*
X116748517Y-75168036D01*
X116786131Y-75213869D01*
X116831964Y-75251483D01*
X116884255Y-75279433D01*
X116940994Y-75296644D01*
X117000000Y-75302456D01*
X117797750Y-75301000D01*
X117873000Y-75225750D01*
X117873000Y-74127000D01*
X118127000Y-74127000D01*
X118127000Y-75225750D01*
X118202250Y-75301000D01*
X119000000Y-75302456D01*
X119059006Y-75296644D01*
X119115745Y-75279433D01*
X119168036Y-75251483D01*
X119213869Y-75213869D01*
X119251483Y-75168036D01*
X119279433Y-75115745D01*
X119296644Y-75059006D01*
X119302456Y-75000000D01*
X119301963Y-74729576D01*
X126809181Y-74729576D01*
X127800000Y-75720395D01*
X128790819Y-74729576D01*
X128639901Y-74527910D01*
X128356082Y-74390418D01*
X128050891Y-74310937D01*
X127736059Y-74292524D01*
X127423685Y-74335885D01*
X127125772Y-74439355D01*
X126960099Y-74527910D01*
X126809181Y-74729576D01*
X119301963Y-74729576D01*
X119301000Y-74202250D01*
X119225750Y-74127000D01*
X118127000Y-74127000D01*
X117873000Y-74127000D01*
X116774250Y-74127000D01*
X116699000Y-74202250D01*
X116697544Y-75000000D01*
X107702456Y-75000000D01*
X107701000Y-74202250D01*
X107625750Y-74127000D01*
X106527000Y-74127000D01*
X106273000Y-74127000D01*
X105174250Y-74127000D01*
X105099000Y-74202250D01*
X105097544Y-75000000D01*
X97916259Y-75000000D01*
X98052497Y-74863762D01*
X98200785Y-74641833D01*
X98302928Y-74395239D01*
X98355000Y-74133456D01*
X98355000Y-73866544D01*
X98302928Y-73604761D01*
X98200785Y-73358167D01*
X98052497Y-73136238D01*
X97916259Y-73000000D01*
X105097544Y-73000000D01*
X105099000Y-73797750D01*
X105174250Y-73873000D01*
X106273000Y-73873000D01*
X106273000Y-72774250D01*
X106527000Y-72774250D01*
X106527000Y-73873000D01*
X107625750Y-73873000D01*
X107701000Y-73797750D01*
X107702456Y-73000000D01*
X116697544Y-73000000D01*
X116699000Y-73797750D01*
X116774250Y-73873000D01*
X117873000Y-73873000D01*
X117873000Y-72774250D01*
X118127000Y-72774250D01*
X118127000Y-73873000D01*
X119225750Y-73873000D01*
X119301000Y-73797750D01*
X119302456Y-73000000D01*
X119296644Y-72940994D01*
X119279433Y-72884255D01*
X119251483Y-72831964D01*
X119213869Y-72786131D01*
X119168036Y-72748517D01*
X119115745Y-72720567D01*
X119059006Y-72703356D01*
X119000000Y-72697544D01*
X118202250Y-72699000D01*
X118127000Y-72774250D01*
X117873000Y-72774250D01*
X117797750Y-72699000D01*
X117000000Y-72697544D01*
X116940994Y-72703356D01*
X116884255Y-72720567D01*
X116831964Y-72748517D01*
X116786131Y-72786131D01*
X116748517Y-72831964D01*
X116720567Y-72884255D01*
X116703356Y-72940994D01*
X116697544Y-73000000D01*
X107702456Y-73000000D01*
X107696644Y-72940994D01*
X107679433Y-72884255D01*
X107651483Y-72831964D01*
X107613869Y-72786131D01*
X107568036Y-72748517D01*
X107515745Y-72720567D01*
X107459006Y-72703356D01*
X107400000Y-72697544D01*
X106602250Y-72699000D01*
X106527000Y-72774250D01*
X106273000Y-72774250D01*
X106197750Y-72699000D01*
X105400000Y-72697544D01*
X105340994Y-72703356D01*
X105284255Y-72720567D01*
X105231964Y-72748517D01*
X105186131Y-72786131D01*
X105148517Y-72831964D01*
X105120567Y-72884255D01*
X105103356Y-72940994D01*
X105097544Y-73000000D01*
X97916259Y-73000000D01*
X97863762Y-72947503D01*
X97641833Y-72799215D01*
X97395239Y-72697072D01*
X97133456Y-72645000D01*
X96866544Y-72645000D01*
X96604761Y-72697072D01*
X96358167Y-72799215D01*
X96136238Y-72947503D01*
X95947503Y-73136238D01*
X95799215Y-73358167D01*
X95697072Y-73604761D01*
X95645000Y-73866544D01*
X79559983Y-73866544D01*
X79579853Y-73818574D01*
X79635000Y-73541335D01*
X79635000Y-73258665D01*
X79579853Y-72981426D01*
X79471680Y-72720273D01*
X79314637Y-72485241D01*
X79114759Y-72285363D01*
X78879727Y-72128320D01*
X78618574Y-72020147D01*
X78341335Y-71965000D01*
X78058665Y-71965000D01*
X77781426Y-72020147D01*
X77520273Y-72128320D01*
X77285241Y-72285363D01*
X77085363Y-72485241D01*
X76928320Y-72720273D01*
X76820147Y-72981426D01*
X76765000Y-73258665D01*
X74635000Y-73258665D01*
X74579853Y-72981426D01*
X74471680Y-72720273D01*
X74314637Y-72485241D01*
X74114759Y-72285363D01*
X73879727Y-72128320D01*
X73618574Y-72020147D01*
X73341335Y-71965000D01*
X73058665Y-71965000D01*
X72781426Y-72020147D01*
X72520273Y-72128320D01*
X72285241Y-72285363D01*
X72085363Y-72485241D01*
X71928320Y-72720273D01*
X71820147Y-72981426D01*
X71765000Y-73258665D01*
X69023596Y-73258665D01*
X69035000Y-73201335D01*
X69035000Y-72918665D01*
X68979853Y-72641426D01*
X68871680Y-72380273D01*
X68714637Y-72145241D01*
X68514759Y-71945363D01*
X68282241Y-71790000D01*
X68514759Y-71634637D01*
X68714637Y-71434759D01*
X68871680Y-71199727D01*
X68979853Y-70938574D01*
X69035000Y-70661335D01*
X69035000Y-70378665D01*
X68979853Y-70101426D01*
X68871680Y-69840273D01*
X68714637Y-69605241D01*
X68514759Y-69405363D01*
X68282241Y-69250000D01*
X68514759Y-69094637D01*
X68714637Y-68894759D01*
X68871680Y-68659727D01*
X68979853Y-68398574D01*
X69035000Y-68121335D01*
X69035000Y-67858665D01*
X70565000Y-67858665D01*
X70565000Y-68141335D01*
X70620147Y-68418574D01*
X70728320Y-68679727D01*
X70885363Y-68914759D01*
X71085241Y-69114637D01*
X71320273Y-69271680D01*
X71581426Y-69379853D01*
X71858665Y-69435000D01*
X72141335Y-69435000D01*
X72418574Y-69379853D01*
X72679727Y-69271680D01*
X72914759Y-69114637D01*
X73114637Y-68914759D01*
X73271680Y-68679727D01*
X73379853Y-68418574D01*
X73435000Y-68141335D01*
X73435000Y-67858665D01*
X78185000Y-67858665D01*
X78185000Y-68141335D01*
X78240147Y-68418574D01*
X78348320Y-68679727D01*
X78505363Y-68914759D01*
X78705241Y-69114637D01*
X78940273Y-69271680D01*
X79201426Y-69379853D01*
X79478665Y-69435000D01*
X79761335Y-69435000D01*
X80038574Y-69379853D01*
X80299727Y-69271680D01*
X80534759Y-69114637D01*
X80734637Y-68914759D01*
X80891680Y-68679727D01*
X80999853Y-68418574D01*
X81055000Y-68141335D01*
X81055000Y-67858665D01*
X80999853Y-67581426D01*
X80891680Y-67320273D01*
X80734637Y-67085241D01*
X80534759Y-66885363D01*
X80465323Y-66838967D01*
X86165000Y-66838967D01*
X86165000Y-67161033D01*
X86227832Y-67476912D01*
X86351082Y-67774463D01*
X86530013Y-68042252D01*
X86757748Y-68269987D01*
X87025537Y-68448918D01*
X87323088Y-68572168D01*
X87638967Y-68635000D01*
X87961033Y-68635000D01*
X88276912Y-68572168D01*
X88574463Y-68448918D01*
X88842252Y-68269987D01*
X89069987Y-68042252D01*
X89248918Y-67774463D01*
X89372168Y-67476912D01*
X89435000Y-67161033D01*
X89435000Y-66838967D01*
X89431082Y-66819268D01*
X97965000Y-66819268D01*
X97965000Y-67180732D01*
X98035518Y-67535250D01*
X98173844Y-67869199D01*
X98374662Y-68169744D01*
X98630256Y-68425338D01*
X98930801Y-68626156D01*
X99264750Y-68764482D01*
X99619268Y-68835000D01*
X99980732Y-68835000D01*
X100335250Y-68764482D01*
X100669199Y-68626156D01*
X100969744Y-68425338D01*
X101225338Y-68169744D01*
X101379538Y-67938967D01*
X109865000Y-67938967D01*
X109865000Y-68261033D01*
X109927832Y-68576912D01*
X110051082Y-68874463D01*
X110230013Y-69142252D01*
X110457748Y-69369987D01*
X110725537Y-69548918D01*
X111023088Y-69672168D01*
X111338967Y-69735000D01*
X111661033Y-69735000D01*
X111976912Y-69672168D01*
X112274463Y-69548918D01*
X112542252Y-69369987D01*
X112769987Y-69142252D01*
X112892655Y-68958665D01*
X117865000Y-68958665D01*
X117865000Y-69241335D01*
X117920147Y-69518574D01*
X118028320Y-69779727D01*
X118185363Y-70014759D01*
X118385241Y-70214637D01*
X118620273Y-70371680D01*
X118881426Y-70479853D01*
X119158665Y-70535000D01*
X119441335Y-70535000D01*
X119718574Y-70479853D01*
X119979727Y-70371680D01*
X120214759Y-70214637D01*
X120414637Y-70014759D01*
X120571680Y-69779727D01*
X120646125Y-69600000D01*
X125861928Y-69600000D01*
X125861928Y-72200000D01*
X125874188Y-72324482D01*
X125910498Y-72444180D01*
X125969463Y-72554494D01*
X126048815Y-72651185D01*
X126145506Y-72730537D01*
X126255820Y-72789502D01*
X126375518Y-72825812D01*
X126500000Y-72838072D01*
X129100000Y-72838072D01*
X129224482Y-72825812D01*
X129344180Y-72789502D01*
X129454494Y-72730537D01*
X129551185Y-72651185D01*
X129630537Y-72554494D01*
X129689502Y-72444180D01*
X129725812Y-72324482D01*
X129738072Y-72200000D01*
X129738072Y-69600000D01*
X129725812Y-69475518D01*
X129689502Y-69355820D01*
X129630537Y-69245506D01*
X129551185Y-69148815D01*
X129454494Y-69069463D01*
X129344180Y-69010498D01*
X129224482Y-68974188D01*
X129100000Y-68961928D01*
X126500000Y-68961928D01*
X126375518Y-68974188D01*
X126255820Y-69010498D01*
X126145506Y-69069463D01*
X126048815Y-69148815D01*
X125969463Y-69245506D01*
X125910498Y-69355820D01*
X125874188Y-69475518D01*
X125861928Y-69600000D01*
X120646125Y-69600000D01*
X120679853Y-69518574D01*
X120735000Y-69241335D01*
X120735000Y-68958665D01*
X120679853Y-68681426D01*
X120571680Y-68420273D01*
X120414637Y-68185241D01*
X120214759Y-67985363D01*
X119979727Y-67828320D01*
X119718574Y-67720147D01*
X119441335Y-67665000D01*
X119158665Y-67665000D01*
X118881426Y-67720147D01*
X118620273Y-67828320D01*
X118385241Y-67985363D01*
X118185363Y-68185241D01*
X118028320Y-68420273D01*
X117920147Y-68681426D01*
X117865000Y-68958665D01*
X112892655Y-68958665D01*
X112948918Y-68874463D01*
X113072168Y-68576912D01*
X113135000Y-68261033D01*
X113135000Y-67938967D01*
X113072168Y-67623088D01*
X112948918Y-67325537D01*
X112769987Y-67057748D01*
X112542252Y-66830013D01*
X112274463Y-66651082D01*
X111976912Y-66527832D01*
X111661033Y-66465000D01*
X111338967Y-66465000D01*
X111023088Y-66527832D01*
X110725537Y-66651082D01*
X110457748Y-66830013D01*
X110230013Y-67057748D01*
X110051082Y-67325537D01*
X109927832Y-67623088D01*
X109865000Y-67938967D01*
X101379538Y-67938967D01*
X101426156Y-67869199D01*
X101564482Y-67535250D01*
X101635000Y-67180732D01*
X101635000Y-66819268D01*
X101564482Y-66464750D01*
X101426156Y-66130801D01*
X101225338Y-65830256D01*
X100969744Y-65574662D01*
X100669199Y-65373844D01*
X100335250Y-65235518D01*
X100005869Y-65170000D01*
X124609388Y-65170000D01*
X124631785Y-65397400D01*
X124698115Y-65616060D01*
X124799105Y-65805000D01*
X124698115Y-65993940D01*
X124631785Y-66212600D01*
X124609388Y-66440000D01*
X124631785Y-66667400D01*
X124698115Y-66886060D01*
X124805829Y-67087579D01*
X124950788Y-67264212D01*
X125127421Y-67409171D01*
X125328940Y-67516885D01*
X125547600Y-67583215D01*
X125718021Y-67600000D01*
X126281979Y-67600000D01*
X126452400Y-67583215D01*
X126671060Y-67516885D01*
X126872579Y-67409171D01*
X127049212Y-67264212D01*
X127194171Y-67087579D01*
X127301885Y-66886060D01*
X127368215Y-66667400D01*
X127390612Y-66440000D01*
X127368215Y-66212600D01*
X127301885Y-65993940D01*
X127200895Y-65805000D01*
X127301885Y-65616060D01*
X127368215Y-65397400D01*
X127390612Y-65170000D01*
X127368215Y-64942600D01*
X127304907Y-64733902D01*
X127339502Y-64669180D01*
X127375812Y-64549482D01*
X127388072Y-64425000D01*
X127388072Y-63375000D01*
X127375812Y-63250518D01*
X127339502Y-63130820D01*
X127280537Y-63020506D01*
X127201185Y-62923815D01*
X127104494Y-62844463D01*
X126994180Y-62785498D01*
X126874482Y-62749188D01*
X126750000Y-62736928D01*
X125250000Y-62736928D01*
X125125518Y-62749188D01*
X125005820Y-62785498D01*
X124895506Y-62844463D01*
X124798815Y-62923815D01*
X124719463Y-63020506D01*
X124660498Y-63130820D01*
X124624188Y-63250518D01*
X124611928Y-63375000D01*
X124611928Y-64425000D01*
X124624188Y-64549482D01*
X124660498Y-64669180D01*
X124695093Y-64733902D01*
X124631785Y-64942600D01*
X124609388Y-65170000D01*
X100005869Y-65170000D01*
X99980732Y-65165000D01*
X99619268Y-65165000D01*
X99264750Y-65235518D01*
X98930801Y-65373844D01*
X98630256Y-65574662D01*
X98374662Y-65830256D01*
X98173844Y-66130801D01*
X98035518Y-66464750D01*
X97965000Y-66819268D01*
X89431082Y-66819268D01*
X89372168Y-66523088D01*
X89248918Y-66225537D01*
X89069987Y-65957748D01*
X88842252Y-65730013D01*
X88574463Y-65551082D01*
X88276912Y-65427832D01*
X87961033Y-65365000D01*
X87638967Y-65365000D01*
X87323088Y-65427832D01*
X87025537Y-65551082D01*
X86757748Y-65730013D01*
X86530013Y-65957748D01*
X86351082Y-66225537D01*
X86227832Y-66523088D01*
X86165000Y-66838967D01*
X80465323Y-66838967D01*
X80299727Y-66728320D01*
X80038574Y-66620147D01*
X79761335Y-66565000D01*
X79478665Y-66565000D01*
X79201426Y-66620147D01*
X78940273Y-66728320D01*
X78705241Y-66885363D01*
X78505363Y-67085241D01*
X78348320Y-67320273D01*
X78240147Y-67581426D01*
X78185000Y-67858665D01*
X73435000Y-67858665D01*
X73379853Y-67581426D01*
X73271680Y-67320273D01*
X73114637Y-67085241D01*
X72914759Y-66885363D01*
X72679727Y-66728320D01*
X72418574Y-66620147D01*
X72141335Y-66565000D01*
X71858665Y-66565000D01*
X71581426Y-66620147D01*
X71320273Y-66728320D01*
X71085241Y-66885363D01*
X70885363Y-67085241D01*
X70728320Y-67320273D01*
X70620147Y-67581426D01*
X70565000Y-67858665D01*
X69035000Y-67858665D01*
X69035000Y-67838665D01*
X68979853Y-67561426D01*
X68871680Y-67300273D01*
X68714637Y-67065241D01*
X68514759Y-66865363D01*
X68279727Y-66708320D01*
X68018574Y-66600147D01*
X67741335Y-66545000D01*
X67458665Y-66545000D01*
X67181426Y-66600147D01*
X66920273Y-66708320D01*
X66685241Y-66865363D01*
X66485363Y-67065241D01*
X66328320Y-67300273D01*
X66220147Y-67561426D01*
X66165000Y-67838665D01*
X66165000Y-68121335D01*
X66220147Y-68398574D01*
X66328320Y-68659727D01*
X66485363Y-68894759D01*
X66685241Y-69094637D01*
X66917759Y-69250000D01*
X66685241Y-69405363D01*
X66485363Y-69605241D01*
X66328320Y-69840273D01*
X66220147Y-70101426D01*
X66165000Y-70378665D01*
X66165000Y-70661335D01*
X66220147Y-70938574D01*
X66328320Y-71199727D01*
X66485363Y-71434759D01*
X66685241Y-71634637D01*
X66917759Y-71790000D01*
X66685241Y-71945363D01*
X66485363Y-72145241D01*
X66328320Y-72380273D01*
X66220147Y-72641426D01*
X66165000Y-72918665D01*
X66165000Y-73201335D01*
X66220147Y-73478574D01*
X66328320Y-73739727D01*
X66485363Y-73974759D01*
X66683961Y-74173357D01*
X66675518Y-74174188D01*
X66555820Y-74210498D01*
X66445506Y-74269463D01*
X66348815Y-74348815D01*
X66269463Y-74445506D01*
X66210498Y-74555820D01*
X66174188Y-74675518D01*
X66161928Y-74800000D01*
X61171317Y-74800000D01*
X61094637Y-74685241D01*
X60894759Y-74485363D01*
X60662241Y-74330000D01*
X60894759Y-74174637D01*
X61094637Y-73974759D01*
X61251680Y-73739727D01*
X61359853Y-73478574D01*
X61415000Y-73201335D01*
X61415000Y-72918665D01*
X61359853Y-72641426D01*
X61251680Y-72380273D01*
X61094637Y-72145241D01*
X60894759Y-71945363D01*
X60662241Y-71790000D01*
X60894759Y-71634637D01*
X61094637Y-71434759D01*
X61251680Y-71199727D01*
X61359853Y-70938574D01*
X61415000Y-70661335D01*
X61415000Y-70378665D01*
X61359853Y-70101426D01*
X61251680Y-69840273D01*
X61094637Y-69605241D01*
X60894759Y-69405363D01*
X60662241Y-69250000D01*
X60894759Y-69094637D01*
X61094637Y-68894759D01*
X61251680Y-68659727D01*
X61359853Y-68398574D01*
X61415000Y-68121335D01*
X61415000Y-67838665D01*
X61359853Y-67561426D01*
X61251680Y-67300273D01*
X61094637Y-67065241D01*
X60894759Y-66865363D01*
X60659727Y-66708320D01*
X60398574Y-66600147D01*
X60121335Y-66545000D01*
X59838665Y-66545000D01*
X59561426Y-66600147D01*
X59300273Y-66708320D01*
X59065241Y-66865363D01*
X58865363Y-67065241D01*
X58708320Y-67300273D01*
X58600147Y-67561426D01*
X58545000Y-67838665D01*
X54438072Y-67838665D01*
X54438072Y-67400000D01*
X54425812Y-67275518D01*
X54389502Y-67155820D01*
X54330537Y-67045506D01*
X54251185Y-66948815D01*
X54154494Y-66869463D01*
X54044180Y-66810498D01*
X53924482Y-66774188D01*
X53800000Y-66761928D01*
X51200000Y-66761928D01*
X51075518Y-66774188D01*
X50955820Y-66810498D01*
X50845506Y-66869463D01*
X50748815Y-66948815D01*
X50669463Y-67045506D01*
X50610498Y-67155820D01*
X50574188Y-67275518D01*
X50561928Y-67400000D01*
X45685000Y-67400000D01*
X45685000Y-64870424D01*
X51509181Y-64870424D01*
X51660099Y-65072090D01*
X51943918Y-65209582D01*
X52249109Y-65289063D01*
X52563941Y-65307476D01*
X52876315Y-65264115D01*
X53174228Y-65160645D01*
X53339901Y-65072090D01*
X53490819Y-64870424D01*
X52500000Y-63879605D01*
X51509181Y-64870424D01*
X45685000Y-64870424D01*
X45685000Y-63763941D01*
X50892524Y-63763941D01*
X50935885Y-64076315D01*
X51039355Y-64374228D01*
X51127910Y-64539901D01*
X51329576Y-64690819D01*
X52320395Y-63700000D01*
X52679605Y-63700000D01*
X53670424Y-64690819D01*
X53872090Y-64539901D01*
X54009582Y-64256082D01*
X54089063Y-63950891D01*
X54107476Y-63636059D01*
X54064115Y-63323685D01*
X53960645Y-63025772D01*
X53872090Y-62860099D01*
X53870174Y-62858665D01*
X56905000Y-62858665D01*
X56905000Y-63141335D01*
X56960147Y-63418574D01*
X57068320Y-63679727D01*
X57225363Y-63914759D01*
X57425241Y-64114637D01*
X57660273Y-64271680D01*
X57921426Y-64379853D01*
X58198665Y-64435000D01*
X58481335Y-64435000D01*
X58758574Y-64379853D01*
X59019727Y-64271680D01*
X59254759Y-64114637D01*
X59454637Y-63914759D01*
X59611680Y-63679727D01*
X59719853Y-63418574D01*
X59775000Y-63141335D01*
X59775000Y-62858665D01*
X67065000Y-62858665D01*
X67065000Y-63141335D01*
X67120147Y-63418574D01*
X67228320Y-63679727D01*
X67385363Y-63914759D01*
X67585241Y-64114637D01*
X67820273Y-64271680D01*
X68081426Y-64379853D01*
X68358665Y-64435000D01*
X68641335Y-64435000D01*
X68918574Y-64379853D01*
X69179727Y-64271680D01*
X69414759Y-64114637D01*
X69614637Y-63914759D01*
X69771680Y-63679727D01*
X69879853Y-63418574D01*
X69935000Y-63141335D01*
X69935000Y-62858665D01*
X70545000Y-62858665D01*
X70545000Y-63141335D01*
X70600147Y-63418574D01*
X70708320Y-63679727D01*
X70865363Y-63914759D01*
X71065241Y-64114637D01*
X71300273Y-64271680D01*
X71561426Y-64379853D01*
X71838665Y-64435000D01*
X72121335Y-64435000D01*
X72398574Y-64379853D01*
X72659727Y-64271680D01*
X72894759Y-64114637D01*
X73094637Y-63914759D01*
X73162407Y-63813333D01*
X78966273Y-63813333D01*
X79056762Y-63963769D01*
X79255222Y-64051230D01*
X79466931Y-64098294D01*
X79683755Y-64103151D01*
X79701685Y-64100000D01*
X110197544Y-64100000D01*
X110203356Y-64159006D01*
X110220567Y-64215745D01*
X110248517Y-64268036D01*
X110286131Y-64313869D01*
X110331964Y-64351483D01*
X110384255Y-64379433D01*
X110440994Y-64396644D01*
X110500000Y-64402456D01*
X111297750Y-64401000D01*
X111373000Y-64325750D01*
X111373000Y-63227000D01*
X111627000Y-63227000D01*
X111627000Y-64325750D01*
X111702250Y-64401000D01*
X112500000Y-64402456D01*
X112559006Y-64396644D01*
X112615745Y-64379433D01*
X112668036Y-64351483D01*
X112713869Y-64313869D01*
X112751483Y-64268036D01*
X112779433Y-64215745D01*
X112796644Y-64159006D01*
X112802456Y-64100000D01*
X112801000Y-63302250D01*
X112725750Y-63227000D01*
X111627000Y-63227000D01*
X111373000Y-63227000D01*
X110274250Y-63227000D01*
X110199000Y-63302250D01*
X110197544Y-64100000D01*
X79701685Y-64100000D01*
X79897360Y-64065614D01*
X80099537Y-63987127D01*
X80143238Y-63963769D01*
X80233727Y-63813333D01*
X79600000Y-63179605D01*
X78966273Y-63813333D01*
X73162407Y-63813333D01*
X73251680Y-63679727D01*
X73359853Y-63418574D01*
X73415000Y-63141335D01*
X73415000Y-63083755D01*
X78496849Y-63083755D01*
X78534386Y-63297360D01*
X78612873Y-63499537D01*
X78636231Y-63543238D01*
X78786667Y-63633727D01*
X79420395Y-63000000D01*
X79779605Y-63000000D01*
X80413333Y-63633727D01*
X80563769Y-63543238D01*
X80651230Y-63344778D01*
X80698294Y-63133069D01*
X80701274Y-63000000D01*
X86497544Y-63000000D01*
X86503356Y-63059006D01*
X86520567Y-63115745D01*
X86548517Y-63168036D01*
X86586131Y-63213869D01*
X86631964Y-63251483D01*
X86684255Y-63279433D01*
X86740994Y-63296644D01*
X86800000Y-63302456D01*
X87597750Y-63301000D01*
X87673000Y-63225750D01*
X87673000Y-62127000D01*
X87927000Y-62127000D01*
X87927000Y-63225750D01*
X88002250Y-63301000D01*
X88800000Y-63302456D01*
X88859006Y-63296644D01*
X88915745Y-63279433D01*
X88968036Y-63251483D01*
X89013869Y-63213869D01*
X89051483Y-63168036D01*
X89079433Y-63115745D01*
X89096644Y-63059006D01*
X89102456Y-63000000D01*
X89101000Y-62202250D01*
X89025750Y-62127000D01*
X87927000Y-62127000D01*
X87673000Y-62127000D01*
X86574250Y-62127000D01*
X86499000Y-62202250D01*
X86497544Y-63000000D01*
X80701274Y-63000000D01*
X80703151Y-62916245D01*
X80665614Y-62702640D01*
X80587127Y-62500463D01*
X80563769Y-62456762D01*
X80413333Y-62366273D01*
X79779605Y-63000000D01*
X79420395Y-63000000D01*
X78786667Y-62366273D01*
X78636231Y-62456762D01*
X78548770Y-62655222D01*
X78501706Y-62866931D01*
X78496849Y-63083755D01*
X73415000Y-63083755D01*
X73415000Y-62858665D01*
X73359853Y-62581426D01*
X73251680Y-62320273D01*
X73162408Y-62186667D01*
X78966273Y-62186667D01*
X79600000Y-62820395D01*
X80233727Y-62186667D01*
X80143238Y-62036231D01*
X79944778Y-61948770D01*
X79733069Y-61901706D01*
X79516245Y-61896849D01*
X79302640Y-61934386D01*
X79100463Y-62012873D01*
X79056762Y-62036231D01*
X78966273Y-62186667D01*
X73162408Y-62186667D01*
X73094637Y-62085241D01*
X72894759Y-61885363D01*
X72659727Y-61728320D01*
X72398574Y-61620147D01*
X72121335Y-61565000D01*
X71838665Y-61565000D01*
X71561426Y-61620147D01*
X71300273Y-61728320D01*
X71065241Y-61885363D01*
X70865363Y-62085241D01*
X70708320Y-62320273D01*
X70600147Y-62581426D01*
X70545000Y-62858665D01*
X69935000Y-62858665D01*
X69879853Y-62581426D01*
X69771680Y-62320273D01*
X69614637Y-62085241D01*
X69414759Y-61885363D01*
X69179727Y-61728320D01*
X68918574Y-61620147D01*
X68641335Y-61565000D01*
X68358665Y-61565000D01*
X68081426Y-61620147D01*
X67820273Y-61728320D01*
X67585241Y-61885363D01*
X67385363Y-62085241D01*
X67228320Y-62320273D01*
X67120147Y-62581426D01*
X67065000Y-62858665D01*
X59775000Y-62858665D01*
X59719853Y-62581426D01*
X59611680Y-62320273D01*
X59454637Y-62085241D01*
X59254759Y-61885363D01*
X59019727Y-61728320D01*
X58758574Y-61620147D01*
X58481335Y-61565000D01*
X58198665Y-61565000D01*
X57921426Y-61620147D01*
X57660273Y-61728320D01*
X57425241Y-61885363D01*
X57225363Y-62085241D01*
X57068320Y-62320273D01*
X56960147Y-62581426D01*
X56905000Y-62858665D01*
X53870174Y-62858665D01*
X53670424Y-62709181D01*
X52679605Y-63700000D01*
X52320395Y-63700000D01*
X51329576Y-62709181D01*
X51127910Y-62860099D01*
X50990418Y-63143918D01*
X50910937Y-63449109D01*
X50892524Y-63763941D01*
X45685000Y-63763941D01*
X45685000Y-61429117D01*
X45865000Y-61429117D01*
X45865000Y-61770883D01*
X45931675Y-62106081D01*
X46062463Y-62421831D01*
X46252337Y-62705998D01*
X46494002Y-62947663D01*
X46778169Y-63137537D01*
X47093919Y-63268325D01*
X47429117Y-63335000D01*
X47770883Y-63335000D01*
X48106081Y-63268325D01*
X48421831Y-63137537D01*
X48705998Y-62947663D01*
X48947663Y-62705998D01*
X49065544Y-62529576D01*
X51509181Y-62529576D01*
X52500000Y-63520395D01*
X53490819Y-62529576D01*
X53339901Y-62327910D01*
X53056082Y-62190418D01*
X52750891Y-62110937D01*
X52436059Y-62092524D01*
X52123685Y-62135885D01*
X51825772Y-62239355D01*
X51660099Y-62327910D01*
X51509181Y-62529576D01*
X49065544Y-62529576D01*
X49137537Y-62421831D01*
X49268325Y-62106081D01*
X49335000Y-61770883D01*
X49335000Y-61429117D01*
X49268325Y-61093919D01*
X49229423Y-61000000D01*
X86497544Y-61000000D01*
X86499000Y-61797750D01*
X86574250Y-61873000D01*
X87673000Y-61873000D01*
X87673000Y-60774250D01*
X87927000Y-60774250D01*
X87927000Y-61873000D01*
X89025750Y-61873000D01*
X89079482Y-61819268D01*
X97965000Y-61819268D01*
X97965000Y-62180732D01*
X98035518Y-62535250D01*
X98173844Y-62869199D01*
X98374662Y-63169744D01*
X98630256Y-63425338D01*
X98930801Y-63626156D01*
X99264750Y-63764482D01*
X99619268Y-63835000D01*
X99980732Y-63835000D01*
X100335250Y-63764482D01*
X100669199Y-63626156D01*
X100969744Y-63425338D01*
X101225338Y-63169744D01*
X101426156Y-62869199D01*
X101564482Y-62535250D01*
X101635000Y-62180732D01*
X101635000Y-62100000D01*
X110197544Y-62100000D01*
X110199000Y-62897750D01*
X110274250Y-62973000D01*
X111373000Y-62973000D01*
X111373000Y-61874250D01*
X111627000Y-61874250D01*
X111627000Y-62973000D01*
X112725750Y-62973000D01*
X112801000Y-62897750D01*
X112802456Y-62100000D01*
X112796644Y-62040994D01*
X112779433Y-61984255D01*
X112751483Y-61931964D01*
X112713869Y-61886131D01*
X112668036Y-61848517D01*
X112615745Y-61820567D01*
X112559006Y-61803356D01*
X112500000Y-61797544D01*
X111702250Y-61799000D01*
X111627000Y-61874250D01*
X111373000Y-61874250D01*
X111297750Y-61799000D01*
X110500000Y-61797544D01*
X110440994Y-61803356D01*
X110384255Y-61820567D01*
X110331964Y-61848517D01*
X110286131Y-61886131D01*
X110248517Y-61931964D01*
X110220567Y-61984255D01*
X110203356Y-62040994D01*
X110197544Y-62100000D01*
X101635000Y-62100000D01*
X101635000Y-61819268D01*
X101564482Y-61464750D01*
X101512256Y-61338665D01*
X117865000Y-61338665D01*
X117865000Y-61621335D01*
X117920147Y-61898574D01*
X118028320Y-62159727D01*
X118185363Y-62394759D01*
X118385241Y-62594637D01*
X118620273Y-62751680D01*
X118881426Y-62859853D01*
X119158665Y-62915000D01*
X119441335Y-62915000D01*
X119718574Y-62859853D01*
X119979727Y-62751680D01*
X120214759Y-62594637D01*
X120414637Y-62394759D01*
X120571680Y-62159727D01*
X120679853Y-61898574D01*
X120735000Y-61621335D01*
X120735000Y-61429117D01*
X129265000Y-61429117D01*
X129265000Y-61770883D01*
X129331675Y-62106081D01*
X129462463Y-62421831D01*
X129652337Y-62705998D01*
X129894002Y-62947663D01*
X130178169Y-63137537D01*
X130493919Y-63268325D01*
X130829117Y-63335000D01*
X131170883Y-63335000D01*
X131506081Y-63268325D01*
X131821831Y-63137537D01*
X132105998Y-62947663D01*
X132347663Y-62705998D01*
X132537537Y-62421831D01*
X132668325Y-62106081D01*
X132735000Y-61770883D01*
X132735000Y-61429117D01*
X132668325Y-61093919D01*
X132537537Y-60778169D01*
X132347663Y-60494002D01*
X132105998Y-60252337D01*
X131821831Y-60062463D01*
X131506081Y-59931675D01*
X131170883Y-59865000D01*
X130829117Y-59865000D01*
X130493919Y-59931675D01*
X130178169Y-60062463D01*
X129894002Y-60252337D01*
X129652337Y-60494002D01*
X129462463Y-60778169D01*
X129331675Y-61093919D01*
X129265000Y-61429117D01*
X120735000Y-61429117D01*
X120735000Y-61338665D01*
X120679853Y-61061426D01*
X120571680Y-60800273D01*
X120414637Y-60565241D01*
X120214759Y-60365363D01*
X119979727Y-60208320D01*
X119718574Y-60100147D01*
X119441335Y-60045000D01*
X119158665Y-60045000D01*
X118881426Y-60100147D01*
X118620273Y-60208320D01*
X118385241Y-60365363D01*
X118185363Y-60565241D01*
X118028320Y-60800273D01*
X117920147Y-61061426D01*
X117865000Y-61338665D01*
X101512256Y-61338665D01*
X101426156Y-61130801D01*
X101225338Y-60830256D01*
X100969744Y-60574662D01*
X100669199Y-60373844D01*
X100335250Y-60235518D01*
X99980732Y-60165000D01*
X99619268Y-60165000D01*
X99264750Y-60235518D01*
X98930801Y-60373844D01*
X98630256Y-60574662D01*
X98374662Y-60830256D01*
X98173844Y-61130801D01*
X98035518Y-61464750D01*
X97965000Y-61819268D01*
X89079482Y-61819268D01*
X89101000Y-61797750D01*
X89102456Y-61000000D01*
X89096644Y-60940994D01*
X89079433Y-60884255D01*
X89051483Y-60831964D01*
X89013869Y-60786131D01*
X88968036Y-60748517D01*
X88915745Y-60720567D01*
X88859006Y-60703356D01*
X88800000Y-60697544D01*
X88002250Y-60699000D01*
X87927000Y-60774250D01*
X87673000Y-60774250D01*
X87597750Y-60699000D01*
X86800000Y-60697544D01*
X86740994Y-60703356D01*
X86684255Y-60720567D01*
X86631964Y-60748517D01*
X86586131Y-60786131D01*
X86548517Y-60831964D01*
X86520567Y-60884255D01*
X86503356Y-60940994D01*
X86497544Y-61000000D01*
X49229423Y-61000000D01*
X49137537Y-60778169D01*
X48947663Y-60494002D01*
X48705998Y-60252337D01*
X48421831Y-60062463D01*
X48106081Y-59931675D01*
X47770883Y-59865000D01*
X47429117Y-59865000D01*
X47093919Y-59931675D01*
X46778169Y-60062463D01*
X46494002Y-60252337D01*
X46252337Y-60494002D01*
X46062463Y-60778169D01*
X45931675Y-61093919D01*
X45865000Y-61429117D01*
X45685000Y-61429117D01*
X45685000Y-59685000D01*
X132915000Y-59685000D01*
X132915001Y-82315000D01*
G37*
%TD.AperFunction*%
%TD*%
M02*
