M48
; DRILL file {KiCad (5.1.12)-1} date 12/13/22 04:58:48
; FORMAT={-:-/ absolute / inch / decimal}
; #@! TF.CreationDate,2022-12-13T04:58:48+01:00
; #@! TF.GenerationSoftware,Kicad,Pcbnew,(5.1.12)-1
; #@! TF.FileFunction,Plated,1,2,PTH
FMAT,2
INCH
T1C0.0295
T2C0.0315
T3C0.0354
T4C0.0394
T5C0.0472
T6C0.0512
%
G90
G05
T1
X4.9606Y-2.5142
X4.9606Y-2.5642
X4.9606Y-2.6142
X4.9606Y-3.5378
X4.9606Y-3.5878
X4.9606Y-3.6378
X4.9606Y-4.5614
X4.9606Y-4.6114
X4.9606Y-4.6614
X4.9606Y-5.5457
X4.9606Y-5.5957
X4.9606Y-5.6457
T2
X2.1063Y-2.9449
X2.1063Y-3.0827
X2.1063Y-3.9685
X2.1063Y-4.1063
X2.1181Y-5.9567
X2.1181Y-6.0945
X2.122Y-4.9803
X2.122Y-5.1181
X2.2969Y-2.4803
X2.2969Y-3.5039
X2.2969Y-4.5276
X2.2969Y-5.5118
X2.3614Y-2.6764
X2.3614Y-2.7764
X2.3614Y-2.8764
X2.3614Y-2.9764
X2.3614Y-3.7
X2.3614Y-3.8
X2.3614Y-3.9
X2.3614Y-4.0
X2.3622Y-3.1339
X2.3622Y-4.1575
X2.3772Y-5.7079
X2.3772Y-5.8079
X2.3772Y-5.9079
X2.3772Y-6.0079
X2.3811Y-4.7236
X2.3811Y-4.8236
X2.3811Y-4.9236
X2.3811Y-5.0236
X2.6614Y-2.6764
X2.6614Y-2.7764
X2.6614Y-2.8764
X2.6614Y-2.9764
X2.6614Y-3.7
X2.6614Y-3.8
X2.6614Y-3.9
X2.6614Y-4.0
X2.6622Y-3.1339
X2.6622Y-4.1575
X2.6772Y-5.7079
X2.6772Y-5.8079
X2.6772Y-5.9079
X2.6772Y-6.0079
X2.6811Y-4.7236
X2.6811Y-4.8236
X2.6811Y-4.9236
X2.6811Y-5.0236
X2.6969Y-2.4803
X2.6969Y-3.5039
X2.6969Y-4.5276
X2.6969Y-5.5118
X2.8339Y-2.4803
X2.8339Y-3.5039
X2.8339Y-4.5276
X2.8339Y-5.5118
X2.8346Y-2.6772
X2.8346Y-3.7008
X2.8346Y-4.7244
X2.8346Y-5.7087
X2.8504Y-2.9055
X2.8504Y-3.1024
X2.8504Y-3.9291
X2.8504Y-4.126
X2.8819Y-4.937
X2.8819Y-5.9213
X3.0787Y-4.937
X3.0787Y-5.9213
X3.1339Y-2.4803
X3.1339Y-3.5039
X3.1339Y-4.5276
X3.1339Y-5.5118
X3.1346Y-2.6772
X3.1346Y-3.7008
X3.1346Y-4.7244
X3.1346Y-5.7087
X3.8189Y-2.9134
X3.8189Y-3.0134
X3.8189Y-3.1134
X3.8189Y-3.937
X3.8189Y-4.037
X3.8189Y-4.137
X3.8189Y-4.9409
X3.8189Y-5.0409
X3.8189Y-5.1409
X3.8189Y-5.9252
X3.8189Y-6.0252
X3.8189Y-6.1252
X4.6969Y-2.4205
X4.6969Y-2.7205
X4.6969Y-3.4441
X4.6969Y-3.7441
X4.6969Y-4.4677
X4.6969Y-4.7677
X4.6969Y-5.452
X4.6969Y-5.752
T3
X2.8181Y-5.1614
X2.8228Y-6.126
X3.063Y-2.8496
X3.063Y-3.1496
X3.063Y-3.8732
X3.063Y-4.1732
X3.1181Y-5.1614
X3.1228Y-6.126
T4
X3.4567Y-2.4409
X3.4567Y-2.6378
X3.4567Y-3.4646
X3.4567Y-3.6614
X3.4567Y-4.4882
X3.4567Y-4.685
X3.4567Y-5.4724
X3.4567Y-5.6693
X4.189Y-2.9134
X4.189Y-3.1102
X4.189Y-3.937
X4.189Y-4.1339
X4.189Y-4.9409
X4.189Y-5.1378
X4.189Y-5.9252
X4.189Y-6.122
X4.3898Y-2.4843
X4.3898Y-2.6811
X4.3898Y-3.5079
X4.3898Y-3.7047
X4.3898Y-4.5315
X4.3898Y-4.7283
X4.3898Y-5.5157
X4.3898Y-5.7126
X4.6457Y-2.9134
X4.6457Y-3.1102
X4.6457Y-3.937
X4.6457Y-4.1339
X4.6457Y-4.9409
X4.6457Y-5.1378
X4.6457Y-5.9252
X4.6457Y-6.122
T5
X3.3071Y-3.0315
X3.3071Y-4.0551
X3.3071Y-5.0354
X3.3071Y-6.0433
X3.5039Y-3.0315
X3.5039Y-4.0551
X3.5039Y-5.0354
X3.5039Y-6.0433
X3.9291Y-2.4409
X3.9291Y-2.6378
X3.9291Y-3.4646
X3.9291Y-3.6614
X3.9291Y-4.4882
X3.9291Y-4.685
X3.9291Y-5.4724
X3.9291Y-5.6693
T6
X2.0669Y-2.5079
X2.0669Y-2.7047
X2.0669Y-3.5315
X2.0669Y-3.7283
X2.0669Y-4.5551
X2.0669Y-4.752
X2.0669Y-5.5394
X2.0669Y-5.7362
X5.0315Y-2.7913
X5.0315Y-2.9882
X5.0315Y-3.815
X5.0315Y-4.0118
X5.0315Y-4.8386
X5.0315Y-5.0354
X5.0315Y-5.8228
X5.0315Y-6.0197
T0
M30
