%TF.GenerationSoftware,KiCad,Pcbnew,(5.1.12)-1*%
%TF.CreationDate,2022-12-13T04:58:50+01:00*%
%TF.ProjectId,MC34063_panel,4d433334-3036-4335-9f70-616e656c2e6b,rev?*%
%TF.SameCoordinates,Original*%
%TF.FileFunction,Copper,L1,Top*%
%TF.FilePolarity,Positive*%
%FSLAX46Y46*%
G04 Gerber Fmt 4.6, Leading zero omitted, Abs format (unit mm)*
G04 Created by KiCad (PCBNEW (5.1.12)-1) date 2022-12-13 04:58:50*
%MOMM*%
%LPD*%
G01*
G04 APERTURE LIST*
%TA.AperFunction,ComponentPad*%
%ADD10C,1.600000*%
%TD*%
%TA.AperFunction,ComponentPad*%
%ADD11R,2.600000X2.600000*%
%TD*%
%TA.AperFunction,ComponentPad*%
%ADD12C,2.600000*%
%TD*%
%TA.AperFunction,ComponentPad*%
%ADD13O,1.800000X1.800000*%
%TD*%
%TA.AperFunction,ComponentPad*%
%ADD14R,1.800000X1.800000*%
%TD*%
%TA.AperFunction,SMDPad,CuDef*%
%ADD15C,0.100000*%
%TD*%
%TA.AperFunction,ComponentPad*%
%ADD16C,2.400000*%
%TD*%
%TA.AperFunction,ComponentPad*%
%ADD17R,1.600000X1.600000*%
%TD*%
%TA.AperFunction,ComponentPad*%
%ADD18C,2.000000*%
%TD*%
%TA.AperFunction,ComponentPad*%
%ADD19R,2.000000X2.000000*%
%TD*%
%TA.AperFunction,ComponentPad*%
%ADD20O,1.600000X1.600000*%
%TD*%
%TA.AperFunction,ComponentPad*%
%ADD21C,1.440000*%
%TD*%
%TA.AperFunction,ComponentPad*%
%ADD22R,1.500000X1.050000*%
%TD*%
%TA.AperFunction,ComponentPad*%
%ADD23O,1.500000X1.050000*%
%TD*%
%TA.AperFunction,Conductor*%
%ADD24C,1.000000*%
%TD*%
G04 APERTURE END LIST*
D10*
%TO.P,C2,2*%
%TO.N,N/C*%
X72400000Y-99800000D03*
%TO.P,C2,1*%
X72400000Y-104800000D03*
%TD*%
D11*
%TO.P,J1,1*%
%TO.N,N/C*%
X52500000Y-94700000D03*
D12*
%TO.P,J1,2*%
X52500000Y-89700000D03*
%TD*%
D13*
%TO.P,D1,2*%
%TO.N,N/C*%
X77800000Y-98380000D03*
D14*
%TO.P,D1,1*%
X77800000Y-106000000D03*
%TD*%
%TA.AperFunction,SMDPad,CuDef*%
D15*
%TO.P,JP1,2*%
%TO.N,N/C*%
G36*
X125650000Y-86150602D02*
G01*
X125674534Y-86150602D01*
X125723365Y-86155412D01*
X125771490Y-86164984D01*
X125818445Y-86179228D01*
X125863778Y-86198005D01*
X125907051Y-86221136D01*
X125947850Y-86248396D01*
X125985779Y-86279524D01*
X126020476Y-86314221D01*
X126051604Y-86352150D01*
X126078864Y-86392949D01*
X126101995Y-86436222D01*
X126120772Y-86481555D01*
X126135016Y-86528510D01*
X126144588Y-86576635D01*
X126149398Y-86625466D01*
X126149398Y-86650000D01*
X126150000Y-86650000D01*
X126150000Y-87150000D01*
X126149398Y-87150000D01*
X126149398Y-87174534D01*
X126144588Y-87223365D01*
X126135016Y-87271490D01*
X126120772Y-87318445D01*
X126101995Y-87363778D01*
X126078864Y-87407051D01*
X126051604Y-87447850D01*
X126020476Y-87485779D01*
X125985779Y-87520476D01*
X125947850Y-87551604D01*
X125907051Y-87578864D01*
X125863778Y-87601995D01*
X125818445Y-87620772D01*
X125771490Y-87635016D01*
X125723365Y-87644588D01*
X125674534Y-87649398D01*
X125650000Y-87649398D01*
X125650000Y-87650000D01*
X125150000Y-87650000D01*
X125150000Y-86150000D01*
X125650000Y-86150000D01*
X125650000Y-86150602D01*
G37*
%TD.AperFunction*%
%TA.AperFunction,SMDPad,CuDef*%
%TO.P,JP1,1*%
G36*
X124850000Y-87650000D02*
G01*
X124350000Y-87650000D01*
X124350000Y-87649398D01*
X124325466Y-87649398D01*
X124276635Y-87644588D01*
X124228510Y-87635016D01*
X124181555Y-87620772D01*
X124136222Y-87601995D01*
X124092949Y-87578864D01*
X124052150Y-87551604D01*
X124014221Y-87520476D01*
X123979524Y-87485779D01*
X123948396Y-87447850D01*
X123921136Y-87407051D01*
X123898005Y-87363778D01*
X123879228Y-87318445D01*
X123864984Y-87271490D01*
X123855412Y-87223365D01*
X123850602Y-87174534D01*
X123850602Y-87150000D01*
X123850000Y-87150000D01*
X123850000Y-86650000D01*
X123850602Y-86650000D01*
X123850602Y-86625466D01*
X123855412Y-86576635D01*
X123864984Y-86528510D01*
X123879228Y-86481555D01*
X123898005Y-86436222D01*
X123921136Y-86392949D01*
X123948396Y-86352150D01*
X123979524Y-86314221D01*
X124014221Y-86279524D01*
X124052150Y-86248396D01*
X124092949Y-86221136D01*
X124136222Y-86198005D01*
X124181555Y-86179228D01*
X124228510Y-86164984D01*
X124276635Y-86155412D01*
X124325466Y-86150602D01*
X124350000Y-86150602D01*
X124350000Y-86150000D01*
X124850000Y-86150000D01*
X124850000Y-87650000D01*
G37*
%TD.AperFunction*%
%TD*%
D12*
%TO.P,J2,2*%
%TO.N,N/C*%
X127800000Y-101900000D03*
D11*
%TO.P,J2,1*%
X127800000Y-96900000D03*
%TD*%
D16*
%TO.P,L2,1*%
%TO.N,N/C*%
X99800000Y-88000000D03*
%TO.P,L2,2*%
X99800000Y-93000000D03*
%TD*%
%TO.P,L1,2*%
%TO.N,N/C*%
X89000000Y-103000000D03*
%TO.P,L1,1*%
X84000000Y-103000000D03*
%TD*%
D10*
%TO.P,C1,2*%
%TO.N,N/C*%
X53500000Y-104300000D03*
D17*
%TO.P,C1,1*%
X53500000Y-100800000D03*
%TD*%
D18*
%TO.P,C6,2*%
%TO.N,N/C*%
X118000000Y-105000000D03*
D19*
%TO.P,C6,1*%
X118000000Y-100000000D03*
%TD*%
%TO.P,C5,1*%
%TO.N,N/C*%
X111500000Y-89100000D03*
D18*
%TO.P,C5,2*%
X111500000Y-94100000D03*
%TD*%
D19*
%TO.P,C4,1*%
%TO.N,N/C*%
X106400000Y-100000000D03*
D18*
%TO.P,C4,2*%
X106400000Y-105000000D03*
%TD*%
%TO.P,C3,2*%
%TO.N,N/C*%
X87800000Y-93000000D03*
D19*
%TO.P,C3,1*%
X87800000Y-88000000D03*
%TD*%
D20*
%TO.P,U1,8*%
%TO.N,N/C*%
X59980000Y-101600000D03*
%TO.P,U1,4*%
X67600000Y-93980000D03*
%TO.P,U1,7*%
X59980000Y-99060000D03*
%TO.P,U1,3*%
X67600000Y-96520000D03*
%TO.P,U1,6*%
X59980000Y-96520000D03*
%TO.P,U1,2*%
X67600000Y-99060000D03*
%TO.P,U1,5*%
X59980000Y-93980000D03*
D17*
%TO.P,U1,1*%
X67600000Y-101600000D03*
%TD*%
D21*
%TO.P,RV1,3*%
%TO.N,N/C*%
X97000000Y-105080000D03*
%TO.P,RV1,2*%
X97000000Y-102540000D03*
%TO.P,RV1,1*%
X97000000Y-100000000D03*
%TD*%
D10*
%TO.P,R5,1*%
%TO.N,N/C*%
X119300000Y-95100000D03*
D20*
%TO.P,R5,2*%
X119300000Y-87480000D03*
%TD*%
%TO.P,R4,2*%
%TO.N,N/C*%
X79620000Y-94000000D03*
D10*
%TO.P,R4,1*%
X72000000Y-94000000D03*
%TD*%
%TO.P,R3,1*%
%TO.N,N/C*%
X60000000Y-105600000D03*
D20*
%TO.P,R3,2*%
X67620000Y-105600000D03*
%TD*%
%TO.P,R2,2*%
%TO.N,N/C*%
X71980000Y-89000000D03*
D10*
%TO.P,R2,1*%
X79600000Y-89000000D03*
%TD*%
D20*
%TO.P,R1,2*%
%TO.N,N/C*%
X58340000Y-89000000D03*
D10*
%TO.P,R1,1*%
X68500000Y-89000000D03*
%TD*%
D22*
%TO.P,Q1,1*%
%TO.N,N/C*%
X126000000Y-92400000D03*
D23*
%TO.P,Q1,3*%
X126000000Y-89860000D03*
%TO.P,Q1,2*%
X126000000Y-91130000D03*
%TD*%
D10*
%TO.P,C2,1*%
%TO.N,Net-(C2-Pad1)*%
X72400000Y-78800000D03*
%TO.P,C2,2*%
%TO.N,GND*%
X72400000Y-73800000D03*
%TD*%
D14*
%TO.P,D1,1*%
%TO.N,Net-(C3-Pad1)*%
X77800000Y-80000000D03*
D13*
%TO.P,D1,2*%
%TO.N,Net-(D1-Pad2)*%
X77800000Y-72380000D03*
%TD*%
D12*
%TO.P,J1,2*%
%TO.N,GND*%
X52500000Y-63700000D03*
D11*
%TO.P,J1,1*%
%TO.N,Net-(C1-Pad1)*%
X52500000Y-68700000D03*
%TD*%
%TO.P,J2,1*%
%TO.N,Net-(C6-Pad1)*%
X127800000Y-70900000D03*
D12*
%TO.P,J2,2*%
%TO.N,GND*%
X127800000Y-75900000D03*
%TD*%
%TA.AperFunction,SMDPad,CuDef*%
D15*
%TO.P,JP1,1*%
%TO.N,Net-(C4-Pad1)*%
G36*
X124850000Y-61650000D02*
G01*
X124350000Y-61650000D01*
X124350000Y-61649398D01*
X124325466Y-61649398D01*
X124276635Y-61644588D01*
X124228510Y-61635016D01*
X124181555Y-61620772D01*
X124136222Y-61601995D01*
X124092949Y-61578864D01*
X124052150Y-61551604D01*
X124014221Y-61520476D01*
X123979524Y-61485779D01*
X123948396Y-61447850D01*
X123921136Y-61407051D01*
X123898005Y-61363778D01*
X123879228Y-61318445D01*
X123864984Y-61271490D01*
X123855412Y-61223365D01*
X123850602Y-61174534D01*
X123850602Y-61150000D01*
X123850000Y-61150000D01*
X123850000Y-60650000D01*
X123850602Y-60650000D01*
X123850602Y-60625466D01*
X123855412Y-60576635D01*
X123864984Y-60528510D01*
X123879228Y-60481555D01*
X123898005Y-60436222D01*
X123921136Y-60392949D01*
X123948396Y-60352150D01*
X123979524Y-60314221D01*
X124014221Y-60279524D01*
X124052150Y-60248396D01*
X124092949Y-60221136D01*
X124136222Y-60198005D01*
X124181555Y-60179228D01*
X124228510Y-60164984D01*
X124276635Y-60155412D01*
X124325466Y-60150602D01*
X124350000Y-60150602D01*
X124350000Y-60150000D01*
X124850000Y-60150000D01*
X124850000Y-61650000D01*
G37*
%TD.AperFunction*%
%TA.AperFunction,SMDPad,CuDef*%
%TO.P,JP1,2*%
%TO.N,Net-(C6-Pad1)*%
G36*
X125650000Y-60150602D02*
G01*
X125674534Y-60150602D01*
X125723365Y-60155412D01*
X125771490Y-60164984D01*
X125818445Y-60179228D01*
X125863778Y-60198005D01*
X125907051Y-60221136D01*
X125947850Y-60248396D01*
X125985779Y-60279524D01*
X126020476Y-60314221D01*
X126051604Y-60352150D01*
X126078864Y-60392949D01*
X126101995Y-60436222D01*
X126120772Y-60481555D01*
X126135016Y-60528510D01*
X126144588Y-60576635D01*
X126149398Y-60625466D01*
X126149398Y-60650000D01*
X126150000Y-60650000D01*
X126150000Y-61150000D01*
X126149398Y-61150000D01*
X126149398Y-61174534D01*
X126144588Y-61223365D01*
X126135016Y-61271490D01*
X126120772Y-61318445D01*
X126101995Y-61363778D01*
X126078864Y-61407051D01*
X126051604Y-61447850D01*
X126020476Y-61485779D01*
X125985779Y-61520476D01*
X125947850Y-61551604D01*
X125907051Y-61578864D01*
X125863778Y-61601995D01*
X125818445Y-61620772D01*
X125771490Y-61635016D01*
X125723365Y-61644588D01*
X125674534Y-61649398D01*
X125650000Y-61649398D01*
X125650000Y-61650000D01*
X125150000Y-61650000D01*
X125150000Y-60150000D01*
X125650000Y-60150000D01*
X125650000Y-60150602D01*
G37*
%TD.AperFunction*%
%TD*%
D16*
%TO.P,L1,1*%
%TO.N,Net-(L1-Pad1)*%
X84000000Y-77000000D03*
%TO.P,L1,2*%
%TO.N,Net-(D1-Pad2)*%
X89000000Y-77000000D03*
%TD*%
%TO.P,L2,2*%
%TO.N,Net-(C4-Pad1)*%
X99800000Y-67000000D03*
%TO.P,L2,1*%
%TO.N,Net-(C3-Pad1)*%
X99800000Y-62000000D03*
%TD*%
D23*
%TO.P,Q1,2*%
%TO.N,Net-(C5-Pad1)*%
X126000000Y-65130000D03*
%TO.P,Q1,3*%
%TO.N,Net-(C4-Pad1)*%
X126000000Y-63860000D03*
D22*
%TO.P,Q1,1*%
%TO.N,Net-(C6-Pad1)*%
X126000000Y-66400000D03*
%TD*%
D10*
%TO.P,R1,1*%
%TO.N,Net-(L1-Pad1)*%
X68500000Y-63000000D03*
D20*
%TO.P,R1,2*%
%TO.N,Net-(C1-Pad1)*%
X58340000Y-63000000D03*
%TD*%
D10*
%TO.P,R2,1*%
%TO.N,GND*%
X79600000Y-63000000D03*
D20*
%TO.P,R2,2*%
%TO.N,Net-(R2-Pad2)*%
X71980000Y-63000000D03*
%TD*%
%TO.P,R3,2*%
%TO.N,Net-(L1-Pad1)*%
X67620000Y-79600000D03*
D10*
%TO.P,R3,1*%
%TO.N,Net-(R3-Pad1)*%
X60000000Y-79600000D03*
%TD*%
%TO.P,R4,1*%
%TO.N,Net-(R2-Pad2)*%
X72000000Y-68000000D03*
D20*
%TO.P,R4,2*%
%TO.N,Net-(R4-Pad2)*%
X79620000Y-68000000D03*
%TD*%
%TO.P,R5,2*%
%TO.N,Net-(C4-Pad1)*%
X119300000Y-61480000D03*
D10*
%TO.P,R5,1*%
%TO.N,Net-(C5-Pad1)*%
X119300000Y-69100000D03*
%TD*%
D21*
%TO.P,RV1,1*%
%TO.N,Net-(R4-Pad2)*%
X97000000Y-74000000D03*
%TO.P,RV1,2*%
%TO.N,Net-(C3-Pad1)*%
X97000000Y-76540000D03*
%TO.P,RV1,3*%
%TO.N,N/C*%
X97000000Y-79080000D03*
%TD*%
D17*
%TO.P,U1,1*%
%TO.N,Net-(D1-Pad2)*%
X67600000Y-75600000D03*
D20*
%TO.P,U1,5*%
%TO.N,Net-(R2-Pad2)*%
X59980000Y-67980000D03*
%TO.P,U1,2*%
%TO.N,GND*%
X67600000Y-73060000D03*
%TO.P,U1,6*%
%TO.N,Net-(C1-Pad1)*%
X59980000Y-70520000D03*
%TO.P,U1,3*%
%TO.N,Net-(C2-Pad1)*%
X67600000Y-70520000D03*
%TO.P,U1,7*%
%TO.N,Net-(L1-Pad1)*%
X59980000Y-73060000D03*
%TO.P,U1,4*%
%TO.N,GND*%
X67600000Y-67980000D03*
%TO.P,U1,8*%
%TO.N,Net-(R3-Pad1)*%
X59980000Y-75600000D03*
%TD*%
D19*
%TO.P,C3,1*%
%TO.N,Net-(C3-Pad1)*%
X87800000Y-62000000D03*
D18*
%TO.P,C3,2*%
%TO.N,GND*%
X87800000Y-67000000D03*
%TD*%
%TO.P,C4,2*%
%TO.N,GND*%
X106400000Y-79000000D03*
D19*
%TO.P,C4,1*%
%TO.N,Net-(C4-Pad1)*%
X106400000Y-74000000D03*
%TD*%
D18*
%TO.P,C5,2*%
%TO.N,GND*%
X111500000Y-68100000D03*
D19*
%TO.P,C5,1*%
%TO.N,Net-(C5-Pad1)*%
X111500000Y-63100000D03*
%TD*%
%TO.P,C6,1*%
%TO.N,Net-(C6-Pad1)*%
X118000000Y-74000000D03*
D18*
%TO.P,C6,2*%
%TO.N,GND*%
X118000000Y-79000000D03*
%TD*%
D17*
%TO.P,C1,1*%
%TO.N,Net-(C1-Pad1)*%
X53500000Y-74800000D03*
D10*
%TO.P,C1,2*%
%TO.N,GND*%
X53500000Y-78300000D03*
%TD*%
%TO.P,C2,1*%
%TO.N,Net-(C2-Pad1)*%
X73200000Y-125400000D03*
%TO.P,C2,2*%
%TO.N,GND*%
X78200000Y-125400000D03*
%TD*%
D14*
%TO.P,D1,1*%
%TO.N,Net-(D1-Pad1)*%
X79200000Y-131100000D03*
D13*
%TO.P,D1,2*%
%TO.N,GND*%
X71580000Y-131100000D03*
%TD*%
D12*
%TO.P,J1,2*%
%TO.N,GND*%
X52500000Y-115700000D03*
D11*
%TO.P,J1,1*%
%TO.N,Net-(C1-Pad1)*%
X52500000Y-120700000D03*
%TD*%
%TO.P,J2,1*%
%TO.N,Net-(C6-Pad1)*%
X127800000Y-122900000D03*
D12*
%TO.P,J2,2*%
%TO.N,GND*%
X127800000Y-127900000D03*
%TD*%
%TA.AperFunction,SMDPad,CuDef*%
D15*
%TO.P,JP1,1*%
%TO.N,Net-(C4-Pad1)*%
G36*
X124850000Y-113650000D02*
G01*
X124350000Y-113650000D01*
X124350000Y-113649398D01*
X124325466Y-113649398D01*
X124276635Y-113644588D01*
X124228510Y-113635016D01*
X124181555Y-113620772D01*
X124136222Y-113601995D01*
X124092949Y-113578864D01*
X124052150Y-113551604D01*
X124014221Y-113520476D01*
X123979524Y-113485779D01*
X123948396Y-113447850D01*
X123921136Y-113407051D01*
X123898005Y-113363778D01*
X123879228Y-113318445D01*
X123864984Y-113271490D01*
X123855412Y-113223365D01*
X123850602Y-113174534D01*
X123850602Y-113150000D01*
X123850000Y-113150000D01*
X123850000Y-112650000D01*
X123850602Y-112650000D01*
X123850602Y-112625466D01*
X123855412Y-112576635D01*
X123864984Y-112528510D01*
X123879228Y-112481555D01*
X123898005Y-112436222D01*
X123921136Y-112392949D01*
X123948396Y-112352150D01*
X123979524Y-112314221D01*
X124014221Y-112279524D01*
X124052150Y-112248396D01*
X124092949Y-112221136D01*
X124136222Y-112198005D01*
X124181555Y-112179228D01*
X124228510Y-112164984D01*
X124276635Y-112155412D01*
X124325466Y-112150602D01*
X124350000Y-112150602D01*
X124350000Y-112150000D01*
X124850000Y-112150000D01*
X124850000Y-113650000D01*
G37*
%TD.AperFunction*%
%TA.AperFunction,SMDPad,CuDef*%
%TO.P,JP1,2*%
%TO.N,Net-(C6-Pad1)*%
G36*
X125650000Y-112150602D02*
G01*
X125674534Y-112150602D01*
X125723365Y-112155412D01*
X125771490Y-112164984D01*
X125818445Y-112179228D01*
X125863778Y-112198005D01*
X125907051Y-112221136D01*
X125947850Y-112248396D01*
X125985779Y-112279524D01*
X126020476Y-112314221D01*
X126051604Y-112352150D01*
X126078864Y-112392949D01*
X126101995Y-112436222D01*
X126120772Y-112481555D01*
X126135016Y-112528510D01*
X126144588Y-112576635D01*
X126149398Y-112625466D01*
X126149398Y-112650000D01*
X126150000Y-112650000D01*
X126150000Y-113150000D01*
X126149398Y-113150000D01*
X126149398Y-113174534D01*
X126144588Y-113223365D01*
X126135016Y-113271490D01*
X126120772Y-113318445D01*
X126101995Y-113363778D01*
X126078864Y-113407051D01*
X126051604Y-113447850D01*
X126020476Y-113485779D01*
X125985779Y-113520476D01*
X125947850Y-113551604D01*
X125907051Y-113578864D01*
X125863778Y-113601995D01*
X125818445Y-113620772D01*
X125771490Y-113635016D01*
X125723365Y-113644588D01*
X125674534Y-113649398D01*
X125650000Y-113649398D01*
X125650000Y-113650000D01*
X125150000Y-113650000D01*
X125150000Y-112150000D01*
X125650000Y-112150000D01*
X125650000Y-112150602D01*
G37*
%TD.AperFunction*%
%TD*%
D16*
%TO.P,L1,1*%
%TO.N,Net-(D1-Pad1)*%
X84000000Y-127900000D03*
%TO.P,L1,2*%
%TO.N,Net-(C3-Pad1)*%
X89000000Y-127900000D03*
%TD*%
%TO.P,L2,2*%
%TO.N,Net-(C4-Pad1)*%
X99800000Y-119000000D03*
%TO.P,L2,1*%
%TO.N,Net-(C3-Pad1)*%
X99800000Y-114000000D03*
%TD*%
D23*
%TO.P,Q1,2*%
%TO.N,Net-(C5-Pad1)*%
X126000000Y-117130000D03*
%TO.P,Q1,3*%
%TO.N,Net-(C4-Pad1)*%
X126000000Y-115860000D03*
D22*
%TO.P,Q1,1*%
%TO.N,Net-(C6-Pad1)*%
X126000000Y-118400000D03*
%TD*%
D10*
%TO.P,R1,1*%
%TO.N,Net-(R1-Pad1)*%
X68500000Y-115000000D03*
D20*
%TO.P,R1,2*%
%TO.N,Net-(C1-Pad1)*%
X58340000Y-115000000D03*
%TD*%
D10*
%TO.P,R2,1*%
%TO.N,GND*%
X79600000Y-115000000D03*
D20*
%TO.P,R2,2*%
%TO.N,Net-(R2-Pad2)*%
X71980000Y-115000000D03*
%TD*%
D10*
%TO.P,R4,1*%
%TO.N,Net-(R2-Pad2)*%
X72000000Y-120000000D03*
D20*
%TO.P,R4,2*%
%TO.N,Net-(R4-Pad2)*%
X79620000Y-120000000D03*
%TD*%
%TO.P,R5,2*%
%TO.N,Net-(C4-Pad1)*%
X119300000Y-113480000D03*
D10*
%TO.P,R5,1*%
%TO.N,Net-(C5-Pad1)*%
X119300000Y-121100000D03*
%TD*%
D21*
%TO.P,RV1,1*%
%TO.N,Net-(R4-Pad2)*%
X97000000Y-125500000D03*
%TO.P,RV1,2*%
%TO.N,Net-(C3-Pad1)*%
X97000000Y-128040000D03*
%TO.P,RV1,3*%
%TO.N,N/C*%
X97000000Y-130580000D03*
%TD*%
D17*
%TO.P,U1,1*%
%TO.N,Net-(R1-Pad1)*%
X68100000Y-127600000D03*
D20*
%TO.P,U1,5*%
%TO.N,Net-(R2-Pad2)*%
X60480000Y-119980000D03*
%TO.P,U1,2*%
%TO.N,Net-(D1-Pad1)*%
X68100000Y-125060000D03*
%TO.P,U1,6*%
%TO.N,Net-(C1-Pad1)*%
X60480000Y-122520000D03*
%TO.P,U1,3*%
%TO.N,Net-(C2-Pad1)*%
X68100000Y-122520000D03*
%TO.P,U1,7*%
%TO.N,Net-(R1-Pad1)*%
X60480000Y-125060000D03*
%TO.P,U1,4*%
%TO.N,GND*%
X68100000Y-119980000D03*
%TO.P,U1,8*%
%TO.N,Net-(R1-Pad1)*%
X60480000Y-127600000D03*
%TD*%
D19*
%TO.P,C3,1*%
%TO.N,Net-(C3-Pad1)*%
X87800000Y-114000000D03*
D18*
%TO.P,C3,2*%
%TO.N,GND*%
X87800000Y-119000000D03*
%TD*%
%TO.P,C4,2*%
%TO.N,GND*%
X106400000Y-130500000D03*
D19*
%TO.P,C4,1*%
%TO.N,Net-(C4-Pad1)*%
X106400000Y-125500000D03*
%TD*%
D18*
%TO.P,C5,2*%
%TO.N,GND*%
X111500000Y-120100000D03*
D19*
%TO.P,C5,1*%
%TO.N,Net-(C5-Pad1)*%
X111500000Y-115100000D03*
%TD*%
%TO.P,C6,1*%
%TO.N,Net-(C6-Pad1)*%
X118000000Y-125500000D03*
D18*
%TO.P,C6,2*%
%TO.N,GND*%
X118000000Y-130500000D03*
%TD*%
D17*
%TO.P,C1,1*%
%TO.N,Net-(C1-Pad1)*%
X53900000Y-126500000D03*
D10*
%TO.P,C1,2*%
%TO.N,GND*%
X53900000Y-130000000D03*
%TD*%
%TO.P,C2,1*%
%TO.N,Net-(C2-Pad1)*%
X73200000Y-150400000D03*
%TO.P,C2,2*%
%TO.N,Net-(C2-Pad2)*%
X78200000Y-150400000D03*
%TD*%
D13*
%TO.P,D1,2*%
%TO.N,Net-(C2-Pad2)*%
X79320000Y-155600000D03*
D14*
%TO.P,D1,1*%
%TO.N,Net-(D1-Pad1)*%
X71700000Y-155600000D03*
%TD*%
D12*
%TO.P,J1,2*%
%TO.N,GND*%
X52500000Y-140700000D03*
D11*
%TO.P,J1,1*%
%TO.N,Net-(C1-Pad1)*%
X52500000Y-145700000D03*
%TD*%
%TO.P,J2,1*%
%TO.N,Net-(C6-Pad2)*%
X127800000Y-147900000D03*
D12*
%TO.P,J2,2*%
%TO.N,GND*%
X127800000Y-152900000D03*
%TD*%
%TA.AperFunction,SMDPad,CuDef*%
D15*
%TO.P,JP1,1*%
%TO.N,Net-(C4-Pad2)*%
G36*
X124850000Y-138650000D02*
G01*
X124350000Y-138650000D01*
X124350000Y-138649398D01*
X124325466Y-138649398D01*
X124276635Y-138644588D01*
X124228510Y-138635016D01*
X124181555Y-138620772D01*
X124136222Y-138601995D01*
X124092949Y-138578864D01*
X124052150Y-138551604D01*
X124014221Y-138520476D01*
X123979524Y-138485779D01*
X123948396Y-138447850D01*
X123921136Y-138407051D01*
X123898005Y-138363778D01*
X123879228Y-138318445D01*
X123864984Y-138271490D01*
X123855412Y-138223365D01*
X123850602Y-138174534D01*
X123850602Y-138150000D01*
X123850000Y-138150000D01*
X123850000Y-137650000D01*
X123850602Y-137650000D01*
X123850602Y-137625466D01*
X123855412Y-137576635D01*
X123864984Y-137528510D01*
X123879228Y-137481555D01*
X123898005Y-137436222D01*
X123921136Y-137392949D01*
X123948396Y-137352150D01*
X123979524Y-137314221D01*
X124014221Y-137279524D01*
X124052150Y-137248396D01*
X124092949Y-137221136D01*
X124136222Y-137198005D01*
X124181555Y-137179228D01*
X124228510Y-137164984D01*
X124276635Y-137155412D01*
X124325466Y-137150602D01*
X124350000Y-137150602D01*
X124350000Y-137150000D01*
X124850000Y-137150000D01*
X124850000Y-138650000D01*
G37*
%TD.AperFunction*%
%TA.AperFunction,SMDPad,CuDef*%
%TO.P,JP1,2*%
%TO.N,Net-(C6-Pad2)*%
G36*
X125650000Y-137150602D02*
G01*
X125674534Y-137150602D01*
X125723365Y-137155412D01*
X125771490Y-137164984D01*
X125818445Y-137179228D01*
X125863778Y-137198005D01*
X125907051Y-137221136D01*
X125947850Y-137248396D01*
X125985779Y-137279524D01*
X126020476Y-137314221D01*
X126051604Y-137352150D01*
X126078864Y-137392949D01*
X126101995Y-137436222D01*
X126120772Y-137481555D01*
X126135016Y-137528510D01*
X126144588Y-137576635D01*
X126149398Y-137625466D01*
X126149398Y-137650000D01*
X126150000Y-137650000D01*
X126150000Y-138150000D01*
X126149398Y-138150000D01*
X126149398Y-138174534D01*
X126144588Y-138223365D01*
X126135016Y-138271490D01*
X126120772Y-138318445D01*
X126101995Y-138363778D01*
X126078864Y-138407051D01*
X126051604Y-138447850D01*
X126020476Y-138485779D01*
X125985779Y-138520476D01*
X125947850Y-138551604D01*
X125907051Y-138578864D01*
X125863778Y-138601995D01*
X125818445Y-138620772D01*
X125771490Y-138635016D01*
X125723365Y-138644588D01*
X125674534Y-138649398D01*
X125650000Y-138649398D01*
X125650000Y-138650000D01*
X125150000Y-138650000D01*
X125150000Y-137150000D01*
X125650000Y-137150000D01*
X125650000Y-137150602D01*
G37*
%TD.AperFunction*%
%TD*%
D16*
%TO.P,L1,2*%
%TO.N,GND*%
X89000000Y-153500000D03*
%TO.P,L1,1*%
%TO.N,Net-(D1-Pad1)*%
X84000000Y-153500000D03*
%TD*%
%TO.P,L2,2*%
%TO.N,Net-(C4-Pad2)*%
X99800000Y-144000000D03*
%TO.P,L2,1*%
%TO.N,Net-(C2-Pad2)*%
X99800000Y-139000000D03*
%TD*%
D10*
%TO.P,R1,1*%
%TO.N,Net-(R1-Pad1)*%
X68500000Y-140000000D03*
D20*
%TO.P,R1,2*%
%TO.N,Net-(C1-Pad1)*%
X58340000Y-140000000D03*
%TD*%
D10*
%TO.P,R2,1*%
%TO.N,GND*%
X79600000Y-140000000D03*
D20*
%TO.P,R2,2*%
%TO.N,Net-(R2-Pad2)*%
X71980000Y-140000000D03*
%TD*%
D10*
%TO.P,R4,1*%
%TO.N,Net-(R2-Pad2)*%
X72000000Y-145000000D03*
D20*
%TO.P,R4,2*%
%TO.N,Net-(R4-Pad2)*%
X79620000Y-145000000D03*
%TD*%
%TO.P,R5,2*%
%TO.N,Net-(C4-Pad2)*%
X119300000Y-138480000D03*
D10*
%TO.P,R5,1*%
%TO.N,Net-(C5-Pad2)*%
X119300000Y-146100000D03*
%TD*%
D21*
%TO.P,RV1,3*%
%TO.N,N/C*%
X97000000Y-155580000D03*
%TO.P,RV1,2*%
%TO.N,Net-(C2-Pad2)*%
X97000000Y-153040000D03*
%TO.P,RV1,1*%
%TO.N,Net-(R4-Pad2)*%
X97000000Y-150500000D03*
%TD*%
D17*
%TO.P,U1,1*%
%TO.N,Net-(R1-Pad1)*%
X68000000Y-152600000D03*
D20*
%TO.P,U1,5*%
%TO.N,Net-(R2-Pad2)*%
X60380000Y-144980000D03*
%TO.P,U1,2*%
%TO.N,Net-(D1-Pad1)*%
X68000000Y-150060000D03*
%TO.P,U1,6*%
%TO.N,Net-(C1-Pad1)*%
X60380000Y-147520000D03*
%TO.P,U1,3*%
%TO.N,Net-(C2-Pad1)*%
X68000000Y-147520000D03*
%TO.P,U1,7*%
%TO.N,Net-(R1-Pad1)*%
X60380000Y-150060000D03*
%TO.P,U1,4*%
%TO.N,Net-(C2-Pad2)*%
X68000000Y-144980000D03*
%TO.P,U1,8*%
%TO.N,Net-(R1-Pad1)*%
X60380000Y-152600000D03*
%TD*%
D19*
%TO.P,C3,1*%
%TO.N,GND*%
X87800000Y-139000000D03*
D18*
%TO.P,C3,2*%
%TO.N,Net-(C2-Pad2)*%
X87800000Y-144000000D03*
%TD*%
D19*
%TO.P,C4,1*%
%TO.N,GND*%
X106400000Y-150500000D03*
D18*
%TO.P,C4,2*%
%TO.N,Net-(C4-Pad2)*%
X106400000Y-155500000D03*
%TD*%
%TO.P,C5,2*%
%TO.N,Net-(C5-Pad2)*%
X111500000Y-145100000D03*
D19*
%TO.P,C5,1*%
%TO.N,GND*%
X111500000Y-140100000D03*
%TD*%
D18*
%TO.P,C6,2*%
%TO.N,Net-(C6-Pad2)*%
X118000000Y-155500000D03*
D19*
%TO.P,C6,1*%
%TO.N,GND*%
X118000000Y-150500000D03*
%TD*%
D17*
%TO.P,C1,1*%
%TO.N,Net-(C1-Pad1)*%
X53800000Y-151300000D03*
D10*
%TO.P,C1,2*%
%TO.N,GND*%
X53800000Y-154800000D03*
%TD*%
D22*
%TO.P,Q1,1*%
%TO.N,Net-(C6-Pad2)*%
X126000000Y-143400000D03*
D23*
%TO.P,Q1,3*%
%TO.N,Net-(C4-Pad2)*%
X126000000Y-140860000D03*
%TO.P,Q1,2*%
%TO.N,Net-(C5-Pad2)*%
X126000000Y-142130000D03*
%TD*%
D24*
%TO.N,*%
X53800000Y-99200000D02*
X56480000Y-96520000D01*
X54660000Y-94700000D02*
X56480000Y-96520000D01*
X56480000Y-96520000D02*
X56480000Y-90860000D01*
X52500000Y-94700000D02*
X54660000Y-94700000D01*
X53500000Y-99500000D02*
X53800000Y-99200000D01*
X56480000Y-96520000D02*
X59980000Y-96520000D01*
X53500000Y-100800000D02*
X53500000Y-99500000D01*
X56480000Y-90860000D02*
X58340000Y-89000000D01*
X71300000Y-103700000D02*
X72400000Y-104800000D01*
X66500000Y-103700000D02*
X71300000Y-103700000D01*
X65300000Y-97700000D02*
X65300000Y-102500000D01*
X66480000Y-96520000D02*
X65300000Y-97700000D01*
X67600000Y-96520000D02*
X66480000Y-96520000D01*
X65300000Y-102500000D02*
X66500000Y-103700000D01*
X87800000Y-88000000D02*
X93600000Y-88000000D01*
X93600000Y-88000000D02*
X99800000Y-88000000D01*
X93600000Y-93100000D02*
X93600000Y-88000000D01*
X77800000Y-106000000D02*
X77800000Y-104100000D01*
X77800000Y-104100000D02*
X81400000Y-100500000D01*
X99800000Y-99300000D02*
X93600000Y-93100000D01*
X99800000Y-101200000D02*
X99800000Y-99300000D01*
X98460000Y-102540000D02*
X99800000Y-101200000D01*
X97000000Y-102540000D02*
X98460000Y-102540000D01*
X91000000Y-106100000D02*
X94560000Y-102540000D01*
X94560000Y-102540000D02*
X97000000Y-102540000D01*
X87900000Y-106100000D02*
X91000000Y-106100000D01*
X86400000Y-104600000D02*
X87900000Y-106100000D01*
X86400000Y-102000000D02*
X86400000Y-104600000D01*
X84900000Y-100500000D02*
X86400000Y-102000000D01*
X81400000Y-100500000D02*
X84900000Y-100500000D01*
X106400000Y-100000000D02*
X106400000Y-99600000D01*
X106400000Y-99600000D02*
X99800000Y-93000000D01*
X125560000Y-89860000D02*
X124350000Y-88650000D01*
X124350000Y-88650000D02*
X124350000Y-86900000D01*
X126000000Y-89860000D02*
X125560000Y-89860000D01*
X121620000Y-87480000D02*
X122200000Y-86900000D01*
X122200000Y-86900000D02*
X124350000Y-86900000D01*
X119300000Y-87480000D02*
X121620000Y-87480000D01*
X107500000Y-86200000D02*
X118020000Y-86200000D01*
X118020000Y-86200000D02*
X119300000Y-87480000D01*
X100700000Y-93000000D02*
X107500000Y-86200000D01*
X99800000Y-93000000D02*
X100700000Y-93000000D01*
X118400000Y-95100000D02*
X112400000Y-89100000D01*
X112400000Y-89100000D02*
X111500000Y-89100000D01*
X119300000Y-95100000D02*
X118400000Y-95100000D01*
X119300000Y-94900000D02*
X123070000Y-91130000D01*
X123070000Y-91130000D02*
X126000000Y-91130000D01*
X119300000Y-95100000D02*
X119300000Y-94900000D01*
X125800000Y-96900000D02*
X122700000Y-100000000D01*
X122700000Y-100000000D02*
X118000000Y-100000000D01*
X127800000Y-96900000D02*
X125800000Y-96900000D01*
X127800000Y-96900000D02*
X127800000Y-92600000D01*
X127800000Y-92600000D02*
X127600000Y-92400000D01*
X128200000Y-91800000D02*
X127600000Y-92400000D01*
X127600000Y-92400000D02*
X126000000Y-92400000D01*
X128200000Y-88200000D02*
X128200000Y-91800000D01*
X126900000Y-86900000D02*
X128200000Y-88200000D01*
X125650000Y-86900000D02*
X126900000Y-86900000D01*
X89000000Y-101200000D02*
X89000000Y-103000000D01*
X86180000Y-98380000D02*
X89000000Y-101200000D01*
X77800000Y-98380000D02*
X86180000Y-98380000D01*
X77800000Y-99500000D02*
X77800000Y-98380000D01*
X75200000Y-102100000D02*
X77800000Y-99500000D01*
X69600000Y-102100000D02*
X75200000Y-102100000D01*
X69100000Y-101600000D02*
X69600000Y-102100000D01*
X67600000Y-101600000D02*
X69100000Y-101600000D01*
X81700000Y-108000000D02*
X84000000Y-105700000D01*
X84000000Y-105700000D02*
X84000000Y-103000000D01*
X70200000Y-108000000D02*
X81700000Y-108000000D01*
X67800000Y-105600000D02*
X70200000Y-108000000D01*
X67620000Y-105600000D02*
X67800000Y-105600000D01*
X63000000Y-100700000D02*
X61360000Y-99060000D01*
X63000000Y-104100000D02*
X63000000Y-100700000D01*
X64500000Y-105600000D02*
X63000000Y-104100000D01*
X67620000Y-105600000D02*
X64500000Y-105600000D01*
X61360000Y-99060000D02*
X59980000Y-99060000D01*
X63100000Y-93500000D02*
X67600000Y-89000000D01*
X67600000Y-89000000D02*
X68500000Y-89000000D01*
X63100000Y-97200000D02*
X63100000Y-93500000D01*
X61360000Y-98940000D02*
X63100000Y-97200000D01*
X61360000Y-99060000D02*
X61360000Y-98940000D01*
X61400000Y-92560000D02*
X59980000Y-93980000D01*
X64800000Y-86500000D02*
X61400000Y-89900000D01*
X61400000Y-89900000D02*
X61400000Y-92560000D01*
X70000000Y-86500000D02*
X64800000Y-86500000D01*
X71980000Y-88480000D02*
X70000000Y-86500000D01*
X71980000Y-89000000D02*
X71980000Y-88480000D01*
X72000000Y-94000000D02*
X72000000Y-89020000D01*
X72000000Y-89020000D02*
X71980000Y-89000000D01*
X60000000Y-105600000D02*
X60000000Y-101620000D01*
X60000000Y-101620000D02*
X59980000Y-101600000D01*
X93000000Y-96800000D02*
X82420000Y-96800000D01*
X82420000Y-96800000D02*
X79620000Y-94000000D01*
X96200000Y-100000000D02*
X93000000Y-96800000D01*
X97000000Y-100000000D02*
X96200000Y-100000000D01*
%TO.N,Net-(C1-Pad1)*%
X53800000Y-73200000D02*
X56480000Y-70520000D01*
X56480000Y-64860000D02*
X58340000Y-63000000D01*
X56480000Y-70520000D02*
X56480000Y-64860000D01*
X54660000Y-68700000D02*
X56480000Y-70520000D01*
X52500000Y-68700000D02*
X54660000Y-68700000D01*
X53500000Y-73500000D02*
X53800000Y-73200000D01*
X56480000Y-70520000D02*
X59980000Y-70520000D01*
X53500000Y-74800000D02*
X53500000Y-73500000D01*
X56480000Y-116860000D02*
X58340000Y-115000000D01*
X56480000Y-122520000D02*
X56480000Y-116860000D01*
X54660000Y-120700000D02*
X56480000Y-122520000D01*
X52500000Y-120700000D02*
X54660000Y-120700000D01*
X56480000Y-122520000D02*
X60480000Y-122520000D01*
X53900000Y-125100000D02*
X56480000Y-122520000D01*
X53900000Y-126500000D02*
X53900000Y-125100000D01*
X56480000Y-141860000D02*
X58340000Y-140000000D01*
X56480000Y-147520000D02*
X56480000Y-141860000D01*
X54660000Y-145700000D02*
X56480000Y-147520000D01*
X52500000Y-145700000D02*
X54660000Y-145700000D01*
X53800000Y-150200000D02*
X56480000Y-147520000D01*
X53800000Y-151300000D02*
X53800000Y-150200000D01*
X56480000Y-147520000D02*
X60380000Y-147520000D01*
%TO.N,Net-(C2-Pad1)*%
X67600000Y-70520000D02*
X66480000Y-70520000D01*
X66480000Y-70520000D02*
X65300000Y-71700000D01*
X65300000Y-76500000D02*
X66500000Y-77700000D01*
X65300000Y-71700000D02*
X65300000Y-76500000D01*
X66500000Y-77700000D02*
X71300000Y-77700000D01*
X71300000Y-77700000D02*
X72400000Y-78800000D01*
X71020000Y-122520000D02*
X68100000Y-122520000D01*
X73200000Y-124700000D02*
X71020000Y-122520000D01*
X73200000Y-125400000D02*
X73200000Y-124700000D01*
X68000000Y-147520000D02*
X68620000Y-147520000D01*
X68620000Y-147520000D02*
X70700000Y-149600000D01*
X72400000Y-149600000D02*
X73200000Y-150400000D01*
X70700000Y-149600000D02*
X72400000Y-149600000D01*
%TO.N,Net-(C3-Pad1)*%
X81400000Y-74500000D02*
X84900000Y-74500000D01*
X84900000Y-74500000D02*
X86400000Y-76000000D01*
X86400000Y-76000000D02*
X86400000Y-78600000D01*
X86400000Y-78600000D02*
X87900000Y-80100000D01*
X87900000Y-80100000D02*
X91000000Y-80100000D01*
X94560000Y-76540000D02*
X97000000Y-76540000D01*
X91000000Y-80100000D02*
X94560000Y-76540000D01*
X97000000Y-76540000D02*
X98460000Y-76540000D01*
X98460000Y-76540000D02*
X99800000Y-75200000D01*
X99800000Y-75200000D02*
X99800000Y-73300000D01*
X99800000Y-73300000D02*
X93600000Y-67100000D01*
X77800000Y-78100000D02*
X81400000Y-74500000D01*
X77800000Y-80000000D02*
X77800000Y-78100000D01*
X93600000Y-67100000D02*
X93600000Y-62000000D01*
X93600000Y-62000000D02*
X99800000Y-62000000D01*
X87800000Y-62000000D02*
X93600000Y-62000000D01*
X87800000Y-114000000D02*
X93600000Y-114000000D01*
X97000000Y-128040000D02*
X98860000Y-128040000D01*
X98860000Y-128040000D02*
X100300000Y-126600000D01*
X100300000Y-126600000D02*
X100300000Y-124900000D01*
X95000000Y-119600000D02*
X95000000Y-114000000D01*
X100300000Y-124900000D02*
X95000000Y-119600000D01*
X95000000Y-114000000D02*
X99800000Y-114000000D01*
X93600000Y-114000000D02*
X95000000Y-114000000D01*
X89140000Y-128040000D02*
X89000000Y-127900000D01*
X97000000Y-128040000D02*
X89140000Y-128040000D01*
%TO.N,Net-(C4-Pad1)*%
X99800000Y-67000000D02*
X100700000Y-67000000D01*
X100700000Y-67000000D02*
X107500000Y-60200000D01*
X118020000Y-60200000D02*
X119300000Y-61480000D01*
X107500000Y-60200000D02*
X118020000Y-60200000D01*
X119300000Y-61480000D02*
X121620000Y-61480000D01*
X122200000Y-60900000D02*
X124350000Y-60900000D01*
X121620000Y-61480000D02*
X122200000Y-60900000D01*
X126000000Y-63860000D02*
X125560000Y-63860000D01*
X124350000Y-62650000D02*
X124350000Y-60900000D01*
X125560000Y-63860000D02*
X124350000Y-62650000D01*
X106400000Y-73600000D02*
X99800000Y-67000000D01*
X106400000Y-74000000D02*
X106400000Y-73600000D01*
X99800000Y-119000000D02*
X100700000Y-119000000D01*
X100700000Y-119000000D02*
X107500000Y-112200000D01*
X118020000Y-112200000D02*
X119300000Y-113480000D01*
X107500000Y-112200000D02*
X118020000Y-112200000D01*
X119300000Y-113480000D02*
X121620000Y-113480000D01*
X122200000Y-112900000D02*
X124350000Y-112900000D01*
X121620000Y-113480000D02*
X122200000Y-112900000D01*
X126000000Y-115860000D02*
X125560000Y-115860000D01*
X124350000Y-114650000D02*
X124350000Y-112900000D01*
X125560000Y-115860000D02*
X124350000Y-114650000D01*
X106400000Y-125600000D02*
X99800000Y-119000000D01*
X106400000Y-126000000D02*
X106400000Y-125600000D01*
%TO.N,Net-(C5-Pad1)*%
X119300000Y-69100000D02*
X119300000Y-68900000D01*
X123070000Y-65130000D02*
X126000000Y-65130000D01*
X119300000Y-68900000D02*
X123070000Y-65130000D01*
X119300000Y-69100000D02*
X118400000Y-69100000D01*
X112400000Y-63100000D02*
X111500000Y-63100000D01*
X118400000Y-69100000D02*
X112400000Y-63100000D01*
X119300000Y-121100000D02*
X119300000Y-120900000D01*
X123070000Y-117130000D02*
X126000000Y-117130000D01*
X119300000Y-120900000D02*
X123070000Y-117130000D01*
X119300000Y-121100000D02*
X118400000Y-121100000D01*
X112400000Y-115100000D02*
X111500000Y-115100000D01*
X118400000Y-121100000D02*
X112400000Y-115100000D01*
%TO.N,Net-(C6-Pad1)*%
X125650000Y-60900000D02*
X126900000Y-60900000D01*
X126900000Y-60900000D02*
X128200000Y-62200000D01*
X128200000Y-62200000D02*
X128200000Y-65800000D01*
X127600000Y-66400000D02*
X126000000Y-66400000D01*
X128200000Y-65800000D02*
X127600000Y-66400000D01*
X127800000Y-66600000D02*
X127600000Y-66400000D01*
X127800000Y-70900000D02*
X127800000Y-66600000D01*
X127800000Y-70900000D02*
X125800000Y-70900000D01*
X122700000Y-74000000D02*
X118000000Y-74000000D01*
X125800000Y-70900000D02*
X122700000Y-74000000D01*
X125650000Y-112900000D02*
X126900000Y-112900000D01*
X126900000Y-112900000D02*
X128200000Y-114200000D01*
X128200000Y-114200000D02*
X128200000Y-117800000D01*
X127600000Y-118400000D02*
X126000000Y-118400000D01*
X128200000Y-117800000D02*
X127600000Y-118400000D01*
X127800000Y-118600000D02*
X127600000Y-118400000D01*
X127800000Y-122900000D02*
X127800000Y-118600000D01*
X118000000Y-125500000D02*
X122100000Y-125500000D01*
X124700000Y-122900000D02*
X127800000Y-122900000D01*
X122100000Y-125500000D02*
X124700000Y-122900000D01*
%TO.N,Net-(D1-Pad2)*%
X67600000Y-75600000D02*
X69100000Y-75600000D01*
X69100000Y-75600000D02*
X69600000Y-76100000D01*
X69600000Y-76100000D02*
X75200000Y-76100000D01*
X75200000Y-76100000D02*
X77800000Y-73500000D01*
X77800000Y-73500000D02*
X77800000Y-72380000D01*
X77800000Y-72380000D02*
X86180000Y-72380000D01*
X86180000Y-72380000D02*
X89000000Y-75200000D01*
X89000000Y-75200000D02*
X89000000Y-77000000D01*
%TO.N,Net-(L1-Pad1)*%
X61360000Y-73060000D02*
X61360000Y-72940000D01*
X61360000Y-72940000D02*
X63100000Y-71200000D01*
X63100000Y-71200000D02*
X63100000Y-67500000D01*
X67600000Y-63000000D02*
X68500000Y-63000000D01*
X63100000Y-67500000D02*
X67600000Y-63000000D01*
X61360000Y-73060000D02*
X59980000Y-73060000D01*
X67620000Y-79600000D02*
X64500000Y-79600000D01*
X64500000Y-79600000D02*
X63000000Y-78100000D01*
X63000000Y-78100000D02*
X63000000Y-74700000D01*
X63000000Y-74700000D02*
X61360000Y-73060000D01*
X67620000Y-79600000D02*
X67800000Y-79600000D01*
X67800000Y-79600000D02*
X70200000Y-82000000D01*
X70200000Y-82000000D02*
X81700000Y-82000000D01*
X84000000Y-79700000D02*
X84000000Y-77000000D01*
X81700000Y-82000000D02*
X84000000Y-79700000D01*
%TO.N,Net-(R2-Pad2)*%
X72000000Y-63020000D02*
X71980000Y-63000000D01*
X72000000Y-68000000D02*
X72000000Y-63020000D01*
X71980000Y-63000000D02*
X71980000Y-62480000D01*
X71980000Y-62480000D02*
X70000000Y-60500000D01*
X70000000Y-60500000D02*
X64800000Y-60500000D01*
X61400000Y-63900000D02*
X61400000Y-66560000D01*
X64800000Y-60500000D02*
X61400000Y-63900000D01*
X61400000Y-66560000D02*
X59980000Y-67980000D01*
X72000000Y-115020000D02*
X71980000Y-115000000D01*
X72000000Y-120000000D02*
X72000000Y-115020000D01*
X61400000Y-118560000D02*
X60480000Y-119980000D01*
X61400000Y-115900000D02*
X61400000Y-118560000D01*
X64800000Y-112500000D02*
X61400000Y-115900000D01*
X70000000Y-112500000D02*
X64800000Y-112500000D01*
X71980000Y-114480000D02*
X70000000Y-112500000D01*
X71980000Y-115000000D02*
X71980000Y-114480000D01*
X72000000Y-140020000D02*
X71980000Y-140000000D01*
X72000000Y-145000000D02*
X72000000Y-140020000D01*
X61400000Y-143560000D02*
X60380000Y-144980000D01*
X61400000Y-140900000D02*
X61400000Y-143560000D01*
X64800000Y-137500000D02*
X61400000Y-140900000D01*
X70000000Y-137500000D02*
X64800000Y-137500000D01*
X71980000Y-139480000D02*
X70000000Y-137500000D01*
X71980000Y-140000000D02*
X71980000Y-139480000D01*
%TO.N,Net-(R3-Pad1)*%
X60000000Y-75620000D02*
X59980000Y-75600000D01*
X60000000Y-79600000D02*
X60000000Y-75620000D01*
%TO.N,Net-(R4-Pad2)*%
X97000000Y-74000000D02*
X96200000Y-74000000D01*
X96200000Y-74000000D02*
X93000000Y-70800000D01*
X82420000Y-70800000D02*
X79620000Y-68000000D01*
X93000000Y-70800000D02*
X82420000Y-70800000D01*
X97000000Y-125500000D02*
X96100000Y-125500000D01*
X96100000Y-125500000D02*
X94600000Y-124000000D01*
X83620000Y-124000000D02*
X79620000Y-120000000D01*
X94600000Y-124000000D02*
X83620000Y-124000000D01*
X97000000Y-150500000D02*
X96500000Y-150500000D01*
X96500000Y-150500000D02*
X93000000Y-147000000D01*
X81620000Y-147000000D02*
X79620000Y-145000000D01*
X93000000Y-147000000D02*
X81620000Y-147000000D01*
%TO.N,Net-(D1-Pad1)*%
X77300000Y-129200000D02*
X79200000Y-131100000D01*
X72800000Y-129200000D02*
X77300000Y-129200000D01*
X70900000Y-127300000D02*
X72800000Y-129200000D01*
X70900000Y-126100000D02*
X70900000Y-127300000D01*
X69860000Y-125060000D02*
X70900000Y-126100000D01*
X68100000Y-125060000D02*
X69860000Y-125060000D01*
X84000000Y-129000000D02*
X84000000Y-127900000D01*
X81900000Y-131100000D02*
X84000000Y-129000000D01*
X79200000Y-131100000D02*
X81900000Y-131100000D01*
X71700000Y-155600000D02*
X72300000Y-155600000D01*
X72300000Y-155600000D02*
X74600000Y-157900000D01*
X74600000Y-157900000D02*
X82000000Y-157900000D01*
X84000000Y-155900000D02*
X84000000Y-153500000D01*
X82000000Y-157900000D02*
X84000000Y-155900000D01*
X70400000Y-154300000D02*
X71700000Y-155600000D01*
X70400000Y-151800000D02*
X70400000Y-154300000D01*
X68660000Y-150060000D02*
X70400000Y-151800000D01*
X68000000Y-150060000D02*
X68660000Y-150060000D01*
%TO.N,Net-(R1-Pad1)*%
X64000000Y-124900000D02*
X64000000Y-117500000D01*
X66500000Y-115000000D02*
X68500000Y-115000000D01*
X64000000Y-117500000D02*
X66500000Y-115000000D01*
X66700000Y-127600000D02*
X64000000Y-124900000D01*
X68100000Y-127600000D02*
X66700000Y-127600000D01*
X60480000Y-125060000D02*
X60400000Y-127600000D01*
X63840000Y-125060000D02*
X64000000Y-124900000D01*
X60480000Y-125060000D02*
X63840000Y-125060000D01*
X60400000Y-150060000D02*
X60400000Y-152600000D01*
X64000000Y-149900000D02*
X64000000Y-142500000D01*
X66500000Y-140000000D02*
X68500000Y-140000000D01*
X64000000Y-142500000D02*
X66500000Y-140000000D01*
X63840000Y-150060000D02*
X64000000Y-149900000D01*
X59980000Y-150060000D02*
X63840000Y-150060000D01*
X66700000Y-152600000D02*
X64000000Y-149900000D01*
X68000000Y-152600000D02*
X66700000Y-152600000D01*
%TO.N,Net-(C2-Pad2)*%
X78200000Y-150400000D02*
X78200000Y-149100000D01*
X78200000Y-149100000D02*
X76200000Y-147100000D01*
X94200000Y-144000000D02*
X87800000Y-144000000D01*
X94800000Y-144000000D02*
X99800000Y-139000000D01*
X94200000Y-144000000D02*
X94800000Y-144000000D01*
X79320000Y-155600000D02*
X79320000Y-154220000D01*
X78200000Y-153100000D02*
X78200000Y-150400000D01*
X79320000Y-154220000D02*
X78200000Y-153100000D01*
X94540000Y-153040000D02*
X97000000Y-153040000D01*
X91900000Y-150400000D02*
X94540000Y-153040000D01*
X78200000Y-150400000D02*
X91900000Y-150400000D01*
X87800000Y-144000000D02*
X85800000Y-144000000D01*
X85800000Y-144000000D02*
X84200000Y-142400000D01*
X84200000Y-142400000D02*
X77900000Y-142400000D01*
X76200000Y-144100000D02*
X76200000Y-147100000D01*
X77900000Y-142400000D02*
X76200000Y-144100000D01*
X68680000Y-144980000D02*
X68000000Y-144980000D01*
X70800000Y-147100000D02*
X68680000Y-144980000D01*
X76200000Y-147100000D02*
X70800000Y-147100000D01*
%TO.N,Net-(C4-Pad2)*%
X124350000Y-139650000D02*
X124350000Y-137900000D01*
X99800000Y-144000000D02*
X99900000Y-144000000D01*
X99900000Y-144000000D02*
X106600000Y-137300000D01*
X118120000Y-137300000D02*
X119300000Y-138480000D01*
X106600000Y-137300000D02*
X118120000Y-137300000D01*
X119300000Y-138480000D02*
X120920000Y-138480000D01*
X121500000Y-137900000D02*
X124350000Y-137900000D01*
X120920000Y-138480000D02*
X121500000Y-137900000D01*
X125560000Y-140860000D02*
X124350000Y-139650000D01*
X126000000Y-140860000D02*
X125560000Y-140860000D01*
X99800000Y-144000000D02*
X99800000Y-145800000D01*
X99800000Y-145800000D02*
X102600000Y-148600000D01*
X102600000Y-148600000D02*
X102600000Y-152700000D01*
X105400000Y-155500000D02*
X106400000Y-155500000D01*
X102600000Y-152700000D02*
X105400000Y-155500000D01*
%TO.N,Net-(C5-Pad2)*%
X112500000Y-146100000D02*
X111500000Y-145100000D01*
X119300000Y-146100000D02*
X112500000Y-146100000D01*
X119300000Y-146100000D02*
X119300000Y-145500000D01*
X122630000Y-142170000D02*
X126000000Y-142170000D01*
X119300000Y-145500000D02*
X122630000Y-142170000D01*
%TO.N,Net-(C6-Pad2)*%
X127800000Y-147900000D02*
X127800000Y-145240000D01*
X125650000Y-137900000D02*
X126500000Y-137900000D01*
X126500000Y-137900000D02*
X128200000Y-139600000D01*
X128200000Y-144840000D02*
X127800000Y-145240000D01*
X128100000Y-143400000D02*
X128200000Y-143300000D01*
X126000000Y-143400000D02*
X128100000Y-143400000D01*
X128200000Y-143300000D02*
X128200000Y-144840000D01*
X128200000Y-139600000D02*
X128200000Y-143300000D01*
X126700000Y-147900000D02*
X127800000Y-147900000D01*
X119100000Y-155500000D02*
X126700000Y-147900000D01*
X118000000Y-155500000D02*
X119100000Y-155500000D01*
%TD*%
M02*
