%TF.GenerationSoftware,KiCad,Pcbnew,(5.1.12)-1*%
%TF.CreationDate,2022-12-13T04:58:51+01:00*%
%TF.ProjectId,MC34063_panel,4d433334-3036-4335-9f70-616e656c2e6b,rev?*%
%TF.SameCoordinates,Original*%
%TF.FileFunction,Soldermask,Top*%
%TF.FilePolarity,Negative*%
%FSLAX46Y46*%
G04 Gerber Fmt 4.6, Leading zero omitted, Abs format (unit mm)*
G04 Created by KiCad (PCBNEW (5.1.12)-1) date 2022-12-13 04:58:51*
%MOMM*%
%LPD*%
G01*
G04 APERTURE LIST*
%ADD10C,1.600000*%
%ADD11R,2.600000X2.600000*%
%ADD12C,2.600000*%
%ADD13O,1.800000X1.800000*%
%ADD14R,1.800000X1.800000*%
%ADD15C,0.100000*%
%ADD16C,2.400000*%
%ADD17R,1.600000X1.600000*%
%ADD18C,2.200000*%
%ADD19C,2.000000*%
%ADD20R,2.000000X2.000000*%
%ADD21O,1.600000X1.600000*%
%ADD22C,1.440000*%
%ADD23R,1.500000X1.050000*%
%ADD24O,1.500000X1.050000*%
G04 APERTURE END LIST*
D10*
%TO.C,C2*%
X72400000Y-99800000D03*
X72400000Y-104800000D03*
%TD*%
D11*
%TO.C,J1*%
X52500000Y-94700000D03*
D12*
X52500000Y-89700000D03*
%TD*%
D13*
%TO.C,D1*%
X77800000Y-98380000D03*
D14*
X77800000Y-106000000D03*
%TD*%
D15*
%TO.C,JP1*%
G36*
X125650000Y-86150602D02*
G01*
X125674534Y-86150602D01*
X125723365Y-86155412D01*
X125771490Y-86164984D01*
X125818445Y-86179228D01*
X125863778Y-86198005D01*
X125907051Y-86221136D01*
X125947850Y-86248396D01*
X125985779Y-86279524D01*
X126020476Y-86314221D01*
X126051604Y-86352150D01*
X126078864Y-86392949D01*
X126101995Y-86436222D01*
X126120772Y-86481555D01*
X126135016Y-86528510D01*
X126144588Y-86576635D01*
X126149398Y-86625466D01*
X126149398Y-86650000D01*
X126150000Y-86650000D01*
X126150000Y-87150000D01*
X126149398Y-87150000D01*
X126149398Y-87174534D01*
X126144588Y-87223365D01*
X126135016Y-87271490D01*
X126120772Y-87318445D01*
X126101995Y-87363778D01*
X126078864Y-87407051D01*
X126051604Y-87447850D01*
X126020476Y-87485779D01*
X125985779Y-87520476D01*
X125947850Y-87551604D01*
X125907051Y-87578864D01*
X125863778Y-87601995D01*
X125818445Y-87620772D01*
X125771490Y-87635016D01*
X125723365Y-87644588D01*
X125674534Y-87649398D01*
X125650000Y-87649398D01*
X125650000Y-87650000D01*
X125150000Y-87650000D01*
X125150000Y-86150000D01*
X125650000Y-86150000D01*
X125650000Y-86150602D01*
G37*
G36*
X124850000Y-87650000D02*
G01*
X124350000Y-87650000D01*
X124350000Y-87649398D01*
X124325466Y-87649398D01*
X124276635Y-87644588D01*
X124228510Y-87635016D01*
X124181555Y-87620772D01*
X124136222Y-87601995D01*
X124092949Y-87578864D01*
X124052150Y-87551604D01*
X124014221Y-87520476D01*
X123979524Y-87485779D01*
X123948396Y-87447850D01*
X123921136Y-87407051D01*
X123898005Y-87363778D01*
X123879228Y-87318445D01*
X123864984Y-87271490D01*
X123855412Y-87223365D01*
X123850602Y-87174534D01*
X123850602Y-87150000D01*
X123850000Y-87150000D01*
X123850000Y-86650000D01*
X123850602Y-86650000D01*
X123850602Y-86625466D01*
X123855412Y-86576635D01*
X123864984Y-86528510D01*
X123879228Y-86481555D01*
X123898005Y-86436222D01*
X123921136Y-86392949D01*
X123948396Y-86352150D01*
X123979524Y-86314221D01*
X124014221Y-86279524D01*
X124052150Y-86248396D01*
X124092949Y-86221136D01*
X124136222Y-86198005D01*
X124181555Y-86179228D01*
X124228510Y-86164984D01*
X124276635Y-86155412D01*
X124325466Y-86150602D01*
X124350000Y-86150602D01*
X124350000Y-86150000D01*
X124850000Y-86150000D01*
X124850000Y-87650000D01*
G37*
%TD*%
D12*
%TO.C,J2*%
X127800000Y-101900000D03*
D11*
X127800000Y-96900000D03*
%TD*%
D16*
%TO.C,L2*%
X99800000Y-88000000D03*
X99800000Y-93000000D03*
%TD*%
%TO.C,L1*%
X89000000Y-103000000D03*
X84000000Y-103000000D03*
%TD*%
D10*
%TO.C,C1*%
X53500000Y-104300000D03*
D17*
X53500000Y-100800000D03*
%TD*%
D18*
%TO.C,H4*%
X131000000Y-106400000D03*
%TD*%
%TO.C,H3*%
X131000000Y-87600000D03*
%TD*%
%TO.C,H2*%
X47600000Y-87600000D03*
%TD*%
%TO.C,H1*%
X47600000Y-106400000D03*
%TD*%
D19*
%TO.C,C6*%
X118000000Y-105000000D03*
D20*
X118000000Y-100000000D03*
%TD*%
%TO.C,C5*%
X111500000Y-89100000D03*
D19*
X111500000Y-94100000D03*
%TD*%
D20*
%TO.C,C4*%
X106400000Y-100000000D03*
D19*
X106400000Y-105000000D03*
%TD*%
%TO.C,C3*%
X87800000Y-93000000D03*
D20*
X87800000Y-88000000D03*
%TD*%
D21*
%TO.C,U1*%
X59980000Y-101600000D03*
X67600000Y-93980000D03*
X59980000Y-99060000D03*
X67600000Y-96520000D03*
X59980000Y-96520000D03*
X67600000Y-99060000D03*
X59980000Y-93980000D03*
D17*
X67600000Y-101600000D03*
%TD*%
D22*
%TO.C,RV1*%
X97000000Y-105080000D03*
X97000000Y-102540000D03*
X97000000Y-100000000D03*
%TD*%
D10*
%TO.C,R5*%
X119300000Y-95100000D03*
D21*
X119300000Y-87480000D03*
%TD*%
%TO.C,R4*%
X79620000Y-94000000D03*
D10*
X72000000Y-94000000D03*
%TD*%
%TO.C,R3*%
X60000000Y-105600000D03*
D21*
X67620000Y-105600000D03*
%TD*%
%TO.C,R2*%
X71980000Y-89000000D03*
D10*
X79600000Y-89000000D03*
%TD*%
D21*
%TO.C,R1*%
X58340000Y-89000000D03*
D10*
X68500000Y-89000000D03*
%TD*%
D23*
%TO.C,Q1*%
X126000000Y-92400000D03*
D24*
X126000000Y-89860000D03*
X126000000Y-91130000D03*
%TD*%
D10*
%TO.C,C2*%
X72400000Y-78800000D03*
X72400000Y-73800000D03*
%TD*%
D14*
%TO.C,D1*%
X77800000Y-80000000D03*
D13*
X77800000Y-72380000D03*
%TD*%
D12*
%TO.C,J1*%
X52500000Y-63700000D03*
D11*
X52500000Y-68700000D03*
%TD*%
%TO.C,J2*%
X127800000Y-70900000D03*
D12*
X127800000Y-75900000D03*
%TD*%
D15*
%TO.C,JP1*%
G36*
X124850000Y-61650000D02*
G01*
X124350000Y-61650000D01*
X124350000Y-61649398D01*
X124325466Y-61649398D01*
X124276635Y-61644588D01*
X124228510Y-61635016D01*
X124181555Y-61620772D01*
X124136222Y-61601995D01*
X124092949Y-61578864D01*
X124052150Y-61551604D01*
X124014221Y-61520476D01*
X123979524Y-61485779D01*
X123948396Y-61447850D01*
X123921136Y-61407051D01*
X123898005Y-61363778D01*
X123879228Y-61318445D01*
X123864984Y-61271490D01*
X123855412Y-61223365D01*
X123850602Y-61174534D01*
X123850602Y-61150000D01*
X123850000Y-61150000D01*
X123850000Y-60650000D01*
X123850602Y-60650000D01*
X123850602Y-60625466D01*
X123855412Y-60576635D01*
X123864984Y-60528510D01*
X123879228Y-60481555D01*
X123898005Y-60436222D01*
X123921136Y-60392949D01*
X123948396Y-60352150D01*
X123979524Y-60314221D01*
X124014221Y-60279524D01*
X124052150Y-60248396D01*
X124092949Y-60221136D01*
X124136222Y-60198005D01*
X124181555Y-60179228D01*
X124228510Y-60164984D01*
X124276635Y-60155412D01*
X124325466Y-60150602D01*
X124350000Y-60150602D01*
X124350000Y-60150000D01*
X124850000Y-60150000D01*
X124850000Y-61650000D01*
G37*
G36*
X125650000Y-60150602D02*
G01*
X125674534Y-60150602D01*
X125723365Y-60155412D01*
X125771490Y-60164984D01*
X125818445Y-60179228D01*
X125863778Y-60198005D01*
X125907051Y-60221136D01*
X125947850Y-60248396D01*
X125985779Y-60279524D01*
X126020476Y-60314221D01*
X126051604Y-60352150D01*
X126078864Y-60392949D01*
X126101995Y-60436222D01*
X126120772Y-60481555D01*
X126135016Y-60528510D01*
X126144588Y-60576635D01*
X126149398Y-60625466D01*
X126149398Y-60650000D01*
X126150000Y-60650000D01*
X126150000Y-61150000D01*
X126149398Y-61150000D01*
X126149398Y-61174534D01*
X126144588Y-61223365D01*
X126135016Y-61271490D01*
X126120772Y-61318445D01*
X126101995Y-61363778D01*
X126078864Y-61407051D01*
X126051604Y-61447850D01*
X126020476Y-61485779D01*
X125985779Y-61520476D01*
X125947850Y-61551604D01*
X125907051Y-61578864D01*
X125863778Y-61601995D01*
X125818445Y-61620772D01*
X125771490Y-61635016D01*
X125723365Y-61644588D01*
X125674534Y-61649398D01*
X125650000Y-61649398D01*
X125650000Y-61650000D01*
X125150000Y-61650000D01*
X125150000Y-60150000D01*
X125650000Y-60150000D01*
X125650000Y-60150602D01*
G37*
%TD*%
D16*
%TO.C,L1*%
X84000000Y-77000000D03*
X89000000Y-77000000D03*
%TD*%
%TO.C,L2*%
X99800000Y-67000000D03*
X99800000Y-62000000D03*
%TD*%
D24*
%TO.C,Q1*%
X126000000Y-65130000D03*
X126000000Y-63860000D03*
D23*
X126000000Y-66400000D03*
%TD*%
D10*
%TO.C,R1*%
X68500000Y-63000000D03*
D21*
X58340000Y-63000000D03*
%TD*%
D10*
%TO.C,R2*%
X79600000Y-63000000D03*
D21*
X71980000Y-63000000D03*
%TD*%
%TO.C,R3*%
X67620000Y-79600000D03*
D10*
X60000000Y-79600000D03*
%TD*%
%TO.C,R4*%
X72000000Y-68000000D03*
D21*
X79620000Y-68000000D03*
%TD*%
%TO.C,R5*%
X119300000Y-61480000D03*
D10*
X119300000Y-69100000D03*
%TD*%
D22*
%TO.C,RV1*%
X97000000Y-74000000D03*
X97000000Y-76540000D03*
X97000000Y-79080000D03*
%TD*%
D17*
%TO.C,U1*%
X67600000Y-75600000D03*
D21*
X59980000Y-67980000D03*
X67600000Y-73060000D03*
X59980000Y-70520000D03*
X67600000Y-70520000D03*
X59980000Y-73060000D03*
X67600000Y-67980000D03*
X59980000Y-75600000D03*
%TD*%
D20*
%TO.C,C3*%
X87800000Y-62000000D03*
D19*
X87800000Y-67000000D03*
%TD*%
%TO.C,C4*%
X106400000Y-79000000D03*
D20*
X106400000Y-74000000D03*
%TD*%
D19*
%TO.C,C5*%
X111500000Y-68100000D03*
D20*
X111500000Y-63100000D03*
%TD*%
%TO.C,C6*%
X118000000Y-74000000D03*
D19*
X118000000Y-79000000D03*
%TD*%
D18*
%TO.C,H1*%
X47600000Y-80400000D03*
%TD*%
%TO.C,H2*%
X47600000Y-61600000D03*
%TD*%
%TO.C,H3*%
X131000000Y-61600000D03*
%TD*%
%TO.C,H4*%
X131000000Y-80400000D03*
%TD*%
D17*
%TO.C,C1*%
X53500000Y-74800000D03*
D10*
X53500000Y-78300000D03*
%TD*%
%TO.C,C2*%
X73200000Y-125400000D03*
X78200000Y-125400000D03*
%TD*%
D14*
%TO.C,D1*%
X79200000Y-131100000D03*
D13*
X71580000Y-131100000D03*
%TD*%
D12*
%TO.C,J1*%
X52500000Y-115700000D03*
D11*
X52500000Y-120700000D03*
%TD*%
%TO.C,J2*%
X127800000Y-122900000D03*
D12*
X127800000Y-127900000D03*
%TD*%
D15*
%TO.C,JP1*%
G36*
X124850000Y-113650000D02*
G01*
X124350000Y-113650000D01*
X124350000Y-113649398D01*
X124325466Y-113649398D01*
X124276635Y-113644588D01*
X124228510Y-113635016D01*
X124181555Y-113620772D01*
X124136222Y-113601995D01*
X124092949Y-113578864D01*
X124052150Y-113551604D01*
X124014221Y-113520476D01*
X123979524Y-113485779D01*
X123948396Y-113447850D01*
X123921136Y-113407051D01*
X123898005Y-113363778D01*
X123879228Y-113318445D01*
X123864984Y-113271490D01*
X123855412Y-113223365D01*
X123850602Y-113174534D01*
X123850602Y-113150000D01*
X123850000Y-113150000D01*
X123850000Y-112650000D01*
X123850602Y-112650000D01*
X123850602Y-112625466D01*
X123855412Y-112576635D01*
X123864984Y-112528510D01*
X123879228Y-112481555D01*
X123898005Y-112436222D01*
X123921136Y-112392949D01*
X123948396Y-112352150D01*
X123979524Y-112314221D01*
X124014221Y-112279524D01*
X124052150Y-112248396D01*
X124092949Y-112221136D01*
X124136222Y-112198005D01*
X124181555Y-112179228D01*
X124228510Y-112164984D01*
X124276635Y-112155412D01*
X124325466Y-112150602D01*
X124350000Y-112150602D01*
X124350000Y-112150000D01*
X124850000Y-112150000D01*
X124850000Y-113650000D01*
G37*
G36*
X125650000Y-112150602D02*
G01*
X125674534Y-112150602D01*
X125723365Y-112155412D01*
X125771490Y-112164984D01*
X125818445Y-112179228D01*
X125863778Y-112198005D01*
X125907051Y-112221136D01*
X125947850Y-112248396D01*
X125985779Y-112279524D01*
X126020476Y-112314221D01*
X126051604Y-112352150D01*
X126078864Y-112392949D01*
X126101995Y-112436222D01*
X126120772Y-112481555D01*
X126135016Y-112528510D01*
X126144588Y-112576635D01*
X126149398Y-112625466D01*
X126149398Y-112650000D01*
X126150000Y-112650000D01*
X126150000Y-113150000D01*
X126149398Y-113150000D01*
X126149398Y-113174534D01*
X126144588Y-113223365D01*
X126135016Y-113271490D01*
X126120772Y-113318445D01*
X126101995Y-113363778D01*
X126078864Y-113407051D01*
X126051604Y-113447850D01*
X126020476Y-113485779D01*
X125985779Y-113520476D01*
X125947850Y-113551604D01*
X125907051Y-113578864D01*
X125863778Y-113601995D01*
X125818445Y-113620772D01*
X125771490Y-113635016D01*
X125723365Y-113644588D01*
X125674534Y-113649398D01*
X125650000Y-113649398D01*
X125650000Y-113650000D01*
X125150000Y-113650000D01*
X125150000Y-112150000D01*
X125650000Y-112150000D01*
X125650000Y-112150602D01*
G37*
%TD*%
D16*
%TO.C,L1*%
X84000000Y-127900000D03*
X89000000Y-127900000D03*
%TD*%
%TO.C,L2*%
X99800000Y-119000000D03*
X99800000Y-114000000D03*
%TD*%
D24*
%TO.C,Q1*%
X126000000Y-117130000D03*
X126000000Y-115860000D03*
D23*
X126000000Y-118400000D03*
%TD*%
D10*
%TO.C,R1*%
X68500000Y-115000000D03*
D21*
X58340000Y-115000000D03*
%TD*%
D10*
%TO.C,R2*%
X79600000Y-115000000D03*
D21*
X71980000Y-115000000D03*
%TD*%
D10*
%TO.C,R4*%
X72000000Y-120000000D03*
D21*
X79620000Y-120000000D03*
%TD*%
%TO.C,R5*%
X119300000Y-113480000D03*
D10*
X119300000Y-121100000D03*
%TD*%
D22*
%TO.C,RV1*%
X97000000Y-125500000D03*
X97000000Y-128040000D03*
X97000000Y-130580000D03*
%TD*%
D17*
%TO.C,U1*%
X68100000Y-127600000D03*
D21*
X60480000Y-119980000D03*
X68100000Y-125060000D03*
X60480000Y-122520000D03*
X68100000Y-122520000D03*
X60480000Y-125060000D03*
X68100000Y-119980000D03*
X60480000Y-127600000D03*
%TD*%
D20*
%TO.C,C3*%
X87800000Y-114000000D03*
D19*
X87800000Y-119000000D03*
%TD*%
%TO.C,C4*%
X106400000Y-130500000D03*
D20*
X106400000Y-125500000D03*
%TD*%
D19*
%TO.C,C5*%
X111500000Y-120100000D03*
D20*
X111500000Y-115100000D03*
%TD*%
%TO.C,C6*%
X118000000Y-125500000D03*
D19*
X118000000Y-130500000D03*
%TD*%
D18*
%TO.C,H1*%
X47600000Y-131400000D03*
%TD*%
%TO.C,H2*%
X47600000Y-113600000D03*
%TD*%
%TO.C,H3*%
X131000000Y-113600000D03*
%TD*%
%TO.C,H4*%
X131000000Y-131400000D03*
%TD*%
D17*
%TO.C,C1*%
X53900000Y-126500000D03*
D10*
X53900000Y-130000000D03*
%TD*%
%TO.C,C2*%
X73200000Y-150400000D03*
X78200000Y-150400000D03*
%TD*%
D13*
%TO.C,D1*%
X79320000Y-155600000D03*
D14*
X71700000Y-155600000D03*
%TD*%
D12*
%TO.C,J1*%
X52500000Y-140700000D03*
D11*
X52500000Y-145700000D03*
%TD*%
%TO.C,J2*%
X127800000Y-147900000D03*
D12*
X127800000Y-152900000D03*
%TD*%
D15*
%TO.C,JP1*%
G36*
X124850000Y-138650000D02*
G01*
X124350000Y-138650000D01*
X124350000Y-138649398D01*
X124325466Y-138649398D01*
X124276635Y-138644588D01*
X124228510Y-138635016D01*
X124181555Y-138620772D01*
X124136222Y-138601995D01*
X124092949Y-138578864D01*
X124052150Y-138551604D01*
X124014221Y-138520476D01*
X123979524Y-138485779D01*
X123948396Y-138447850D01*
X123921136Y-138407051D01*
X123898005Y-138363778D01*
X123879228Y-138318445D01*
X123864984Y-138271490D01*
X123855412Y-138223365D01*
X123850602Y-138174534D01*
X123850602Y-138150000D01*
X123850000Y-138150000D01*
X123850000Y-137650000D01*
X123850602Y-137650000D01*
X123850602Y-137625466D01*
X123855412Y-137576635D01*
X123864984Y-137528510D01*
X123879228Y-137481555D01*
X123898005Y-137436222D01*
X123921136Y-137392949D01*
X123948396Y-137352150D01*
X123979524Y-137314221D01*
X124014221Y-137279524D01*
X124052150Y-137248396D01*
X124092949Y-137221136D01*
X124136222Y-137198005D01*
X124181555Y-137179228D01*
X124228510Y-137164984D01*
X124276635Y-137155412D01*
X124325466Y-137150602D01*
X124350000Y-137150602D01*
X124350000Y-137150000D01*
X124850000Y-137150000D01*
X124850000Y-138650000D01*
G37*
G36*
X125650000Y-137150602D02*
G01*
X125674534Y-137150602D01*
X125723365Y-137155412D01*
X125771490Y-137164984D01*
X125818445Y-137179228D01*
X125863778Y-137198005D01*
X125907051Y-137221136D01*
X125947850Y-137248396D01*
X125985779Y-137279524D01*
X126020476Y-137314221D01*
X126051604Y-137352150D01*
X126078864Y-137392949D01*
X126101995Y-137436222D01*
X126120772Y-137481555D01*
X126135016Y-137528510D01*
X126144588Y-137576635D01*
X126149398Y-137625466D01*
X126149398Y-137650000D01*
X126150000Y-137650000D01*
X126150000Y-138150000D01*
X126149398Y-138150000D01*
X126149398Y-138174534D01*
X126144588Y-138223365D01*
X126135016Y-138271490D01*
X126120772Y-138318445D01*
X126101995Y-138363778D01*
X126078864Y-138407051D01*
X126051604Y-138447850D01*
X126020476Y-138485779D01*
X125985779Y-138520476D01*
X125947850Y-138551604D01*
X125907051Y-138578864D01*
X125863778Y-138601995D01*
X125818445Y-138620772D01*
X125771490Y-138635016D01*
X125723365Y-138644588D01*
X125674534Y-138649398D01*
X125650000Y-138649398D01*
X125650000Y-138650000D01*
X125150000Y-138650000D01*
X125150000Y-137150000D01*
X125650000Y-137150000D01*
X125650000Y-137150602D01*
G37*
%TD*%
D16*
%TO.C,L1*%
X89000000Y-153500000D03*
X84000000Y-153500000D03*
%TD*%
%TO.C,L2*%
X99800000Y-144000000D03*
X99800000Y-139000000D03*
%TD*%
D10*
%TO.C,R1*%
X68500000Y-140000000D03*
D21*
X58340000Y-140000000D03*
%TD*%
D10*
%TO.C,R2*%
X79600000Y-140000000D03*
D21*
X71980000Y-140000000D03*
%TD*%
D10*
%TO.C,R4*%
X72000000Y-145000000D03*
D21*
X79620000Y-145000000D03*
%TD*%
%TO.C,R5*%
X119300000Y-138480000D03*
D10*
X119300000Y-146100000D03*
%TD*%
D22*
%TO.C,RV1*%
X97000000Y-155580000D03*
X97000000Y-153040000D03*
X97000000Y-150500000D03*
%TD*%
D17*
%TO.C,U1*%
X68000000Y-152600000D03*
D21*
X60380000Y-144980000D03*
X68000000Y-150060000D03*
X60380000Y-147520000D03*
X68000000Y-147520000D03*
X60380000Y-150060000D03*
X68000000Y-144980000D03*
X60380000Y-152600000D03*
%TD*%
D20*
%TO.C,C3*%
X87800000Y-139000000D03*
D19*
X87800000Y-144000000D03*
%TD*%
D20*
%TO.C,C4*%
X106400000Y-150500000D03*
D19*
X106400000Y-155500000D03*
%TD*%
%TO.C,C5*%
X111500000Y-145100000D03*
D20*
X111500000Y-140100000D03*
%TD*%
D19*
%TO.C,C6*%
X118000000Y-155500000D03*
D20*
X118000000Y-150500000D03*
%TD*%
D18*
%TO.C,H1*%
X47600000Y-156400000D03*
%TD*%
%TO.C,H2*%
X47600000Y-138600000D03*
%TD*%
%TO.C,H3*%
X131000000Y-138600000D03*
%TD*%
%TO.C,H4*%
X131000000Y-156400000D03*
%TD*%
D17*
%TO.C,C1*%
X53800000Y-151300000D03*
D10*
X53800000Y-154800000D03*
%TD*%
D23*
%TO.C,Q1*%
X126000000Y-143400000D03*
D24*
X126000000Y-140860000D03*
X126000000Y-142130000D03*
%TD*%
M02*
