%TF.GenerationSoftware,KiCad,Pcbnew,(5.1.12)-1*%
%TF.CreationDate,2022-12-12T11:45:01+01:00*%
%TF.ProjectId,MC34063_boost,4d433334-3036-4335-9f62-6f6f73742e6b,rev?*%
%TF.SameCoordinates,Original*%
%TF.FileFunction,Copper,L2,Bot*%
%TF.FilePolarity,Positive*%
%FSLAX46Y46*%
G04 Gerber Fmt 4.6, Leading zero omitted, Abs format (unit mm)*
G04 Created by KiCad (PCBNEW (5.1.12)-1) date 2022-12-12 11:45:01*
%MOMM*%
%LPD*%
G01*
G04 APERTURE LIST*
%TA.AperFunction,ComponentPad*%
%ADD10C,1.600000*%
%TD*%
%TA.AperFunction,ComponentPad*%
%ADD11R,1.800000X1.800000*%
%TD*%
%TA.AperFunction,ComponentPad*%
%ADD12O,1.800000X1.800000*%
%TD*%
%TA.AperFunction,ComponentPad*%
%ADD13C,2.600000*%
%TD*%
%TA.AperFunction,ComponentPad*%
%ADD14R,2.600000X2.600000*%
%TD*%
%TA.AperFunction,ComponentPad*%
%ADD15C,2.400000*%
%TD*%
%TA.AperFunction,ComponentPad*%
%ADD16O,1.500000X1.050000*%
%TD*%
%TA.AperFunction,ComponentPad*%
%ADD17R,1.500000X1.050000*%
%TD*%
%TA.AperFunction,ComponentPad*%
%ADD18O,1.600000X1.600000*%
%TD*%
%TA.AperFunction,ComponentPad*%
%ADD19C,1.440000*%
%TD*%
%TA.AperFunction,ComponentPad*%
%ADD20R,1.600000X1.600000*%
%TD*%
%TA.AperFunction,ComponentPad*%
%ADD21R,2.000000X2.000000*%
%TD*%
%TA.AperFunction,ComponentPad*%
%ADD22C,2.000000*%
%TD*%
%TA.AperFunction,Conductor*%
%ADD23C,0.254000*%
%TD*%
%TA.AperFunction,Conductor*%
%ADD24C,0.100000*%
%TD*%
G04 APERTURE END LIST*
D10*
%TO.P,C2,1*%
%TO.N,Net-(C2-Pad1)*%
X72400000Y-78800000D03*
%TO.P,C2,2*%
%TO.N,GND*%
X72400000Y-73800000D03*
%TD*%
D11*
%TO.P,D1,1*%
%TO.N,Net-(C3-Pad1)*%
X77800000Y-80000000D03*
D12*
%TO.P,D1,2*%
%TO.N,Net-(D1-Pad2)*%
X77800000Y-72380000D03*
%TD*%
D13*
%TO.P,J1,2*%
%TO.N,GND*%
X52500000Y-63700000D03*
D14*
%TO.P,J1,1*%
%TO.N,Net-(C1-Pad1)*%
X52500000Y-68700000D03*
%TD*%
%TO.P,J2,1*%
%TO.N,Net-(C6-Pad1)*%
X127800000Y-70900000D03*
D13*
%TO.P,J2,2*%
%TO.N,GND*%
X127800000Y-75900000D03*
%TD*%
D15*
%TO.P,L1,1*%
%TO.N,Net-(L1-Pad1)*%
X84000000Y-77000000D03*
%TO.P,L1,2*%
%TO.N,Net-(D1-Pad2)*%
X89000000Y-77000000D03*
%TD*%
%TO.P,L2,2*%
%TO.N,Net-(C4-Pad1)*%
X99800000Y-67000000D03*
%TO.P,L2,1*%
%TO.N,Net-(C3-Pad1)*%
X99800000Y-62000000D03*
%TD*%
D16*
%TO.P,Q1,2*%
%TO.N,Net-(C5-Pad1)*%
X126000000Y-65130000D03*
%TO.P,Q1,3*%
%TO.N,Net-(C4-Pad1)*%
X126000000Y-63860000D03*
D17*
%TO.P,Q1,1*%
%TO.N,Net-(C6-Pad1)*%
X126000000Y-66400000D03*
%TD*%
D10*
%TO.P,R1,1*%
%TO.N,Net-(L1-Pad1)*%
X68500000Y-63000000D03*
D18*
%TO.P,R1,2*%
%TO.N,Net-(C1-Pad1)*%
X58340000Y-63000000D03*
%TD*%
D10*
%TO.P,R2,1*%
%TO.N,GND*%
X79600000Y-63000000D03*
D18*
%TO.P,R2,2*%
%TO.N,Net-(R2-Pad2)*%
X71980000Y-63000000D03*
%TD*%
%TO.P,R3,2*%
%TO.N,Net-(L1-Pad1)*%
X67620000Y-79600000D03*
D10*
%TO.P,R3,1*%
%TO.N,Net-(R3-Pad1)*%
X60000000Y-79600000D03*
%TD*%
%TO.P,R4,1*%
%TO.N,Net-(R2-Pad2)*%
X72000000Y-68000000D03*
D18*
%TO.P,R4,2*%
%TO.N,Net-(R4-Pad2)*%
X79620000Y-68000000D03*
%TD*%
%TO.P,R5,2*%
%TO.N,Net-(C4-Pad1)*%
X119300000Y-61480000D03*
D10*
%TO.P,R5,1*%
%TO.N,Net-(C5-Pad1)*%
X119300000Y-69100000D03*
%TD*%
D19*
%TO.P,RV1,1*%
%TO.N,Net-(R4-Pad2)*%
X97000000Y-74000000D03*
%TO.P,RV1,2*%
%TO.N,Net-(C3-Pad1)*%
X97000000Y-76540000D03*
%TO.P,RV1,3*%
%TO.N,N/C*%
X97000000Y-79080000D03*
%TD*%
D20*
%TO.P,U1,1*%
%TO.N,Net-(D1-Pad2)*%
X67600000Y-75600000D03*
D18*
%TO.P,U1,5*%
%TO.N,Net-(R2-Pad2)*%
X59980000Y-67980000D03*
%TO.P,U1,2*%
%TO.N,GND*%
X67600000Y-73060000D03*
%TO.P,U1,6*%
%TO.N,Net-(C1-Pad1)*%
X59980000Y-70520000D03*
%TO.P,U1,3*%
%TO.N,Net-(C2-Pad1)*%
X67600000Y-70520000D03*
%TO.P,U1,7*%
%TO.N,Net-(L1-Pad1)*%
X59980000Y-73060000D03*
%TO.P,U1,4*%
%TO.N,GND*%
X67600000Y-67980000D03*
%TO.P,U1,8*%
%TO.N,Net-(R3-Pad1)*%
X59980000Y-75600000D03*
%TD*%
D21*
%TO.P,C3,1*%
%TO.N,Net-(C3-Pad1)*%
X87800000Y-62000000D03*
D22*
%TO.P,C3,2*%
%TO.N,GND*%
X87800000Y-67000000D03*
%TD*%
%TO.P,C4,2*%
%TO.N,GND*%
X106400000Y-79000000D03*
D21*
%TO.P,C4,1*%
%TO.N,Net-(C4-Pad1)*%
X106400000Y-74000000D03*
%TD*%
D22*
%TO.P,C5,2*%
%TO.N,GND*%
X111500000Y-68100000D03*
D21*
%TO.P,C5,1*%
%TO.N,Net-(C5-Pad1)*%
X111500000Y-63100000D03*
%TD*%
%TO.P,C6,1*%
%TO.N,Net-(C6-Pad1)*%
X118000000Y-74000000D03*
D22*
%TO.P,C6,2*%
%TO.N,GND*%
X118000000Y-79000000D03*
%TD*%
D20*
%TO.P,C1,1*%
%TO.N,Net-(C1-Pad1)*%
X53500000Y-74800000D03*
D10*
%TO.P,C1,2*%
%TO.N,GND*%
X53500000Y-78300000D03*
%TD*%
D23*
%TO.N,GND*%
X132915001Y-82315000D02*
X45685000Y-82315000D01*
X45685000Y-80229117D01*
X45865000Y-80229117D01*
X45865000Y-80570883D01*
X45931675Y-80906081D01*
X46062463Y-81221831D01*
X46252337Y-81505998D01*
X46494002Y-81747663D01*
X46778169Y-81937537D01*
X47093919Y-82068325D01*
X47429117Y-82135000D01*
X47770883Y-82135000D01*
X48106081Y-82068325D01*
X48421831Y-81937537D01*
X48705998Y-81747663D01*
X48947663Y-81505998D01*
X49137537Y-81221831D01*
X49268325Y-80906081D01*
X49335000Y-80570883D01*
X49335000Y-80229117D01*
X49268325Y-79893919D01*
X49137537Y-79578169D01*
X49057688Y-79458665D01*
X58565000Y-79458665D01*
X58565000Y-79741335D01*
X58620147Y-80018574D01*
X58728320Y-80279727D01*
X58885363Y-80514759D01*
X59085241Y-80714637D01*
X59320273Y-80871680D01*
X59581426Y-80979853D01*
X59858665Y-81035000D01*
X60141335Y-81035000D01*
X60418574Y-80979853D01*
X60679727Y-80871680D01*
X60914759Y-80714637D01*
X61114637Y-80514759D01*
X61271680Y-80279727D01*
X61379853Y-80018574D01*
X61435000Y-79741335D01*
X61435000Y-79458665D01*
X66185000Y-79458665D01*
X66185000Y-79741335D01*
X66240147Y-80018574D01*
X66348320Y-80279727D01*
X66505363Y-80514759D01*
X66705241Y-80714637D01*
X66940273Y-80871680D01*
X67201426Y-80979853D01*
X67478665Y-81035000D01*
X67761335Y-81035000D01*
X68038574Y-80979853D01*
X68299727Y-80871680D01*
X68534759Y-80714637D01*
X68734637Y-80514759D01*
X68891680Y-80279727D01*
X68999853Y-80018574D01*
X69055000Y-79741335D01*
X69055000Y-79458665D01*
X68999853Y-79181426D01*
X68891680Y-78920273D01*
X68734637Y-78685241D01*
X68708061Y-78658665D01*
X70965000Y-78658665D01*
X70965000Y-78941335D01*
X71020147Y-79218574D01*
X71128320Y-79479727D01*
X71285363Y-79714759D01*
X71485241Y-79914637D01*
X71720273Y-80071680D01*
X71981426Y-80179853D01*
X72258665Y-80235000D01*
X72541335Y-80235000D01*
X72818574Y-80179853D01*
X73079727Y-80071680D01*
X73314759Y-79914637D01*
X73514637Y-79714759D01*
X73671680Y-79479727D01*
X73779853Y-79218574D01*
X73803439Y-79100000D01*
X76261928Y-79100000D01*
X76261928Y-80900000D01*
X76274188Y-81024482D01*
X76310498Y-81144180D01*
X76369463Y-81254494D01*
X76448815Y-81351185D01*
X76545506Y-81430537D01*
X76655820Y-81489502D01*
X76775518Y-81525812D01*
X76900000Y-81538072D01*
X78700000Y-81538072D01*
X78824482Y-81525812D01*
X78944180Y-81489502D01*
X79054494Y-81430537D01*
X79151185Y-81351185D01*
X79230537Y-81254494D01*
X79289502Y-81144180D01*
X79325812Y-81024482D01*
X79338072Y-80900000D01*
X79338072Y-79100000D01*
X79325812Y-78975518D01*
X79289502Y-78855820D01*
X79230537Y-78745506D01*
X79151185Y-78648815D01*
X79054494Y-78569463D01*
X78944180Y-78510498D01*
X78824482Y-78474188D01*
X78700000Y-78461928D01*
X76900000Y-78461928D01*
X76775518Y-78474188D01*
X76655820Y-78510498D01*
X76545506Y-78569463D01*
X76448815Y-78648815D01*
X76369463Y-78745506D01*
X76310498Y-78855820D01*
X76274188Y-78975518D01*
X76261928Y-79100000D01*
X73803439Y-79100000D01*
X73835000Y-78941335D01*
X73835000Y-78658665D01*
X73779853Y-78381426D01*
X73671680Y-78120273D01*
X73514637Y-77885241D01*
X73314759Y-77685363D01*
X73079727Y-77528320D01*
X72818574Y-77420147D01*
X72541335Y-77365000D01*
X72258665Y-77365000D01*
X71981426Y-77420147D01*
X71720273Y-77528320D01*
X71485241Y-77685363D01*
X71285363Y-77885241D01*
X71128320Y-78120273D01*
X71020147Y-78381426D01*
X70965000Y-78658665D01*
X68708061Y-78658665D01*
X68534759Y-78485363D01*
X68299727Y-78328320D01*
X68038574Y-78220147D01*
X67761335Y-78165000D01*
X67478665Y-78165000D01*
X67201426Y-78220147D01*
X66940273Y-78328320D01*
X66705241Y-78485363D01*
X66505363Y-78685241D01*
X66348320Y-78920273D01*
X66240147Y-79181426D01*
X66185000Y-79458665D01*
X61435000Y-79458665D01*
X61379853Y-79181426D01*
X61271680Y-78920273D01*
X61114637Y-78685241D01*
X60914759Y-78485363D01*
X60679727Y-78328320D01*
X60418574Y-78220147D01*
X60141335Y-78165000D01*
X59858665Y-78165000D01*
X59581426Y-78220147D01*
X59320273Y-78328320D01*
X59085241Y-78485363D01*
X58885363Y-78685241D01*
X58728320Y-78920273D01*
X58620147Y-79181426D01*
X58565000Y-79458665D01*
X49057688Y-79458665D01*
X48947663Y-79294002D01*
X48766994Y-79113333D01*
X52866273Y-79113333D01*
X52956762Y-79263769D01*
X53155222Y-79351230D01*
X53366931Y-79398294D01*
X53583755Y-79403151D01*
X53797360Y-79365614D01*
X53999537Y-79287127D01*
X54043238Y-79263769D01*
X54133727Y-79113333D01*
X53500000Y-78479605D01*
X52866273Y-79113333D01*
X48766994Y-79113333D01*
X48705998Y-79052337D01*
X48421831Y-78862463D01*
X48106081Y-78731675D01*
X47770883Y-78665000D01*
X47429117Y-78665000D01*
X47093919Y-78731675D01*
X46778169Y-78862463D01*
X46494002Y-79052337D01*
X46252337Y-79294002D01*
X46062463Y-79578169D01*
X45931675Y-79893919D01*
X45865000Y-80229117D01*
X45685000Y-80229117D01*
X45685000Y-78383755D01*
X52396849Y-78383755D01*
X52434386Y-78597360D01*
X52512873Y-78799537D01*
X52536231Y-78843238D01*
X52686667Y-78933727D01*
X53320395Y-78300000D01*
X53679605Y-78300000D01*
X54313333Y-78933727D01*
X54463769Y-78843238D01*
X54551230Y-78644778D01*
X54598294Y-78433069D01*
X54603151Y-78216245D01*
X54565614Y-78002640D01*
X54487127Y-77800463D01*
X54463769Y-77756762D01*
X54313333Y-77666273D01*
X53679605Y-78300000D01*
X53320395Y-78300000D01*
X52686667Y-77666273D01*
X52536231Y-77756762D01*
X52448770Y-77955222D01*
X52401706Y-78166931D01*
X52396849Y-78383755D01*
X45685000Y-78383755D01*
X45685000Y-77486667D01*
X52866273Y-77486667D01*
X53500000Y-78120395D01*
X54133727Y-77486667D01*
X54043238Y-77336231D01*
X53844778Y-77248770D01*
X53633069Y-77201706D01*
X53416245Y-77196849D01*
X53202640Y-77234386D01*
X53000463Y-77312873D01*
X52956762Y-77336231D01*
X52866273Y-77486667D01*
X45685000Y-77486667D01*
X45685000Y-74000000D01*
X52061928Y-74000000D01*
X52061928Y-75600000D01*
X52074188Y-75724482D01*
X52110498Y-75844180D01*
X52169463Y-75954494D01*
X52248815Y-76051185D01*
X52345506Y-76130537D01*
X52455820Y-76189502D01*
X52575518Y-76225812D01*
X52700000Y-76238072D01*
X54300000Y-76238072D01*
X54424482Y-76225812D01*
X54544180Y-76189502D01*
X54654494Y-76130537D01*
X54751185Y-76051185D01*
X54830537Y-75954494D01*
X54889502Y-75844180D01*
X54925812Y-75724482D01*
X54938072Y-75600000D01*
X54938072Y-74000000D01*
X54925812Y-73875518D01*
X54889502Y-73755820D01*
X54830537Y-73645506D01*
X54751185Y-73548815D01*
X54654494Y-73469463D01*
X54544180Y-73410498D01*
X54424482Y-73374188D01*
X54300000Y-73361928D01*
X52700000Y-73361928D01*
X52575518Y-73374188D01*
X52455820Y-73410498D01*
X52345506Y-73469463D01*
X52248815Y-73548815D01*
X52169463Y-73645506D01*
X52110498Y-73755820D01*
X52074188Y-73875518D01*
X52061928Y-74000000D01*
X45685000Y-74000000D01*
X45685000Y-67400000D01*
X50561928Y-67400000D01*
X50561928Y-70000000D01*
X50574188Y-70124482D01*
X50610498Y-70244180D01*
X50669463Y-70354494D01*
X50748815Y-70451185D01*
X50845506Y-70530537D01*
X50955820Y-70589502D01*
X51075518Y-70625812D01*
X51200000Y-70638072D01*
X53800000Y-70638072D01*
X53924482Y-70625812D01*
X54044180Y-70589502D01*
X54154494Y-70530537D01*
X54251185Y-70451185D01*
X54330537Y-70354494D01*
X54389502Y-70244180D01*
X54425812Y-70124482D01*
X54438072Y-70000000D01*
X54438072Y-67838665D01*
X58545000Y-67838665D01*
X58545000Y-68121335D01*
X58600147Y-68398574D01*
X58708320Y-68659727D01*
X58865363Y-68894759D01*
X59065241Y-69094637D01*
X59297759Y-69250000D01*
X59065241Y-69405363D01*
X58865363Y-69605241D01*
X58708320Y-69840273D01*
X58600147Y-70101426D01*
X58545000Y-70378665D01*
X58545000Y-70661335D01*
X58600147Y-70938574D01*
X58708320Y-71199727D01*
X58865363Y-71434759D01*
X59065241Y-71634637D01*
X59297759Y-71790000D01*
X59065241Y-71945363D01*
X58865363Y-72145241D01*
X58708320Y-72380273D01*
X58600147Y-72641426D01*
X58545000Y-72918665D01*
X58545000Y-73201335D01*
X58600147Y-73478574D01*
X58708320Y-73739727D01*
X58865363Y-73974759D01*
X59065241Y-74174637D01*
X59297759Y-74330000D01*
X59065241Y-74485363D01*
X58865363Y-74685241D01*
X58708320Y-74920273D01*
X58600147Y-75181426D01*
X58545000Y-75458665D01*
X58545000Y-75741335D01*
X58600147Y-76018574D01*
X58708320Y-76279727D01*
X58865363Y-76514759D01*
X59065241Y-76714637D01*
X59300273Y-76871680D01*
X59561426Y-76979853D01*
X59838665Y-77035000D01*
X60121335Y-77035000D01*
X60398574Y-76979853D01*
X60659727Y-76871680D01*
X60894759Y-76714637D01*
X61094637Y-76514759D01*
X61251680Y-76279727D01*
X61359853Y-76018574D01*
X61415000Y-75741335D01*
X61415000Y-75458665D01*
X61359853Y-75181426D01*
X61251680Y-74920273D01*
X61171317Y-74800000D01*
X66161928Y-74800000D01*
X66161928Y-76400000D01*
X66174188Y-76524482D01*
X66210498Y-76644180D01*
X66269463Y-76754494D01*
X66348815Y-76851185D01*
X66445506Y-76930537D01*
X66555820Y-76989502D01*
X66675518Y-77025812D01*
X66800000Y-77038072D01*
X68400000Y-77038072D01*
X68524482Y-77025812D01*
X68644180Y-76989502D01*
X68754494Y-76930537D01*
X68851185Y-76851185D01*
X68877378Y-76819268D01*
X82165000Y-76819268D01*
X82165000Y-77180732D01*
X82235518Y-77535250D01*
X82373844Y-77869199D01*
X82574662Y-78169744D01*
X82830256Y-78425338D01*
X83130801Y-78626156D01*
X83464750Y-78764482D01*
X83819268Y-78835000D01*
X84180732Y-78835000D01*
X84535250Y-78764482D01*
X84869199Y-78626156D01*
X85169744Y-78425338D01*
X85425338Y-78169744D01*
X85626156Y-77869199D01*
X85764482Y-77535250D01*
X85835000Y-77180732D01*
X85835000Y-76819268D01*
X87165000Y-76819268D01*
X87165000Y-77180732D01*
X87235518Y-77535250D01*
X87373844Y-77869199D01*
X87574662Y-78169744D01*
X87830256Y-78425338D01*
X88130801Y-78626156D01*
X88464750Y-78764482D01*
X88819268Y-78835000D01*
X89180732Y-78835000D01*
X89535250Y-78764482D01*
X89869199Y-78626156D01*
X90169744Y-78425338D01*
X90425338Y-78169744D01*
X90626156Y-77869199D01*
X90764482Y-77535250D01*
X90835000Y-77180732D01*
X90835000Y-76819268D01*
X90764482Y-76464750D01*
X90626156Y-76130801D01*
X90425338Y-75830256D01*
X90169744Y-75574662D01*
X89869199Y-75373844D01*
X89535250Y-75235518D01*
X89180732Y-75165000D01*
X88819268Y-75165000D01*
X88464750Y-75235518D01*
X88130801Y-75373844D01*
X87830256Y-75574662D01*
X87574662Y-75830256D01*
X87373844Y-76130801D01*
X87235518Y-76464750D01*
X87165000Y-76819268D01*
X85835000Y-76819268D01*
X85764482Y-76464750D01*
X85626156Y-76130801D01*
X85425338Y-75830256D01*
X85169744Y-75574662D01*
X84869199Y-75373844D01*
X84535250Y-75235518D01*
X84180732Y-75165000D01*
X83819268Y-75165000D01*
X83464750Y-75235518D01*
X83130801Y-75373844D01*
X82830256Y-75574662D01*
X82574662Y-75830256D01*
X82373844Y-76130801D01*
X82235518Y-76464750D01*
X82165000Y-76819268D01*
X68877378Y-76819268D01*
X68930537Y-76754494D01*
X68989502Y-76644180D01*
X69025812Y-76524482D01*
X69038072Y-76400000D01*
X69038072Y-74800000D01*
X69025812Y-74675518D01*
X69006949Y-74613333D01*
X71766273Y-74613333D01*
X71856762Y-74763769D01*
X72055222Y-74851230D01*
X72266931Y-74898294D01*
X72483755Y-74903151D01*
X72697360Y-74865614D01*
X72899537Y-74787127D01*
X72943238Y-74763769D01*
X73033727Y-74613333D01*
X72400000Y-73979605D01*
X71766273Y-74613333D01*
X69006949Y-74613333D01*
X68989502Y-74555820D01*
X68930537Y-74445506D01*
X68851185Y-74348815D01*
X68754494Y-74269463D01*
X68644180Y-74210498D01*
X68524482Y-74174188D01*
X68400000Y-74161928D01*
X66800000Y-74161928D01*
X66675518Y-74174188D01*
X66555820Y-74210498D01*
X66445506Y-74269463D01*
X66348815Y-74348815D01*
X66269463Y-74445506D01*
X66210498Y-74555820D01*
X66174188Y-74675518D01*
X66161928Y-74800000D01*
X61171317Y-74800000D01*
X61094637Y-74685241D01*
X60894759Y-74485363D01*
X60662241Y-74330000D01*
X60894759Y-74174637D01*
X61094637Y-73974759D01*
X61251680Y-73739727D01*
X61359853Y-73478574D01*
X61384131Y-73356521D01*
X66539681Y-73356521D01*
X66553632Y-73402536D01*
X66640563Y-73600091D01*
X66764365Y-73776890D01*
X66920280Y-73926139D01*
X67102316Y-74042103D01*
X67303478Y-74120325D01*
X67473000Y-74078407D01*
X67473000Y-73187000D01*
X67727000Y-73187000D01*
X67727000Y-74078407D01*
X67896522Y-74120325D01*
X68097684Y-74042103D01*
X68279720Y-73926139D01*
X68323997Y-73883755D01*
X71296849Y-73883755D01*
X71334386Y-74097360D01*
X71412873Y-74299537D01*
X71436231Y-74343238D01*
X71586667Y-74433727D01*
X72220395Y-73800000D01*
X72579605Y-73800000D01*
X73213333Y-74433727D01*
X73363769Y-74343238D01*
X73451230Y-74144778D01*
X73498294Y-73933069D01*
X73503151Y-73716245D01*
X73465614Y-73502640D01*
X73387127Y-73300463D01*
X73363769Y-73256762D01*
X73213333Y-73166273D01*
X72579605Y-73800000D01*
X72220395Y-73800000D01*
X71586667Y-73166273D01*
X71436231Y-73256762D01*
X71348770Y-73455222D01*
X71301706Y-73666931D01*
X71296849Y-73883755D01*
X68323997Y-73883755D01*
X68435635Y-73776890D01*
X68559437Y-73600091D01*
X68646368Y-73402536D01*
X68660319Y-73356521D01*
X68617858Y-73187000D01*
X67727000Y-73187000D01*
X67473000Y-73187000D01*
X66582142Y-73187000D01*
X66539681Y-73356521D01*
X61384131Y-73356521D01*
X61415000Y-73201335D01*
X61415000Y-72986667D01*
X71766273Y-72986667D01*
X72400000Y-73620395D01*
X73033727Y-72986667D01*
X72943238Y-72836231D01*
X72744778Y-72748770D01*
X72533069Y-72701706D01*
X72316245Y-72696849D01*
X72102640Y-72734386D01*
X71900463Y-72812873D01*
X71856762Y-72836231D01*
X71766273Y-72986667D01*
X61415000Y-72986667D01*
X61415000Y-72918665D01*
X61384132Y-72763479D01*
X66539681Y-72763479D01*
X66582142Y-72933000D01*
X67473000Y-72933000D01*
X67473000Y-72041593D01*
X67727000Y-72041593D01*
X67727000Y-72933000D01*
X68617858Y-72933000D01*
X68660319Y-72763479D01*
X68646368Y-72717464D01*
X68559437Y-72519909D01*
X68435635Y-72343110D01*
X68316237Y-72228816D01*
X76265000Y-72228816D01*
X76265000Y-72531184D01*
X76323989Y-72827743D01*
X76439701Y-73107095D01*
X76607688Y-73358505D01*
X76821495Y-73572312D01*
X77072905Y-73740299D01*
X77352257Y-73856011D01*
X77648816Y-73915000D01*
X77951184Y-73915000D01*
X78194789Y-73866544D01*
X95645000Y-73866544D01*
X95645000Y-74133456D01*
X95697072Y-74395239D01*
X95799215Y-74641833D01*
X95947503Y-74863762D01*
X96136238Y-75052497D01*
X96358167Y-75200785D01*
X96525266Y-75270000D01*
X96358167Y-75339215D01*
X96136238Y-75487503D01*
X95947503Y-75676238D01*
X95799215Y-75898167D01*
X95697072Y-76144761D01*
X95645000Y-76406544D01*
X95645000Y-76673456D01*
X95697072Y-76935239D01*
X95799215Y-77181833D01*
X95947503Y-77403762D01*
X96136238Y-77592497D01*
X96358167Y-77740785D01*
X96525266Y-77810000D01*
X96358167Y-77879215D01*
X96136238Y-78027503D01*
X95947503Y-78216238D01*
X95799215Y-78438167D01*
X95697072Y-78684761D01*
X95645000Y-78946544D01*
X95645000Y-79213456D01*
X95697072Y-79475239D01*
X95799215Y-79721833D01*
X95947503Y-79943762D01*
X96136238Y-80132497D01*
X96358167Y-80280785D01*
X96604761Y-80382928D01*
X96866544Y-80435000D01*
X97133456Y-80435000D01*
X97395239Y-80382928D01*
X97641833Y-80280785D01*
X97863762Y-80132497D01*
X98039910Y-79956349D01*
X105623256Y-79956349D01*
X105737971Y-80127270D01*
X105970611Y-80234765D01*
X106219752Y-80294809D01*
X106475820Y-80305094D01*
X106728975Y-80265225D01*
X106969487Y-80176735D01*
X107062029Y-80127270D01*
X107176744Y-79956349D01*
X117223256Y-79956349D01*
X117337971Y-80127270D01*
X117570611Y-80234765D01*
X117819752Y-80294809D01*
X118075820Y-80305094D01*
X118328975Y-80265225D01*
X118427114Y-80229117D01*
X129265000Y-80229117D01*
X129265000Y-80570883D01*
X129331675Y-80906081D01*
X129462463Y-81221831D01*
X129652337Y-81505998D01*
X129894002Y-81747663D01*
X130178169Y-81937537D01*
X130493919Y-82068325D01*
X130829117Y-82135000D01*
X131170883Y-82135000D01*
X131506081Y-82068325D01*
X131821831Y-81937537D01*
X132105998Y-81747663D01*
X132347663Y-81505998D01*
X132537537Y-81221831D01*
X132668325Y-80906081D01*
X132735000Y-80570883D01*
X132735000Y-80229117D01*
X132668325Y-79893919D01*
X132537537Y-79578169D01*
X132347663Y-79294002D01*
X132105998Y-79052337D01*
X131821831Y-78862463D01*
X131506081Y-78731675D01*
X131170883Y-78665000D01*
X130829117Y-78665000D01*
X130493919Y-78731675D01*
X130178169Y-78862463D01*
X129894002Y-79052337D01*
X129652337Y-79294002D01*
X129462463Y-79578169D01*
X129331675Y-79893919D01*
X129265000Y-80229117D01*
X118427114Y-80229117D01*
X118569487Y-80176735D01*
X118662029Y-80127270D01*
X118776744Y-79956349D01*
X118000000Y-79179605D01*
X117223256Y-79956349D01*
X107176744Y-79956349D01*
X106400000Y-79179605D01*
X105623256Y-79956349D01*
X98039910Y-79956349D01*
X98052497Y-79943762D01*
X98200785Y-79721833D01*
X98302928Y-79475239D01*
X98355000Y-79213456D01*
X98355000Y-79075820D01*
X105094906Y-79075820D01*
X105134775Y-79328975D01*
X105223265Y-79569487D01*
X105272730Y-79662029D01*
X105443651Y-79776744D01*
X106220395Y-79000000D01*
X106579605Y-79000000D01*
X107356349Y-79776744D01*
X107527270Y-79662029D01*
X107634765Y-79429389D01*
X107694809Y-79180248D01*
X107699003Y-79075820D01*
X116694906Y-79075820D01*
X116734775Y-79328975D01*
X116823265Y-79569487D01*
X116872730Y-79662029D01*
X117043651Y-79776744D01*
X117820395Y-79000000D01*
X118179605Y-79000000D01*
X118956349Y-79776744D01*
X119127270Y-79662029D01*
X119234765Y-79429389D01*
X119294809Y-79180248D01*
X119305094Y-78924180D01*
X119265225Y-78671025D01*
X119176735Y-78430513D01*
X119127270Y-78337971D01*
X118956349Y-78223256D01*
X118179605Y-79000000D01*
X117820395Y-79000000D01*
X117043651Y-78223256D01*
X116872730Y-78337971D01*
X116765235Y-78570611D01*
X116705191Y-78819752D01*
X116694906Y-79075820D01*
X107699003Y-79075820D01*
X107705094Y-78924180D01*
X107665225Y-78671025D01*
X107576735Y-78430513D01*
X107527270Y-78337971D01*
X107356349Y-78223256D01*
X106579605Y-79000000D01*
X106220395Y-79000000D01*
X105443651Y-78223256D01*
X105272730Y-78337971D01*
X105165235Y-78570611D01*
X105105191Y-78819752D01*
X105094906Y-79075820D01*
X98355000Y-79075820D01*
X98355000Y-78946544D01*
X98302928Y-78684761D01*
X98200785Y-78438167D01*
X98052497Y-78216238D01*
X97879910Y-78043651D01*
X105623256Y-78043651D01*
X106400000Y-78820395D01*
X107176744Y-78043651D01*
X117223256Y-78043651D01*
X118000000Y-78820395D01*
X118776744Y-78043651D01*
X118662029Y-77872730D01*
X118429389Y-77765235D01*
X118180248Y-77705191D01*
X117924180Y-77694906D01*
X117671025Y-77734775D01*
X117430513Y-77823265D01*
X117337971Y-77872730D01*
X117223256Y-78043651D01*
X107176744Y-78043651D01*
X107062029Y-77872730D01*
X106829389Y-77765235D01*
X106580248Y-77705191D01*
X106324180Y-77694906D01*
X106071025Y-77734775D01*
X105830513Y-77823265D01*
X105737971Y-77872730D01*
X105623256Y-78043651D01*
X97879910Y-78043651D01*
X97863762Y-78027503D01*
X97641833Y-77879215D01*
X97474734Y-77810000D01*
X97641833Y-77740785D01*
X97863762Y-77592497D01*
X98052497Y-77403762D01*
X98200785Y-77181833D01*
X98246932Y-77070424D01*
X126809181Y-77070424D01*
X126960099Y-77272090D01*
X127243918Y-77409582D01*
X127549109Y-77489063D01*
X127863941Y-77507476D01*
X128176315Y-77464115D01*
X128474228Y-77360645D01*
X128639901Y-77272090D01*
X128790819Y-77070424D01*
X127800000Y-76079605D01*
X126809181Y-77070424D01*
X98246932Y-77070424D01*
X98302928Y-76935239D01*
X98355000Y-76673456D01*
X98355000Y-76406544D01*
X98302928Y-76144761D01*
X98228030Y-75963941D01*
X126192524Y-75963941D01*
X126235885Y-76276315D01*
X126339355Y-76574228D01*
X126427910Y-76739901D01*
X126629576Y-76890819D01*
X127620395Y-75900000D01*
X127979605Y-75900000D01*
X128970424Y-76890819D01*
X129172090Y-76739901D01*
X129309582Y-76456082D01*
X129389063Y-76150891D01*
X129407476Y-75836059D01*
X129364115Y-75523685D01*
X129260645Y-75225772D01*
X129172090Y-75060099D01*
X128970424Y-74909181D01*
X127979605Y-75900000D01*
X127620395Y-75900000D01*
X126629576Y-74909181D01*
X126427910Y-75060099D01*
X126290418Y-75343918D01*
X126210937Y-75649109D01*
X126192524Y-75963941D01*
X98228030Y-75963941D01*
X98200785Y-75898167D01*
X98052497Y-75676238D01*
X97863762Y-75487503D01*
X97641833Y-75339215D01*
X97474734Y-75270000D01*
X97641833Y-75200785D01*
X97863762Y-75052497D01*
X98052497Y-74863762D01*
X98200785Y-74641833D01*
X98302928Y-74395239D01*
X98355000Y-74133456D01*
X98355000Y-73866544D01*
X98302928Y-73604761D01*
X98200785Y-73358167D01*
X98052497Y-73136238D01*
X97916259Y-73000000D01*
X104761928Y-73000000D01*
X104761928Y-75000000D01*
X104774188Y-75124482D01*
X104810498Y-75244180D01*
X104869463Y-75354494D01*
X104948815Y-75451185D01*
X105045506Y-75530537D01*
X105155820Y-75589502D01*
X105275518Y-75625812D01*
X105400000Y-75638072D01*
X107400000Y-75638072D01*
X107524482Y-75625812D01*
X107644180Y-75589502D01*
X107754494Y-75530537D01*
X107851185Y-75451185D01*
X107930537Y-75354494D01*
X107989502Y-75244180D01*
X108025812Y-75124482D01*
X108038072Y-75000000D01*
X108038072Y-73000000D01*
X116361928Y-73000000D01*
X116361928Y-75000000D01*
X116374188Y-75124482D01*
X116410498Y-75244180D01*
X116469463Y-75354494D01*
X116548815Y-75451185D01*
X116645506Y-75530537D01*
X116755820Y-75589502D01*
X116875518Y-75625812D01*
X117000000Y-75638072D01*
X119000000Y-75638072D01*
X119124482Y-75625812D01*
X119244180Y-75589502D01*
X119354494Y-75530537D01*
X119451185Y-75451185D01*
X119530537Y-75354494D01*
X119589502Y-75244180D01*
X119625812Y-75124482D01*
X119638072Y-75000000D01*
X119638072Y-74729576D01*
X126809181Y-74729576D01*
X127800000Y-75720395D01*
X128790819Y-74729576D01*
X128639901Y-74527910D01*
X128356082Y-74390418D01*
X128050891Y-74310937D01*
X127736059Y-74292524D01*
X127423685Y-74335885D01*
X127125772Y-74439355D01*
X126960099Y-74527910D01*
X126809181Y-74729576D01*
X119638072Y-74729576D01*
X119638072Y-73000000D01*
X119625812Y-72875518D01*
X119589502Y-72755820D01*
X119530537Y-72645506D01*
X119451185Y-72548815D01*
X119354494Y-72469463D01*
X119244180Y-72410498D01*
X119124482Y-72374188D01*
X119000000Y-72361928D01*
X117000000Y-72361928D01*
X116875518Y-72374188D01*
X116755820Y-72410498D01*
X116645506Y-72469463D01*
X116548815Y-72548815D01*
X116469463Y-72645506D01*
X116410498Y-72755820D01*
X116374188Y-72875518D01*
X116361928Y-73000000D01*
X108038072Y-73000000D01*
X108025812Y-72875518D01*
X107989502Y-72755820D01*
X107930537Y-72645506D01*
X107851185Y-72548815D01*
X107754494Y-72469463D01*
X107644180Y-72410498D01*
X107524482Y-72374188D01*
X107400000Y-72361928D01*
X105400000Y-72361928D01*
X105275518Y-72374188D01*
X105155820Y-72410498D01*
X105045506Y-72469463D01*
X104948815Y-72548815D01*
X104869463Y-72645506D01*
X104810498Y-72755820D01*
X104774188Y-72875518D01*
X104761928Y-73000000D01*
X97916259Y-73000000D01*
X97863762Y-72947503D01*
X97641833Y-72799215D01*
X97395239Y-72697072D01*
X97133456Y-72645000D01*
X96866544Y-72645000D01*
X96604761Y-72697072D01*
X96358167Y-72799215D01*
X96136238Y-72947503D01*
X95947503Y-73136238D01*
X95799215Y-73358167D01*
X95697072Y-73604761D01*
X95645000Y-73866544D01*
X78194789Y-73866544D01*
X78247743Y-73856011D01*
X78527095Y-73740299D01*
X78778505Y-73572312D01*
X78992312Y-73358505D01*
X79160299Y-73107095D01*
X79276011Y-72827743D01*
X79335000Y-72531184D01*
X79335000Y-72228816D01*
X79276011Y-71932257D01*
X79160299Y-71652905D01*
X78992312Y-71401495D01*
X78778505Y-71187688D01*
X78527095Y-71019701D01*
X78247743Y-70903989D01*
X77951184Y-70845000D01*
X77648816Y-70845000D01*
X77352257Y-70903989D01*
X77072905Y-71019701D01*
X76821495Y-71187688D01*
X76607688Y-71401495D01*
X76439701Y-71652905D01*
X76323989Y-71932257D01*
X76265000Y-72228816D01*
X68316237Y-72228816D01*
X68279720Y-72193861D01*
X68097684Y-72077897D01*
X67896522Y-71999675D01*
X67727000Y-72041593D01*
X67473000Y-72041593D01*
X67303478Y-71999675D01*
X67102316Y-72077897D01*
X66920280Y-72193861D01*
X66764365Y-72343110D01*
X66640563Y-72519909D01*
X66553632Y-72717464D01*
X66539681Y-72763479D01*
X61384132Y-72763479D01*
X61359853Y-72641426D01*
X61251680Y-72380273D01*
X61094637Y-72145241D01*
X60894759Y-71945363D01*
X60662241Y-71790000D01*
X60894759Y-71634637D01*
X61094637Y-71434759D01*
X61251680Y-71199727D01*
X61359853Y-70938574D01*
X61415000Y-70661335D01*
X61415000Y-70378665D01*
X66165000Y-70378665D01*
X66165000Y-70661335D01*
X66220147Y-70938574D01*
X66328320Y-71199727D01*
X66485363Y-71434759D01*
X66685241Y-71634637D01*
X66920273Y-71791680D01*
X67181426Y-71899853D01*
X67458665Y-71955000D01*
X67741335Y-71955000D01*
X68018574Y-71899853D01*
X68279727Y-71791680D01*
X68514759Y-71634637D01*
X68714637Y-71434759D01*
X68871680Y-71199727D01*
X68979853Y-70938574D01*
X69035000Y-70661335D01*
X69035000Y-70378665D01*
X68979853Y-70101426D01*
X68871680Y-69840273D01*
X68714637Y-69605241D01*
X68514759Y-69405363D01*
X68279727Y-69248320D01*
X68018574Y-69140147D01*
X67741335Y-69085000D01*
X67458665Y-69085000D01*
X67181426Y-69140147D01*
X66920273Y-69248320D01*
X66685241Y-69405363D01*
X66485363Y-69605241D01*
X66328320Y-69840273D01*
X66220147Y-70101426D01*
X66165000Y-70378665D01*
X61415000Y-70378665D01*
X61359853Y-70101426D01*
X61251680Y-69840273D01*
X61094637Y-69605241D01*
X60894759Y-69405363D01*
X60662241Y-69250000D01*
X60894759Y-69094637D01*
X61094637Y-68894759D01*
X61251680Y-68659727D01*
X61359853Y-68398574D01*
X61384131Y-68276521D01*
X66539681Y-68276521D01*
X66553632Y-68322536D01*
X66640563Y-68520091D01*
X66764365Y-68696890D01*
X66920280Y-68846139D01*
X67102316Y-68962103D01*
X67303478Y-69040325D01*
X67473000Y-68998407D01*
X67473000Y-68107000D01*
X67727000Y-68107000D01*
X67727000Y-68998407D01*
X67896522Y-69040325D01*
X68097684Y-68962103D01*
X68279720Y-68846139D01*
X68435635Y-68696890D01*
X68559437Y-68520091D01*
X68646368Y-68322536D01*
X68660319Y-68276521D01*
X68617858Y-68107000D01*
X67727000Y-68107000D01*
X67473000Y-68107000D01*
X66582142Y-68107000D01*
X66539681Y-68276521D01*
X61384131Y-68276521D01*
X61415000Y-68121335D01*
X61415000Y-67858665D01*
X70565000Y-67858665D01*
X70565000Y-68141335D01*
X70620147Y-68418574D01*
X70728320Y-68679727D01*
X70885363Y-68914759D01*
X71085241Y-69114637D01*
X71320273Y-69271680D01*
X71581426Y-69379853D01*
X71858665Y-69435000D01*
X72141335Y-69435000D01*
X72418574Y-69379853D01*
X72679727Y-69271680D01*
X72914759Y-69114637D01*
X73114637Y-68914759D01*
X73271680Y-68679727D01*
X73379853Y-68418574D01*
X73435000Y-68141335D01*
X73435000Y-67858665D01*
X78185000Y-67858665D01*
X78185000Y-68141335D01*
X78240147Y-68418574D01*
X78348320Y-68679727D01*
X78505363Y-68914759D01*
X78705241Y-69114637D01*
X78940273Y-69271680D01*
X79201426Y-69379853D01*
X79478665Y-69435000D01*
X79761335Y-69435000D01*
X80038574Y-69379853D01*
X80299727Y-69271680D01*
X80534759Y-69114637D01*
X80593047Y-69056349D01*
X110723256Y-69056349D01*
X110837971Y-69227270D01*
X111070611Y-69334765D01*
X111319752Y-69394809D01*
X111575820Y-69405094D01*
X111828975Y-69365225D01*
X112069487Y-69276735D01*
X112162029Y-69227270D01*
X112276744Y-69056349D01*
X112179060Y-68958665D01*
X117865000Y-68958665D01*
X117865000Y-69241335D01*
X117920147Y-69518574D01*
X118028320Y-69779727D01*
X118185363Y-70014759D01*
X118385241Y-70214637D01*
X118620273Y-70371680D01*
X118881426Y-70479853D01*
X119158665Y-70535000D01*
X119441335Y-70535000D01*
X119718574Y-70479853D01*
X119979727Y-70371680D01*
X120214759Y-70214637D01*
X120414637Y-70014759D01*
X120571680Y-69779727D01*
X120646125Y-69600000D01*
X125861928Y-69600000D01*
X125861928Y-72200000D01*
X125874188Y-72324482D01*
X125910498Y-72444180D01*
X125969463Y-72554494D01*
X126048815Y-72651185D01*
X126145506Y-72730537D01*
X126255820Y-72789502D01*
X126375518Y-72825812D01*
X126500000Y-72838072D01*
X129100000Y-72838072D01*
X129224482Y-72825812D01*
X129344180Y-72789502D01*
X129454494Y-72730537D01*
X129551185Y-72651185D01*
X129630537Y-72554494D01*
X129689502Y-72444180D01*
X129725812Y-72324482D01*
X129738072Y-72200000D01*
X129738072Y-69600000D01*
X129725812Y-69475518D01*
X129689502Y-69355820D01*
X129630537Y-69245506D01*
X129551185Y-69148815D01*
X129454494Y-69069463D01*
X129344180Y-69010498D01*
X129224482Y-68974188D01*
X129100000Y-68961928D01*
X126500000Y-68961928D01*
X126375518Y-68974188D01*
X126255820Y-69010498D01*
X126145506Y-69069463D01*
X126048815Y-69148815D01*
X125969463Y-69245506D01*
X125910498Y-69355820D01*
X125874188Y-69475518D01*
X125861928Y-69600000D01*
X120646125Y-69600000D01*
X120679853Y-69518574D01*
X120735000Y-69241335D01*
X120735000Y-68958665D01*
X120679853Y-68681426D01*
X120571680Y-68420273D01*
X120414637Y-68185241D01*
X120214759Y-67985363D01*
X119979727Y-67828320D01*
X119718574Y-67720147D01*
X119441335Y-67665000D01*
X119158665Y-67665000D01*
X118881426Y-67720147D01*
X118620273Y-67828320D01*
X118385241Y-67985363D01*
X118185363Y-68185241D01*
X118028320Y-68420273D01*
X117920147Y-68681426D01*
X117865000Y-68958665D01*
X112179060Y-68958665D01*
X111500000Y-68279605D01*
X110723256Y-69056349D01*
X80593047Y-69056349D01*
X80734637Y-68914759D01*
X80891680Y-68679727D01*
X80999853Y-68418574D01*
X81055000Y-68141335D01*
X81055000Y-67956349D01*
X87023256Y-67956349D01*
X87137971Y-68127270D01*
X87370611Y-68234765D01*
X87619752Y-68294809D01*
X87875820Y-68305094D01*
X88128975Y-68265225D01*
X88369487Y-68176735D01*
X88462029Y-68127270D01*
X88576744Y-67956349D01*
X87800000Y-67179605D01*
X87023256Y-67956349D01*
X81055000Y-67956349D01*
X81055000Y-67858665D01*
X80999853Y-67581426D01*
X80891680Y-67320273D01*
X80734637Y-67085241D01*
X80725216Y-67075820D01*
X86494906Y-67075820D01*
X86534775Y-67328975D01*
X86623265Y-67569487D01*
X86672730Y-67662029D01*
X86843651Y-67776744D01*
X87620395Y-67000000D01*
X87979605Y-67000000D01*
X88756349Y-67776744D01*
X88927270Y-67662029D01*
X89034765Y-67429389D01*
X89094809Y-67180248D01*
X89105094Y-66924180D01*
X89088572Y-66819268D01*
X97965000Y-66819268D01*
X97965000Y-67180732D01*
X98035518Y-67535250D01*
X98173844Y-67869199D01*
X98374662Y-68169744D01*
X98630256Y-68425338D01*
X98930801Y-68626156D01*
X99264750Y-68764482D01*
X99619268Y-68835000D01*
X99980732Y-68835000D01*
X100335250Y-68764482D01*
X100669199Y-68626156D01*
X100969744Y-68425338D01*
X101219262Y-68175820D01*
X110194906Y-68175820D01*
X110234775Y-68428975D01*
X110323265Y-68669487D01*
X110372730Y-68762029D01*
X110543651Y-68876744D01*
X111320395Y-68100000D01*
X111679605Y-68100000D01*
X112456349Y-68876744D01*
X112627270Y-68762029D01*
X112734765Y-68529389D01*
X112794809Y-68280248D01*
X112805094Y-68024180D01*
X112765225Y-67771025D01*
X112676735Y-67530513D01*
X112627270Y-67437971D01*
X112456349Y-67323256D01*
X111679605Y-68100000D01*
X111320395Y-68100000D01*
X110543651Y-67323256D01*
X110372730Y-67437971D01*
X110265235Y-67670611D01*
X110205191Y-67919752D01*
X110194906Y-68175820D01*
X101219262Y-68175820D01*
X101225338Y-68169744D01*
X101426156Y-67869199D01*
X101564482Y-67535250D01*
X101635000Y-67180732D01*
X101635000Y-67143651D01*
X110723256Y-67143651D01*
X111500000Y-67920395D01*
X112276744Y-67143651D01*
X112162029Y-66972730D01*
X111929389Y-66865235D01*
X111680248Y-66805191D01*
X111424180Y-66794906D01*
X111171025Y-66834775D01*
X110930513Y-66923265D01*
X110837971Y-66972730D01*
X110723256Y-67143651D01*
X101635000Y-67143651D01*
X101635000Y-66819268D01*
X101564482Y-66464750D01*
X101426156Y-66130801D01*
X101225338Y-65830256D01*
X100969744Y-65574662D01*
X100669199Y-65373844D01*
X100335250Y-65235518D01*
X99980732Y-65165000D01*
X99619268Y-65165000D01*
X99264750Y-65235518D01*
X98930801Y-65373844D01*
X98630256Y-65574662D01*
X98374662Y-65830256D01*
X98173844Y-66130801D01*
X98035518Y-66464750D01*
X97965000Y-66819268D01*
X89088572Y-66819268D01*
X89065225Y-66671025D01*
X88976735Y-66430513D01*
X88927270Y-66337971D01*
X88756349Y-66223256D01*
X87979605Y-67000000D01*
X87620395Y-67000000D01*
X86843651Y-66223256D01*
X86672730Y-66337971D01*
X86565235Y-66570611D01*
X86505191Y-66819752D01*
X86494906Y-67075820D01*
X80725216Y-67075820D01*
X80534759Y-66885363D01*
X80299727Y-66728320D01*
X80038574Y-66620147D01*
X79761335Y-66565000D01*
X79478665Y-66565000D01*
X79201426Y-66620147D01*
X78940273Y-66728320D01*
X78705241Y-66885363D01*
X78505363Y-67085241D01*
X78348320Y-67320273D01*
X78240147Y-67581426D01*
X78185000Y-67858665D01*
X73435000Y-67858665D01*
X73379853Y-67581426D01*
X73271680Y-67320273D01*
X73114637Y-67085241D01*
X72914759Y-66885363D01*
X72679727Y-66728320D01*
X72418574Y-66620147D01*
X72141335Y-66565000D01*
X71858665Y-66565000D01*
X71581426Y-66620147D01*
X71320273Y-66728320D01*
X71085241Y-66885363D01*
X70885363Y-67085241D01*
X70728320Y-67320273D01*
X70620147Y-67581426D01*
X70565000Y-67858665D01*
X61415000Y-67858665D01*
X61415000Y-67838665D01*
X61384132Y-67683479D01*
X66539681Y-67683479D01*
X66582142Y-67853000D01*
X67473000Y-67853000D01*
X67473000Y-66961593D01*
X67727000Y-66961593D01*
X67727000Y-67853000D01*
X68617858Y-67853000D01*
X68660319Y-67683479D01*
X68646368Y-67637464D01*
X68559437Y-67439909D01*
X68435635Y-67263110D01*
X68279720Y-67113861D01*
X68097684Y-66997897D01*
X67896522Y-66919675D01*
X67727000Y-66961593D01*
X67473000Y-66961593D01*
X67303478Y-66919675D01*
X67102316Y-66997897D01*
X66920280Y-67113861D01*
X66764365Y-67263110D01*
X66640563Y-67439909D01*
X66553632Y-67637464D01*
X66539681Y-67683479D01*
X61384132Y-67683479D01*
X61359853Y-67561426D01*
X61251680Y-67300273D01*
X61094637Y-67065241D01*
X60894759Y-66865363D01*
X60659727Y-66708320D01*
X60398574Y-66600147D01*
X60121335Y-66545000D01*
X59838665Y-66545000D01*
X59561426Y-66600147D01*
X59300273Y-66708320D01*
X59065241Y-66865363D01*
X58865363Y-67065241D01*
X58708320Y-67300273D01*
X58600147Y-67561426D01*
X58545000Y-67838665D01*
X54438072Y-67838665D01*
X54438072Y-67400000D01*
X54425812Y-67275518D01*
X54389502Y-67155820D01*
X54330537Y-67045506D01*
X54251185Y-66948815D01*
X54154494Y-66869463D01*
X54044180Y-66810498D01*
X53924482Y-66774188D01*
X53800000Y-66761928D01*
X51200000Y-66761928D01*
X51075518Y-66774188D01*
X50955820Y-66810498D01*
X50845506Y-66869463D01*
X50748815Y-66948815D01*
X50669463Y-67045506D01*
X50610498Y-67155820D01*
X50574188Y-67275518D01*
X50561928Y-67400000D01*
X45685000Y-67400000D01*
X45685000Y-66043651D01*
X87023256Y-66043651D01*
X87800000Y-66820395D01*
X88576744Y-66043651D01*
X88462029Y-65872730D01*
X88229389Y-65765235D01*
X87980248Y-65705191D01*
X87724180Y-65694906D01*
X87471025Y-65734775D01*
X87230513Y-65823265D01*
X87137971Y-65872730D01*
X87023256Y-66043651D01*
X45685000Y-66043651D01*
X45685000Y-64870424D01*
X51509181Y-64870424D01*
X51660099Y-65072090D01*
X51943918Y-65209582D01*
X52249109Y-65289063D01*
X52563941Y-65307476D01*
X52876315Y-65264115D01*
X53174228Y-65160645D01*
X53339901Y-65072090D01*
X53490819Y-64870424D01*
X52500000Y-63879605D01*
X51509181Y-64870424D01*
X45685000Y-64870424D01*
X45685000Y-63763941D01*
X50892524Y-63763941D01*
X50935885Y-64076315D01*
X51039355Y-64374228D01*
X51127910Y-64539901D01*
X51329576Y-64690819D01*
X52320395Y-63700000D01*
X52679605Y-63700000D01*
X53670424Y-64690819D01*
X53872090Y-64539901D01*
X54009582Y-64256082D01*
X54089063Y-63950891D01*
X54107476Y-63636059D01*
X54064115Y-63323685D01*
X53960645Y-63025772D01*
X53872090Y-62860099D01*
X53870174Y-62858665D01*
X56905000Y-62858665D01*
X56905000Y-63141335D01*
X56960147Y-63418574D01*
X57068320Y-63679727D01*
X57225363Y-63914759D01*
X57425241Y-64114637D01*
X57660273Y-64271680D01*
X57921426Y-64379853D01*
X58198665Y-64435000D01*
X58481335Y-64435000D01*
X58758574Y-64379853D01*
X59019727Y-64271680D01*
X59254759Y-64114637D01*
X59454637Y-63914759D01*
X59611680Y-63679727D01*
X59719853Y-63418574D01*
X59775000Y-63141335D01*
X59775000Y-62858665D01*
X67065000Y-62858665D01*
X67065000Y-63141335D01*
X67120147Y-63418574D01*
X67228320Y-63679727D01*
X67385363Y-63914759D01*
X67585241Y-64114637D01*
X67820273Y-64271680D01*
X68081426Y-64379853D01*
X68358665Y-64435000D01*
X68641335Y-64435000D01*
X68918574Y-64379853D01*
X69179727Y-64271680D01*
X69414759Y-64114637D01*
X69614637Y-63914759D01*
X69771680Y-63679727D01*
X69879853Y-63418574D01*
X69935000Y-63141335D01*
X69935000Y-62858665D01*
X70545000Y-62858665D01*
X70545000Y-63141335D01*
X70600147Y-63418574D01*
X70708320Y-63679727D01*
X70865363Y-63914759D01*
X71065241Y-64114637D01*
X71300273Y-64271680D01*
X71561426Y-64379853D01*
X71838665Y-64435000D01*
X72121335Y-64435000D01*
X72398574Y-64379853D01*
X72659727Y-64271680D01*
X72894759Y-64114637D01*
X73094637Y-63914759D01*
X73162407Y-63813333D01*
X78966273Y-63813333D01*
X79056762Y-63963769D01*
X79255222Y-64051230D01*
X79466931Y-64098294D01*
X79683755Y-64103151D01*
X79897360Y-64065614D01*
X80099537Y-63987127D01*
X80143238Y-63963769D01*
X80233727Y-63813333D01*
X79600000Y-63179605D01*
X78966273Y-63813333D01*
X73162407Y-63813333D01*
X73251680Y-63679727D01*
X73359853Y-63418574D01*
X73415000Y-63141335D01*
X73415000Y-63083755D01*
X78496849Y-63083755D01*
X78534386Y-63297360D01*
X78612873Y-63499537D01*
X78636231Y-63543238D01*
X78786667Y-63633727D01*
X79420395Y-63000000D01*
X79779605Y-63000000D01*
X80413333Y-63633727D01*
X80563769Y-63543238D01*
X80651230Y-63344778D01*
X80698294Y-63133069D01*
X80703151Y-62916245D01*
X80665614Y-62702640D01*
X80587127Y-62500463D01*
X80563769Y-62456762D01*
X80413333Y-62366273D01*
X79779605Y-63000000D01*
X79420395Y-63000000D01*
X78786667Y-62366273D01*
X78636231Y-62456762D01*
X78548770Y-62655222D01*
X78501706Y-62866931D01*
X78496849Y-63083755D01*
X73415000Y-63083755D01*
X73415000Y-62858665D01*
X73359853Y-62581426D01*
X73251680Y-62320273D01*
X73162408Y-62186667D01*
X78966273Y-62186667D01*
X79600000Y-62820395D01*
X80233727Y-62186667D01*
X80143238Y-62036231D01*
X79944778Y-61948770D01*
X79733069Y-61901706D01*
X79516245Y-61896849D01*
X79302640Y-61934386D01*
X79100463Y-62012873D01*
X79056762Y-62036231D01*
X78966273Y-62186667D01*
X73162408Y-62186667D01*
X73094637Y-62085241D01*
X72894759Y-61885363D01*
X72659727Y-61728320D01*
X72398574Y-61620147D01*
X72121335Y-61565000D01*
X71838665Y-61565000D01*
X71561426Y-61620147D01*
X71300273Y-61728320D01*
X71065241Y-61885363D01*
X70865363Y-62085241D01*
X70708320Y-62320273D01*
X70600147Y-62581426D01*
X70545000Y-62858665D01*
X69935000Y-62858665D01*
X69879853Y-62581426D01*
X69771680Y-62320273D01*
X69614637Y-62085241D01*
X69414759Y-61885363D01*
X69179727Y-61728320D01*
X68918574Y-61620147D01*
X68641335Y-61565000D01*
X68358665Y-61565000D01*
X68081426Y-61620147D01*
X67820273Y-61728320D01*
X67585241Y-61885363D01*
X67385363Y-62085241D01*
X67228320Y-62320273D01*
X67120147Y-62581426D01*
X67065000Y-62858665D01*
X59775000Y-62858665D01*
X59719853Y-62581426D01*
X59611680Y-62320273D01*
X59454637Y-62085241D01*
X59254759Y-61885363D01*
X59019727Y-61728320D01*
X58758574Y-61620147D01*
X58481335Y-61565000D01*
X58198665Y-61565000D01*
X57921426Y-61620147D01*
X57660273Y-61728320D01*
X57425241Y-61885363D01*
X57225363Y-62085241D01*
X57068320Y-62320273D01*
X56960147Y-62581426D01*
X56905000Y-62858665D01*
X53870174Y-62858665D01*
X53670424Y-62709181D01*
X52679605Y-63700000D01*
X52320395Y-63700000D01*
X51329576Y-62709181D01*
X51127910Y-62860099D01*
X50990418Y-63143918D01*
X50910937Y-63449109D01*
X50892524Y-63763941D01*
X45685000Y-63763941D01*
X45685000Y-61429117D01*
X45865000Y-61429117D01*
X45865000Y-61770883D01*
X45931675Y-62106081D01*
X46062463Y-62421831D01*
X46252337Y-62705998D01*
X46494002Y-62947663D01*
X46778169Y-63137537D01*
X47093919Y-63268325D01*
X47429117Y-63335000D01*
X47770883Y-63335000D01*
X48106081Y-63268325D01*
X48421831Y-63137537D01*
X48705998Y-62947663D01*
X48947663Y-62705998D01*
X49065544Y-62529576D01*
X51509181Y-62529576D01*
X52500000Y-63520395D01*
X53490819Y-62529576D01*
X53339901Y-62327910D01*
X53056082Y-62190418D01*
X52750891Y-62110937D01*
X52436059Y-62092524D01*
X52123685Y-62135885D01*
X51825772Y-62239355D01*
X51660099Y-62327910D01*
X51509181Y-62529576D01*
X49065544Y-62529576D01*
X49137537Y-62421831D01*
X49268325Y-62106081D01*
X49335000Y-61770883D01*
X49335000Y-61429117D01*
X49268325Y-61093919D01*
X49229423Y-61000000D01*
X86161928Y-61000000D01*
X86161928Y-63000000D01*
X86174188Y-63124482D01*
X86210498Y-63244180D01*
X86269463Y-63354494D01*
X86348815Y-63451185D01*
X86445506Y-63530537D01*
X86555820Y-63589502D01*
X86675518Y-63625812D01*
X86800000Y-63638072D01*
X88800000Y-63638072D01*
X88924482Y-63625812D01*
X89044180Y-63589502D01*
X89154494Y-63530537D01*
X89251185Y-63451185D01*
X89330537Y-63354494D01*
X89389502Y-63244180D01*
X89425812Y-63124482D01*
X89438072Y-63000000D01*
X89438072Y-61819268D01*
X97965000Y-61819268D01*
X97965000Y-62180732D01*
X98035518Y-62535250D01*
X98173844Y-62869199D01*
X98374662Y-63169744D01*
X98630256Y-63425338D01*
X98930801Y-63626156D01*
X99264750Y-63764482D01*
X99619268Y-63835000D01*
X99980732Y-63835000D01*
X100335250Y-63764482D01*
X100669199Y-63626156D01*
X100969744Y-63425338D01*
X101225338Y-63169744D01*
X101426156Y-62869199D01*
X101564482Y-62535250D01*
X101635000Y-62180732D01*
X101635000Y-62100000D01*
X109861928Y-62100000D01*
X109861928Y-64100000D01*
X109874188Y-64224482D01*
X109910498Y-64344180D01*
X109969463Y-64454494D01*
X110048815Y-64551185D01*
X110145506Y-64630537D01*
X110255820Y-64689502D01*
X110375518Y-64725812D01*
X110500000Y-64738072D01*
X112500000Y-64738072D01*
X112624482Y-64725812D01*
X112744180Y-64689502D01*
X112854494Y-64630537D01*
X112951185Y-64551185D01*
X113030537Y-64454494D01*
X113089502Y-64344180D01*
X113125812Y-64224482D01*
X113138072Y-64100000D01*
X113138072Y-63860000D01*
X124609388Y-63860000D01*
X124631785Y-64087400D01*
X124698115Y-64306060D01*
X124799105Y-64495000D01*
X124698115Y-64683940D01*
X124631785Y-64902600D01*
X124609388Y-65130000D01*
X124631785Y-65357400D01*
X124695093Y-65566098D01*
X124660498Y-65630820D01*
X124624188Y-65750518D01*
X124611928Y-65875000D01*
X124611928Y-66925000D01*
X124624188Y-67049482D01*
X124660498Y-67169180D01*
X124719463Y-67279494D01*
X124798815Y-67376185D01*
X124895506Y-67455537D01*
X125005820Y-67514502D01*
X125125518Y-67550812D01*
X125250000Y-67563072D01*
X126750000Y-67563072D01*
X126874482Y-67550812D01*
X126994180Y-67514502D01*
X127104494Y-67455537D01*
X127201185Y-67376185D01*
X127280537Y-67279494D01*
X127339502Y-67169180D01*
X127375812Y-67049482D01*
X127388072Y-66925000D01*
X127388072Y-65875000D01*
X127375812Y-65750518D01*
X127339502Y-65630820D01*
X127304907Y-65566098D01*
X127368215Y-65357400D01*
X127390612Y-65130000D01*
X127368215Y-64902600D01*
X127301885Y-64683940D01*
X127200895Y-64495000D01*
X127301885Y-64306060D01*
X127368215Y-64087400D01*
X127390612Y-63860000D01*
X127368215Y-63632600D01*
X127301885Y-63413940D01*
X127194171Y-63212421D01*
X127049212Y-63035788D01*
X126872579Y-62890829D01*
X126671060Y-62783115D01*
X126452400Y-62716785D01*
X126281979Y-62700000D01*
X125718021Y-62700000D01*
X125547600Y-62716785D01*
X125328940Y-62783115D01*
X125127421Y-62890829D01*
X124950788Y-63035788D01*
X124805829Y-63212421D01*
X124698115Y-63413940D01*
X124631785Y-63632600D01*
X124609388Y-63860000D01*
X113138072Y-63860000D01*
X113138072Y-62100000D01*
X113125812Y-61975518D01*
X113089502Y-61855820D01*
X113030537Y-61745506D01*
X112951185Y-61648815D01*
X112854494Y-61569463D01*
X112744180Y-61510498D01*
X112624482Y-61474188D01*
X112500000Y-61461928D01*
X110500000Y-61461928D01*
X110375518Y-61474188D01*
X110255820Y-61510498D01*
X110145506Y-61569463D01*
X110048815Y-61648815D01*
X109969463Y-61745506D01*
X109910498Y-61855820D01*
X109874188Y-61975518D01*
X109861928Y-62100000D01*
X101635000Y-62100000D01*
X101635000Y-61819268D01*
X101564482Y-61464750D01*
X101512256Y-61338665D01*
X117865000Y-61338665D01*
X117865000Y-61621335D01*
X117920147Y-61898574D01*
X118028320Y-62159727D01*
X118185363Y-62394759D01*
X118385241Y-62594637D01*
X118620273Y-62751680D01*
X118881426Y-62859853D01*
X119158665Y-62915000D01*
X119441335Y-62915000D01*
X119718574Y-62859853D01*
X119979727Y-62751680D01*
X120214759Y-62594637D01*
X120414637Y-62394759D01*
X120571680Y-62159727D01*
X120679853Y-61898574D01*
X120735000Y-61621335D01*
X120735000Y-61429117D01*
X129265000Y-61429117D01*
X129265000Y-61770883D01*
X129331675Y-62106081D01*
X129462463Y-62421831D01*
X129652337Y-62705998D01*
X129894002Y-62947663D01*
X130178169Y-63137537D01*
X130493919Y-63268325D01*
X130829117Y-63335000D01*
X131170883Y-63335000D01*
X131506081Y-63268325D01*
X131821831Y-63137537D01*
X132105998Y-62947663D01*
X132347663Y-62705998D01*
X132537537Y-62421831D01*
X132668325Y-62106081D01*
X132735000Y-61770883D01*
X132735000Y-61429117D01*
X132668325Y-61093919D01*
X132537537Y-60778169D01*
X132347663Y-60494002D01*
X132105998Y-60252337D01*
X131821831Y-60062463D01*
X131506081Y-59931675D01*
X131170883Y-59865000D01*
X130829117Y-59865000D01*
X130493919Y-59931675D01*
X130178169Y-60062463D01*
X129894002Y-60252337D01*
X129652337Y-60494002D01*
X129462463Y-60778169D01*
X129331675Y-61093919D01*
X129265000Y-61429117D01*
X120735000Y-61429117D01*
X120735000Y-61338665D01*
X120679853Y-61061426D01*
X120571680Y-60800273D01*
X120414637Y-60565241D01*
X120214759Y-60365363D01*
X119979727Y-60208320D01*
X119718574Y-60100147D01*
X119441335Y-60045000D01*
X119158665Y-60045000D01*
X118881426Y-60100147D01*
X118620273Y-60208320D01*
X118385241Y-60365363D01*
X118185363Y-60565241D01*
X118028320Y-60800273D01*
X117920147Y-61061426D01*
X117865000Y-61338665D01*
X101512256Y-61338665D01*
X101426156Y-61130801D01*
X101225338Y-60830256D01*
X100969744Y-60574662D01*
X100669199Y-60373844D01*
X100335250Y-60235518D01*
X99980732Y-60165000D01*
X99619268Y-60165000D01*
X99264750Y-60235518D01*
X98930801Y-60373844D01*
X98630256Y-60574662D01*
X98374662Y-60830256D01*
X98173844Y-61130801D01*
X98035518Y-61464750D01*
X97965000Y-61819268D01*
X89438072Y-61819268D01*
X89438072Y-61000000D01*
X89425812Y-60875518D01*
X89389502Y-60755820D01*
X89330537Y-60645506D01*
X89251185Y-60548815D01*
X89154494Y-60469463D01*
X89044180Y-60410498D01*
X88924482Y-60374188D01*
X88800000Y-60361928D01*
X86800000Y-60361928D01*
X86675518Y-60374188D01*
X86555820Y-60410498D01*
X86445506Y-60469463D01*
X86348815Y-60548815D01*
X86269463Y-60645506D01*
X86210498Y-60755820D01*
X86174188Y-60875518D01*
X86161928Y-61000000D01*
X49229423Y-61000000D01*
X49137537Y-60778169D01*
X48947663Y-60494002D01*
X48705998Y-60252337D01*
X48421831Y-60062463D01*
X48106081Y-59931675D01*
X47770883Y-59865000D01*
X47429117Y-59865000D01*
X47093919Y-59931675D01*
X46778169Y-60062463D01*
X46494002Y-60252337D01*
X46252337Y-60494002D01*
X46062463Y-60778169D01*
X45931675Y-61093919D01*
X45865000Y-61429117D01*
X45685000Y-61429117D01*
X45685000Y-59685000D01*
X132915000Y-59685000D01*
X132915001Y-82315000D01*
%TA.AperFunction,Conductor*%
D24*
G36*
X132915001Y-82315000D02*
G01*
X45685000Y-82315000D01*
X45685000Y-80229117D01*
X45865000Y-80229117D01*
X45865000Y-80570883D01*
X45931675Y-80906081D01*
X46062463Y-81221831D01*
X46252337Y-81505998D01*
X46494002Y-81747663D01*
X46778169Y-81937537D01*
X47093919Y-82068325D01*
X47429117Y-82135000D01*
X47770883Y-82135000D01*
X48106081Y-82068325D01*
X48421831Y-81937537D01*
X48705998Y-81747663D01*
X48947663Y-81505998D01*
X49137537Y-81221831D01*
X49268325Y-80906081D01*
X49335000Y-80570883D01*
X49335000Y-80229117D01*
X49268325Y-79893919D01*
X49137537Y-79578169D01*
X49057688Y-79458665D01*
X58565000Y-79458665D01*
X58565000Y-79741335D01*
X58620147Y-80018574D01*
X58728320Y-80279727D01*
X58885363Y-80514759D01*
X59085241Y-80714637D01*
X59320273Y-80871680D01*
X59581426Y-80979853D01*
X59858665Y-81035000D01*
X60141335Y-81035000D01*
X60418574Y-80979853D01*
X60679727Y-80871680D01*
X60914759Y-80714637D01*
X61114637Y-80514759D01*
X61271680Y-80279727D01*
X61379853Y-80018574D01*
X61435000Y-79741335D01*
X61435000Y-79458665D01*
X66185000Y-79458665D01*
X66185000Y-79741335D01*
X66240147Y-80018574D01*
X66348320Y-80279727D01*
X66505363Y-80514759D01*
X66705241Y-80714637D01*
X66940273Y-80871680D01*
X67201426Y-80979853D01*
X67478665Y-81035000D01*
X67761335Y-81035000D01*
X68038574Y-80979853D01*
X68299727Y-80871680D01*
X68534759Y-80714637D01*
X68734637Y-80514759D01*
X68891680Y-80279727D01*
X68999853Y-80018574D01*
X69055000Y-79741335D01*
X69055000Y-79458665D01*
X68999853Y-79181426D01*
X68891680Y-78920273D01*
X68734637Y-78685241D01*
X68708061Y-78658665D01*
X70965000Y-78658665D01*
X70965000Y-78941335D01*
X71020147Y-79218574D01*
X71128320Y-79479727D01*
X71285363Y-79714759D01*
X71485241Y-79914637D01*
X71720273Y-80071680D01*
X71981426Y-80179853D01*
X72258665Y-80235000D01*
X72541335Y-80235000D01*
X72818574Y-80179853D01*
X73079727Y-80071680D01*
X73314759Y-79914637D01*
X73514637Y-79714759D01*
X73671680Y-79479727D01*
X73779853Y-79218574D01*
X73803439Y-79100000D01*
X76261928Y-79100000D01*
X76261928Y-80900000D01*
X76274188Y-81024482D01*
X76310498Y-81144180D01*
X76369463Y-81254494D01*
X76448815Y-81351185D01*
X76545506Y-81430537D01*
X76655820Y-81489502D01*
X76775518Y-81525812D01*
X76900000Y-81538072D01*
X78700000Y-81538072D01*
X78824482Y-81525812D01*
X78944180Y-81489502D01*
X79054494Y-81430537D01*
X79151185Y-81351185D01*
X79230537Y-81254494D01*
X79289502Y-81144180D01*
X79325812Y-81024482D01*
X79338072Y-80900000D01*
X79338072Y-79100000D01*
X79325812Y-78975518D01*
X79289502Y-78855820D01*
X79230537Y-78745506D01*
X79151185Y-78648815D01*
X79054494Y-78569463D01*
X78944180Y-78510498D01*
X78824482Y-78474188D01*
X78700000Y-78461928D01*
X76900000Y-78461928D01*
X76775518Y-78474188D01*
X76655820Y-78510498D01*
X76545506Y-78569463D01*
X76448815Y-78648815D01*
X76369463Y-78745506D01*
X76310498Y-78855820D01*
X76274188Y-78975518D01*
X76261928Y-79100000D01*
X73803439Y-79100000D01*
X73835000Y-78941335D01*
X73835000Y-78658665D01*
X73779853Y-78381426D01*
X73671680Y-78120273D01*
X73514637Y-77885241D01*
X73314759Y-77685363D01*
X73079727Y-77528320D01*
X72818574Y-77420147D01*
X72541335Y-77365000D01*
X72258665Y-77365000D01*
X71981426Y-77420147D01*
X71720273Y-77528320D01*
X71485241Y-77685363D01*
X71285363Y-77885241D01*
X71128320Y-78120273D01*
X71020147Y-78381426D01*
X70965000Y-78658665D01*
X68708061Y-78658665D01*
X68534759Y-78485363D01*
X68299727Y-78328320D01*
X68038574Y-78220147D01*
X67761335Y-78165000D01*
X67478665Y-78165000D01*
X67201426Y-78220147D01*
X66940273Y-78328320D01*
X66705241Y-78485363D01*
X66505363Y-78685241D01*
X66348320Y-78920273D01*
X66240147Y-79181426D01*
X66185000Y-79458665D01*
X61435000Y-79458665D01*
X61379853Y-79181426D01*
X61271680Y-78920273D01*
X61114637Y-78685241D01*
X60914759Y-78485363D01*
X60679727Y-78328320D01*
X60418574Y-78220147D01*
X60141335Y-78165000D01*
X59858665Y-78165000D01*
X59581426Y-78220147D01*
X59320273Y-78328320D01*
X59085241Y-78485363D01*
X58885363Y-78685241D01*
X58728320Y-78920273D01*
X58620147Y-79181426D01*
X58565000Y-79458665D01*
X49057688Y-79458665D01*
X48947663Y-79294002D01*
X48766994Y-79113333D01*
X52866273Y-79113333D01*
X52956762Y-79263769D01*
X53155222Y-79351230D01*
X53366931Y-79398294D01*
X53583755Y-79403151D01*
X53797360Y-79365614D01*
X53999537Y-79287127D01*
X54043238Y-79263769D01*
X54133727Y-79113333D01*
X53500000Y-78479605D01*
X52866273Y-79113333D01*
X48766994Y-79113333D01*
X48705998Y-79052337D01*
X48421831Y-78862463D01*
X48106081Y-78731675D01*
X47770883Y-78665000D01*
X47429117Y-78665000D01*
X47093919Y-78731675D01*
X46778169Y-78862463D01*
X46494002Y-79052337D01*
X46252337Y-79294002D01*
X46062463Y-79578169D01*
X45931675Y-79893919D01*
X45865000Y-80229117D01*
X45685000Y-80229117D01*
X45685000Y-78383755D01*
X52396849Y-78383755D01*
X52434386Y-78597360D01*
X52512873Y-78799537D01*
X52536231Y-78843238D01*
X52686667Y-78933727D01*
X53320395Y-78300000D01*
X53679605Y-78300000D01*
X54313333Y-78933727D01*
X54463769Y-78843238D01*
X54551230Y-78644778D01*
X54598294Y-78433069D01*
X54603151Y-78216245D01*
X54565614Y-78002640D01*
X54487127Y-77800463D01*
X54463769Y-77756762D01*
X54313333Y-77666273D01*
X53679605Y-78300000D01*
X53320395Y-78300000D01*
X52686667Y-77666273D01*
X52536231Y-77756762D01*
X52448770Y-77955222D01*
X52401706Y-78166931D01*
X52396849Y-78383755D01*
X45685000Y-78383755D01*
X45685000Y-77486667D01*
X52866273Y-77486667D01*
X53500000Y-78120395D01*
X54133727Y-77486667D01*
X54043238Y-77336231D01*
X53844778Y-77248770D01*
X53633069Y-77201706D01*
X53416245Y-77196849D01*
X53202640Y-77234386D01*
X53000463Y-77312873D01*
X52956762Y-77336231D01*
X52866273Y-77486667D01*
X45685000Y-77486667D01*
X45685000Y-74000000D01*
X52061928Y-74000000D01*
X52061928Y-75600000D01*
X52074188Y-75724482D01*
X52110498Y-75844180D01*
X52169463Y-75954494D01*
X52248815Y-76051185D01*
X52345506Y-76130537D01*
X52455820Y-76189502D01*
X52575518Y-76225812D01*
X52700000Y-76238072D01*
X54300000Y-76238072D01*
X54424482Y-76225812D01*
X54544180Y-76189502D01*
X54654494Y-76130537D01*
X54751185Y-76051185D01*
X54830537Y-75954494D01*
X54889502Y-75844180D01*
X54925812Y-75724482D01*
X54938072Y-75600000D01*
X54938072Y-74000000D01*
X54925812Y-73875518D01*
X54889502Y-73755820D01*
X54830537Y-73645506D01*
X54751185Y-73548815D01*
X54654494Y-73469463D01*
X54544180Y-73410498D01*
X54424482Y-73374188D01*
X54300000Y-73361928D01*
X52700000Y-73361928D01*
X52575518Y-73374188D01*
X52455820Y-73410498D01*
X52345506Y-73469463D01*
X52248815Y-73548815D01*
X52169463Y-73645506D01*
X52110498Y-73755820D01*
X52074188Y-73875518D01*
X52061928Y-74000000D01*
X45685000Y-74000000D01*
X45685000Y-67400000D01*
X50561928Y-67400000D01*
X50561928Y-70000000D01*
X50574188Y-70124482D01*
X50610498Y-70244180D01*
X50669463Y-70354494D01*
X50748815Y-70451185D01*
X50845506Y-70530537D01*
X50955820Y-70589502D01*
X51075518Y-70625812D01*
X51200000Y-70638072D01*
X53800000Y-70638072D01*
X53924482Y-70625812D01*
X54044180Y-70589502D01*
X54154494Y-70530537D01*
X54251185Y-70451185D01*
X54330537Y-70354494D01*
X54389502Y-70244180D01*
X54425812Y-70124482D01*
X54438072Y-70000000D01*
X54438072Y-67838665D01*
X58545000Y-67838665D01*
X58545000Y-68121335D01*
X58600147Y-68398574D01*
X58708320Y-68659727D01*
X58865363Y-68894759D01*
X59065241Y-69094637D01*
X59297759Y-69250000D01*
X59065241Y-69405363D01*
X58865363Y-69605241D01*
X58708320Y-69840273D01*
X58600147Y-70101426D01*
X58545000Y-70378665D01*
X58545000Y-70661335D01*
X58600147Y-70938574D01*
X58708320Y-71199727D01*
X58865363Y-71434759D01*
X59065241Y-71634637D01*
X59297759Y-71790000D01*
X59065241Y-71945363D01*
X58865363Y-72145241D01*
X58708320Y-72380273D01*
X58600147Y-72641426D01*
X58545000Y-72918665D01*
X58545000Y-73201335D01*
X58600147Y-73478574D01*
X58708320Y-73739727D01*
X58865363Y-73974759D01*
X59065241Y-74174637D01*
X59297759Y-74330000D01*
X59065241Y-74485363D01*
X58865363Y-74685241D01*
X58708320Y-74920273D01*
X58600147Y-75181426D01*
X58545000Y-75458665D01*
X58545000Y-75741335D01*
X58600147Y-76018574D01*
X58708320Y-76279727D01*
X58865363Y-76514759D01*
X59065241Y-76714637D01*
X59300273Y-76871680D01*
X59561426Y-76979853D01*
X59838665Y-77035000D01*
X60121335Y-77035000D01*
X60398574Y-76979853D01*
X60659727Y-76871680D01*
X60894759Y-76714637D01*
X61094637Y-76514759D01*
X61251680Y-76279727D01*
X61359853Y-76018574D01*
X61415000Y-75741335D01*
X61415000Y-75458665D01*
X61359853Y-75181426D01*
X61251680Y-74920273D01*
X61171317Y-74800000D01*
X66161928Y-74800000D01*
X66161928Y-76400000D01*
X66174188Y-76524482D01*
X66210498Y-76644180D01*
X66269463Y-76754494D01*
X66348815Y-76851185D01*
X66445506Y-76930537D01*
X66555820Y-76989502D01*
X66675518Y-77025812D01*
X66800000Y-77038072D01*
X68400000Y-77038072D01*
X68524482Y-77025812D01*
X68644180Y-76989502D01*
X68754494Y-76930537D01*
X68851185Y-76851185D01*
X68877378Y-76819268D01*
X82165000Y-76819268D01*
X82165000Y-77180732D01*
X82235518Y-77535250D01*
X82373844Y-77869199D01*
X82574662Y-78169744D01*
X82830256Y-78425338D01*
X83130801Y-78626156D01*
X83464750Y-78764482D01*
X83819268Y-78835000D01*
X84180732Y-78835000D01*
X84535250Y-78764482D01*
X84869199Y-78626156D01*
X85169744Y-78425338D01*
X85425338Y-78169744D01*
X85626156Y-77869199D01*
X85764482Y-77535250D01*
X85835000Y-77180732D01*
X85835000Y-76819268D01*
X87165000Y-76819268D01*
X87165000Y-77180732D01*
X87235518Y-77535250D01*
X87373844Y-77869199D01*
X87574662Y-78169744D01*
X87830256Y-78425338D01*
X88130801Y-78626156D01*
X88464750Y-78764482D01*
X88819268Y-78835000D01*
X89180732Y-78835000D01*
X89535250Y-78764482D01*
X89869199Y-78626156D01*
X90169744Y-78425338D01*
X90425338Y-78169744D01*
X90626156Y-77869199D01*
X90764482Y-77535250D01*
X90835000Y-77180732D01*
X90835000Y-76819268D01*
X90764482Y-76464750D01*
X90626156Y-76130801D01*
X90425338Y-75830256D01*
X90169744Y-75574662D01*
X89869199Y-75373844D01*
X89535250Y-75235518D01*
X89180732Y-75165000D01*
X88819268Y-75165000D01*
X88464750Y-75235518D01*
X88130801Y-75373844D01*
X87830256Y-75574662D01*
X87574662Y-75830256D01*
X87373844Y-76130801D01*
X87235518Y-76464750D01*
X87165000Y-76819268D01*
X85835000Y-76819268D01*
X85764482Y-76464750D01*
X85626156Y-76130801D01*
X85425338Y-75830256D01*
X85169744Y-75574662D01*
X84869199Y-75373844D01*
X84535250Y-75235518D01*
X84180732Y-75165000D01*
X83819268Y-75165000D01*
X83464750Y-75235518D01*
X83130801Y-75373844D01*
X82830256Y-75574662D01*
X82574662Y-75830256D01*
X82373844Y-76130801D01*
X82235518Y-76464750D01*
X82165000Y-76819268D01*
X68877378Y-76819268D01*
X68930537Y-76754494D01*
X68989502Y-76644180D01*
X69025812Y-76524482D01*
X69038072Y-76400000D01*
X69038072Y-74800000D01*
X69025812Y-74675518D01*
X69006949Y-74613333D01*
X71766273Y-74613333D01*
X71856762Y-74763769D01*
X72055222Y-74851230D01*
X72266931Y-74898294D01*
X72483755Y-74903151D01*
X72697360Y-74865614D01*
X72899537Y-74787127D01*
X72943238Y-74763769D01*
X73033727Y-74613333D01*
X72400000Y-73979605D01*
X71766273Y-74613333D01*
X69006949Y-74613333D01*
X68989502Y-74555820D01*
X68930537Y-74445506D01*
X68851185Y-74348815D01*
X68754494Y-74269463D01*
X68644180Y-74210498D01*
X68524482Y-74174188D01*
X68400000Y-74161928D01*
X66800000Y-74161928D01*
X66675518Y-74174188D01*
X66555820Y-74210498D01*
X66445506Y-74269463D01*
X66348815Y-74348815D01*
X66269463Y-74445506D01*
X66210498Y-74555820D01*
X66174188Y-74675518D01*
X66161928Y-74800000D01*
X61171317Y-74800000D01*
X61094637Y-74685241D01*
X60894759Y-74485363D01*
X60662241Y-74330000D01*
X60894759Y-74174637D01*
X61094637Y-73974759D01*
X61251680Y-73739727D01*
X61359853Y-73478574D01*
X61384131Y-73356521D01*
X66539681Y-73356521D01*
X66553632Y-73402536D01*
X66640563Y-73600091D01*
X66764365Y-73776890D01*
X66920280Y-73926139D01*
X67102316Y-74042103D01*
X67303478Y-74120325D01*
X67473000Y-74078407D01*
X67473000Y-73187000D01*
X67727000Y-73187000D01*
X67727000Y-74078407D01*
X67896522Y-74120325D01*
X68097684Y-74042103D01*
X68279720Y-73926139D01*
X68323997Y-73883755D01*
X71296849Y-73883755D01*
X71334386Y-74097360D01*
X71412873Y-74299537D01*
X71436231Y-74343238D01*
X71586667Y-74433727D01*
X72220395Y-73800000D01*
X72579605Y-73800000D01*
X73213333Y-74433727D01*
X73363769Y-74343238D01*
X73451230Y-74144778D01*
X73498294Y-73933069D01*
X73503151Y-73716245D01*
X73465614Y-73502640D01*
X73387127Y-73300463D01*
X73363769Y-73256762D01*
X73213333Y-73166273D01*
X72579605Y-73800000D01*
X72220395Y-73800000D01*
X71586667Y-73166273D01*
X71436231Y-73256762D01*
X71348770Y-73455222D01*
X71301706Y-73666931D01*
X71296849Y-73883755D01*
X68323997Y-73883755D01*
X68435635Y-73776890D01*
X68559437Y-73600091D01*
X68646368Y-73402536D01*
X68660319Y-73356521D01*
X68617858Y-73187000D01*
X67727000Y-73187000D01*
X67473000Y-73187000D01*
X66582142Y-73187000D01*
X66539681Y-73356521D01*
X61384131Y-73356521D01*
X61415000Y-73201335D01*
X61415000Y-72986667D01*
X71766273Y-72986667D01*
X72400000Y-73620395D01*
X73033727Y-72986667D01*
X72943238Y-72836231D01*
X72744778Y-72748770D01*
X72533069Y-72701706D01*
X72316245Y-72696849D01*
X72102640Y-72734386D01*
X71900463Y-72812873D01*
X71856762Y-72836231D01*
X71766273Y-72986667D01*
X61415000Y-72986667D01*
X61415000Y-72918665D01*
X61384132Y-72763479D01*
X66539681Y-72763479D01*
X66582142Y-72933000D01*
X67473000Y-72933000D01*
X67473000Y-72041593D01*
X67727000Y-72041593D01*
X67727000Y-72933000D01*
X68617858Y-72933000D01*
X68660319Y-72763479D01*
X68646368Y-72717464D01*
X68559437Y-72519909D01*
X68435635Y-72343110D01*
X68316237Y-72228816D01*
X76265000Y-72228816D01*
X76265000Y-72531184D01*
X76323989Y-72827743D01*
X76439701Y-73107095D01*
X76607688Y-73358505D01*
X76821495Y-73572312D01*
X77072905Y-73740299D01*
X77352257Y-73856011D01*
X77648816Y-73915000D01*
X77951184Y-73915000D01*
X78194789Y-73866544D01*
X95645000Y-73866544D01*
X95645000Y-74133456D01*
X95697072Y-74395239D01*
X95799215Y-74641833D01*
X95947503Y-74863762D01*
X96136238Y-75052497D01*
X96358167Y-75200785D01*
X96525266Y-75270000D01*
X96358167Y-75339215D01*
X96136238Y-75487503D01*
X95947503Y-75676238D01*
X95799215Y-75898167D01*
X95697072Y-76144761D01*
X95645000Y-76406544D01*
X95645000Y-76673456D01*
X95697072Y-76935239D01*
X95799215Y-77181833D01*
X95947503Y-77403762D01*
X96136238Y-77592497D01*
X96358167Y-77740785D01*
X96525266Y-77810000D01*
X96358167Y-77879215D01*
X96136238Y-78027503D01*
X95947503Y-78216238D01*
X95799215Y-78438167D01*
X95697072Y-78684761D01*
X95645000Y-78946544D01*
X95645000Y-79213456D01*
X95697072Y-79475239D01*
X95799215Y-79721833D01*
X95947503Y-79943762D01*
X96136238Y-80132497D01*
X96358167Y-80280785D01*
X96604761Y-80382928D01*
X96866544Y-80435000D01*
X97133456Y-80435000D01*
X97395239Y-80382928D01*
X97641833Y-80280785D01*
X97863762Y-80132497D01*
X98039910Y-79956349D01*
X105623256Y-79956349D01*
X105737971Y-80127270D01*
X105970611Y-80234765D01*
X106219752Y-80294809D01*
X106475820Y-80305094D01*
X106728975Y-80265225D01*
X106969487Y-80176735D01*
X107062029Y-80127270D01*
X107176744Y-79956349D01*
X117223256Y-79956349D01*
X117337971Y-80127270D01*
X117570611Y-80234765D01*
X117819752Y-80294809D01*
X118075820Y-80305094D01*
X118328975Y-80265225D01*
X118427114Y-80229117D01*
X129265000Y-80229117D01*
X129265000Y-80570883D01*
X129331675Y-80906081D01*
X129462463Y-81221831D01*
X129652337Y-81505998D01*
X129894002Y-81747663D01*
X130178169Y-81937537D01*
X130493919Y-82068325D01*
X130829117Y-82135000D01*
X131170883Y-82135000D01*
X131506081Y-82068325D01*
X131821831Y-81937537D01*
X132105998Y-81747663D01*
X132347663Y-81505998D01*
X132537537Y-81221831D01*
X132668325Y-80906081D01*
X132735000Y-80570883D01*
X132735000Y-80229117D01*
X132668325Y-79893919D01*
X132537537Y-79578169D01*
X132347663Y-79294002D01*
X132105998Y-79052337D01*
X131821831Y-78862463D01*
X131506081Y-78731675D01*
X131170883Y-78665000D01*
X130829117Y-78665000D01*
X130493919Y-78731675D01*
X130178169Y-78862463D01*
X129894002Y-79052337D01*
X129652337Y-79294002D01*
X129462463Y-79578169D01*
X129331675Y-79893919D01*
X129265000Y-80229117D01*
X118427114Y-80229117D01*
X118569487Y-80176735D01*
X118662029Y-80127270D01*
X118776744Y-79956349D01*
X118000000Y-79179605D01*
X117223256Y-79956349D01*
X107176744Y-79956349D01*
X106400000Y-79179605D01*
X105623256Y-79956349D01*
X98039910Y-79956349D01*
X98052497Y-79943762D01*
X98200785Y-79721833D01*
X98302928Y-79475239D01*
X98355000Y-79213456D01*
X98355000Y-79075820D01*
X105094906Y-79075820D01*
X105134775Y-79328975D01*
X105223265Y-79569487D01*
X105272730Y-79662029D01*
X105443651Y-79776744D01*
X106220395Y-79000000D01*
X106579605Y-79000000D01*
X107356349Y-79776744D01*
X107527270Y-79662029D01*
X107634765Y-79429389D01*
X107694809Y-79180248D01*
X107699003Y-79075820D01*
X116694906Y-79075820D01*
X116734775Y-79328975D01*
X116823265Y-79569487D01*
X116872730Y-79662029D01*
X117043651Y-79776744D01*
X117820395Y-79000000D01*
X118179605Y-79000000D01*
X118956349Y-79776744D01*
X119127270Y-79662029D01*
X119234765Y-79429389D01*
X119294809Y-79180248D01*
X119305094Y-78924180D01*
X119265225Y-78671025D01*
X119176735Y-78430513D01*
X119127270Y-78337971D01*
X118956349Y-78223256D01*
X118179605Y-79000000D01*
X117820395Y-79000000D01*
X117043651Y-78223256D01*
X116872730Y-78337971D01*
X116765235Y-78570611D01*
X116705191Y-78819752D01*
X116694906Y-79075820D01*
X107699003Y-79075820D01*
X107705094Y-78924180D01*
X107665225Y-78671025D01*
X107576735Y-78430513D01*
X107527270Y-78337971D01*
X107356349Y-78223256D01*
X106579605Y-79000000D01*
X106220395Y-79000000D01*
X105443651Y-78223256D01*
X105272730Y-78337971D01*
X105165235Y-78570611D01*
X105105191Y-78819752D01*
X105094906Y-79075820D01*
X98355000Y-79075820D01*
X98355000Y-78946544D01*
X98302928Y-78684761D01*
X98200785Y-78438167D01*
X98052497Y-78216238D01*
X97879910Y-78043651D01*
X105623256Y-78043651D01*
X106400000Y-78820395D01*
X107176744Y-78043651D01*
X117223256Y-78043651D01*
X118000000Y-78820395D01*
X118776744Y-78043651D01*
X118662029Y-77872730D01*
X118429389Y-77765235D01*
X118180248Y-77705191D01*
X117924180Y-77694906D01*
X117671025Y-77734775D01*
X117430513Y-77823265D01*
X117337971Y-77872730D01*
X117223256Y-78043651D01*
X107176744Y-78043651D01*
X107062029Y-77872730D01*
X106829389Y-77765235D01*
X106580248Y-77705191D01*
X106324180Y-77694906D01*
X106071025Y-77734775D01*
X105830513Y-77823265D01*
X105737971Y-77872730D01*
X105623256Y-78043651D01*
X97879910Y-78043651D01*
X97863762Y-78027503D01*
X97641833Y-77879215D01*
X97474734Y-77810000D01*
X97641833Y-77740785D01*
X97863762Y-77592497D01*
X98052497Y-77403762D01*
X98200785Y-77181833D01*
X98246932Y-77070424D01*
X126809181Y-77070424D01*
X126960099Y-77272090D01*
X127243918Y-77409582D01*
X127549109Y-77489063D01*
X127863941Y-77507476D01*
X128176315Y-77464115D01*
X128474228Y-77360645D01*
X128639901Y-77272090D01*
X128790819Y-77070424D01*
X127800000Y-76079605D01*
X126809181Y-77070424D01*
X98246932Y-77070424D01*
X98302928Y-76935239D01*
X98355000Y-76673456D01*
X98355000Y-76406544D01*
X98302928Y-76144761D01*
X98228030Y-75963941D01*
X126192524Y-75963941D01*
X126235885Y-76276315D01*
X126339355Y-76574228D01*
X126427910Y-76739901D01*
X126629576Y-76890819D01*
X127620395Y-75900000D01*
X127979605Y-75900000D01*
X128970424Y-76890819D01*
X129172090Y-76739901D01*
X129309582Y-76456082D01*
X129389063Y-76150891D01*
X129407476Y-75836059D01*
X129364115Y-75523685D01*
X129260645Y-75225772D01*
X129172090Y-75060099D01*
X128970424Y-74909181D01*
X127979605Y-75900000D01*
X127620395Y-75900000D01*
X126629576Y-74909181D01*
X126427910Y-75060099D01*
X126290418Y-75343918D01*
X126210937Y-75649109D01*
X126192524Y-75963941D01*
X98228030Y-75963941D01*
X98200785Y-75898167D01*
X98052497Y-75676238D01*
X97863762Y-75487503D01*
X97641833Y-75339215D01*
X97474734Y-75270000D01*
X97641833Y-75200785D01*
X97863762Y-75052497D01*
X98052497Y-74863762D01*
X98200785Y-74641833D01*
X98302928Y-74395239D01*
X98355000Y-74133456D01*
X98355000Y-73866544D01*
X98302928Y-73604761D01*
X98200785Y-73358167D01*
X98052497Y-73136238D01*
X97916259Y-73000000D01*
X104761928Y-73000000D01*
X104761928Y-75000000D01*
X104774188Y-75124482D01*
X104810498Y-75244180D01*
X104869463Y-75354494D01*
X104948815Y-75451185D01*
X105045506Y-75530537D01*
X105155820Y-75589502D01*
X105275518Y-75625812D01*
X105400000Y-75638072D01*
X107400000Y-75638072D01*
X107524482Y-75625812D01*
X107644180Y-75589502D01*
X107754494Y-75530537D01*
X107851185Y-75451185D01*
X107930537Y-75354494D01*
X107989502Y-75244180D01*
X108025812Y-75124482D01*
X108038072Y-75000000D01*
X108038072Y-73000000D01*
X116361928Y-73000000D01*
X116361928Y-75000000D01*
X116374188Y-75124482D01*
X116410498Y-75244180D01*
X116469463Y-75354494D01*
X116548815Y-75451185D01*
X116645506Y-75530537D01*
X116755820Y-75589502D01*
X116875518Y-75625812D01*
X117000000Y-75638072D01*
X119000000Y-75638072D01*
X119124482Y-75625812D01*
X119244180Y-75589502D01*
X119354494Y-75530537D01*
X119451185Y-75451185D01*
X119530537Y-75354494D01*
X119589502Y-75244180D01*
X119625812Y-75124482D01*
X119638072Y-75000000D01*
X119638072Y-74729576D01*
X126809181Y-74729576D01*
X127800000Y-75720395D01*
X128790819Y-74729576D01*
X128639901Y-74527910D01*
X128356082Y-74390418D01*
X128050891Y-74310937D01*
X127736059Y-74292524D01*
X127423685Y-74335885D01*
X127125772Y-74439355D01*
X126960099Y-74527910D01*
X126809181Y-74729576D01*
X119638072Y-74729576D01*
X119638072Y-73000000D01*
X119625812Y-72875518D01*
X119589502Y-72755820D01*
X119530537Y-72645506D01*
X119451185Y-72548815D01*
X119354494Y-72469463D01*
X119244180Y-72410498D01*
X119124482Y-72374188D01*
X119000000Y-72361928D01*
X117000000Y-72361928D01*
X116875518Y-72374188D01*
X116755820Y-72410498D01*
X116645506Y-72469463D01*
X116548815Y-72548815D01*
X116469463Y-72645506D01*
X116410498Y-72755820D01*
X116374188Y-72875518D01*
X116361928Y-73000000D01*
X108038072Y-73000000D01*
X108025812Y-72875518D01*
X107989502Y-72755820D01*
X107930537Y-72645506D01*
X107851185Y-72548815D01*
X107754494Y-72469463D01*
X107644180Y-72410498D01*
X107524482Y-72374188D01*
X107400000Y-72361928D01*
X105400000Y-72361928D01*
X105275518Y-72374188D01*
X105155820Y-72410498D01*
X105045506Y-72469463D01*
X104948815Y-72548815D01*
X104869463Y-72645506D01*
X104810498Y-72755820D01*
X104774188Y-72875518D01*
X104761928Y-73000000D01*
X97916259Y-73000000D01*
X97863762Y-72947503D01*
X97641833Y-72799215D01*
X97395239Y-72697072D01*
X97133456Y-72645000D01*
X96866544Y-72645000D01*
X96604761Y-72697072D01*
X96358167Y-72799215D01*
X96136238Y-72947503D01*
X95947503Y-73136238D01*
X95799215Y-73358167D01*
X95697072Y-73604761D01*
X95645000Y-73866544D01*
X78194789Y-73866544D01*
X78247743Y-73856011D01*
X78527095Y-73740299D01*
X78778505Y-73572312D01*
X78992312Y-73358505D01*
X79160299Y-73107095D01*
X79276011Y-72827743D01*
X79335000Y-72531184D01*
X79335000Y-72228816D01*
X79276011Y-71932257D01*
X79160299Y-71652905D01*
X78992312Y-71401495D01*
X78778505Y-71187688D01*
X78527095Y-71019701D01*
X78247743Y-70903989D01*
X77951184Y-70845000D01*
X77648816Y-70845000D01*
X77352257Y-70903989D01*
X77072905Y-71019701D01*
X76821495Y-71187688D01*
X76607688Y-71401495D01*
X76439701Y-71652905D01*
X76323989Y-71932257D01*
X76265000Y-72228816D01*
X68316237Y-72228816D01*
X68279720Y-72193861D01*
X68097684Y-72077897D01*
X67896522Y-71999675D01*
X67727000Y-72041593D01*
X67473000Y-72041593D01*
X67303478Y-71999675D01*
X67102316Y-72077897D01*
X66920280Y-72193861D01*
X66764365Y-72343110D01*
X66640563Y-72519909D01*
X66553632Y-72717464D01*
X66539681Y-72763479D01*
X61384132Y-72763479D01*
X61359853Y-72641426D01*
X61251680Y-72380273D01*
X61094637Y-72145241D01*
X60894759Y-71945363D01*
X60662241Y-71790000D01*
X60894759Y-71634637D01*
X61094637Y-71434759D01*
X61251680Y-71199727D01*
X61359853Y-70938574D01*
X61415000Y-70661335D01*
X61415000Y-70378665D01*
X66165000Y-70378665D01*
X66165000Y-70661335D01*
X66220147Y-70938574D01*
X66328320Y-71199727D01*
X66485363Y-71434759D01*
X66685241Y-71634637D01*
X66920273Y-71791680D01*
X67181426Y-71899853D01*
X67458665Y-71955000D01*
X67741335Y-71955000D01*
X68018574Y-71899853D01*
X68279727Y-71791680D01*
X68514759Y-71634637D01*
X68714637Y-71434759D01*
X68871680Y-71199727D01*
X68979853Y-70938574D01*
X69035000Y-70661335D01*
X69035000Y-70378665D01*
X68979853Y-70101426D01*
X68871680Y-69840273D01*
X68714637Y-69605241D01*
X68514759Y-69405363D01*
X68279727Y-69248320D01*
X68018574Y-69140147D01*
X67741335Y-69085000D01*
X67458665Y-69085000D01*
X67181426Y-69140147D01*
X66920273Y-69248320D01*
X66685241Y-69405363D01*
X66485363Y-69605241D01*
X66328320Y-69840273D01*
X66220147Y-70101426D01*
X66165000Y-70378665D01*
X61415000Y-70378665D01*
X61359853Y-70101426D01*
X61251680Y-69840273D01*
X61094637Y-69605241D01*
X60894759Y-69405363D01*
X60662241Y-69250000D01*
X60894759Y-69094637D01*
X61094637Y-68894759D01*
X61251680Y-68659727D01*
X61359853Y-68398574D01*
X61384131Y-68276521D01*
X66539681Y-68276521D01*
X66553632Y-68322536D01*
X66640563Y-68520091D01*
X66764365Y-68696890D01*
X66920280Y-68846139D01*
X67102316Y-68962103D01*
X67303478Y-69040325D01*
X67473000Y-68998407D01*
X67473000Y-68107000D01*
X67727000Y-68107000D01*
X67727000Y-68998407D01*
X67896522Y-69040325D01*
X68097684Y-68962103D01*
X68279720Y-68846139D01*
X68435635Y-68696890D01*
X68559437Y-68520091D01*
X68646368Y-68322536D01*
X68660319Y-68276521D01*
X68617858Y-68107000D01*
X67727000Y-68107000D01*
X67473000Y-68107000D01*
X66582142Y-68107000D01*
X66539681Y-68276521D01*
X61384131Y-68276521D01*
X61415000Y-68121335D01*
X61415000Y-67858665D01*
X70565000Y-67858665D01*
X70565000Y-68141335D01*
X70620147Y-68418574D01*
X70728320Y-68679727D01*
X70885363Y-68914759D01*
X71085241Y-69114637D01*
X71320273Y-69271680D01*
X71581426Y-69379853D01*
X71858665Y-69435000D01*
X72141335Y-69435000D01*
X72418574Y-69379853D01*
X72679727Y-69271680D01*
X72914759Y-69114637D01*
X73114637Y-68914759D01*
X73271680Y-68679727D01*
X73379853Y-68418574D01*
X73435000Y-68141335D01*
X73435000Y-67858665D01*
X78185000Y-67858665D01*
X78185000Y-68141335D01*
X78240147Y-68418574D01*
X78348320Y-68679727D01*
X78505363Y-68914759D01*
X78705241Y-69114637D01*
X78940273Y-69271680D01*
X79201426Y-69379853D01*
X79478665Y-69435000D01*
X79761335Y-69435000D01*
X80038574Y-69379853D01*
X80299727Y-69271680D01*
X80534759Y-69114637D01*
X80593047Y-69056349D01*
X110723256Y-69056349D01*
X110837971Y-69227270D01*
X111070611Y-69334765D01*
X111319752Y-69394809D01*
X111575820Y-69405094D01*
X111828975Y-69365225D01*
X112069487Y-69276735D01*
X112162029Y-69227270D01*
X112276744Y-69056349D01*
X112179060Y-68958665D01*
X117865000Y-68958665D01*
X117865000Y-69241335D01*
X117920147Y-69518574D01*
X118028320Y-69779727D01*
X118185363Y-70014759D01*
X118385241Y-70214637D01*
X118620273Y-70371680D01*
X118881426Y-70479853D01*
X119158665Y-70535000D01*
X119441335Y-70535000D01*
X119718574Y-70479853D01*
X119979727Y-70371680D01*
X120214759Y-70214637D01*
X120414637Y-70014759D01*
X120571680Y-69779727D01*
X120646125Y-69600000D01*
X125861928Y-69600000D01*
X125861928Y-72200000D01*
X125874188Y-72324482D01*
X125910498Y-72444180D01*
X125969463Y-72554494D01*
X126048815Y-72651185D01*
X126145506Y-72730537D01*
X126255820Y-72789502D01*
X126375518Y-72825812D01*
X126500000Y-72838072D01*
X129100000Y-72838072D01*
X129224482Y-72825812D01*
X129344180Y-72789502D01*
X129454494Y-72730537D01*
X129551185Y-72651185D01*
X129630537Y-72554494D01*
X129689502Y-72444180D01*
X129725812Y-72324482D01*
X129738072Y-72200000D01*
X129738072Y-69600000D01*
X129725812Y-69475518D01*
X129689502Y-69355820D01*
X129630537Y-69245506D01*
X129551185Y-69148815D01*
X129454494Y-69069463D01*
X129344180Y-69010498D01*
X129224482Y-68974188D01*
X129100000Y-68961928D01*
X126500000Y-68961928D01*
X126375518Y-68974188D01*
X126255820Y-69010498D01*
X126145506Y-69069463D01*
X126048815Y-69148815D01*
X125969463Y-69245506D01*
X125910498Y-69355820D01*
X125874188Y-69475518D01*
X125861928Y-69600000D01*
X120646125Y-69600000D01*
X120679853Y-69518574D01*
X120735000Y-69241335D01*
X120735000Y-68958665D01*
X120679853Y-68681426D01*
X120571680Y-68420273D01*
X120414637Y-68185241D01*
X120214759Y-67985363D01*
X119979727Y-67828320D01*
X119718574Y-67720147D01*
X119441335Y-67665000D01*
X119158665Y-67665000D01*
X118881426Y-67720147D01*
X118620273Y-67828320D01*
X118385241Y-67985363D01*
X118185363Y-68185241D01*
X118028320Y-68420273D01*
X117920147Y-68681426D01*
X117865000Y-68958665D01*
X112179060Y-68958665D01*
X111500000Y-68279605D01*
X110723256Y-69056349D01*
X80593047Y-69056349D01*
X80734637Y-68914759D01*
X80891680Y-68679727D01*
X80999853Y-68418574D01*
X81055000Y-68141335D01*
X81055000Y-67956349D01*
X87023256Y-67956349D01*
X87137971Y-68127270D01*
X87370611Y-68234765D01*
X87619752Y-68294809D01*
X87875820Y-68305094D01*
X88128975Y-68265225D01*
X88369487Y-68176735D01*
X88462029Y-68127270D01*
X88576744Y-67956349D01*
X87800000Y-67179605D01*
X87023256Y-67956349D01*
X81055000Y-67956349D01*
X81055000Y-67858665D01*
X80999853Y-67581426D01*
X80891680Y-67320273D01*
X80734637Y-67085241D01*
X80725216Y-67075820D01*
X86494906Y-67075820D01*
X86534775Y-67328975D01*
X86623265Y-67569487D01*
X86672730Y-67662029D01*
X86843651Y-67776744D01*
X87620395Y-67000000D01*
X87979605Y-67000000D01*
X88756349Y-67776744D01*
X88927270Y-67662029D01*
X89034765Y-67429389D01*
X89094809Y-67180248D01*
X89105094Y-66924180D01*
X89088572Y-66819268D01*
X97965000Y-66819268D01*
X97965000Y-67180732D01*
X98035518Y-67535250D01*
X98173844Y-67869199D01*
X98374662Y-68169744D01*
X98630256Y-68425338D01*
X98930801Y-68626156D01*
X99264750Y-68764482D01*
X99619268Y-68835000D01*
X99980732Y-68835000D01*
X100335250Y-68764482D01*
X100669199Y-68626156D01*
X100969744Y-68425338D01*
X101219262Y-68175820D01*
X110194906Y-68175820D01*
X110234775Y-68428975D01*
X110323265Y-68669487D01*
X110372730Y-68762029D01*
X110543651Y-68876744D01*
X111320395Y-68100000D01*
X111679605Y-68100000D01*
X112456349Y-68876744D01*
X112627270Y-68762029D01*
X112734765Y-68529389D01*
X112794809Y-68280248D01*
X112805094Y-68024180D01*
X112765225Y-67771025D01*
X112676735Y-67530513D01*
X112627270Y-67437971D01*
X112456349Y-67323256D01*
X111679605Y-68100000D01*
X111320395Y-68100000D01*
X110543651Y-67323256D01*
X110372730Y-67437971D01*
X110265235Y-67670611D01*
X110205191Y-67919752D01*
X110194906Y-68175820D01*
X101219262Y-68175820D01*
X101225338Y-68169744D01*
X101426156Y-67869199D01*
X101564482Y-67535250D01*
X101635000Y-67180732D01*
X101635000Y-67143651D01*
X110723256Y-67143651D01*
X111500000Y-67920395D01*
X112276744Y-67143651D01*
X112162029Y-66972730D01*
X111929389Y-66865235D01*
X111680248Y-66805191D01*
X111424180Y-66794906D01*
X111171025Y-66834775D01*
X110930513Y-66923265D01*
X110837971Y-66972730D01*
X110723256Y-67143651D01*
X101635000Y-67143651D01*
X101635000Y-66819268D01*
X101564482Y-66464750D01*
X101426156Y-66130801D01*
X101225338Y-65830256D01*
X100969744Y-65574662D01*
X100669199Y-65373844D01*
X100335250Y-65235518D01*
X99980732Y-65165000D01*
X99619268Y-65165000D01*
X99264750Y-65235518D01*
X98930801Y-65373844D01*
X98630256Y-65574662D01*
X98374662Y-65830256D01*
X98173844Y-66130801D01*
X98035518Y-66464750D01*
X97965000Y-66819268D01*
X89088572Y-66819268D01*
X89065225Y-66671025D01*
X88976735Y-66430513D01*
X88927270Y-66337971D01*
X88756349Y-66223256D01*
X87979605Y-67000000D01*
X87620395Y-67000000D01*
X86843651Y-66223256D01*
X86672730Y-66337971D01*
X86565235Y-66570611D01*
X86505191Y-66819752D01*
X86494906Y-67075820D01*
X80725216Y-67075820D01*
X80534759Y-66885363D01*
X80299727Y-66728320D01*
X80038574Y-66620147D01*
X79761335Y-66565000D01*
X79478665Y-66565000D01*
X79201426Y-66620147D01*
X78940273Y-66728320D01*
X78705241Y-66885363D01*
X78505363Y-67085241D01*
X78348320Y-67320273D01*
X78240147Y-67581426D01*
X78185000Y-67858665D01*
X73435000Y-67858665D01*
X73379853Y-67581426D01*
X73271680Y-67320273D01*
X73114637Y-67085241D01*
X72914759Y-66885363D01*
X72679727Y-66728320D01*
X72418574Y-66620147D01*
X72141335Y-66565000D01*
X71858665Y-66565000D01*
X71581426Y-66620147D01*
X71320273Y-66728320D01*
X71085241Y-66885363D01*
X70885363Y-67085241D01*
X70728320Y-67320273D01*
X70620147Y-67581426D01*
X70565000Y-67858665D01*
X61415000Y-67858665D01*
X61415000Y-67838665D01*
X61384132Y-67683479D01*
X66539681Y-67683479D01*
X66582142Y-67853000D01*
X67473000Y-67853000D01*
X67473000Y-66961593D01*
X67727000Y-66961593D01*
X67727000Y-67853000D01*
X68617858Y-67853000D01*
X68660319Y-67683479D01*
X68646368Y-67637464D01*
X68559437Y-67439909D01*
X68435635Y-67263110D01*
X68279720Y-67113861D01*
X68097684Y-66997897D01*
X67896522Y-66919675D01*
X67727000Y-66961593D01*
X67473000Y-66961593D01*
X67303478Y-66919675D01*
X67102316Y-66997897D01*
X66920280Y-67113861D01*
X66764365Y-67263110D01*
X66640563Y-67439909D01*
X66553632Y-67637464D01*
X66539681Y-67683479D01*
X61384132Y-67683479D01*
X61359853Y-67561426D01*
X61251680Y-67300273D01*
X61094637Y-67065241D01*
X60894759Y-66865363D01*
X60659727Y-66708320D01*
X60398574Y-66600147D01*
X60121335Y-66545000D01*
X59838665Y-66545000D01*
X59561426Y-66600147D01*
X59300273Y-66708320D01*
X59065241Y-66865363D01*
X58865363Y-67065241D01*
X58708320Y-67300273D01*
X58600147Y-67561426D01*
X58545000Y-67838665D01*
X54438072Y-67838665D01*
X54438072Y-67400000D01*
X54425812Y-67275518D01*
X54389502Y-67155820D01*
X54330537Y-67045506D01*
X54251185Y-66948815D01*
X54154494Y-66869463D01*
X54044180Y-66810498D01*
X53924482Y-66774188D01*
X53800000Y-66761928D01*
X51200000Y-66761928D01*
X51075518Y-66774188D01*
X50955820Y-66810498D01*
X50845506Y-66869463D01*
X50748815Y-66948815D01*
X50669463Y-67045506D01*
X50610498Y-67155820D01*
X50574188Y-67275518D01*
X50561928Y-67400000D01*
X45685000Y-67400000D01*
X45685000Y-66043651D01*
X87023256Y-66043651D01*
X87800000Y-66820395D01*
X88576744Y-66043651D01*
X88462029Y-65872730D01*
X88229389Y-65765235D01*
X87980248Y-65705191D01*
X87724180Y-65694906D01*
X87471025Y-65734775D01*
X87230513Y-65823265D01*
X87137971Y-65872730D01*
X87023256Y-66043651D01*
X45685000Y-66043651D01*
X45685000Y-64870424D01*
X51509181Y-64870424D01*
X51660099Y-65072090D01*
X51943918Y-65209582D01*
X52249109Y-65289063D01*
X52563941Y-65307476D01*
X52876315Y-65264115D01*
X53174228Y-65160645D01*
X53339901Y-65072090D01*
X53490819Y-64870424D01*
X52500000Y-63879605D01*
X51509181Y-64870424D01*
X45685000Y-64870424D01*
X45685000Y-63763941D01*
X50892524Y-63763941D01*
X50935885Y-64076315D01*
X51039355Y-64374228D01*
X51127910Y-64539901D01*
X51329576Y-64690819D01*
X52320395Y-63700000D01*
X52679605Y-63700000D01*
X53670424Y-64690819D01*
X53872090Y-64539901D01*
X54009582Y-64256082D01*
X54089063Y-63950891D01*
X54107476Y-63636059D01*
X54064115Y-63323685D01*
X53960645Y-63025772D01*
X53872090Y-62860099D01*
X53870174Y-62858665D01*
X56905000Y-62858665D01*
X56905000Y-63141335D01*
X56960147Y-63418574D01*
X57068320Y-63679727D01*
X57225363Y-63914759D01*
X57425241Y-64114637D01*
X57660273Y-64271680D01*
X57921426Y-64379853D01*
X58198665Y-64435000D01*
X58481335Y-64435000D01*
X58758574Y-64379853D01*
X59019727Y-64271680D01*
X59254759Y-64114637D01*
X59454637Y-63914759D01*
X59611680Y-63679727D01*
X59719853Y-63418574D01*
X59775000Y-63141335D01*
X59775000Y-62858665D01*
X67065000Y-62858665D01*
X67065000Y-63141335D01*
X67120147Y-63418574D01*
X67228320Y-63679727D01*
X67385363Y-63914759D01*
X67585241Y-64114637D01*
X67820273Y-64271680D01*
X68081426Y-64379853D01*
X68358665Y-64435000D01*
X68641335Y-64435000D01*
X68918574Y-64379853D01*
X69179727Y-64271680D01*
X69414759Y-64114637D01*
X69614637Y-63914759D01*
X69771680Y-63679727D01*
X69879853Y-63418574D01*
X69935000Y-63141335D01*
X69935000Y-62858665D01*
X70545000Y-62858665D01*
X70545000Y-63141335D01*
X70600147Y-63418574D01*
X70708320Y-63679727D01*
X70865363Y-63914759D01*
X71065241Y-64114637D01*
X71300273Y-64271680D01*
X71561426Y-64379853D01*
X71838665Y-64435000D01*
X72121335Y-64435000D01*
X72398574Y-64379853D01*
X72659727Y-64271680D01*
X72894759Y-64114637D01*
X73094637Y-63914759D01*
X73162407Y-63813333D01*
X78966273Y-63813333D01*
X79056762Y-63963769D01*
X79255222Y-64051230D01*
X79466931Y-64098294D01*
X79683755Y-64103151D01*
X79897360Y-64065614D01*
X80099537Y-63987127D01*
X80143238Y-63963769D01*
X80233727Y-63813333D01*
X79600000Y-63179605D01*
X78966273Y-63813333D01*
X73162407Y-63813333D01*
X73251680Y-63679727D01*
X73359853Y-63418574D01*
X73415000Y-63141335D01*
X73415000Y-63083755D01*
X78496849Y-63083755D01*
X78534386Y-63297360D01*
X78612873Y-63499537D01*
X78636231Y-63543238D01*
X78786667Y-63633727D01*
X79420395Y-63000000D01*
X79779605Y-63000000D01*
X80413333Y-63633727D01*
X80563769Y-63543238D01*
X80651230Y-63344778D01*
X80698294Y-63133069D01*
X80703151Y-62916245D01*
X80665614Y-62702640D01*
X80587127Y-62500463D01*
X80563769Y-62456762D01*
X80413333Y-62366273D01*
X79779605Y-63000000D01*
X79420395Y-63000000D01*
X78786667Y-62366273D01*
X78636231Y-62456762D01*
X78548770Y-62655222D01*
X78501706Y-62866931D01*
X78496849Y-63083755D01*
X73415000Y-63083755D01*
X73415000Y-62858665D01*
X73359853Y-62581426D01*
X73251680Y-62320273D01*
X73162408Y-62186667D01*
X78966273Y-62186667D01*
X79600000Y-62820395D01*
X80233727Y-62186667D01*
X80143238Y-62036231D01*
X79944778Y-61948770D01*
X79733069Y-61901706D01*
X79516245Y-61896849D01*
X79302640Y-61934386D01*
X79100463Y-62012873D01*
X79056762Y-62036231D01*
X78966273Y-62186667D01*
X73162408Y-62186667D01*
X73094637Y-62085241D01*
X72894759Y-61885363D01*
X72659727Y-61728320D01*
X72398574Y-61620147D01*
X72121335Y-61565000D01*
X71838665Y-61565000D01*
X71561426Y-61620147D01*
X71300273Y-61728320D01*
X71065241Y-61885363D01*
X70865363Y-62085241D01*
X70708320Y-62320273D01*
X70600147Y-62581426D01*
X70545000Y-62858665D01*
X69935000Y-62858665D01*
X69879853Y-62581426D01*
X69771680Y-62320273D01*
X69614637Y-62085241D01*
X69414759Y-61885363D01*
X69179727Y-61728320D01*
X68918574Y-61620147D01*
X68641335Y-61565000D01*
X68358665Y-61565000D01*
X68081426Y-61620147D01*
X67820273Y-61728320D01*
X67585241Y-61885363D01*
X67385363Y-62085241D01*
X67228320Y-62320273D01*
X67120147Y-62581426D01*
X67065000Y-62858665D01*
X59775000Y-62858665D01*
X59719853Y-62581426D01*
X59611680Y-62320273D01*
X59454637Y-62085241D01*
X59254759Y-61885363D01*
X59019727Y-61728320D01*
X58758574Y-61620147D01*
X58481335Y-61565000D01*
X58198665Y-61565000D01*
X57921426Y-61620147D01*
X57660273Y-61728320D01*
X57425241Y-61885363D01*
X57225363Y-62085241D01*
X57068320Y-62320273D01*
X56960147Y-62581426D01*
X56905000Y-62858665D01*
X53870174Y-62858665D01*
X53670424Y-62709181D01*
X52679605Y-63700000D01*
X52320395Y-63700000D01*
X51329576Y-62709181D01*
X51127910Y-62860099D01*
X50990418Y-63143918D01*
X50910937Y-63449109D01*
X50892524Y-63763941D01*
X45685000Y-63763941D01*
X45685000Y-61429117D01*
X45865000Y-61429117D01*
X45865000Y-61770883D01*
X45931675Y-62106081D01*
X46062463Y-62421831D01*
X46252337Y-62705998D01*
X46494002Y-62947663D01*
X46778169Y-63137537D01*
X47093919Y-63268325D01*
X47429117Y-63335000D01*
X47770883Y-63335000D01*
X48106081Y-63268325D01*
X48421831Y-63137537D01*
X48705998Y-62947663D01*
X48947663Y-62705998D01*
X49065544Y-62529576D01*
X51509181Y-62529576D01*
X52500000Y-63520395D01*
X53490819Y-62529576D01*
X53339901Y-62327910D01*
X53056082Y-62190418D01*
X52750891Y-62110937D01*
X52436059Y-62092524D01*
X52123685Y-62135885D01*
X51825772Y-62239355D01*
X51660099Y-62327910D01*
X51509181Y-62529576D01*
X49065544Y-62529576D01*
X49137537Y-62421831D01*
X49268325Y-62106081D01*
X49335000Y-61770883D01*
X49335000Y-61429117D01*
X49268325Y-61093919D01*
X49229423Y-61000000D01*
X86161928Y-61000000D01*
X86161928Y-63000000D01*
X86174188Y-63124482D01*
X86210498Y-63244180D01*
X86269463Y-63354494D01*
X86348815Y-63451185D01*
X86445506Y-63530537D01*
X86555820Y-63589502D01*
X86675518Y-63625812D01*
X86800000Y-63638072D01*
X88800000Y-63638072D01*
X88924482Y-63625812D01*
X89044180Y-63589502D01*
X89154494Y-63530537D01*
X89251185Y-63451185D01*
X89330537Y-63354494D01*
X89389502Y-63244180D01*
X89425812Y-63124482D01*
X89438072Y-63000000D01*
X89438072Y-61819268D01*
X97965000Y-61819268D01*
X97965000Y-62180732D01*
X98035518Y-62535250D01*
X98173844Y-62869199D01*
X98374662Y-63169744D01*
X98630256Y-63425338D01*
X98930801Y-63626156D01*
X99264750Y-63764482D01*
X99619268Y-63835000D01*
X99980732Y-63835000D01*
X100335250Y-63764482D01*
X100669199Y-63626156D01*
X100969744Y-63425338D01*
X101225338Y-63169744D01*
X101426156Y-62869199D01*
X101564482Y-62535250D01*
X101635000Y-62180732D01*
X101635000Y-62100000D01*
X109861928Y-62100000D01*
X109861928Y-64100000D01*
X109874188Y-64224482D01*
X109910498Y-64344180D01*
X109969463Y-64454494D01*
X110048815Y-64551185D01*
X110145506Y-64630537D01*
X110255820Y-64689502D01*
X110375518Y-64725812D01*
X110500000Y-64738072D01*
X112500000Y-64738072D01*
X112624482Y-64725812D01*
X112744180Y-64689502D01*
X112854494Y-64630537D01*
X112951185Y-64551185D01*
X113030537Y-64454494D01*
X113089502Y-64344180D01*
X113125812Y-64224482D01*
X113138072Y-64100000D01*
X113138072Y-63860000D01*
X124609388Y-63860000D01*
X124631785Y-64087400D01*
X124698115Y-64306060D01*
X124799105Y-64495000D01*
X124698115Y-64683940D01*
X124631785Y-64902600D01*
X124609388Y-65130000D01*
X124631785Y-65357400D01*
X124695093Y-65566098D01*
X124660498Y-65630820D01*
X124624188Y-65750518D01*
X124611928Y-65875000D01*
X124611928Y-66925000D01*
X124624188Y-67049482D01*
X124660498Y-67169180D01*
X124719463Y-67279494D01*
X124798815Y-67376185D01*
X124895506Y-67455537D01*
X125005820Y-67514502D01*
X125125518Y-67550812D01*
X125250000Y-67563072D01*
X126750000Y-67563072D01*
X126874482Y-67550812D01*
X126994180Y-67514502D01*
X127104494Y-67455537D01*
X127201185Y-67376185D01*
X127280537Y-67279494D01*
X127339502Y-67169180D01*
X127375812Y-67049482D01*
X127388072Y-66925000D01*
X127388072Y-65875000D01*
X127375812Y-65750518D01*
X127339502Y-65630820D01*
X127304907Y-65566098D01*
X127368215Y-65357400D01*
X127390612Y-65130000D01*
X127368215Y-64902600D01*
X127301885Y-64683940D01*
X127200895Y-64495000D01*
X127301885Y-64306060D01*
X127368215Y-64087400D01*
X127390612Y-63860000D01*
X127368215Y-63632600D01*
X127301885Y-63413940D01*
X127194171Y-63212421D01*
X127049212Y-63035788D01*
X126872579Y-62890829D01*
X126671060Y-62783115D01*
X126452400Y-62716785D01*
X126281979Y-62700000D01*
X125718021Y-62700000D01*
X125547600Y-62716785D01*
X125328940Y-62783115D01*
X125127421Y-62890829D01*
X124950788Y-63035788D01*
X124805829Y-63212421D01*
X124698115Y-63413940D01*
X124631785Y-63632600D01*
X124609388Y-63860000D01*
X113138072Y-63860000D01*
X113138072Y-62100000D01*
X113125812Y-61975518D01*
X113089502Y-61855820D01*
X113030537Y-61745506D01*
X112951185Y-61648815D01*
X112854494Y-61569463D01*
X112744180Y-61510498D01*
X112624482Y-61474188D01*
X112500000Y-61461928D01*
X110500000Y-61461928D01*
X110375518Y-61474188D01*
X110255820Y-61510498D01*
X110145506Y-61569463D01*
X110048815Y-61648815D01*
X109969463Y-61745506D01*
X109910498Y-61855820D01*
X109874188Y-61975518D01*
X109861928Y-62100000D01*
X101635000Y-62100000D01*
X101635000Y-61819268D01*
X101564482Y-61464750D01*
X101512256Y-61338665D01*
X117865000Y-61338665D01*
X117865000Y-61621335D01*
X117920147Y-61898574D01*
X118028320Y-62159727D01*
X118185363Y-62394759D01*
X118385241Y-62594637D01*
X118620273Y-62751680D01*
X118881426Y-62859853D01*
X119158665Y-62915000D01*
X119441335Y-62915000D01*
X119718574Y-62859853D01*
X119979727Y-62751680D01*
X120214759Y-62594637D01*
X120414637Y-62394759D01*
X120571680Y-62159727D01*
X120679853Y-61898574D01*
X120735000Y-61621335D01*
X120735000Y-61429117D01*
X129265000Y-61429117D01*
X129265000Y-61770883D01*
X129331675Y-62106081D01*
X129462463Y-62421831D01*
X129652337Y-62705998D01*
X129894002Y-62947663D01*
X130178169Y-63137537D01*
X130493919Y-63268325D01*
X130829117Y-63335000D01*
X131170883Y-63335000D01*
X131506081Y-63268325D01*
X131821831Y-63137537D01*
X132105998Y-62947663D01*
X132347663Y-62705998D01*
X132537537Y-62421831D01*
X132668325Y-62106081D01*
X132735000Y-61770883D01*
X132735000Y-61429117D01*
X132668325Y-61093919D01*
X132537537Y-60778169D01*
X132347663Y-60494002D01*
X132105998Y-60252337D01*
X131821831Y-60062463D01*
X131506081Y-59931675D01*
X131170883Y-59865000D01*
X130829117Y-59865000D01*
X130493919Y-59931675D01*
X130178169Y-60062463D01*
X129894002Y-60252337D01*
X129652337Y-60494002D01*
X129462463Y-60778169D01*
X129331675Y-61093919D01*
X129265000Y-61429117D01*
X120735000Y-61429117D01*
X120735000Y-61338665D01*
X120679853Y-61061426D01*
X120571680Y-60800273D01*
X120414637Y-60565241D01*
X120214759Y-60365363D01*
X119979727Y-60208320D01*
X119718574Y-60100147D01*
X119441335Y-60045000D01*
X119158665Y-60045000D01*
X118881426Y-60100147D01*
X118620273Y-60208320D01*
X118385241Y-60365363D01*
X118185363Y-60565241D01*
X118028320Y-60800273D01*
X117920147Y-61061426D01*
X117865000Y-61338665D01*
X101512256Y-61338665D01*
X101426156Y-61130801D01*
X101225338Y-60830256D01*
X100969744Y-60574662D01*
X100669199Y-60373844D01*
X100335250Y-60235518D01*
X99980732Y-60165000D01*
X99619268Y-60165000D01*
X99264750Y-60235518D01*
X98930801Y-60373844D01*
X98630256Y-60574662D01*
X98374662Y-60830256D01*
X98173844Y-61130801D01*
X98035518Y-61464750D01*
X97965000Y-61819268D01*
X89438072Y-61819268D01*
X89438072Y-61000000D01*
X89425812Y-60875518D01*
X89389502Y-60755820D01*
X89330537Y-60645506D01*
X89251185Y-60548815D01*
X89154494Y-60469463D01*
X89044180Y-60410498D01*
X88924482Y-60374188D01*
X88800000Y-60361928D01*
X86800000Y-60361928D01*
X86675518Y-60374188D01*
X86555820Y-60410498D01*
X86445506Y-60469463D01*
X86348815Y-60548815D01*
X86269463Y-60645506D01*
X86210498Y-60755820D01*
X86174188Y-60875518D01*
X86161928Y-61000000D01*
X49229423Y-61000000D01*
X49137537Y-60778169D01*
X48947663Y-60494002D01*
X48705998Y-60252337D01*
X48421831Y-60062463D01*
X48106081Y-59931675D01*
X47770883Y-59865000D01*
X47429117Y-59865000D01*
X47093919Y-59931675D01*
X46778169Y-60062463D01*
X46494002Y-60252337D01*
X46252337Y-60494002D01*
X46062463Y-60778169D01*
X45931675Y-61093919D01*
X45865000Y-61429117D01*
X45685000Y-61429117D01*
X45685000Y-59685000D01*
X132915000Y-59685000D01*
X132915001Y-82315000D01*
G37*
%TD.AperFunction*%
%TD*%
M02*
