%TF.GenerationSoftware,KiCad,Pcbnew,(5.1.12)-1*%
%TF.CreationDate,2022-12-13T06:15:17+01:00*%
%TF.ProjectId,MC34063_buck,4d433334-3036-4335-9f62-75636b2e6b69,rev?*%
%TF.SameCoordinates,Original*%
%TF.FileFunction,Copper,L2,Bot*%
%TF.FilePolarity,Positive*%
%FSLAX46Y46*%
G04 Gerber Fmt 4.6, Leading zero omitted, Abs format (unit mm)*
G04 Created by KiCad (PCBNEW (5.1.12)-1) date 2022-12-13 06:15:17*
%MOMM*%
%LPD*%
G01*
G04 APERTURE LIST*
%TA.AperFunction,ComponentPad*%
%ADD10C,1.600000*%
%TD*%
%TA.AperFunction,ComponentPad*%
%ADD11R,1.800000X1.800000*%
%TD*%
%TA.AperFunction,ComponentPad*%
%ADD12O,1.800000X1.800000*%
%TD*%
%TA.AperFunction,ComponentPad*%
%ADD13C,2.600000*%
%TD*%
%TA.AperFunction,ComponentPad*%
%ADD14R,2.600000X2.600000*%
%TD*%
%TA.AperFunction,ComponentPad*%
%ADD15C,2.400000*%
%TD*%
%TA.AperFunction,ComponentPad*%
%ADD16O,1.500000X1.050000*%
%TD*%
%TA.AperFunction,ComponentPad*%
%ADD17R,1.500000X1.050000*%
%TD*%
%TA.AperFunction,ComponentPad*%
%ADD18O,1.600000X1.600000*%
%TD*%
%TA.AperFunction,ComponentPad*%
%ADD19C,1.440000*%
%TD*%
%TA.AperFunction,ComponentPad*%
%ADD20R,1.600000X1.600000*%
%TD*%
%TA.AperFunction,ComponentPad*%
%ADD21R,2.000000X2.000000*%
%TD*%
%TA.AperFunction,ComponentPad*%
%ADD22C,2.000000*%
%TD*%
%TA.AperFunction,Conductor*%
%ADD23C,0.254000*%
%TD*%
%TA.AperFunction,Conductor*%
%ADD24C,0.100000*%
%TD*%
G04 APERTURE END LIST*
D10*
%TO.P,C2,1*%
%TO.N,Net-(C2-Pad1)*%
X73200000Y-73400000D03*
%TO.P,C2,2*%
%TO.N,GND*%
X78200000Y-73400000D03*
%TD*%
D11*
%TO.P,D1,1*%
%TO.N,Net-(D1-Pad1)*%
X79200000Y-79100000D03*
D12*
%TO.P,D1,2*%
%TO.N,GND*%
X71580000Y-79100000D03*
%TD*%
D13*
%TO.P,J1,2*%
%TO.N,GND*%
X52500000Y-63700000D03*
D14*
%TO.P,J1,1*%
%TO.N,Net-(C1-Pad1)*%
X52500000Y-68700000D03*
%TD*%
%TO.P,J2,1*%
%TO.N,Net-(C6-Pad1)*%
X127800000Y-70900000D03*
D13*
%TO.P,J2,2*%
%TO.N,GND*%
X127800000Y-75900000D03*
%TD*%
D15*
%TO.P,L1,1*%
%TO.N,Net-(D1-Pad1)*%
X84000000Y-75900000D03*
%TO.P,L1,2*%
%TO.N,Net-(C3-Pad1)*%
X89000000Y-75900000D03*
%TD*%
%TO.P,L2,2*%
%TO.N,Net-(C4-Pad1)*%
X99800000Y-67000000D03*
%TO.P,L2,1*%
%TO.N,Net-(C3-Pad1)*%
X99800000Y-62000000D03*
%TD*%
D16*
%TO.P,Q1,2*%
%TO.N,Net-(C5-Pad1)*%
X126000000Y-65130000D03*
%TO.P,Q1,3*%
%TO.N,Net-(C4-Pad1)*%
X126000000Y-63860000D03*
D17*
%TO.P,Q1,1*%
%TO.N,Net-(C6-Pad1)*%
X126000000Y-66400000D03*
%TD*%
D10*
%TO.P,R1,1*%
%TO.N,Net-(R1-Pad1)*%
X68500000Y-63000000D03*
D18*
%TO.P,R1,2*%
%TO.N,Net-(C1-Pad1)*%
X58340000Y-63000000D03*
%TD*%
D10*
%TO.P,R2,1*%
%TO.N,GND*%
X79600000Y-63000000D03*
D18*
%TO.P,R2,2*%
%TO.N,Net-(R2-Pad2)*%
X71980000Y-63000000D03*
%TD*%
D10*
%TO.P,R4,1*%
%TO.N,Net-(R2-Pad2)*%
X72000000Y-68000000D03*
D18*
%TO.P,R4,2*%
%TO.N,Net-(R4-Pad2)*%
X79620000Y-68000000D03*
%TD*%
%TO.P,R5,2*%
%TO.N,Net-(C4-Pad1)*%
X119300000Y-61480000D03*
D10*
%TO.P,R5,1*%
%TO.N,Net-(C5-Pad1)*%
X119300000Y-69100000D03*
%TD*%
D19*
%TO.P,RV1,1*%
%TO.N,Net-(R4-Pad2)*%
X97000000Y-73500000D03*
%TO.P,RV1,2*%
%TO.N,Net-(C3-Pad1)*%
X97000000Y-76040000D03*
%TO.P,RV1,3*%
%TO.N,N/C*%
X97000000Y-78580000D03*
%TD*%
D20*
%TO.P,U1,1*%
%TO.N,Net-(R1-Pad1)*%
X68100000Y-75600000D03*
D18*
%TO.P,U1,5*%
%TO.N,Net-(R2-Pad2)*%
X60480000Y-67980000D03*
%TO.P,U1,2*%
%TO.N,Net-(D1-Pad1)*%
X68100000Y-73060000D03*
%TO.P,U1,6*%
%TO.N,Net-(C1-Pad1)*%
X60480000Y-70520000D03*
%TO.P,U1,3*%
%TO.N,Net-(C2-Pad1)*%
X68100000Y-70520000D03*
%TO.P,U1,7*%
%TO.N,Net-(R1-Pad1)*%
X60480000Y-73060000D03*
%TO.P,U1,4*%
%TO.N,GND*%
X68100000Y-67980000D03*
%TO.P,U1,8*%
%TO.N,Net-(R1-Pad1)*%
X60480000Y-75600000D03*
%TD*%
D21*
%TO.P,C3,1*%
%TO.N,Net-(C3-Pad1)*%
X87800000Y-62000000D03*
D22*
%TO.P,C3,2*%
%TO.N,GND*%
X87800000Y-67000000D03*
%TD*%
%TO.P,C4,2*%
%TO.N,GND*%
X106400000Y-78500000D03*
D21*
%TO.P,C4,1*%
%TO.N,Net-(C4-Pad1)*%
X106400000Y-73500000D03*
%TD*%
D22*
%TO.P,C5,2*%
%TO.N,GND*%
X111500000Y-68100000D03*
D21*
%TO.P,C5,1*%
%TO.N,Net-(C5-Pad1)*%
X111500000Y-63100000D03*
%TD*%
%TO.P,C6,1*%
%TO.N,Net-(C6-Pad1)*%
X118000000Y-73500000D03*
D22*
%TO.P,C6,2*%
%TO.N,GND*%
X118000000Y-78500000D03*
%TD*%
D20*
%TO.P,C1,1*%
%TO.N,Net-(C1-Pad1)*%
X53900000Y-74500000D03*
D10*
%TO.P,C1,2*%
%TO.N,GND*%
X53900000Y-78000000D03*
%TD*%
D23*
%TO.N,GND*%
X132915001Y-81315000D02*
X45685000Y-81315000D01*
X45685000Y-79229117D01*
X45865000Y-79229117D01*
X45865000Y-79570883D01*
X45931675Y-79906081D01*
X46062463Y-80221831D01*
X46252337Y-80505998D01*
X46494002Y-80747663D01*
X46778169Y-80937537D01*
X47093919Y-81068325D01*
X47429117Y-81135000D01*
X47770883Y-81135000D01*
X48106081Y-81068325D01*
X48421831Y-80937537D01*
X48705998Y-80747663D01*
X48947663Y-80505998D01*
X49137537Y-80221831D01*
X49268325Y-79906081D01*
X49335000Y-79570883D01*
X49335000Y-79412261D01*
X70420305Y-79412261D01*
X70442262Y-79484658D01*
X70539166Y-79699229D01*
X70676069Y-79890772D01*
X70847710Y-80051926D01*
X71047492Y-80176498D01*
X71267738Y-80259701D01*
X71453000Y-80219022D01*
X71453000Y-79227000D01*
X71707000Y-79227000D01*
X71707000Y-80219022D01*
X71892262Y-80259701D01*
X72112508Y-80176498D01*
X72312290Y-80051926D01*
X72483931Y-79890772D01*
X72620834Y-79699229D01*
X72717738Y-79484658D01*
X72739695Y-79412261D01*
X72698563Y-79227000D01*
X71707000Y-79227000D01*
X71453000Y-79227000D01*
X70461437Y-79227000D01*
X70420305Y-79412261D01*
X49335000Y-79412261D01*
X49335000Y-79229117D01*
X49268325Y-78893919D01*
X49234946Y-78813333D01*
X53266273Y-78813333D01*
X53356762Y-78963769D01*
X53555222Y-79051230D01*
X53766931Y-79098294D01*
X53983755Y-79103151D01*
X54197360Y-79065614D01*
X54399537Y-78987127D01*
X54443238Y-78963769D01*
X54533727Y-78813333D01*
X54508134Y-78787739D01*
X70420305Y-78787739D01*
X70461437Y-78973000D01*
X71453000Y-78973000D01*
X71453000Y-77980978D01*
X71707000Y-77980978D01*
X71707000Y-78973000D01*
X72698563Y-78973000D01*
X72739695Y-78787739D01*
X72717738Y-78715342D01*
X72620834Y-78500771D01*
X72483931Y-78309228D01*
X72367596Y-78200000D01*
X77661928Y-78200000D01*
X77661928Y-80000000D01*
X77674188Y-80124482D01*
X77710498Y-80244180D01*
X77769463Y-80354494D01*
X77848815Y-80451185D01*
X77945506Y-80530537D01*
X78055820Y-80589502D01*
X78175518Y-80625812D01*
X78300000Y-80638072D01*
X80100000Y-80638072D01*
X80224482Y-80625812D01*
X80344180Y-80589502D01*
X80454494Y-80530537D01*
X80551185Y-80451185D01*
X80630537Y-80354494D01*
X80689502Y-80244180D01*
X80725812Y-80124482D01*
X80738072Y-80000000D01*
X80738072Y-78200000D01*
X80725812Y-78075518D01*
X80689502Y-77955820D01*
X80630537Y-77845506D01*
X80551185Y-77748815D01*
X80454494Y-77669463D01*
X80344180Y-77610498D01*
X80224482Y-77574188D01*
X80100000Y-77561928D01*
X78300000Y-77561928D01*
X78175518Y-77574188D01*
X78055820Y-77610498D01*
X77945506Y-77669463D01*
X77848815Y-77748815D01*
X77769463Y-77845506D01*
X77710498Y-77955820D01*
X77674188Y-78075518D01*
X77661928Y-78200000D01*
X72367596Y-78200000D01*
X72312290Y-78148074D01*
X72112508Y-78023502D01*
X71892262Y-77940299D01*
X71707000Y-77980978D01*
X71453000Y-77980978D01*
X71267738Y-77940299D01*
X71047492Y-78023502D01*
X70847710Y-78148074D01*
X70676069Y-78309228D01*
X70539166Y-78500771D01*
X70442262Y-78715342D01*
X70420305Y-78787739D01*
X54508134Y-78787739D01*
X53900000Y-78179605D01*
X53266273Y-78813333D01*
X49234946Y-78813333D01*
X49137537Y-78578169D01*
X48947663Y-78294002D01*
X48737416Y-78083755D01*
X52796849Y-78083755D01*
X52834386Y-78297360D01*
X52912873Y-78499537D01*
X52936231Y-78543238D01*
X53086667Y-78633727D01*
X53720395Y-78000000D01*
X54079605Y-78000000D01*
X54713333Y-78633727D01*
X54863769Y-78543238D01*
X54951230Y-78344778D01*
X54998294Y-78133069D01*
X55003151Y-77916245D01*
X54965614Y-77702640D01*
X54887127Y-77500463D01*
X54863769Y-77456762D01*
X54713333Y-77366273D01*
X54079605Y-78000000D01*
X53720395Y-78000000D01*
X53086667Y-77366273D01*
X52936231Y-77456762D01*
X52848770Y-77655222D01*
X52801706Y-77866931D01*
X52796849Y-78083755D01*
X48737416Y-78083755D01*
X48705998Y-78052337D01*
X48421831Y-77862463D01*
X48106081Y-77731675D01*
X47770883Y-77665000D01*
X47429117Y-77665000D01*
X47093919Y-77731675D01*
X46778169Y-77862463D01*
X46494002Y-78052337D01*
X46252337Y-78294002D01*
X46062463Y-78578169D01*
X45931675Y-78893919D01*
X45865000Y-79229117D01*
X45685000Y-79229117D01*
X45685000Y-77186667D01*
X53266273Y-77186667D01*
X53900000Y-77820395D01*
X54533727Y-77186667D01*
X54443238Y-77036231D01*
X54244778Y-76948770D01*
X54033069Y-76901706D01*
X53816245Y-76896849D01*
X53602640Y-76934386D01*
X53400463Y-77012873D01*
X53356762Y-77036231D01*
X53266273Y-77186667D01*
X45685000Y-77186667D01*
X45685000Y-73700000D01*
X52461928Y-73700000D01*
X52461928Y-75300000D01*
X52474188Y-75424482D01*
X52510498Y-75544180D01*
X52569463Y-75654494D01*
X52648815Y-75751185D01*
X52745506Y-75830537D01*
X52855820Y-75889502D01*
X52975518Y-75925812D01*
X53100000Y-75938072D01*
X54700000Y-75938072D01*
X54824482Y-75925812D01*
X54944180Y-75889502D01*
X55054494Y-75830537D01*
X55151185Y-75751185D01*
X55230537Y-75654494D01*
X55289502Y-75544180D01*
X55325812Y-75424482D01*
X55338072Y-75300000D01*
X55338072Y-73700000D01*
X55325812Y-73575518D01*
X55289502Y-73455820D01*
X55230537Y-73345506D01*
X55151185Y-73248815D01*
X55054494Y-73169463D01*
X54944180Y-73110498D01*
X54824482Y-73074188D01*
X54700000Y-73061928D01*
X53100000Y-73061928D01*
X52975518Y-73074188D01*
X52855820Y-73110498D01*
X52745506Y-73169463D01*
X52648815Y-73248815D01*
X52569463Y-73345506D01*
X52510498Y-73455820D01*
X52474188Y-73575518D01*
X52461928Y-73700000D01*
X45685000Y-73700000D01*
X45685000Y-67400000D01*
X50561928Y-67400000D01*
X50561928Y-70000000D01*
X50574188Y-70124482D01*
X50610498Y-70244180D01*
X50669463Y-70354494D01*
X50748815Y-70451185D01*
X50845506Y-70530537D01*
X50955820Y-70589502D01*
X51075518Y-70625812D01*
X51200000Y-70638072D01*
X53800000Y-70638072D01*
X53924482Y-70625812D01*
X54044180Y-70589502D01*
X54154494Y-70530537D01*
X54251185Y-70451185D01*
X54330537Y-70354494D01*
X54389502Y-70244180D01*
X54425812Y-70124482D01*
X54438072Y-70000000D01*
X54438072Y-67838665D01*
X59045000Y-67838665D01*
X59045000Y-68121335D01*
X59100147Y-68398574D01*
X59208320Y-68659727D01*
X59365363Y-68894759D01*
X59565241Y-69094637D01*
X59797759Y-69250000D01*
X59565241Y-69405363D01*
X59365363Y-69605241D01*
X59208320Y-69840273D01*
X59100147Y-70101426D01*
X59045000Y-70378665D01*
X59045000Y-70661335D01*
X59100147Y-70938574D01*
X59208320Y-71199727D01*
X59365363Y-71434759D01*
X59565241Y-71634637D01*
X59797759Y-71790000D01*
X59565241Y-71945363D01*
X59365363Y-72145241D01*
X59208320Y-72380273D01*
X59100147Y-72641426D01*
X59045000Y-72918665D01*
X59045000Y-73201335D01*
X59100147Y-73478574D01*
X59208320Y-73739727D01*
X59365363Y-73974759D01*
X59565241Y-74174637D01*
X59797759Y-74330000D01*
X59565241Y-74485363D01*
X59365363Y-74685241D01*
X59208320Y-74920273D01*
X59100147Y-75181426D01*
X59045000Y-75458665D01*
X59045000Y-75741335D01*
X59100147Y-76018574D01*
X59208320Y-76279727D01*
X59365363Y-76514759D01*
X59565241Y-76714637D01*
X59800273Y-76871680D01*
X60061426Y-76979853D01*
X60338665Y-77035000D01*
X60621335Y-77035000D01*
X60898574Y-76979853D01*
X61159727Y-76871680D01*
X61394759Y-76714637D01*
X61594637Y-76514759D01*
X61751680Y-76279727D01*
X61859853Y-76018574D01*
X61915000Y-75741335D01*
X61915000Y-75458665D01*
X61859853Y-75181426D01*
X61751680Y-74920273D01*
X61671317Y-74800000D01*
X66661928Y-74800000D01*
X66661928Y-76400000D01*
X66674188Y-76524482D01*
X66710498Y-76644180D01*
X66769463Y-76754494D01*
X66848815Y-76851185D01*
X66945506Y-76930537D01*
X67055820Y-76989502D01*
X67175518Y-77025812D01*
X67300000Y-77038072D01*
X68900000Y-77038072D01*
X69024482Y-77025812D01*
X69144180Y-76989502D01*
X69254494Y-76930537D01*
X69351185Y-76851185D01*
X69430537Y-76754494D01*
X69489502Y-76644180D01*
X69525812Y-76524482D01*
X69538072Y-76400000D01*
X69538072Y-75719268D01*
X82165000Y-75719268D01*
X82165000Y-76080732D01*
X82235518Y-76435250D01*
X82373844Y-76769199D01*
X82574662Y-77069744D01*
X82830256Y-77325338D01*
X83130801Y-77526156D01*
X83464750Y-77664482D01*
X83819268Y-77735000D01*
X84180732Y-77735000D01*
X84535250Y-77664482D01*
X84869199Y-77526156D01*
X85169744Y-77325338D01*
X85425338Y-77069744D01*
X85626156Y-76769199D01*
X85764482Y-76435250D01*
X85835000Y-76080732D01*
X85835000Y-75719268D01*
X87165000Y-75719268D01*
X87165000Y-76080732D01*
X87235518Y-76435250D01*
X87373844Y-76769199D01*
X87574662Y-77069744D01*
X87830256Y-77325338D01*
X88130801Y-77526156D01*
X88464750Y-77664482D01*
X88819268Y-77735000D01*
X89180732Y-77735000D01*
X89535250Y-77664482D01*
X89869199Y-77526156D01*
X90169744Y-77325338D01*
X90425338Y-77069744D01*
X90626156Y-76769199D01*
X90764482Y-76435250D01*
X90835000Y-76080732D01*
X90835000Y-75719268D01*
X90764482Y-75364750D01*
X90626156Y-75030801D01*
X90425338Y-74730256D01*
X90169744Y-74474662D01*
X89869199Y-74273844D01*
X89535250Y-74135518D01*
X89180732Y-74065000D01*
X88819268Y-74065000D01*
X88464750Y-74135518D01*
X88130801Y-74273844D01*
X87830256Y-74474662D01*
X87574662Y-74730256D01*
X87373844Y-75030801D01*
X87235518Y-75364750D01*
X87165000Y-75719268D01*
X85835000Y-75719268D01*
X85764482Y-75364750D01*
X85626156Y-75030801D01*
X85425338Y-74730256D01*
X85169744Y-74474662D01*
X84869199Y-74273844D01*
X84535250Y-74135518D01*
X84180732Y-74065000D01*
X83819268Y-74065000D01*
X83464750Y-74135518D01*
X83130801Y-74273844D01*
X82830256Y-74474662D01*
X82574662Y-74730256D01*
X82373844Y-75030801D01*
X82235518Y-75364750D01*
X82165000Y-75719268D01*
X69538072Y-75719268D01*
X69538072Y-74800000D01*
X69525812Y-74675518D01*
X69489502Y-74555820D01*
X69430537Y-74445506D01*
X69351185Y-74348815D01*
X69254494Y-74269463D01*
X69144180Y-74210498D01*
X69024482Y-74174188D01*
X69016039Y-74173357D01*
X69214637Y-73974759D01*
X69371680Y-73739727D01*
X69479853Y-73478574D01*
X69523596Y-73258665D01*
X71765000Y-73258665D01*
X71765000Y-73541335D01*
X71820147Y-73818574D01*
X71928320Y-74079727D01*
X72085363Y-74314759D01*
X72285241Y-74514637D01*
X72520273Y-74671680D01*
X72781426Y-74779853D01*
X73058665Y-74835000D01*
X73341335Y-74835000D01*
X73618574Y-74779853D01*
X73879727Y-74671680D01*
X74114759Y-74514637D01*
X74314637Y-74314759D01*
X74382407Y-74213333D01*
X77566273Y-74213333D01*
X77656762Y-74363769D01*
X77855222Y-74451230D01*
X78066931Y-74498294D01*
X78283755Y-74503151D01*
X78497360Y-74465614D01*
X78699537Y-74387127D01*
X78743238Y-74363769D01*
X78833727Y-74213333D01*
X78200000Y-73579605D01*
X77566273Y-74213333D01*
X74382407Y-74213333D01*
X74471680Y-74079727D01*
X74579853Y-73818574D01*
X74635000Y-73541335D01*
X74635000Y-73483755D01*
X77096849Y-73483755D01*
X77134386Y-73697360D01*
X77212873Y-73899537D01*
X77236231Y-73943238D01*
X77386667Y-74033727D01*
X78020395Y-73400000D01*
X78379605Y-73400000D01*
X79013333Y-74033727D01*
X79163769Y-73943238D01*
X79251230Y-73744778D01*
X79298294Y-73533069D01*
X79302024Y-73366544D01*
X95645000Y-73366544D01*
X95645000Y-73633456D01*
X95697072Y-73895239D01*
X95799215Y-74141833D01*
X95947503Y-74363762D01*
X96136238Y-74552497D01*
X96358167Y-74700785D01*
X96525266Y-74770000D01*
X96358167Y-74839215D01*
X96136238Y-74987503D01*
X95947503Y-75176238D01*
X95799215Y-75398167D01*
X95697072Y-75644761D01*
X95645000Y-75906544D01*
X95645000Y-76173456D01*
X95697072Y-76435239D01*
X95799215Y-76681833D01*
X95947503Y-76903762D01*
X96136238Y-77092497D01*
X96358167Y-77240785D01*
X96525266Y-77310000D01*
X96358167Y-77379215D01*
X96136238Y-77527503D01*
X95947503Y-77716238D01*
X95799215Y-77938167D01*
X95697072Y-78184761D01*
X95645000Y-78446544D01*
X95645000Y-78713456D01*
X95697072Y-78975239D01*
X95799215Y-79221833D01*
X95947503Y-79443762D01*
X96136238Y-79632497D01*
X96358167Y-79780785D01*
X96604761Y-79882928D01*
X96866544Y-79935000D01*
X97133456Y-79935000D01*
X97395239Y-79882928D01*
X97641833Y-79780785D01*
X97863762Y-79632497D01*
X98039910Y-79456349D01*
X105623256Y-79456349D01*
X105737971Y-79627270D01*
X105970611Y-79734765D01*
X106219752Y-79794809D01*
X106475820Y-79805094D01*
X106728975Y-79765225D01*
X106969487Y-79676735D01*
X107062029Y-79627270D01*
X107176744Y-79456349D01*
X117223256Y-79456349D01*
X117337971Y-79627270D01*
X117570611Y-79734765D01*
X117819752Y-79794809D01*
X118075820Y-79805094D01*
X118328975Y-79765225D01*
X118569487Y-79676735D01*
X118662029Y-79627270D01*
X118776744Y-79456349D01*
X118000000Y-78679605D01*
X117223256Y-79456349D01*
X107176744Y-79456349D01*
X106400000Y-78679605D01*
X105623256Y-79456349D01*
X98039910Y-79456349D01*
X98052497Y-79443762D01*
X98200785Y-79221833D01*
X98302928Y-78975239D01*
X98355000Y-78713456D01*
X98355000Y-78575820D01*
X105094906Y-78575820D01*
X105134775Y-78828975D01*
X105223265Y-79069487D01*
X105272730Y-79162029D01*
X105443651Y-79276744D01*
X106220395Y-78500000D01*
X106579605Y-78500000D01*
X107356349Y-79276744D01*
X107527270Y-79162029D01*
X107634765Y-78929389D01*
X107694809Y-78680248D01*
X107699003Y-78575820D01*
X116694906Y-78575820D01*
X116734775Y-78828975D01*
X116823265Y-79069487D01*
X116872730Y-79162029D01*
X117043651Y-79276744D01*
X117820395Y-78500000D01*
X118179605Y-78500000D01*
X118956349Y-79276744D01*
X119027311Y-79229117D01*
X129265000Y-79229117D01*
X129265000Y-79570883D01*
X129331675Y-79906081D01*
X129462463Y-80221831D01*
X129652337Y-80505998D01*
X129894002Y-80747663D01*
X130178169Y-80937537D01*
X130493919Y-81068325D01*
X130829117Y-81135000D01*
X131170883Y-81135000D01*
X131506081Y-81068325D01*
X131821831Y-80937537D01*
X132105998Y-80747663D01*
X132347663Y-80505998D01*
X132537537Y-80221831D01*
X132668325Y-79906081D01*
X132735000Y-79570883D01*
X132735000Y-79229117D01*
X132668325Y-78893919D01*
X132537537Y-78578169D01*
X132347663Y-78294002D01*
X132105998Y-78052337D01*
X131821831Y-77862463D01*
X131506081Y-77731675D01*
X131170883Y-77665000D01*
X130829117Y-77665000D01*
X130493919Y-77731675D01*
X130178169Y-77862463D01*
X129894002Y-78052337D01*
X129652337Y-78294002D01*
X129462463Y-78578169D01*
X129331675Y-78893919D01*
X129265000Y-79229117D01*
X119027311Y-79229117D01*
X119127270Y-79162029D01*
X119234765Y-78929389D01*
X119294809Y-78680248D01*
X119305094Y-78424180D01*
X119265225Y-78171025D01*
X119176735Y-77930513D01*
X119127270Y-77837971D01*
X118956349Y-77723256D01*
X118179605Y-78500000D01*
X117820395Y-78500000D01*
X117043651Y-77723256D01*
X116872730Y-77837971D01*
X116765235Y-78070611D01*
X116705191Y-78319752D01*
X116694906Y-78575820D01*
X107699003Y-78575820D01*
X107705094Y-78424180D01*
X107665225Y-78171025D01*
X107576735Y-77930513D01*
X107527270Y-77837971D01*
X107356349Y-77723256D01*
X106579605Y-78500000D01*
X106220395Y-78500000D01*
X105443651Y-77723256D01*
X105272730Y-77837971D01*
X105165235Y-78070611D01*
X105105191Y-78319752D01*
X105094906Y-78575820D01*
X98355000Y-78575820D01*
X98355000Y-78446544D01*
X98302928Y-78184761D01*
X98200785Y-77938167D01*
X98052497Y-77716238D01*
X97879910Y-77543651D01*
X105623256Y-77543651D01*
X106400000Y-78320395D01*
X107176744Y-77543651D01*
X117223256Y-77543651D01*
X118000000Y-78320395D01*
X118776744Y-77543651D01*
X118662029Y-77372730D01*
X118429389Y-77265235D01*
X118180248Y-77205191D01*
X117924180Y-77194906D01*
X117671025Y-77234775D01*
X117430513Y-77323265D01*
X117337971Y-77372730D01*
X117223256Y-77543651D01*
X107176744Y-77543651D01*
X107062029Y-77372730D01*
X106829389Y-77265235D01*
X106580248Y-77205191D01*
X106324180Y-77194906D01*
X106071025Y-77234775D01*
X105830513Y-77323265D01*
X105737971Y-77372730D01*
X105623256Y-77543651D01*
X97879910Y-77543651D01*
X97863762Y-77527503D01*
X97641833Y-77379215D01*
X97474734Y-77310000D01*
X97641833Y-77240785D01*
X97863762Y-77092497D01*
X97885835Y-77070424D01*
X126809181Y-77070424D01*
X126960099Y-77272090D01*
X127243918Y-77409582D01*
X127549109Y-77489063D01*
X127863941Y-77507476D01*
X128176315Y-77464115D01*
X128474228Y-77360645D01*
X128639901Y-77272090D01*
X128790819Y-77070424D01*
X127800000Y-76079605D01*
X126809181Y-77070424D01*
X97885835Y-77070424D01*
X98052497Y-76903762D01*
X98200785Y-76681833D01*
X98302928Y-76435239D01*
X98355000Y-76173456D01*
X98355000Y-75963941D01*
X126192524Y-75963941D01*
X126235885Y-76276315D01*
X126339355Y-76574228D01*
X126427910Y-76739901D01*
X126629576Y-76890819D01*
X127620395Y-75900000D01*
X127979605Y-75900000D01*
X128970424Y-76890819D01*
X129172090Y-76739901D01*
X129309582Y-76456082D01*
X129389063Y-76150891D01*
X129407476Y-75836059D01*
X129364115Y-75523685D01*
X129260645Y-75225772D01*
X129172090Y-75060099D01*
X128970424Y-74909181D01*
X127979605Y-75900000D01*
X127620395Y-75900000D01*
X126629576Y-74909181D01*
X126427910Y-75060099D01*
X126290418Y-75343918D01*
X126210937Y-75649109D01*
X126192524Y-75963941D01*
X98355000Y-75963941D01*
X98355000Y-75906544D01*
X98302928Y-75644761D01*
X98200785Y-75398167D01*
X98052497Y-75176238D01*
X97863762Y-74987503D01*
X97641833Y-74839215D01*
X97474734Y-74770000D01*
X97641833Y-74700785D01*
X97863762Y-74552497D01*
X98052497Y-74363762D01*
X98200785Y-74141833D01*
X98302928Y-73895239D01*
X98355000Y-73633456D01*
X98355000Y-73366544D01*
X98302928Y-73104761D01*
X98200785Y-72858167D01*
X98052497Y-72636238D01*
X97916259Y-72500000D01*
X104761928Y-72500000D01*
X104761928Y-74500000D01*
X104774188Y-74624482D01*
X104810498Y-74744180D01*
X104869463Y-74854494D01*
X104948815Y-74951185D01*
X105045506Y-75030537D01*
X105155820Y-75089502D01*
X105275518Y-75125812D01*
X105400000Y-75138072D01*
X107400000Y-75138072D01*
X107524482Y-75125812D01*
X107644180Y-75089502D01*
X107754494Y-75030537D01*
X107851185Y-74951185D01*
X107930537Y-74854494D01*
X107989502Y-74744180D01*
X108025812Y-74624482D01*
X108038072Y-74500000D01*
X108038072Y-72500000D01*
X116361928Y-72500000D01*
X116361928Y-74500000D01*
X116374188Y-74624482D01*
X116410498Y-74744180D01*
X116469463Y-74854494D01*
X116548815Y-74951185D01*
X116645506Y-75030537D01*
X116755820Y-75089502D01*
X116875518Y-75125812D01*
X117000000Y-75138072D01*
X119000000Y-75138072D01*
X119124482Y-75125812D01*
X119244180Y-75089502D01*
X119354494Y-75030537D01*
X119451185Y-74951185D01*
X119530537Y-74854494D01*
X119589502Y-74744180D01*
X119593932Y-74729576D01*
X126809181Y-74729576D01*
X127800000Y-75720395D01*
X128790819Y-74729576D01*
X128639901Y-74527910D01*
X128356082Y-74390418D01*
X128050891Y-74310937D01*
X127736059Y-74292524D01*
X127423685Y-74335885D01*
X127125772Y-74439355D01*
X126960099Y-74527910D01*
X126809181Y-74729576D01*
X119593932Y-74729576D01*
X119625812Y-74624482D01*
X119638072Y-74500000D01*
X119638072Y-72500000D01*
X119625812Y-72375518D01*
X119589502Y-72255820D01*
X119530537Y-72145506D01*
X119451185Y-72048815D01*
X119354494Y-71969463D01*
X119244180Y-71910498D01*
X119124482Y-71874188D01*
X119000000Y-71861928D01*
X117000000Y-71861928D01*
X116875518Y-71874188D01*
X116755820Y-71910498D01*
X116645506Y-71969463D01*
X116548815Y-72048815D01*
X116469463Y-72145506D01*
X116410498Y-72255820D01*
X116374188Y-72375518D01*
X116361928Y-72500000D01*
X108038072Y-72500000D01*
X108025812Y-72375518D01*
X107989502Y-72255820D01*
X107930537Y-72145506D01*
X107851185Y-72048815D01*
X107754494Y-71969463D01*
X107644180Y-71910498D01*
X107524482Y-71874188D01*
X107400000Y-71861928D01*
X105400000Y-71861928D01*
X105275518Y-71874188D01*
X105155820Y-71910498D01*
X105045506Y-71969463D01*
X104948815Y-72048815D01*
X104869463Y-72145506D01*
X104810498Y-72255820D01*
X104774188Y-72375518D01*
X104761928Y-72500000D01*
X97916259Y-72500000D01*
X97863762Y-72447503D01*
X97641833Y-72299215D01*
X97395239Y-72197072D01*
X97133456Y-72145000D01*
X96866544Y-72145000D01*
X96604761Y-72197072D01*
X96358167Y-72299215D01*
X96136238Y-72447503D01*
X95947503Y-72636238D01*
X95799215Y-72858167D01*
X95697072Y-73104761D01*
X95645000Y-73366544D01*
X79302024Y-73366544D01*
X79303151Y-73316245D01*
X79265614Y-73102640D01*
X79187127Y-72900463D01*
X79163769Y-72856762D01*
X79013333Y-72766273D01*
X78379605Y-73400000D01*
X78020395Y-73400000D01*
X77386667Y-72766273D01*
X77236231Y-72856762D01*
X77148770Y-73055222D01*
X77101706Y-73266931D01*
X77096849Y-73483755D01*
X74635000Y-73483755D01*
X74635000Y-73258665D01*
X74579853Y-72981426D01*
X74471680Y-72720273D01*
X74382408Y-72586667D01*
X77566273Y-72586667D01*
X78200000Y-73220395D01*
X78833727Y-72586667D01*
X78743238Y-72436231D01*
X78544778Y-72348770D01*
X78333069Y-72301706D01*
X78116245Y-72296849D01*
X77902640Y-72334386D01*
X77700463Y-72412873D01*
X77656762Y-72436231D01*
X77566273Y-72586667D01*
X74382408Y-72586667D01*
X74314637Y-72485241D01*
X74114759Y-72285363D01*
X73879727Y-72128320D01*
X73618574Y-72020147D01*
X73341335Y-71965000D01*
X73058665Y-71965000D01*
X72781426Y-72020147D01*
X72520273Y-72128320D01*
X72285241Y-72285363D01*
X72085363Y-72485241D01*
X71928320Y-72720273D01*
X71820147Y-72981426D01*
X71765000Y-73258665D01*
X69523596Y-73258665D01*
X69535000Y-73201335D01*
X69535000Y-72918665D01*
X69479853Y-72641426D01*
X69371680Y-72380273D01*
X69214637Y-72145241D01*
X69014759Y-71945363D01*
X68782241Y-71790000D01*
X69014759Y-71634637D01*
X69214637Y-71434759D01*
X69371680Y-71199727D01*
X69479853Y-70938574D01*
X69535000Y-70661335D01*
X69535000Y-70378665D01*
X69479853Y-70101426D01*
X69371680Y-69840273D01*
X69214637Y-69605241D01*
X69014759Y-69405363D01*
X68779727Y-69248320D01*
X68518574Y-69140147D01*
X68241335Y-69085000D01*
X67958665Y-69085000D01*
X67681426Y-69140147D01*
X67420273Y-69248320D01*
X67185241Y-69405363D01*
X66985363Y-69605241D01*
X66828320Y-69840273D01*
X66720147Y-70101426D01*
X66665000Y-70378665D01*
X66665000Y-70661335D01*
X66720147Y-70938574D01*
X66828320Y-71199727D01*
X66985363Y-71434759D01*
X67185241Y-71634637D01*
X67417759Y-71790000D01*
X67185241Y-71945363D01*
X66985363Y-72145241D01*
X66828320Y-72380273D01*
X66720147Y-72641426D01*
X66665000Y-72918665D01*
X66665000Y-73201335D01*
X66720147Y-73478574D01*
X66828320Y-73739727D01*
X66985363Y-73974759D01*
X67183961Y-74173357D01*
X67175518Y-74174188D01*
X67055820Y-74210498D01*
X66945506Y-74269463D01*
X66848815Y-74348815D01*
X66769463Y-74445506D01*
X66710498Y-74555820D01*
X66674188Y-74675518D01*
X66661928Y-74800000D01*
X61671317Y-74800000D01*
X61594637Y-74685241D01*
X61394759Y-74485363D01*
X61162241Y-74330000D01*
X61394759Y-74174637D01*
X61594637Y-73974759D01*
X61751680Y-73739727D01*
X61859853Y-73478574D01*
X61915000Y-73201335D01*
X61915000Y-72918665D01*
X61859853Y-72641426D01*
X61751680Y-72380273D01*
X61594637Y-72145241D01*
X61394759Y-71945363D01*
X61162241Y-71790000D01*
X61394759Y-71634637D01*
X61594637Y-71434759D01*
X61751680Y-71199727D01*
X61859853Y-70938574D01*
X61915000Y-70661335D01*
X61915000Y-70378665D01*
X61859853Y-70101426D01*
X61751680Y-69840273D01*
X61594637Y-69605241D01*
X61394759Y-69405363D01*
X61162241Y-69250000D01*
X61394759Y-69094637D01*
X61594637Y-68894759D01*
X61751680Y-68659727D01*
X61859853Y-68398574D01*
X61884131Y-68276521D01*
X67039681Y-68276521D01*
X67053632Y-68322536D01*
X67140563Y-68520091D01*
X67264365Y-68696890D01*
X67420280Y-68846139D01*
X67602316Y-68962103D01*
X67803478Y-69040325D01*
X67973000Y-68998407D01*
X67973000Y-68107000D01*
X68227000Y-68107000D01*
X68227000Y-68998407D01*
X68396522Y-69040325D01*
X68597684Y-68962103D01*
X68779720Y-68846139D01*
X68935635Y-68696890D01*
X69059437Y-68520091D01*
X69146368Y-68322536D01*
X69160319Y-68276521D01*
X69117858Y-68107000D01*
X68227000Y-68107000D01*
X67973000Y-68107000D01*
X67082142Y-68107000D01*
X67039681Y-68276521D01*
X61884131Y-68276521D01*
X61915000Y-68121335D01*
X61915000Y-67858665D01*
X70565000Y-67858665D01*
X70565000Y-68141335D01*
X70620147Y-68418574D01*
X70728320Y-68679727D01*
X70885363Y-68914759D01*
X71085241Y-69114637D01*
X71320273Y-69271680D01*
X71581426Y-69379853D01*
X71858665Y-69435000D01*
X72141335Y-69435000D01*
X72418574Y-69379853D01*
X72679727Y-69271680D01*
X72914759Y-69114637D01*
X73114637Y-68914759D01*
X73271680Y-68679727D01*
X73379853Y-68418574D01*
X73435000Y-68141335D01*
X73435000Y-67858665D01*
X78185000Y-67858665D01*
X78185000Y-68141335D01*
X78240147Y-68418574D01*
X78348320Y-68679727D01*
X78505363Y-68914759D01*
X78705241Y-69114637D01*
X78940273Y-69271680D01*
X79201426Y-69379853D01*
X79478665Y-69435000D01*
X79761335Y-69435000D01*
X80038574Y-69379853D01*
X80299727Y-69271680D01*
X80534759Y-69114637D01*
X80593047Y-69056349D01*
X110723256Y-69056349D01*
X110837971Y-69227270D01*
X111070611Y-69334765D01*
X111319752Y-69394809D01*
X111575820Y-69405094D01*
X111828975Y-69365225D01*
X112069487Y-69276735D01*
X112162029Y-69227270D01*
X112276744Y-69056349D01*
X112179060Y-68958665D01*
X117865000Y-68958665D01*
X117865000Y-69241335D01*
X117920147Y-69518574D01*
X118028320Y-69779727D01*
X118185363Y-70014759D01*
X118385241Y-70214637D01*
X118620273Y-70371680D01*
X118881426Y-70479853D01*
X119158665Y-70535000D01*
X119441335Y-70535000D01*
X119718574Y-70479853D01*
X119979727Y-70371680D01*
X120214759Y-70214637D01*
X120414637Y-70014759D01*
X120571680Y-69779727D01*
X120646125Y-69600000D01*
X125861928Y-69600000D01*
X125861928Y-72200000D01*
X125874188Y-72324482D01*
X125910498Y-72444180D01*
X125969463Y-72554494D01*
X126048815Y-72651185D01*
X126145506Y-72730537D01*
X126255820Y-72789502D01*
X126375518Y-72825812D01*
X126500000Y-72838072D01*
X129100000Y-72838072D01*
X129224482Y-72825812D01*
X129344180Y-72789502D01*
X129454494Y-72730537D01*
X129551185Y-72651185D01*
X129630537Y-72554494D01*
X129689502Y-72444180D01*
X129725812Y-72324482D01*
X129738072Y-72200000D01*
X129738072Y-69600000D01*
X129725812Y-69475518D01*
X129689502Y-69355820D01*
X129630537Y-69245506D01*
X129551185Y-69148815D01*
X129454494Y-69069463D01*
X129344180Y-69010498D01*
X129224482Y-68974188D01*
X129100000Y-68961928D01*
X126500000Y-68961928D01*
X126375518Y-68974188D01*
X126255820Y-69010498D01*
X126145506Y-69069463D01*
X126048815Y-69148815D01*
X125969463Y-69245506D01*
X125910498Y-69355820D01*
X125874188Y-69475518D01*
X125861928Y-69600000D01*
X120646125Y-69600000D01*
X120679853Y-69518574D01*
X120735000Y-69241335D01*
X120735000Y-68958665D01*
X120679853Y-68681426D01*
X120571680Y-68420273D01*
X120414637Y-68185241D01*
X120214759Y-67985363D01*
X119979727Y-67828320D01*
X119718574Y-67720147D01*
X119441335Y-67665000D01*
X119158665Y-67665000D01*
X118881426Y-67720147D01*
X118620273Y-67828320D01*
X118385241Y-67985363D01*
X118185363Y-68185241D01*
X118028320Y-68420273D01*
X117920147Y-68681426D01*
X117865000Y-68958665D01*
X112179060Y-68958665D01*
X111500000Y-68279605D01*
X110723256Y-69056349D01*
X80593047Y-69056349D01*
X80734637Y-68914759D01*
X80891680Y-68679727D01*
X80999853Y-68418574D01*
X81055000Y-68141335D01*
X81055000Y-67956349D01*
X87023256Y-67956349D01*
X87137971Y-68127270D01*
X87370611Y-68234765D01*
X87619752Y-68294809D01*
X87875820Y-68305094D01*
X88128975Y-68265225D01*
X88369487Y-68176735D01*
X88462029Y-68127270D01*
X88576744Y-67956349D01*
X87800000Y-67179605D01*
X87023256Y-67956349D01*
X81055000Y-67956349D01*
X81055000Y-67858665D01*
X80999853Y-67581426D01*
X80891680Y-67320273D01*
X80734637Y-67085241D01*
X80725216Y-67075820D01*
X86494906Y-67075820D01*
X86534775Y-67328975D01*
X86623265Y-67569487D01*
X86672730Y-67662029D01*
X86843651Y-67776744D01*
X87620395Y-67000000D01*
X87979605Y-67000000D01*
X88756349Y-67776744D01*
X88927270Y-67662029D01*
X89034765Y-67429389D01*
X89094809Y-67180248D01*
X89105094Y-66924180D01*
X89088572Y-66819268D01*
X97965000Y-66819268D01*
X97965000Y-67180732D01*
X98035518Y-67535250D01*
X98173844Y-67869199D01*
X98374662Y-68169744D01*
X98630256Y-68425338D01*
X98930801Y-68626156D01*
X99264750Y-68764482D01*
X99619268Y-68835000D01*
X99980732Y-68835000D01*
X100335250Y-68764482D01*
X100669199Y-68626156D01*
X100969744Y-68425338D01*
X101219262Y-68175820D01*
X110194906Y-68175820D01*
X110234775Y-68428975D01*
X110323265Y-68669487D01*
X110372730Y-68762029D01*
X110543651Y-68876744D01*
X111320395Y-68100000D01*
X111679605Y-68100000D01*
X112456349Y-68876744D01*
X112627270Y-68762029D01*
X112734765Y-68529389D01*
X112794809Y-68280248D01*
X112805094Y-68024180D01*
X112765225Y-67771025D01*
X112676735Y-67530513D01*
X112627270Y-67437971D01*
X112456349Y-67323256D01*
X111679605Y-68100000D01*
X111320395Y-68100000D01*
X110543651Y-67323256D01*
X110372730Y-67437971D01*
X110265235Y-67670611D01*
X110205191Y-67919752D01*
X110194906Y-68175820D01*
X101219262Y-68175820D01*
X101225338Y-68169744D01*
X101426156Y-67869199D01*
X101564482Y-67535250D01*
X101635000Y-67180732D01*
X101635000Y-67143651D01*
X110723256Y-67143651D01*
X111500000Y-67920395D01*
X112276744Y-67143651D01*
X112162029Y-66972730D01*
X111929389Y-66865235D01*
X111680248Y-66805191D01*
X111424180Y-66794906D01*
X111171025Y-66834775D01*
X110930513Y-66923265D01*
X110837971Y-66972730D01*
X110723256Y-67143651D01*
X101635000Y-67143651D01*
X101635000Y-66819268D01*
X101564482Y-66464750D01*
X101426156Y-66130801D01*
X101225338Y-65830256D01*
X100969744Y-65574662D01*
X100669199Y-65373844D01*
X100335250Y-65235518D01*
X99980732Y-65165000D01*
X99619268Y-65165000D01*
X99264750Y-65235518D01*
X98930801Y-65373844D01*
X98630256Y-65574662D01*
X98374662Y-65830256D01*
X98173844Y-66130801D01*
X98035518Y-66464750D01*
X97965000Y-66819268D01*
X89088572Y-66819268D01*
X89065225Y-66671025D01*
X88976735Y-66430513D01*
X88927270Y-66337971D01*
X88756349Y-66223256D01*
X87979605Y-67000000D01*
X87620395Y-67000000D01*
X86843651Y-66223256D01*
X86672730Y-66337971D01*
X86565235Y-66570611D01*
X86505191Y-66819752D01*
X86494906Y-67075820D01*
X80725216Y-67075820D01*
X80534759Y-66885363D01*
X80299727Y-66728320D01*
X80038574Y-66620147D01*
X79761335Y-66565000D01*
X79478665Y-66565000D01*
X79201426Y-66620147D01*
X78940273Y-66728320D01*
X78705241Y-66885363D01*
X78505363Y-67085241D01*
X78348320Y-67320273D01*
X78240147Y-67581426D01*
X78185000Y-67858665D01*
X73435000Y-67858665D01*
X73379853Y-67581426D01*
X73271680Y-67320273D01*
X73114637Y-67085241D01*
X72914759Y-66885363D01*
X72679727Y-66728320D01*
X72418574Y-66620147D01*
X72141335Y-66565000D01*
X71858665Y-66565000D01*
X71581426Y-66620147D01*
X71320273Y-66728320D01*
X71085241Y-66885363D01*
X70885363Y-67085241D01*
X70728320Y-67320273D01*
X70620147Y-67581426D01*
X70565000Y-67858665D01*
X61915000Y-67858665D01*
X61915000Y-67838665D01*
X61884132Y-67683479D01*
X67039681Y-67683479D01*
X67082142Y-67853000D01*
X67973000Y-67853000D01*
X67973000Y-66961593D01*
X68227000Y-66961593D01*
X68227000Y-67853000D01*
X69117858Y-67853000D01*
X69160319Y-67683479D01*
X69146368Y-67637464D01*
X69059437Y-67439909D01*
X68935635Y-67263110D01*
X68779720Y-67113861D01*
X68597684Y-66997897D01*
X68396522Y-66919675D01*
X68227000Y-66961593D01*
X67973000Y-66961593D01*
X67803478Y-66919675D01*
X67602316Y-66997897D01*
X67420280Y-67113861D01*
X67264365Y-67263110D01*
X67140563Y-67439909D01*
X67053632Y-67637464D01*
X67039681Y-67683479D01*
X61884132Y-67683479D01*
X61859853Y-67561426D01*
X61751680Y-67300273D01*
X61594637Y-67065241D01*
X61394759Y-66865363D01*
X61159727Y-66708320D01*
X60898574Y-66600147D01*
X60621335Y-66545000D01*
X60338665Y-66545000D01*
X60061426Y-66600147D01*
X59800273Y-66708320D01*
X59565241Y-66865363D01*
X59365363Y-67065241D01*
X59208320Y-67300273D01*
X59100147Y-67561426D01*
X59045000Y-67838665D01*
X54438072Y-67838665D01*
X54438072Y-67400000D01*
X54425812Y-67275518D01*
X54389502Y-67155820D01*
X54330537Y-67045506D01*
X54251185Y-66948815D01*
X54154494Y-66869463D01*
X54044180Y-66810498D01*
X53924482Y-66774188D01*
X53800000Y-66761928D01*
X51200000Y-66761928D01*
X51075518Y-66774188D01*
X50955820Y-66810498D01*
X50845506Y-66869463D01*
X50748815Y-66948815D01*
X50669463Y-67045506D01*
X50610498Y-67155820D01*
X50574188Y-67275518D01*
X50561928Y-67400000D01*
X45685000Y-67400000D01*
X45685000Y-66043651D01*
X87023256Y-66043651D01*
X87800000Y-66820395D01*
X88576744Y-66043651D01*
X88462029Y-65872730D01*
X88229389Y-65765235D01*
X87980248Y-65705191D01*
X87724180Y-65694906D01*
X87471025Y-65734775D01*
X87230513Y-65823265D01*
X87137971Y-65872730D01*
X87023256Y-66043651D01*
X45685000Y-66043651D01*
X45685000Y-64870424D01*
X51509181Y-64870424D01*
X51660099Y-65072090D01*
X51943918Y-65209582D01*
X52249109Y-65289063D01*
X52563941Y-65307476D01*
X52876315Y-65264115D01*
X53174228Y-65160645D01*
X53339901Y-65072090D01*
X53490819Y-64870424D01*
X52500000Y-63879605D01*
X51509181Y-64870424D01*
X45685000Y-64870424D01*
X45685000Y-63763941D01*
X50892524Y-63763941D01*
X50935885Y-64076315D01*
X51039355Y-64374228D01*
X51127910Y-64539901D01*
X51329576Y-64690819D01*
X52320395Y-63700000D01*
X52679605Y-63700000D01*
X53670424Y-64690819D01*
X53872090Y-64539901D01*
X54009582Y-64256082D01*
X54089063Y-63950891D01*
X54107476Y-63636059D01*
X54064115Y-63323685D01*
X53960645Y-63025772D01*
X53872090Y-62860099D01*
X53870174Y-62858665D01*
X56905000Y-62858665D01*
X56905000Y-63141335D01*
X56960147Y-63418574D01*
X57068320Y-63679727D01*
X57225363Y-63914759D01*
X57425241Y-64114637D01*
X57660273Y-64271680D01*
X57921426Y-64379853D01*
X58198665Y-64435000D01*
X58481335Y-64435000D01*
X58758574Y-64379853D01*
X59019727Y-64271680D01*
X59254759Y-64114637D01*
X59454637Y-63914759D01*
X59611680Y-63679727D01*
X59719853Y-63418574D01*
X59775000Y-63141335D01*
X59775000Y-62858665D01*
X67065000Y-62858665D01*
X67065000Y-63141335D01*
X67120147Y-63418574D01*
X67228320Y-63679727D01*
X67385363Y-63914759D01*
X67585241Y-64114637D01*
X67820273Y-64271680D01*
X68081426Y-64379853D01*
X68358665Y-64435000D01*
X68641335Y-64435000D01*
X68918574Y-64379853D01*
X69179727Y-64271680D01*
X69414759Y-64114637D01*
X69614637Y-63914759D01*
X69771680Y-63679727D01*
X69879853Y-63418574D01*
X69935000Y-63141335D01*
X69935000Y-62858665D01*
X70545000Y-62858665D01*
X70545000Y-63141335D01*
X70600147Y-63418574D01*
X70708320Y-63679727D01*
X70865363Y-63914759D01*
X71065241Y-64114637D01*
X71300273Y-64271680D01*
X71561426Y-64379853D01*
X71838665Y-64435000D01*
X72121335Y-64435000D01*
X72398574Y-64379853D01*
X72659727Y-64271680D01*
X72894759Y-64114637D01*
X73094637Y-63914759D01*
X73162407Y-63813333D01*
X78966273Y-63813333D01*
X79056762Y-63963769D01*
X79255222Y-64051230D01*
X79466931Y-64098294D01*
X79683755Y-64103151D01*
X79897360Y-64065614D01*
X80099537Y-63987127D01*
X80143238Y-63963769D01*
X80233727Y-63813333D01*
X79600000Y-63179605D01*
X78966273Y-63813333D01*
X73162407Y-63813333D01*
X73251680Y-63679727D01*
X73359853Y-63418574D01*
X73415000Y-63141335D01*
X73415000Y-63083755D01*
X78496849Y-63083755D01*
X78534386Y-63297360D01*
X78612873Y-63499537D01*
X78636231Y-63543238D01*
X78786667Y-63633727D01*
X79420395Y-63000000D01*
X79779605Y-63000000D01*
X80413333Y-63633727D01*
X80563769Y-63543238D01*
X80651230Y-63344778D01*
X80698294Y-63133069D01*
X80703151Y-62916245D01*
X80665614Y-62702640D01*
X80587127Y-62500463D01*
X80563769Y-62456762D01*
X80413333Y-62366273D01*
X79779605Y-63000000D01*
X79420395Y-63000000D01*
X78786667Y-62366273D01*
X78636231Y-62456762D01*
X78548770Y-62655222D01*
X78501706Y-62866931D01*
X78496849Y-63083755D01*
X73415000Y-63083755D01*
X73415000Y-62858665D01*
X73359853Y-62581426D01*
X73251680Y-62320273D01*
X73162408Y-62186667D01*
X78966273Y-62186667D01*
X79600000Y-62820395D01*
X80233727Y-62186667D01*
X80143238Y-62036231D01*
X79944778Y-61948770D01*
X79733069Y-61901706D01*
X79516245Y-61896849D01*
X79302640Y-61934386D01*
X79100463Y-62012873D01*
X79056762Y-62036231D01*
X78966273Y-62186667D01*
X73162408Y-62186667D01*
X73094637Y-62085241D01*
X72894759Y-61885363D01*
X72659727Y-61728320D01*
X72398574Y-61620147D01*
X72121335Y-61565000D01*
X71838665Y-61565000D01*
X71561426Y-61620147D01*
X71300273Y-61728320D01*
X71065241Y-61885363D01*
X70865363Y-62085241D01*
X70708320Y-62320273D01*
X70600147Y-62581426D01*
X70545000Y-62858665D01*
X69935000Y-62858665D01*
X69879853Y-62581426D01*
X69771680Y-62320273D01*
X69614637Y-62085241D01*
X69414759Y-61885363D01*
X69179727Y-61728320D01*
X68918574Y-61620147D01*
X68641335Y-61565000D01*
X68358665Y-61565000D01*
X68081426Y-61620147D01*
X67820273Y-61728320D01*
X67585241Y-61885363D01*
X67385363Y-62085241D01*
X67228320Y-62320273D01*
X67120147Y-62581426D01*
X67065000Y-62858665D01*
X59775000Y-62858665D01*
X59719853Y-62581426D01*
X59611680Y-62320273D01*
X59454637Y-62085241D01*
X59254759Y-61885363D01*
X59019727Y-61728320D01*
X58758574Y-61620147D01*
X58481335Y-61565000D01*
X58198665Y-61565000D01*
X57921426Y-61620147D01*
X57660273Y-61728320D01*
X57425241Y-61885363D01*
X57225363Y-62085241D01*
X57068320Y-62320273D01*
X56960147Y-62581426D01*
X56905000Y-62858665D01*
X53870174Y-62858665D01*
X53670424Y-62709181D01*
X52679605Y-63700000D01*
X52320395Y-63700000D01*
X51329576Y-62709181D01*
X51127910Y-62860099D01*
X50990418Y-63143918D01*
X50910937Y-63449109D01*
X50892524Y-63763941D01*
X45685000Y-63763941D01*
X45685000Y-61429117D01*
X45865000Y-61429117D01*
X45865000Y-61770883D01*
X45931675Y-62106081D01*
X46062463Y-62421831D01*
X46252337Y-62705998D01*
X46494002Y-62947663D01*
X46778169Y-63137537D01*
X47093919Y-63268325D01*
X47429117Y-63335000D01*
X47770883Y-63335000D01*
X48106081Y-63268325D01*
X48421831Y-63137537D01*
X48705998Y-62947663D01*
X48947663Y-62705998D01*
X49065544Y-62529576D01*
X51509181Y-62529576D01*
X52500000Y-63520395D01*
X53490819Y-62529576D01*
X53339901Y-62327910D01*
X53056082Y-62190418D01*
X52750891Y-62110937D01*
X52436059Y-62092524D01*
X52123685Y-62135885D01*
X51825772Y-62239355D01*
X51660099Y-62327910D01*
X51509181Y-62529576D01*
X49065544Y-62529576D01*
X49137537Y-62421831D01*
X49268325Y-62106081D01*
X49335000Y-61770883D01*
X49335000Y-61429117D01*
X49268325Y-61093919D01*
X49229423Y-61000000D01*
X86161928Y-61000000D01*
X86161928Y-63000000D01*
X86174188Y-63124482D01*
X86210498Y-63244180D01*
X86269463Y-63354494D01*
X86348815Y-63451185D01*
X86445506Y-63530537D01*
X86555820Y-63589502D01*
X86675518Y-63625812D01*
X86800000Y-63638072D01*
X88800000Y-63638072D01*
X88924482Y-63625812D01*
X89044180Y-63589502D01*
X89154494Y-63530537D01*
X89251185Y-63451185D01*
X89330537Y-63354494D01*
X89389502Y-63244180D01*
X89425812Y-63124482D01*
X89438072Y-63000000D01*
X89438072Y-61819268D01*
X97965000Y-61819268D01*
X97965000Y-62180732D01*
X98035518Y-62535250D01*
X98173844Y-62869199D01*
X98374662Y-63169744D01*
X98630256Y-63425338D01*
X98930801Y-63626156D01*
X99264750Y-63764482D01*
X99619268Y-63835000D01*
X99980732Y-63835000D01*
X100335250Y-63764482D01*
X100669199Y-63626156D01*
X100969744Y-63425338D01*
X101225338Y-63169744D01*
X101426156Y-62869199D01*
X101564482Y-62535250D01*
X101635000Y-62180732D01*
X101635000Y-62100000D01*
X109861928Y-62100000D01*
X109861928Y-64100000D01*
X109874188Y-64224482D01*
X109910498Y-64344180D01*
X109969463Y-64454494D01*
X110048815Y-64551185D01*
X110145506Y-64630537D01*
X110255820Y-64689502D01*
X110375518Y-64725812D01*
X110500000Y-64738072D01*
X112500000Y-64738072D01*
X112624482Y-64725812D01*
X112744180Y-64689502D01*
X112854494Y-64630537D01*
X112951185Y-64551185D01*
X113030537Y-64454494D01*
X113089502Y-64344180D01*
X113125812Y-64224482D01*
X113138072Y-64100000D01*
X113138072Y-63860000D01*
X124609388Y-63860000D01*
X124631785Y-64087400D01*
X124698115Y-64306060D01*
X124799105Y-64495000D01*
X124698115Y-64683940D01*
X124631785Y-64902600D01*
X124609388Y-65130000D01*
X124631785Y-65357400D01*
X124695093Y-65566098D01*
X124660498Y-65630820D01*
X124624188Y-65750518D01*
X124611928Y-65875000D01*
X124611928Y-66925000D01*
X124624188Y-67049482D01*
X124660498Y-67169180D01*
X124719463Y-67279494D01*
X124798815Y-67376185D01*
X124895506Y-67455537D01*
X125005820Y-67514502D01*
X125125518Y-67550812D01*
X125250000Y-67563072D01*
X126750000Y-67563072D01*
X126874482Y-67550812D01*
X126994180Y-67514502D01*
X127104494Y-67455537D01*
X127201185Y-67376185D01*
X127280537Y-67279494D01*
X127339502Y-67169180D01*
X127375812Y-67049482D01*
X127388072Y-66925000D01*
X127388072Y-65875000D01*
X127375812Y-65750518D01*
X127339502Y-65630820D01*
X127304907Y-65566098D01*
X127368215Y-65357400D01*
X127390612Y-65130000D01*
X127368215Y-64902600D01*
X127301885Y-64683940D01*
X127200895Y-64495000D01*
X127301885Y-64306060D01*
X127368215Y-64087400D01*
X127390612Y-63860000D01*
X127368215Y-63632600D01*
X127301885Y-63413940D01*
X127194171Y-63212421D01*
X127049212Y-63035788D01*
X126872579Y-62890829D01*
X126671060Y-62783115D01*
X126452400Y-62716785D01*
X126281979Y-62700000D01*
X125718021Y-62700000D01*
X125547600Y-62716785D01*
X125328940Y-62783115D01*
X125127421Y-62890829D01*
X124950788Y-63035788D01*
X124805829Y-63212421D01*
X124698115Y-63413940D01*
X124631785Y-63632600D01*
X124609388Y-63860000D01*
X113138072Y-63860000D01*
X113138072Y-62100000D01*
X113125812Y-61975518D01*
X113089502Y-61855820D01*
X113030537Y-61745506D01*
X112951185Y-61648815D01*
X112854494Y-61569463D01*
X112744180Y-61510498D01*
X112624482Y-61474188D01*
X112500000Y-61461928D01*
X110500000Y-61461928D01*
X110375518Y-61474188D01*
X110255820Y-61510498D01*
X110145506Y-61569463D01*
X110048815Y-61648815D01*
X109969463Y-61745506D01*
X109910498Y-61855820D01*
X109874188Y-61975518D01*
X109861928Y-62100000D01*
X101635000Y-62100000D01*
X101635000Y-61819268D01*
X101564482Y-61464750D01*
X101512256Y-61338665D01*
X117865000Y-61338665D01*
X117865000Y-61621335D01*
X117920147Y-61898574D01*
X118028320Y-62159727D01*
X118185363Y-62394759D01*
X118385241Y-62594637D01*
X118620273Y-62751680D01*
X118881426Y-62859853D01*
X119158665Y-62915000D01*
X119441335Y-62915000D01*
X119718574Y-62859853D01*
X119979727Y-62751680D01*
X120214759Y-62594637D01*
X120414637Y-62394759D01*
X120571680Y-62159727D01*
X120679853Y-61898574D01*
X120735000Y-61621335D01*
X120735000Y-61429117D01*
X129265000Y-61429117D01*
X129265000Y-61770883D01*
X129331675Y-62106081D01*
X129462463Y-62421831D01*
X129652337Y-62705998D01*
X129894002Y-62947663D01*
X130178169Y-63137537D01*
X130493919Y-63268325D01*
X130829117Y-63335000D01*
X131170883Y-63335000D01*
X131506081Y-63268325D01*
X131821831Y-63137537D01*
X132105998Y-62947663D01*
X132347663Y-62705998D01*
X132537537Y-62421831D01*
X132668325Y-62106081D01*
X132735000Y-61770883D01*
X132735000Y-61429117D01*
X132668325Y-61093919D01*
X132537537Y-60778169D01*
X132347663Y-60494002D01*
X132105998Y-60252337D01*
X131821831Y-60062463D01*
X131506081Y-59931675D01*
X131170883Y-59865000D01*
X130829117Y-59865000D01*
X130493919Y-59931675D01*
X130178169Y-60062463D01*
X129894002Y-60252337D01*
X129652337Y-60494002D01*
X129462463Y-60778169D01*
X129331675Y-61093919D01*
X129265000Y-61429117D01*
X120735000Y-61429117D01*
X120735000Y-61338665D01*
X120679853Y-61061426D01*
X120571680Y-60800273D01*
X120414637Y-60565241D01*
X120214759Y-60365363D01*
X119979727Y-60208320D01*
X119718574Y-60100147D01*
X119441335Y-60045000D01*
X119158665Y-60045000D01*
X118881426Y-60100147D01*
X118620273Y-60208320D01*
X118385241Y-60365363D01*
X118185363Y-60565241D01*
X118028320Y-60800273D01*
X117920147Y-61061426D01*
X117865000Y-61338665D01*
X101512256Y-61338665D01*
X101426156Y-61130801D01*
X101225338Y-60830256D01*
X100969744Y-60574662D01*
X100669199Y-60373844D01*
X100335250Y-60235518D01*
X99980732Y-60165000D01*
X99619268Y-60165000D01*
X99264750Y-60235518D01*
X98930801Y-60373844D01*
X98630256Y-60574662D01*
X98374662Y-60830256D01*
X98173844Y-61130801D01*
X98035518Y-61464750D01*
X97965000Y-61819268D01*
X89438072Y-61819268D01*
X89438072Y-61000000D01*
X89425812Y-60875518D01*
X89389502Y-60755820D01*
X89330537Y-60645506D01*
X89251185Y-60548815D01*
X89154494Y-60469463D01*
X89044180Y-60410498D01*
X88924482Y-60374188D01*
X88800000Y-60361928D01*
X86800000Y-60361928D01*
X86675518Y-60374188D01*
X86555820Y-60410498D01*
X86445506Y-60469463D01*
X86348815Y-60548815D01*
X86269463Y-60645506D01*
X86210498Y-60755820D01*
X86174188Y-60875518D01*
X86161928Y-61000000D01*
X49229423Y-61000000D01*
X49137537Y-60778169D01*
X48947663Y-60494002D01*
X48705998Y-60252337D01*
X48421831Y-60062463D01*
X48106081Y-59931675D01*
X47770883Y-59865000D01*
X47429117Y-59865000D01*
X47093919Y-59931675D01*
X46778169Y-60062463D01*
X46494002Y-60252337D01*
X46252337Y-60494002D01*
X46062463Y-60778169D01*
X45931675Y-61093919D01*
X45865000Y-61429117D01*
X45685000Y-61429117D01*
X45685000Y-59685000D01*
X132915000Y-59685000D01*
X132915001Y-81315000D01*
%TA.AperFunction,Conductor*%
D24*
G36*
X132915001Y-81315000D02*
G01*
X45685000Y-81315000D01*
X45685000Y-79229117D01*
X45865000Y-79229117D01*
X45865000Y-79570883D01*
X45931675Y-79906081D01*
X46062463Y-80221831D01*
X46252337Y-80505998D01*
X46494002Y-80747663D01*
X46778169Y-80937537D01*
X47093919Y-81068325D01*
X47429117Y-81135000D01*
X47770883Y-81135000D01*
X48106081Y-81068325D01*
X48421831Y-80937537D01*
X48705998Y-80747663D01*
X48947663Y-80505998D01*
X49137537Y-80221831D01*
X49268325Y-79906081D01*
X49335000Y-79570883D01*
X49335000Y-79412261D01*
X70420305Y-79412261D01*
X70442262Y-79484658D01*
X70539166Y-79699229D01*
X70676069Y-79890772D01*
X70847710Y-80051926D01*
X71047492Y-80176498D01*
X71267738Y-80259701D01*
X71453000Y-80219022D01*
X71453000Y-79227000D01*
X71707000Y-79227000D01*
X71707000Y-80219022D01*
X71892262Y-80259701D01*
X72112508Y-80176498D01*
X72312290Y-80051926D01*
X72483931Y-79890772D01*
X72620834Y-79699229D01*
X72717738Y-79484658D01*
X72739695Y-79412261D01*
X72698563Y-79227000D01*
X71707000Y-79227000D01*
X71453000Y-79227000D01*
X70461437Y-79227000D01*
X70420305Y-79412261D01*
X49335000Y-79412261D01*
X49335000Y-79229117D01*
X49268325Y-78893919D01*
X49234946Y-78813333D01*
X53266273Y-78813333D01*
X53356762Y-78963769D01*
X53555222Y-79051230D01*
X53766931Y-79098294D01*
X53983755Y-79103151D01*
X54197360Y-79065614D01*
X54399537Y-78987127D01*
X54443238Y-78963769D01*
X54533727Y-78813333D01*
X54508134Y-78787739D01*
X70420305Y-78787739D01*
X70461437Y-78973000D01*
X71453000Y-78973000D01*
X71453000Y-77980978D01*
X71707000Y-77980978D01*
X71707000Y-78973000D01*
X72698563Y-78973000D01*
X72739695Y-78787739D01*
X72717738Y-78715342D01*
X72620834Y-78500771D01*
X72483931Y-78309228D01*
X72367596Y-78200000D01*
X77661928Y-78200000D01*
X77661928Y-80000000D01*
X77674188Y-80124482D01*
X77710498Y-80244180D01*
X77769463Y-80354494D01*
X77848815Y-80451185D01*
X77945506Y-80530537D01*
X78055820Y-80589502D01*
X78175518Y-80625812D01*
X78300000Y-80638072D01*
X80100000Y-80638072D01*
X80224482Y-80625812D01*
X80344180Y-80589502D01*
X80454494Y-80530537D01*
X80551185Y-80451185D01*
X80630537Y-80354494D01*
X80689502Y-80244180D01*
X80725812Y-80124482D01*
X80738072Y-80000000D01*
X80738072Y-78200000D01*
X80725812Y-78075518D01*
X80689502Y-77955820D01*
X80630537Y-77845506D01*
X80551185Y-77748815D01*
X80454494Y-77669463D01*
X80344180Y-77610498D01*
X80224482Y-77574188D01*
X80100000Y-77561928D01*
X78300000Y-77561928D01*
X78175518Y-77574188D01*
X78055820Y-77610498D01*
X77945506Y-77669463D01*
X77848815Y-77748815D01*
X77769463Y-77845506D01*
X77710498Y-77955820D01*
X77674188Y-78075518D01*
X77661928Y-78200000D01*
X72367596Y-78200000D01*
X72312290Y-78148074D01*
X72112508Y-78023502D01*
X71892262Y-77940299D01*
X71707000Y-77980978D01*
X71453000Y-77980978D01*
X71267738Y-77940299D01*
X71047492Y-78023502D01*
X70847710Y-78148074D01*
X70676069Y-78309228D01*
X70539166Y-78500771D01*
X70442262Y-78715342D01*
X70420305Y-78787739D01*
X54508134Y-78787739D01*
X53900000Y-78179605D01*
X53266273Y-78813333D01*
X49234946Y-78813333D01*
X49137537Y-78578169D01*
X48947663Y-78294002D01*
X48737416Y-78083755D01*
X52796849Y-78083755D01*
X52834386Y-78297360D01*
X52912873Y-78499537D01*
X52936231Y-78543238D01*
X53086667Y-78633727D01*
X53720395Y-78000000D01*
X54079605Y-78000000D01*
X54713333Y-78633727D01*
X54863769Y-78543238D01*
X54951230Y-78344778D01*
X54998294Y-78133069D01*
X55003151Y-77916245D01*
X54965614Y-77702640D01*
X54887127Y-77500463D01*
X54863769Y-77456762D01*
X54713333Y-77366273D01*
X54079605Y-78000000D01*
X53720395Y-78000000D01*
X53086667Y-77366273D01*
X52936231Y-77456762D01*
X52848770Y-77655222D01*
X52801706Y-77866931D01*
X52796849Y-78083755D01*
X48737416Y-78083755D01*
X48705998Y-78052337D01*
X48421831Y-77862463D01*
X48106081Y-77731675D01*
X47770883Y-77665000D01*
X47429117Y-77665000D01*
X47093919Y-77731675D01*
X46778169Y-77862463D01*
X46494002Y-78052337D01*
X46252337Y-78294002D01*
X46062463Y-78578169D01*
X45931675Y-78893919D01*
X45865000Y-79229117D01*
X45685000Y-79229117D01*
X45685000Y-77186667D01*
X53266273Y-77186667D01*
X53900000Y-77820395D01*
X54533727Y-77186667D01*
X54443238Y-77036231D01*
X54244778Y-76948770D01*
X54033069Y-76901706D01*
X53816245Y-76896849D01*
X53602640Y-76934386D01*
X53400463Y-77012873D01*
X53356762Y-77036231D01*
X53266273Y-77186667D01*
X45685000Y-77186667D01*
X45685000Y-73700000D01*
X52461928Y-73700000D01*
X52461928Y-75300000D01*
X52474188Y-75424482D01*
X52510498Y-75544180D01*
X52569463Y-75654494D01*
X52648815Y-75751185D01*
X52745506Y-75830537D01*
X52855820Y-75889502D01*
X52975518Y-75925812D01*
X53100000Y-75938072D01*
X54700000Y-75938072D01*
X54824482Y-75925812D01*
X54944180Y-75889502D01*
X55054494Y-75830537D01*
X55151185Y-75751185D01*
X55230537Y-75654494D01*
X55289502Y-75544180D01*
X55325812Y-75424482D01*
X55338072Y-75300000D01*
X55338072Y-73700000D01*
X55325812Y-73575518D01*
X55289502Y-73455820D01*
X55230537Y-73345506D01*
X55151185Y-73248815D01*
X55054494Y-73169463D01*
X54944180Y-73110498D01*
X54824482Y-73074188D01*
X54700000Y-73061928D01*
X53100000Y-73061928D01*
X52975518Y-73074188D01*
X52855820Y-73110498D01*
X52745506Y-73169463D01*
X52648815Y-73248815D01*
X52569463Y-73345506D01*
X52510498Y-73455820D01*
X52474188Y-73575518D01*
X52461928Y-73700000D01*
X45685000Y-73700000D01*
X45685000Y-67400000D01*
X50561928Y-67400000D01*
X50561928Y-70000000D01*
X50574188Y-70124482D01*
X50610498Y-70244180D01*
X50669463Y-70354494D01*
X50748815Y-70451185D01*
X50845506Y-70530537D01*
X50955820Y-70589502D01*
X51075518Y-70625812D01*
X51200000Y-70638072D01*
X53800000Y-70638072D01*
X53924482Y-70625812D01*
X54044180Y-70589502D01*
X54154494Y-70530537D01*
X54251185Y-70451185D01*
X54330537Y-70354494D01*
X54389502Y-70244180D01*
X54425812Y-70124482D01*
X54438072Y-70000000D01*
X54438072Y-67838665D01*
X59045000Y-67838665D01*
X59045000Y-68121335D01*
X59100147Y-68398574D01*
X59208320Y-68659727D01*
X59365363Y-68894759D01*
X59565241Y-69094637D01*
X59797759Y-69250000D01*
X59565241Y-69405363D01*
X59365363Y-69605241D01*
X59208320Y-69840273D01*
X59100147Y-70101426D01*
X59045000Y-70378665D01*
X59045000Y-70661335D01*
X59100147Y-70938574D01*
X59208320Y-71199727D01*
X59365363Y-71434759D01*
X59565241Y-71634637D01*
X59797759Y-71790000D01*
X59565241Y-71945363D01*
X59365363Y-72145241D01*
X59208320Y-72380273D01*
X59100147Y-72641426D01*
X59045000Y-72918665D01*
X59045000Y-73201335D01*
X59100147Y-73478574D01*
X59208320Y-73739727D01*
X59365363Y-73974759D01*
X59565241Y-74174637D01*
X59797759Y-74330000D01*
X59565241Y-74485363D01*
X59365363Y-74685241D01*
X59208320Y-74920273D01*
X59100147Y-75181426D01*
X59045000Y-75458665D01*
X59045000Y-75741335D01*
X59100147Y-76018574D01*
X59208320Y-76279727D01*
X59365363Y-76514759D01*
X59565241Y-76714637D01*
X59800273Y-76871680D01*
X60061426Y-76979853D01*
X60338665Y-77035000D01*
X60621335Y-77035000D01*
X60898574Y-76979853D01*
X61159727Y-76871680D01*
X61394759Y-76714637D01*
X61594637Y-76514759D01*
X61751680Y-76279727D01*
X61859853Y-76018574D01*
X61915000Y-75741335D01*
X61915000Y-75458665D01*
X61859853Y-75181426D01*
X61751680Y-74920273D01*
X61671317Y-74800000D01*
X66661928Y-74800000D01*
X66661928Y-76400000D01*
X66674188Y-76524482D01*
X66710498Y-76644180D01*
X66769463Y-76754494D01*
X66848815Y-76851185D01*
X66945506Y-76930537D01*
X67055820Y-76989502D01*
X67175518Y-77025812D01*
X67300000Y-77038072D01*
X68900000Y-77038072D01*
X69024482Y-77025812D01*
X69144180Y-76989502D01*
X69254494Y-76930537D01*
X69351185Y-76851185D01*
X69430537Y-76754494D01*
X69489502Y-76644180D01*
X69525812Y-76524482D01*
X69538072Y-76400000D01*
X69538072Y-75719268D01*
X82165000Y-75719268D01*
X82165000Y-76080732D01*
X82235518Y-76435250D01*
X82373844Y-76769199D01*
X82574662Y-77069744D01*
X82830256Y-77325338D01*
X83130801Y-77526156D01*
X83464750Y-77664482D01*
X83819268Y-77735000D01*
X84180732Y-77735000D01*
X84535250Y-77664482D01*
X84869199Y-77526156D01*
X85169744Y-77325338D01*
X85425338Y-77069744D01*
X85626156Y-76769199D01*
X85764482Y-76435250D01*
X85835000Y-76080732D01*
X85835000Y-75719268D01*
X87165000Y-75719268D01*
X87165000Y-76080732D01*
X87235518Y-76435250D01*
X87373844Y-76769199D01*
X87574662Y-77069744D01*
X87830256Y-77325338D01*
X88130801Y-77526156D01*
X88464750Y-77664482D01*
X88819268Y-77735000D01*
X89180732Y-77735000D01*
X89535250Y-77664482D01*
X89869199Y-77526156D01*
X90169744Y-77325338D01*
X90425338Y-77069744D01*
X90626156Y-76769199D01*
X90764482Y-76435250D01*
X90835000Y-76080732D01*
X90835000Y-75719268D01*
X90764482Y-75364750D01*
X90626156Y-75030801D01*
X90425338Y-74730256D01*
X90169744Y-74474662D01*
X89869199Y-74273844D01*
X89535250Y-74135518D01*
X89180732Y-74065000D01*
X88819268Y-74065000D01*
X88464750Y-74135518D01*
X88130801Y-74273844D01*
X87830256Y-74474662D01*
X87574662Y-74730256D01*
X87373844Y-75030801D01*
X87235518Y-75364750D01*
X87165000Y-75719268D01*
X85835000Y-75719268D01*
X85764482Y-75364750D01*
X85626156Y-75030801D01*
X85425338Y-74730256D01*
X85169744Y-74474662D01*
X84869199Y-74273844D01*
X84535250Y-74135518D01*
X84180732Y-74065000D01*
X83819268Y-74065000D01*
X83464750Y-74135518D01*
X83130801Y-74273844D01*
X82830256Y-74474662D01*
X82574662Y-74730256D01*
X82373844Y-75030801D01*
X82235518Y-75364750D01*
X82165000Y-75719268D01*
X69538072Y-75719268D01*
X69538072Y-74800000D01*
X69525812Y-74675518D01*
X69489502Y-74555820D01*
X69430537Y-74445506D01*
X69351185Y-74348815D01*
X69254494Y-74269463D01*
X69144180Y-74210498D01*
X69024482Y-74174188D01*
X69016039Y-74173357D01*
X69214637Y-73974759D01*
X69371680Y-73739727D01*
X69479853Y-73478574D01*
X69523596Y-73258665D01*
X71765000Y-73258665D01*
X71765000Y-73541335D01*
X71820147Y-73818574D01*
X71928320Y-74079727D01*
X72085363Y-74314759D01*
X72285241Y-74514637D01*
X72520273Y-74671680D01*
X72781426Y-74779853D01*
X73058665Y-74835000D01*
X73341335Y-74835000D01*
X73618574Y-74779853D01*
X73879727Y-74671680D01*
X74114759Y-74514637D01*
X74314637Y-74314759D01*
X74382407Y-74213333D01*
X77566273Y-74213333D01*
X77656762Y-74363769D01*
X77855222Y-74451230D01*
X78066931Y-74498294D01*
X78283755Y-74503151D01*
X78497360Y-74465614D01*
X78699537Y-74387127D01*
X78743238Y-74363769D01*
X78833727Y-74213333D01*
X78200000Y-73579605D01*
X77566273Y-74213333D01*
X74382407Y-74213333D01*
X74471680Y-74079727D01*
X74579853Y-73818574D01*
X74635000Y-73541335D01*
X74635000Y-73483755D01*
X77096849Y-73483755D01*
X77134386Y-73697360D01*
X77212873Y-73899537D01*
X77236231Y-73943238D01*
X77386667Y-74033727D01*
X78020395Y-73400000D01*
X78379605Y-73400000D01*
X79013333Y-74033727D01*
X79163769Y-73943238D01*
X79251230Y-73744778D01*
X79298294Y-73533069D01*
X79302024Y-73366544D01*
X95645000Y-73366544D01*
X95645000Y-73633456D01*
X95697072Y-73895239D01*
X95799215Y-74141833D01*
X95947503Y-74363762D01*
X96136238Y-74552497D01*
X96358167Y-74700785D01*
X96525266Y-74770000D01*
X96358167Y-74839215D01*
X96136238Y-74987503D01*
X95947503Y-75176238D01*
X95799215Y-75398167D01*
X95697072Y-75644761D01*
X95645000Y-75906544D01*
X95645000Y-76173456D01*
X95697072Y-76435239D01*
X95799215Y-76681833D01*
X95947503Y-76903762D01*
X96136238Y-77092497D01*
X96358167Y-77240785D01*
X96525266Y-77310000D01*
X96358167Y-77379215D01*
X96136238Y-77527503D01*
X95947503Y-77716238D01*
X95799215Y-77938167D01*
X95697072Y-78184761D01*
X95645000Y-78446544D01*
X95645000Y-78713456D01*
X95697072Y-78975239D01*
X95799215Y-79221833D01*
X95947503Y-79443762D01*
X96136238Y-79632497D01*
X96358167Y-79780785D01*
X96604761Y-79882928D01*
X96866544Y-79935000D01*
X97133456Y-79935000D01*
X97395239Y-79882928D01*
X97641833Y-79780785D01*
X97863762Y-79632497D01*
X98039910Y-79456349D01*
X105623256Y-79456349D01*
X105737971Y-79627270D01*
X105970611Y-79734765D01*
X106219752Y-79794809D01*
X106475820Y-79805094D01*
X106728975Y-79765225D01*
X106969487Y-79676735D01*
X107062029Y-79627270D01*
X107176744Y-79456349D01*
X117223256Y-79456349D01*
X117337971Y-79627270D01*
X117570611Y-79734765D01*
X117819752Y-79794809D01*
X118075820Y-79805094D01*
X118328975Y-79765225D01*
X118569487Y-79676735D01*
X118662029Y-79627270D01*
X118776744Y-79456349D01*
X118000000Y-78679605D01*
X117223256Y-79456349D01*
X107176744Y-79456349D01*
X106400000Y-78679605D01*
X105623256Y-79456349D01*
X98039910Y-79456349D01*
X98052497Y-79443762D01*
X98200785Y-79221833D01*
X98302928Y-78975239D01*
X98355000Y-78713456D01*
X98355000Y-78575820D01*
X105094906Y-78575820D01*
X105134775Y-78828975D01*
X105223265Y-79069487D01*
X105272730Y-79162029D01*
X105443651Y-79276744D01*
X106220395Y-78500000D01*
X106579605Y-78500000D01*
X107356349Y-79276744D01*
X107527270Y-79162029D01*
X107634765Y-78929389D01*
X107694809Y-78680248D01*
X107699003Y-78575820D01*
X116694906Y-78575820D01*
X116734775Y-78828975D01*
X116823265Y-79069487D01*
X116872730Y-79162029D01*
X117043651Y-79276744D01*
X117820395Y-78500000D01*
X118179605Y-78500000D01*
X118956349Y-79276744D01*
X119027311Y-79229117D01*
X129265000Y-79229117D01*
X129265000Y-79570883D01*
X129331675Y-79906081D01*
X129462463Y-80221831D01*
X129652337Y-80505998D01*
X129894002Y-80747663D01*
X130178169Y-80937537D01*
X130493919Y-81068325D01*
X130829117Y-81135000D01*
X131170883Y-81135000D01*
X131506081Y-81068325D01*
X131821831Y-80937537D01*
X132105998Y-80747663D01*
X132347663Y-80505998D01*
X132537537Y-80221831D01*
X132668325Y-79906081D01*
X132735000Y-79570883D01*
X132735000Y-79229117D01*
X132668325Y-78893919D01*
X132537537Y-78578169D01*
X132347663Y-78294002D01*
X132105998Y-78052337D01*
X131821831Y-77862463D01*
X131506081Y-77731675D01*
X131170883Y-77665000D01*
X130829117Y-77665000D01*
X130493919Y-77731675D01*
X130178169Y-77862463D01*
X129894002Y-78052337D01*
X129652337Y-78294002D01*
X129462463Y-78578169D01*
X129331675Y-78893919D01*
X129265000Y-79229117D01*
X119027311Y-79229117D01*
X119127270Y-79162029D01*
X119234765Y-78929389D01*
X119294809Y-78680248D01*
X119305094Y-78424180D01*
X119265225Y-78171025D01*
X119176735Y-77930513D01*
X119127270Y-77837971D01*
X118956349Y-77723256D01*
X118179605Y-78500000D01*
X117820395Y-78500000D01*
X117043651Y-77723256D01*
X116872730Y-77837971D01*
X116765235Y-78070611D01*
X116705191Y-78319752D01*
X116694906Y-78575820D01*
X107699003Y-78575820D01*
X107705094Y-78424180D01*
X107665225Y-78171025D01*
X107576735Y-77930513D01*
X107527270Y-77837971D01*
X107356349Y-77723256D01*
X106579605Y-78500000D01*
X106220395Y-78500000D01*
X105443651Y-77723256D01*
X105272730Y-77837971D01*
X105165235Y-78070611D01*
X105105191Y-78319752D01*
X105094906Y-78575820D01*
X98355000Y-78575820D01*
X98355000Y-78446544D01*
X98302928Y-78184761D01*
X98200785Y-77938167D01*
X98052497Y-77716238D01*
X97879910Y-77543651D01*
X105623256Y-77543651D01*
X106400000Y-78320395D01*
X107176744Y-77543651D01*
X117223256Y-77543651D01*
X118000000Y-78320395D01*
X118776744Y-77543651D01*
X118662029Y-77372730D01*
X118429389Y-77265235D01*
X118180248Y-77205191D01*
X117924180Y-77194906D01*
X117671025Y-77234775D01*
X117430513Y-77323265D01*
X117337971Y-77372730D01*
X117223256Y-77543651D01*
X107176744Y-77543651D01*
X107062029Y-77372730D01*
X106829389Y-77265235D01*
X106580248Y-77205191D01*
X106324180Y-77194906D01*
X106071025Y-77234775D01*
X105830513Y-77323265D01*
X105737971Y-77372730D01*
X105623256Y-77543651D01*
X97879910Y-77543651D01*
X97863762Y-77527503D01*
X97641833Y-77379215D01*
X97474734Y-77310000D01*
X97641833Y-77240785D01*
X97863762Y-77092497D01*
X97885835Y-77070424D01*
X126809181Y-77070424D01*
X126960099Y-77272090D01*
X127243918Y-77409582D01*
X127549109Y-77489063D01*
X127863941Y-77507476D01*
X128176315Y-77464115D01*
X128474228Y-77360645D01*
X128639901Y-77272090D01*
X128790819Y-77070424D01*
X127800000Y-76079605D01*
X126809181Y-77070424D01*
X97885835Y-77070424D01*
X98052497Y-76903762D01*
X98200785Y-76681833D01*
X98302928Y-76435239D01*
X98355000Y-76173456D01*
X98355000Y-75963941D01*
X126192524Y-75963941D01*
X126235885Y-76276315D01*
X126339355Y-76574228D01*
X126427910Y-76739901D01*
X126629576Y-76890819D01*
X127620395Y-75900000D01*
X127979605Y-75900000D01*
X128970424Y-76890819D01*
X129172090Y-76739901D01*
X129309582Y-76456082D01*
X129389063Y-76150891D01*
X129407476Y-75836059D01*
X129364115Y-75523685D01*
X129260645Y-75225772D01*
X129172090Y-75060099D01*
X128970424Y-74909181D01*
X127979605Y-75900000D01*
X127620395Y-75900000D01*
X126629576Y-74909181D01*
X126427910Y-75060099D01*
X126290418Y-75343918D01*
X126210937Y-75649109D01*
X126192524Y-75963941D01*
X98355000Y-75963941D01*
X98355000Y-75906544D01*
X98302928Y-75644761D01*
X98200785Y-75398167D01*
X98052497Y-75176238D01*
X97863762Y-74987503D01*
X97641833Y-74839215D01*
X97474734Y-74770000D01*
X97641833Y-74700785D01*
X97863762Y-74552497D01*
X98052497Y-74363762D01*
X98200785Y-74141833D01*
X98302928Y-73895239D01*
X98355000Y-73633456D01*
X98355000Y-73366544D01*
X98302928Y-73104761D01*
X98200785Y-72858167D01*
X98052497Y-72636238D01*
X97916259Y-72500000D01*
X104761928Y-72500000D01*
X104761928Y-74500000D01*
X104774188Y-74624482D01*
X104810498Y-74744180D01*
X104869463Y-74854494D01*
X104948815Y-74951185D01*
X105045506Y-75030537D01*
X105155820Y-75089502D01*
X105275518Y-75125812D01*
X105400000Y-75138072D01*
X107400000Y-75138072D01*
X107524482Y-75125812D01*
X107644180Y-75089502D01*
X107754494Y-75030537D01*
X107851185Y-74951185D01*
X107930537Y-74854494D01*
X107989502Y-74744180D01*
X108025812Y-74624482D01*
X108038072Y-74500000D01*
X108038072Y-72500000D01*
X116361928Y-72500000D01*
X116361928Y-74500000D01*
X116374188Y-74624482D01*
X116410498Y-74744180D01*
X116469463Y-74854494D01*
X116548815Y-74951185D01*
X116645506Y-75030537D01*
X116755820Y-75089502D01*
X116875518Y-75125812D01*
X117000000Y-75138072D01*
X119000000Y-75138072D01*
X119124482Y-75125812D01*
X119244180Y-75089502D01*
X119354494Y-75030537D01*
X119451185Y-74951185D01*
X119530537Y-74854494D01*
X119589502Y-74744180D01*
X119593932Y-74729576D01*
X126809181Y-74729576D01*
X127800000Y-75720395D01*
X128790819Y-74729576D01*
X128639901Y-74527910D01*
X128356082Y-74390418D01*
X128050891Y-74310937D01*
X127736059Y-74292524D01*
X127423685Y-74335885D01*
X127125772Y-74439355D01*
X126960099Y-74527910D01*
X126809181Y-74729576D01*
X119593932Y-74729576D01*
X119625812Y-74624482D01*
X119638072Y-74500000D01*
X119638072Y-72500000D01*
X119625812Y-72375518D01*
X119589502Y-72255820D01*
X119530537Y-72145506D01*
X119451185Y-72048815D01*
X119354494Y-71969463D01*
X119244180Y-71910498D01*
X119124482Y-71874188D01*
X119000000Y-71861928D01*
X117000000Y-71861928D01*
X116875518Y-71874188D01*
X116755820Y-71910498D01*
X116645506Y-71969463D01*
X116548815Y-72048815D01*
X116469463Y-72145506D01*
X116410498Y-72255820D01*
X116374188Y-72375518D01*
X116361928Y-72500000D01*
X108038072Y-72500000D01*
X108025812Y-72375518D01*
X107989502Y-72255820D01*
X107930537Y-72145506D01*
X107851185Y-72048815D01*
X107754494Y-71969463D01*
X107644180Y-71910498D01*
X107524482Y-71874188D01*
X107400000Y-71861928D01*
X105400000Y-71861928D01*
X105275518Y-71874188D01*
X105155820Y-71910498D01*
X105045506Y-71969463D01*
X104948815Y-72048815D01*
X104869463Y-72145506D01*
X104810498Y-72255820D01*
X104774188Y-72375518D01*
X104761928Y-72500000D01*
X97916259Y-72500000D01*
X97863762Y-72447503D01*
X97641833Y-72299215D01*
X97395239Y-72197072D01*
X97133456Y-72145000D01*
X96866544Y-72145000D01*
X96604761Y-72197072D01*
X96358167Y-72299215D01*
X96136238Y-72447503D01*
X95947503Y-72636238D01*
X95799215Y-72858167D01*
X95697072Y-73104761D01*
X95645000Y-73366544D01*
X79302024Y-73366544D01*
X79303151Y-73316245D01*
X79265614Y-73102640D01*
X79187127Y-72900463D01*
X79163769Y-72856762D01*
X79013333Y-72766273D01*
X78379605Y-73400000D01*
X78020395Y-73400000D01*
X77386667Y-72766273D01*
X77236231Y-72856762D01*
X77148770Y-73055222D01*
X77101706Y-73266931D01*
X77096849Y-73483755D01*
X74635000Y-73483755D01*
X74635000Y-73258665D01*
X74579853Y-72981426D01*
X74471680Y-72720273D01*
X74382408Y-72586667D01*
X77566273Y-72586667D01*
X78200000Y-73220395D01*
X78833727Y-72586667D01*
X78743238Y-72436231D01*
X78544778Y-72348770D01*
X78333069Y-72301706D01*
X78116245Y-72296849D01*
X77902640Y-72334386D01*
X77700463Y-72412873D01*
X77656762Y-72436231D01*
X77566273Y-72586667D01*
X74382408Y-72586667D01*
X74314637Y-72485241D01*
X74114759Y-72285363D01*
X73879727Y-72128320D01*
X73618574Y-72020147D01*
X73341335Y-71965000D01*
X73058665Y-71965000D01*
X72781426Y-72020147D01*
X72520273Y-72128320D01*
X72285241Y-72285363D01*
X72085363Y-72485241D01*
X71928320Y-72720273D01*
X71820147Y-72981426D01*
X71765000Y-73258665D01*
X69523596Y-73258665D01*
X69535000Y-73201335D01*
X69535000Y-72918665D01*
X69479853Y-72641426D01*
X69371680Y-72380273D01*
X69214637Y-72145241D01*
X69014759Y-71945363D01*
X68782241Y-71790000D01*
X69014759Y-71634637D01*
X69214637Y-71434759D01*
X69371680Y-71199727D01*
X69479853Y-70938574D01*
X69535000Y-70661335D01*
X69535000Y-70378665D01*
X69479853Y-70101426D01*
X69371680Y-69840273D01*
X69214637Y-69605241D01*
X69014759Y-69405363D01*
X68779727Y-69248320D01*
X68518574Y-69140147D01*
X68241335Y-69085000D01*
X67958665Y-69085000D01*
X67681426Y-69140147D01*
X67420273Y-69248320D01*
X67185241Y-69405363D01*
X66985363Y-69605241D01*
X66828320Y-69840273D01*
X66720147Y-70101426D01*
X66665000Y-70378665D01*
X66665000Y-70661335D01*
X66720147Y-70938574D01*
X66828320Y-71199727D01*
X66985363Y-71434759D01*
X67185241Y-71634637D01*
X67417759Y-71790000D01*
X67185241Y-71945363D01*
X66985363Y-72145241D01*
X66828320Y-72380273D01*
X66720147Y-72641426D01*
X66665000Y-72918665D01*
X66665000Y-73201335D01*
X66720147Y-73478574D01*
X66828320Y-73739727D01*
X66985363Y-73974759D01*
X67183961Y-74173357D01*
X67175518Y-74174188D01*
X67055820Y-74210498D01*
X66945506Y-74269463D01*
X66848815Y-74348815D01*
X66769463Y-74445506D01*
X66710498Y-74555820D01*
X66674188Y-74675518D01*
X66661928Y-74800000D01*
X61671317Y-74800000D01*
X61594637Y-74685241D01*
X61394759Y-74485363D01*
X61162241Y-74330000D01*
X61394759Y-74174637D01*
X61594637Y-73974759D01*
X61751680Y-73739727D01*
X61859853Y-73478574D01*
X61915000Y-73201335D01*
X61915000Y-72918665D01*
X61859853Y-72641426D01*
X61751680Y-72380273D01*
X61594637Y-72145241D01*
X61394759Y-71945363D01*
X61162241Y-71790000D01*
X61394759Y-71634637D01*
X61594637Y-71434759D01*
X61751680Y-71199727D01*
X61859853Y-70938574D01*
X61915000Y-70661335D01*
X61915000Y-70378665D01*
X61859853Y-70101426D01*
X61751680Y-69840273D01*
X61594637Y-69605241D01*
X61394759Y-69405363D01*
X61162241Y-69250000D01*
X61394759Y-69094637D01*
X61594637Y-68894759D01*
X61751680Y-68659727D01*
X61859853Y-68398574D01*
X61884131Y-68276521D01*
X67039681Y-68276521D01*
X67053632Y-68322536D01*
X67140563Y-68520091D01*
X67264365Y-68696890D01*
X67420280Y-68846139D01*
X67602316Y-68962103D01*
X67803478Y-69040325D01*
X67973000Y-68998407D01*
X67973000Y-68107000D01*
X68227000Y-68107000D01*
X68227000Y-68998407D01*
X68396522Y-69040325D01*
X68597684Y-68962103D01*
X68779720Y-68846139D01*
X68935635Y-68696890D01*
X69059437Y-68520091D01*
X69146368Y-68322536D01*
X69160319Y-68276521D01*
X69117858Y-68107000D01*
X68227000Y-68107000D01*
X67973000Y-68107000D01*
X67082142Y-68107000D01*
X67039681Y-68276521D01*
X61884131Y-68276521D01*
X61915000Y-68121335D01*
X61915000Y-67858665D01*
X70565000Y-67858665D01*
X70565000Y-68141335D01*
X70620147Y-68418574D01*
X70728320Y-68679727D01*
X70885363Y-68914759D01*
X71085241Y-69114637D01*
X71320273Y-69271680D01*
X71581426Y-69379853D01*
X71858665Y-69435000D01*
X72141335Y-69435000D01*
X72418574Y-69379853D01*
X72679727Y-69271680D01*
X72914759Y-69114637D01*
X73114637Y-68914759D01*
X73271680Y-68679727D01*
X73379853Y-68418574D01*
X73435000Y-68141335D01*
X73435000Y-67858665D01*
X78185000Y-67858665D01*
X78185000Y-68141335D01*
X78240147Y-68418574D01*
X78348320Y-68679727D01*
X78505363Y-68914759D01*
X78705241Y-69114637D01*
X78940273Y-69271680D01*
X79201426Y-69379853D01*
X79478665Y-69435000D01*
X79761335Y-69435000D01*
X80038574Y-69379853D01*
X80299727Y-69271680D01*
X80534759Y-69114637D01*
X80593047Y-69056349D01*
X110723256Y-69056349D01*
X110837971Y-69227270D01*
X111070611Y-69334765D01*
X111319752Y-69394809D01*
X111575820Y-69405094D01*
X111828975Y-69365225D01*
X112069487Y-69276735D01*
X112162029Y-69227270D01*
X112276744Y-69056349D01*
X112179060Y-68958665D01*
X117865000Y-68958665D01*
X117865000Y-69241335D01*
X117920147Y-69518574D01*
X118028320Y-69779727D01*
X118185363Y-70014759D01*
X118385241Y-70214637D01*
X118620273Y-70371680D01*
X118881426Y-70479853D01*
X119158665Y-70535000D01*
X119441335Y-70535000D01*
X119718574Y-70479853D01*
X119979727Y-70371680D01*
X120214759Y-70214637D01*
X120414637Y-70014759D01*
X120571680Y-69779727D01*
X120646125Y-69600000D01*
X125861928Y-69600000D01*
X125861928Y-72200000D01*
X125874188Y-72324482D01*
X125910498Y-72444180D01*
X125969463Y-72554494D01*
X126048815Y-72651185D01*
X126145506Y-72730537D01*
X126255820Y-72789502D01*
X126375518Y-72825812D01*
X126500000Y-72838072D01*
X129100000Y-72838072D01*
X129224482Y-72825812D01*
X129344180Y-72789502D01*
X129454494Y-72730537D01*
X129551185Y-72651185D01*
X129630537Y-72554494D01*
X129689502Y-72444180D01*
X129725812Y-72324482D01*
X129738072Y-72200000D01*
X129738072Y-69600000D01*
X129725812Y-69475518D01*
X129689502Y-69355820D01*
X129630537Y-69245506D01*
X129551185Y-69148815D01*
X129454494Y-69069463D01*
X129344180Y-69010498D01*
X129224482Y-68974188D01*
X129100000Y-68961928D01*
X126500000Y-68961928D01*
X126375518Y-68974188D01*
X126255820Y-69010498D01*
X126145506Y-69069463D01*
X126048815Y-69148815D01*
X125969463Y-69245506D01*
X125910498Y-69355820D01*
X125874188Y-69475518D01*
X125861928Y-69600000D01*
X120646125Y-69600000D01*
X120679853Y-69518574D01*
X120735000Y-69241335D01*
X120735000Y-68958665D01*
X120679853Y-68681426D01*
X120571680Y-68420273D01*
X120414637Y-68185241D01*
X120214759Y-67985363D01*
X119979727Y-67828320D01*
X119718574Y-67720147D01*
X119441335Y-67665000D01*
X119158665Y-67665000D01*
X118881426Y-67720147D01*
X118620273Y-67828320D01*
X118385241Y-67985363D01*
X118185363Y-68185241D01*
X118028320Y-68420273D01*
X117920147Y-68681426D01*
X117865000Y-68958665D01*
X112179060Y-68958665D01*
X111500000Y-68279605D01*
X110723256Y-69056349D01*
X80593047Y-69056349D01*
X80734637Y-68914759D01*
X80891680Y-68679727D01*
X80999853Y-68418574D01*
X81055000Y-68141335D01*
X81055000Y-67956349D01*
X87023256Y-67956349D01*
X87137971Y-68127270D01*
X87370611Y-68234765D01*
X87619752Y-68294809D01*
X87875820Y-68305094D01*
X88128975Y-68265225D01*
X88369487Y-68176735D01*
X88462029Y-68127270D01*
X88576744Y-67956349D01*
X87800000Y-67179605D01*
X87023256Y-67956349D01*
X81055000Y-67956349D01*
X81055000Y-67858665D01*
X80999853Y-67581426D01*
X80891680Y-67320273D01*
X80734637Y-67085241D01*
X80725216Y-67075820D01*
X86494906Y-67075820D01*
X86534775Y-67328975D01*
X86623265Y-67569487D01*
X86672730Y-67662029D01*
X86843651Y-67776744D01*
X87620395Y-67000000D01*
X87979605Y-67000000D01*
X88756349Y-67776744D01*
X88927270Y-67662029D01*
X89034765Y-67429389D01*
X89094809Y-67180248D01*
X89105094Y-66924180D01*
X89088572Y-66819268D01*
X97965000Y-66819268D01*
X97965000Y-67180732D01*
X98035518Y-67535250D01*
X98173844Y-67869199D01*
X98374662Y-68169744D01*
X98630256Y-68425338D01*
X98930801Y-68626156D01*
X99264750Y-68764482D01*
X99619268Y-68835000D01*
X99980732Y-68835000D01*
X100335250Y-68764482D01*
X100669199Y-68626156D01*
X100969744Y-68425338D01*
X101219262Y-68175820D01*
X110194906Y-68175820D01*
X110234775Y-68428975D01*
X110323265Y-68669487D01*
X110372730Y-68762029D01*
X110543651Y-68876744D01*
X111320395Y-68100000D01*
X111679605Y-68100000D01*
X112456349Y-68876744D01*
X112627270Y-68762029D01*
X112734765Y-68529389D01*
X112794809Y-68280248D01*
X112805094Y-68024180D01*
X112765225Y-67771025D01*
X112676735Y-67530513D01*
X112627270Y-67437971D01*
X112456349Y-67323256D01*
X111679605Y-68100000D01*
X111320395Y-68100000D01*
X110543651Y-67323256D01*
X110372730Y-67437971D01*
X110265235Y-67670611D01*
X110205191Y-67919752D01*
X110194906Y-68175820D01*
X101219262Y-68175820D01*
X101225338Y-68169744D01*
X101426156Y-67869199D01*
X101564482Y-67535250D01*
X101635000Y-67180732D01*
X101635000Y-67143651D01*
X110723256Y-67143651D01*
X111500000Y-67920395D01*
X112276744Y-67143651D01*
X112162029Y-66972730D01*
X111929389Y-66865235D01*
X111680248Y-66805191D01*
X111424180Y-66794906D01*
X111171025Y-66834775D01*
X110930513Y-66923265D01*
X110837971Y-66972730D01*
X110723256Y-67143651D01*
X101635000Y-67143651D01*
X101635000Y-66819268D01*
X101564482Y-66464750D01*
X101426156Y-66130801D01*
X101225338Y-65830256D01*
X100969744Y-65574662D01*
X100669199Y-65373844D01*
X100335250Y-65235518D01*
X99980732Y-65165000D01*
X99619268Y-65165000D01*
X99264750Y-65235518D01*
X98930801Y-65373844D01*
X98630256Y-65574662D01*
X98374662Y-65830256D01*
X98173844Y-66130801D01*
X98035518Y-66464750D01*
X97965000Y-66819268D01*
X89088572Y-66819268D01*
X89065225Y-66671025D01*
X88976735Y-66430513D01*
X88927270Y-66337971D01*
X88756349Y-66223256D01*
X87979605Y-67000000D01*
X87620395Y-67000000D01*
X86843651Y-66223256D01*
X86672730Y-66337971D01*
X86565235Y-66570611D01*
X86505191Y-66819752D01*
X86494906Y-67075820D01*
X80725216Y-67075820D01*
X80534759Y-66885363D01*
X80299727Y-66728320D01*
X80038574Y-66620147D01*
X79761335Y-66565000D01*
X79478665Y-66565000D01*
X79201426Y-66620147D01*
X78940273Y-66728320D01*
X78705241Y-66885363D01*
X78505363Y-67085241D01*
X78348320Y-67320273D01*
X78240147Y-67581426D01*
X78185000Y-67858665D01*
X73435000Y-67858665D01*
X73379853Y-67581426D01*
X73271680Y-67320273D01*
X73114637Y-67085241D01*
X72914759Y-66885363D01*
X72679727Y-66728320D01*
X72418574Y-66620147D01*
X72141335Y-66565000D01*
X71858665Y-66565000D01*
X71581426Y-66620147D01*
X71320273Y-66728320D01*
X71085241Y-66885363D01*
X70885363Y-67085241D01*
X70728320Y-67320273D01*
X70620147Y-67581426D01*
X70565000Y-67858665D01*
X61915000Y-67858665D01*
X61915000Y-67838665D01*
X61884132Y-67683479D01*
X67039681Y-67683479D01*
X67082142Y-67853000D01*
X67973000Y-67853000D01*
X67973000Y-66961593D01*
X68227000Y-66961593D01*
X68227000Y-67853000D01*
X69117858Y-67853000D01*
X69160319Y-67683479D01*
X69146368Y-67637464D01*
X69059437Y-67439909D01*
X68935635Y-67263110D01*
X68779720Y-67113861D01*
X68597684Y-66997897D01*
X68396522Y-66919675D01*
X68227000Y-66961593D01*
X67973000Y-66961593D01*
X67803478Y-66919675D01*
X67602316Y-66997897D01*
X67420280Y-67113861D01*
X67264365Y-67263110D01*
X67140563Y-67439909D01*
X67053632Y-67637464D01*
X67039681Y-67683479D01*
X61884132Y-67683479D01*
X61859853Y-67561426D01*
X61751680Y-67300273D01*
X61594637Y-67065241D01*
X61394759Y-66865363D01*
X61159727Y-66708320D01*
X60898574Y-66600147D01*
X60621335Y-66545000D01*
X60338665Y-66545000D01*
X60061426Y-66600147D01*
X59800273Y-66708320D01*
X59565241Y-66865363D01*
X59365363Y-67065241D01*
X59208320Y-67300273D01*
X59100147Y-67561426D01*
X59045000Y-67838665D01*
X54438072Y-67838665D01*
X54438072Y-67400000D01*
X54425812Y-67275518D01*
X54389502Y-67155820D01*
X54330537Y-67045506D01*
X54251185Y-66948815D01*
X54154494Y-66869463D01*
X54044180Y-66810498D01*
X53924482Y-66774188D01*
X53800000Y-66761928D01*
X51200000Y-66761928D01*
X51075518Y-66774188D01*
X50955820Y-66810498D01*
X50845506Y-66869463D01*
X50748815Y-66948815D01*
X50669463Y-67045506D01*
X50610498Y-67155820D01*
X50574188Y-67275518D01*
X50561928Y-67400000D01*
X45685000Y-67400000D01*
X45685000Y-66043651D01*
X87023256Y-66043651D01*
X87800000Y-66820395D01*
X88576744Y-66043651D01*
X88462029Y-65872730D01*
X88229389Y-65765235D01*
X87980248Y-65705191D01*
X87724180Y-65694906D01*
X87471025Y-65734775D01*
X87230513Y-65823265D01*
X87137971Y-65872730D01*
X87023256Y-66043651D01*
X45685000Y-66043651D01*
X45685000Y-64870424D01*
X51509181Y-64870424D01*
X51660099Y-65072090D01*
X51943918Y-65209582D01*
X52249109Y-65289063D01*
X52563941Y-65307476D01*
X52876315Y-65264115D01*
X53174228Y-65160645D01*
X53339901Y-65072090D01*
X53490819Y-64870424D01*
X52500000Y-63879605D01*
X51509181Y-64870424D01*
X45685000Y-64870424D01*
X45685000Y-63763941D01*
X50892524Y-63763941D01*
X50935885Y-64076315D01*
X51039355Y-64374228D01*
X51127910Y-64539901D01*
X51329576Y-64690819D01*
X52320395Y-63700000D01*
X52679605Y-63700000D01*
X53670424Y-64690819D01*
X53872090Y-64539901D01*
X54009582Y-64256082D01*
X54089063Y-63950891D01*
X54107476Y-63636059D01*
X54064115Y-63323685D01*
X53960645Y-63025772D01*
X53872090Y-62860099D01*
X53870174Y-62858665D01*
X56905000Y-62858665D01*
X56905000Y-63141335D01*
X56960147Y-63418574D01*
X57068320Y-63679727D01*
X57225363Y-63914759D01*
X57425241Y-64114637D01*
X57660273Y-64271680D01*
X57921426Y-64379853D01*
X58198665Y-64435000D01*
X58481335Y-64435000D01*
X58758574Y-64379853D01*
X59019727Y-64271680D01*
X59254759Y-64114637D01*
X59454637Y-63914759D01*
X59611680Y-63679727D01*
X59719853Y-63418574D01*
X59775000Y-63141335D01*
X59775000Y-62858665D01*
X67065000Y-62858665D01*
X67065000Y-63141335D01*
X67120147Y-63418574D01*
X67228320Y-63679727D01*
X67385363Y-63914759D01*
X67585241Y-64114637D01*
X67820273Y-64271680D01*
X68081426Y-64379853D01*
X68358665Y-64435000D01*
X68641335Y-64435000D01*
X68918574Y-64379853D01*
X69179727Y-64271680D01*
X69414759Y-64114637D01*
X69614637Y-63914759D01*
X69771680Y-63679727D01*
X69879853Y-63418574D01*
X69935000Y-63141335D01*
X69935000Y-62858665D01*
X70545000Y-62858665D01*
X70545000Y-63141335D01*
X70600147Y-63418574D01*
X70708320Y-63679727D01*
X70865363Y-63914759D01*
X71065241Y-64114637D01*
X71300273Y-64271680D01*
X71561426Y-64379853D01*
X71838665Y-64435000D01*
X72121335Y-64435000D01*
X72398574Y-64379853D01*
X72659727Y-64271680D01*
X72894759Y-64114637D01*
X73094637Y-63914759D01*
X73162407Y-63813333D01*
X78966273Y-63813333D01*
X79056762Y-63963769D01*
X79255222Y-64051230D01*
X79466931Y-64098294D01*
X79683755Y-64103151D01*
X79897360Y-64065614D01*
X80099537Y-63987127D01*
X80143238Y-63963769D01*
X80233727Y-63813333D01*
X79600000Y-63179605D01*
X78966273Y-63813333D01*
X73162407Y-63813333D01*
X73251680Y-63679727D01*
X73359853Y-63418574D01*
X73415000Y-63141335D01*
X73415000Y-63083755D01*
X78496849Y-63083755D01*
X78534386Y-63297360D01*
X78612873Y-63499537D01*
X78636231Y-63543238D01*
X78786667Y-63633727D01*
X79420395Y-63000000D01*
X79779605Y-63000000D01*
X80413333Y-63633727D01*
X80563769Y-63543238D01*
X80651230Y-63344778D01*
X80698294Y-63133069D01*
X80703151Y-62916245D01*
X80665614Y-62702640D01*
X80587127Y-62500463D01*
X80563769Y-62456762D01*
X80413333Y-62366273D01*
X79779605Y-63000000D01*
X79420395Y-63000000D01*
X78786667Y-62366273D01*
X78636231Y-62456762D01*
X78548770Y-62655222D01*
X78501706Y-62866931D01*
X78496849Y-63083755D01*
X73415000Y-63083755D01*
X73415000Y-62858665D01*
X73359853Y-62581426D01*
X73251680Y-62320273D01*
X73162408Y-62186667D01*
X78966273Y-62186667D01*
X79600000Y-62820395D01*
X80233727Y-62186667D01*
X80143238Y-62036231D01*
X79944778Y-61948770D01*
X79733069Y-61901706D01*
X79516245Y-61896849D01*
X79302640Y-61934386D01*
X79100463Y-62012873D01*
X79056762Y-62036231D01*
X78966273Y-62186667D01*
X73162408Y-62186667D01*
X73094637Y-62085241D01*
X72894759Y-61885363D01*
X72659727Y-61728320D01*
X72398574Y-61620147D01*
X72121335Y-61565000D01*
X71838665Y-61565000D01*
X71561426Y-61620147D01*
X71300273Y-61728320D01*
X71065241Y-61885363D01*
X70865363Y-62085241D01*
X70708320Y-62320273D01*
X70600147Y-62581426D01*
X70545000Y-62858665D01*
X69935000Y-62858665D01*
X69879853Y-62581426D01*
X69771680Y-62320273D01*
X69614637Y-62085241D01*
X69414759Y-61885363D01*
X69179727Y-61728320D01*
X68918574Y-61620147D01*
X68641335Y-61565000D01*
X68358665Y-61565000D01*
X68081426Y-61620147D01*
X67820273Y-61728320D01*
X67585241Y-61885363D01*
X67385363Y-62085241D01*
X67228320Y-62320273D01*
X67120147Y-62581426D01*
X67065000Y-62858665D01*
X59775000Y-62858665D01*
X59719853Y-62581426D01*
X59611680Y-62320273D01*
X59454637Y-62085241D01*
X59254759Y-61885363D01*
X59019727Y-61728320D01*
X58758574Y-61620147D01*
X58481335Y-61565000D01*
X58198665Y-61565000D01*
X57921426Y-61620147D01*
X57660273Y-61728320D01*
X57425241Y-61885363D01*
X57225363Y-62085241D01*
X57068320Y-62320273D01*
X56960147Y-62581426D01*
X56905000Y-62858665D01*
X53870174Y-62858665D01*
X53670424Y-62709181D01*
X52679605Y-63700000D01*
X52320395Y-63700000D01*
X51329576Y-62709181D01*
X51127910Y-62860099D01*
X50990418Y-63143918D01*
X50910937Y-63449109D01*
X50892524Y-63763941D01*
X45685000Y-63763941D01*
X45685000Y-61429117D01*
X45865000Y-61429117D01*
X45865000Y-61770883D01*
X45931675Y-62106081D01*
X46062463Y-62421831D01*
X46252337Y-62705998D01*
X46494002Y-62947663D01*
X46778169Y-63137537D01*
X47093919Y-63268325D01*
X47429117Y-63335000D01*
X47770883Y-63335000D01*
X48106081Y-63268325D01*
X48421831Y-63137537D01*
X48705998Y-62947663D01*
X48947663Y-62705998D01*
X49065544Y-62529576D01*
X51509181Y-62529576D01*
X52500000Y-63520395D01*
X53490819Y-62529576D01*
X53339901Y-62327910D01*
X53056082Y-62190418D01*
X52750891Y-62110937D01*
X52436059Y-62092524D01*
X52123685Y-62135885D01*
X51825772Y-62239355D01*
X51660099Y-62327910D01*
X51509181Y-62529576D01*
X49065544Y-62529576D01*
X49137537Y-62421831D01*
X49268325Y-62106081D01*
X49335000Y-61770883D01*
X49335000Y-61429117D01*
X49268325Y-61093919D01*
X49229423Y-61000000D01*
X86161928Y-61000000D01*
X86161928Y-63000000D01*
X86174188Y-63124482D01*
X86210498Y-63244180D01*
X86269463Y-63354494D01*
X86348815Y-63451185D01*
X86445506Y-63530537D01*
X86555820Y-63589502D01*
X86675518Y-63625812D01*
X86800000Y-63638072D01*
X88800000Y-63638072D01*
X88924482Y-63625812D01*
X89044180Y-63589502D01*
X89154494Y-63530537D01*
X89251185Y-63451185D01*
X89330537Y-63354494D01*
X89389502Y-63244180D01*
X89425812Y-63124482D01*
X89438072Y-63000000D01*
X89438072Y-61819268D01*
X97965000Y-61819268D01*
X97965000Y-62180732D01*
X98035518Y-62535250D01*
X98173844Y-62869199D01*
X98374662Y-63169744D01*
X98630256Y-63425338D01*
X98930801Y-63626156D01*
X99264750Y-63764482D01*
X99619268Y-63835000D01*
X99980732Y-63835000D01*
X100335250Y-63764482D01*
X100669199Y-63626156D01*
X100969744Y-63425338D01*
X101225338Y-63169744D01*
X101426156Y-62869199D01*
X101564482Y-62535250D01*
X101635000Y-62180732D01*
X101635000Y-62100000D01*
X109861928Y-62100000D01*
X109861928Y-64100000D01*
X109874188Y-64224482D01*
X109910498Y-64344180D01*
X109969463Y-64454494D01*
X110048815Y-64551185D01*
X110145506Y-64630537D01*
X110255820Y-64689502D01*
X110375518Y-64725812D01*
X110500000Y-64738072D01*
X112500000Y-64738072D01*
X112624482Y-64725812D01*
X112744180Y-64689502D01*
X112854494Y-64630537D01*
X112951185Y-64551185D01*
X113030537Y-64454494D01*
X113089502Y-64344180D01*
X113125812Y-64224482D01*
X113138072Y-64100000D01*
X113138072Y-63860000D01*
X124609388Y-63860000D01*
X124631785Y-64087400D01*
X124698115Y-64306060D01*
X124799105Y-64495000D01*
X124698115Y-64683940D01*
X124631785Y-64902600D01*
X124609388Y-65130000D01*
X124631785Y-65357400D01*
X124695093Y-65566098D01*
X124660498Y-65630820D01*
X124624188Y-65750518D01*
X124611928Y-65875000D01*
X124611928Y-66925000D01*
X124624188Y-67049482D01*
X124660498Y-67169180D01*
X124719463Y-67279494D01*
X124798815Y-67376185D01*
X124895506Y-67455537D01*
X125005820Y-67514502D01*
X125125518Y-67550812D01*
X125250000Y-67563072D01*
X126750000Y-67563072D01*
X126874482Y-67550812D01*
X126994180Y-67514502D01*
X127104494Y-67455537D01*
X127201185Y-67376185D01*
X127280537Y-67279494D01*
X127339502Y-67169180D01*
X127375812Y-67049482D01*
X127388072Y-66925000D01*
X127388072Y-65875000D01*
X127375812Y-65750518D01*
X127339502Y-65630820D01*
X127304907Y-65566098D01*
X127368215Y-65357400D01*
X127390612Y-65130000D01*
X127368215Y-64902600D01*
X127301885Y-64683940D01*
X127200895Y-64495000D01*
X127301885Y-64306060D01*
X127368215Y-64087400D01*
X127390612Y-63860000D01*
X127368215Y-63632600D01*
X127301885Y-63413940D01*
X127194171Y-63212421D01*
X127049212Y-63035788D01*
X126872579Y-62890829D01*
X126671060Y-62783115D01*
X126452400Y-62716785D01*
X126281979Y-62700000D01*
X125718021Y-62700000D01*
X125547600Y-62716785D01*
X125328940Y-62783115D01*
X125127421Y-62890829D01*
X124950788Y-63035788D01*
X124805829Y-63212421D01*
X124698115Y-63413940D01*
X124631785Y-63632600D01*
X124609388Y-63860000D01*
X113138072Y-63860000D01*
X113138072Y-62100000D01*
X113125812Y-61975518D01*
X113089502Y-61855820D01*
X113030537Y-61745506D01*
X112951185Y-61648815D01*
X112854494Y-61569463D01*
X112744180Y-61510498D01*
X112624482Y-61474188D01*
X112500000Y-61461928D01*
X110500000Y-61461928D01*
X110375518Y-61474188D01*
X110255820Y-61510498D01*
X110145506Y-61569463D01*
X110048815Y-61648815D01*
X109969463Y-61745506D01*
X109910498Y-61855820D01*
X109874188Y-61975518D01*
X109861928Y-62100000D01*
X101635000Y-62100000D01*
X101635000Y-61819268D01*
X101564482Y-61464750D01*
X101512256Y-61338665D01*
X117865000Y-61338665D01*
X117865000Y-61621335D01*
X117920147Y-61898574D01*
X118028320Y-62159727D01*
X118185363Y-62394759D01*
X118385241Y-62594637D01*
X118620273Y-62751680D01*
X118881426Y-62859853D01*
X119158665Y-62915000D01*
X119441335Y-62915000D01*
X119718574Y-62859853D01*
X119979727Y-62751680D01*
X120214759Y-62594637D01*
X120414637Y-62394759D01*
X120571680Y-62159727D01*
X120679853Y-61898574D01*
X120735000Y-61621335D01*
X120735000Y-61429117D01*
X129265000Y-61429117D01*
X129265000Y-61770883D01*
X129331675Y-62106081D01*
X129462463Y-62421831D01*
X129652337Y-62705998D01*
X129894002Y-62947663D01*
X130178169Y-63137537D01*
X130493919Y-63268325D01*
X130829117Y-63335000D01*
X131170883Y-63335000D01*
X131506081Y-63268325D01*
X131821831Y-63137537D01*
X132105998Y-62947663D01*
X132347663Y-62705998D01*
X132537537Y-62421831D01*
X132668325Y-62106081D01*
X132735000Y-61770883D01*
X132735000Y-61429117D01*
X132668325Y-61093919D01*
X132537537Y-60778169D01*
X132347663Y-60494002D01*
X132105998Y-60252337D01*
X131821831Y-60062463D01*
X131506081Y-59931675D01*
X131170883Y-59865000D01*
X130829117Y-59865000D01*
X130493919Y-59931675D01*
X130178169Y-60062463D01*
X129894002Y-60252337D01*
X129652337Y-60494002D01*
X129462463Y-60778169D01*
X129331675Y-61093919D01*
X129265000Y-61429117D01*
X120735000Y-61429117D01*
X120735000Y-61338665D01*
X120679853Y-61061426D01*
X120571680Y-60800273D01*
X120414637Y-60565241D01*
X120214759Y-60365363D01*
X119979727Y-60208320D01*
X119718574Y-60100147D01*
X119441335Y-60045000D01*
X119158665Y-60045000D01*
X118881426Y-60100147D01*
X118620273Y-60208320D01*
X118385241Y-60365363D01*
X118185363Y-60565241D01*
X118028320Y-60800273D01*
X117920147Y-61061426D01*
X117865000Y-61338665D01*
X101512256Y-61338665D01*
X101426156Y-61130801D01*
X101225338Y-60830256D01*
X100969744Y-60574662D01*
X100669199Y-60373844D01*
X100335250Y-60235518D01*
X99980732Y-60165000D01*
X99619268Y-60165000D01*
X99264750Y-60235518D01*
X98930801Y-60373844D01*
X98630256Y-60574662D01*
X98374662Y-60830256D01*
X98173844Y-61130801D01*
X98035518Y-61464750D01*
X97965000Y-61819268D01*
X89438072Y-61819268D01*
X89438072Y-61000000D01*
X89425812Y-60875518D01*
X89389502Y-60755820D01*
X89330537Y-60645506D01*
X89251185Y-60548815D01*
X89154494Y-60469463D01*
X89044180Y-60410498D01*
X88924482Y-60374188D01*
X88800000Y-60361928D01*
X86800000Y-60361928D01*
X86675518Y-60374188D01*
X86555820Y-60410498D01*
X86445506Y-60469463D01*
X86348815Y-60548815D01*
X86269463Y-60645506D01*
X86210498Y-60755820D01*
X86174188Y-60875518D01*
X86161928Y-61000000D01*
X49229423Y-61000000D01*
X49137537Y-60778169D01*
X48947663Y-60494002D01*
X48705998Y-60252337D01*
X48421831Y-60062463D01*
X48106081Y-59931675D01*
X47770883Y-59865000D01*
X47429117Y-59865000D01*
X47093919Y-59931675D01*
X46778169Y-60062463D01*
X46494002Y-60252337D01*
X46252337Y-60494002D01*
X46062463Y-60778169D01*
X45931675Y-61093919D01*
X45865000Y-61429117D01*
X45685000Y-61429117D01*
X45685000Y-59685000D01*
X132915000Y-59685000D01*
X132915001Y-81315000D01*
G37*
%TD.AperFunction*%
%TD*%
M02*
